<?xml version="1.0" encoding="us-ascii" standalone="no"?><svg xmlns="http://www.w3.org/2000/svg" xmlns:xlink="http://www.w3.org/1999/xlink" contentStyleType="text/css" height="794.7917px" preserveAspectRatio="none" style="width:1415px;height:794px;background:#FFFFFF;" version="1.1" viewBox="0 0 1415 794" width="1415.625px" zoomAndPan="magnify"><defs><linearGradient id="g1xjcu1tpjlck30" x1="50%" x2="50%" y1="0%" y2="100%"><stop offset="0%" stop-color="#F18E3E"/><stop offset="100%" stop-color="#EC7211"/></linearGradient></defs><g><line style="stroke:#ABB6C2;stroke-width:0.5208333333333334;stroke-dasharray:5.0,5.0;" x1="92.7083" x2="92.7083" y1="98.2751" y2="697.7604"/><line style="stroke:#ABB6C2;stroke-width:0.5208333333333334;stroke-dasharray:5.0,5.0;" x1="304.6875" x2="304.6875" y1="98.2751" y2="697.7604"/><line style="stroke:#ABB6C2;stroke-width:0.5208333333333334;stroke-dasharray:5.0,5.0;" x1="489.0625" x2="489.0625" y1="98.2751" y2="697.7604"/><line style="stroke:#ABB6C2;stroke-width:0.5208333333333334;stroke-dasharray:5.0,5.0;" x1="670.3125" x2="670.3125" y1="98.2751" y2="697.7604"/><line style="stroke:#ABB6C2;stroke-width:0.5208333333333334;stroke-dasharray:5.0,5.0;" x1="838.0208" x2="838.0208" y1="98.2751" y2="697.7604"/><line style="stroke:#ABB6C2;stroke-width:0.5208333333333334;stroke-dasharray:5.0,5.0;" x1="1002.6042" x2="1002.6042" y1="98.2751" y2="697.7604"/><line style="stroke:#ABB6C2;stroke-width:0.5208333333333334;stroke-dasharray:5.0,5.0;" x1="1177.6042" x2="1177.6042" y1="98.2751" y2="697.7604"/><line style="stroke:#ABB6C2;stroke-width:0.5208333333333334;stroke-dasharray:5.0,5.0;" x1="1379.6875" x2="1379.6875" y1="98.2751" y2="697.7604"/><rect fill="url(#g1xjcu1tpjlck30)" height="59.0502" rx="4.1667" ry="4.1667" style="stroke:#EC7211;stroke-width:0.5208333333333334;" width="71.875" x="57.2917" y="38.1832"/><text fill="#FFFFFF" font-family="Verdana" font-size="12.5" lengthAdjust="spacing" textLength="46.875" x="69.7917" y="64.0458">Booking</text><text fill="#FFFFFF" font-family="Verdana" font-size="12.5" lengthAdjust="spacing" textLength="41.6667" x="72.3958" y="81.0709">tracker</text><rect fill="url(#g1xjcu1tpjlck30)" height="59.0502" rx="4.1667" ry="4.1667" style="stroke:#EC7211;stroke-width:0.5208333333333334;" width="71.875" x="57.2917" y="696.7187"/><text fill="#FFFFFF" font-family="Verdana" font-size="12.5" lengthAdjust="spacing" textLength="46.875" x="69.7917" y="722.5813">Booking</text><text fill="#FFFFFF" font-family="Verdana" font-size="12.5" lengthAdjust="spacing" textLength="41.6667" x="72.3958" y="739.6064">tracker</text><rect fill="url(#g1xjcu1tpjlck30)" height="59.0502" rx="4.1667" ry="4.1667" style="stroke:#EC7211;stroke-width:0.5208333333333334;" width="83.3333" x="263.0208" y="38.1832"/><text fill="#FFFFFF" font-family="Verdana" font-size="12.5" lengthAdjust="spacing" textLength="42.7083" x="283.3333" y="64.0458">Agency</text><text fill="#FFFFFF" font-family="Verdana" font-size="12.5" lengthAdjust="spacing" textLength="58.3333" x="275.5208" y="81.0709">connector</text><rect fill="url(#g1xjcu1tpjlck30)" height="59.0502" rx="4.1667" ry="4.1667" style="stroke:#EC7211;stroke-width:0.5208333333333334;" width="83.3333" x="263.0208" y="696.7187"/><text fill="#FFFFFF" font-family="Verdana" font-size="12.5" lengthAdjust="spacing" textLength="42.7083" x="283.3333" y="722.5813">Agency</text><text fill="#FFFFFF" font-family="Verdana" font-size="12.5" lengthAdjust="spacing" textLength="58.3333" x="275.5208" y="739.6064">connector</text><rect fill="url(#g1xjcu1tpjlck30)" height="59.0502" rx="4.1667" ry="4.1667" style="stroke:#EC7211;stroke-width:0.5208333333333334;" width="97.9167" x="440.1042" y="38.1832"/><text fill="#FFFFFF" font-family="Verdana" font-size="12.5" lengthAdjust="spacing" textLength="72.9167" x="452.6042" y="64.0458">Agency/GDS</text><text fill="#FFFFFF" font-family="Verdana" font-size="12.5" lengthAdjust="spacing" textLength="19.7917" x="479.1667" y="81.0709">API</text><rect fill="url(#g1xjcu1tpjlck30)" height="59.0502" rx="4.1667" ry="4.1667" style="stroke:#EC7211;stroke-width:0.5208333333333334;" width="97.9167" x="440.1042" y="696.7187"/><text fill="#FFFFFF" font-family="Verdana" font-size="12.5" lengthAdjust="spacing" textLength="72.9167" x="452.6042" y="722.5813">Agency/GDS</text><text fill="#FFFFFF" font-family="Verdana" font-size="12.5" lengthAdjust="spacing" textLength="19.7917" x="479.1667" y="739.6064">API</text><rect fill="url(#g1xjcu1tpjlck30)" height="59.0502" rx="4.1667" ry="4.1667" style="stroke:#EC7211;stroke-width:0.5208333333333334;" width="77.0833" x="631.7708" y="38.1832"/><text fill="#FFFFFF" font-family="Verdana" font-size="12.5" lengthAdjust="spacing" textLength="46.875" x="646.875" y="64.0458">Booking</text><text fill="#FFFFFF" font-family="Verdana" font-size="12.5" lengthAdjust="spacing" textLength="52.0833" x="644.2708" y="81.0709">interface</text><rect fill="url(#g1xjcu1tpjlck30)" height="59.0502" rx="4.1667" ry="4.1667" style="stroke:#EC7211;stroke-width:0.5208333333333334;" width="77.0833" x="631.7708" y="696.7187"/><text fill="#FFFFFF" font-family="Verdana" font-size="12.5" lengthAdjust="spacing" textLength="46.875" x="646.875" y="722.5813">Booking</text><text fill="#FFFFFF" font-family="Verdana" font-size="12.5" lengthAdjust="spacing" textLength="52.0833" x="644.2708" y="739.6064">interface</text><rect fill="url(#g1xjcu1tpjlck30)" height="59.0502" rx="4.1667" ry="4.1667" style="stroke:#EC7211;stroke-width:0.5208333333333334;" width="71.875" x="802.6042" y="38.1832"/><text fill="#FFFFFF" font-family="Verdana" font-size="12.5" lengthAdjust="spacing" textLength="46.875" x="815.1042" y="64.0458">Booking</text><text fill="#FFFFFF" font-family="Verdana" font-size="12.5" lengthAdjust="spacing" textLength="44.7917" x="816.1458" y="81.0709">storage</text><rect fill="url(#g1xjcu1tpjlck30)" height="59.0502" rx="4.1667" ry="4.1667" style="stroke:#EC7211;stroke-width:0.5208333333333334;" width="71.875" x="802.6042" y="696.7187"/><text fill="#FFFFFF" font-family="Verdana" font-size="12.5" lengthAdjust="spacing" textLength="46.875" x="815.1042" y="722.5813">Booking</text><text fill="#FFFFFF" font-family="Verdana" font-size="12.5" lengthAdjust="spacing" textLength="44.7917" x="816.1458" y="739.6064">storage</text><rect fill="url(#g1xjcu1tpjlck30)" height="42.0251" rx="4.1667" ry="4.1667" style="stroke:#EC7211;stroke-width:0.5208333333333334;" width="68.75" x="968.2292" y="55.2083"/><text fill="#FFFFFF" font-family="Verdana" font-size="12.5" lengthAdjust="spacing" textLength="43.75" x="980.7292" y="81.0709">Notifier</text><rect fill="url(#g1xjcu1tpjlck30)" height="42.0251" rx="4.1667" ry="4.1667" style="stroke:#EC7211;stroke-width:0.5208333333333334;" width="68.75" x="968.2292" y="696.7187"/><text fill="#FFFFFF" font-family="Verdana" font-size="12.5" lengthAdjust="spacing" textLength="43.75" x="980.7292" y="722.5813">Notifier</text><rect fill="url(#g1xjcu1tpjlck30)" height="59.0502" rx="4.1667" ry="4.1667" style="stroke:#EC7211;stroke-width:0.5208333333333334;" width="94.7917" x="1130.7292" y="38.1832"/><text fill="#FFFFFF" font-family="Verdana" font-size="12.5" lengthAdjust="spacing" textLength="69.7917" x="1143.2292" y="64.0458">Web/Mobile</text><text fill="#FFFFFF" font-family="Verdana" font-size="12.5" lengthAdjust="spacing" textLength="22.9167" x="1166.6667" y="81.0709">App</text><rect fill="url(#g1xjcu1tpjlck30)" height="59.0502" rx="4.1667" ry="4.1667" style="stroke:#EC7211;stroke-width:0.5208333333333334;" width="94.7917" x="1130.7292" y="696.7187"/><text fill="#FFFFFF" font-family="Verdana" font-size="12.5" lengthAdjust="spacing" textLength="69.7917" x="1143.2292" y="722.5813">Web/Mobile</text><text fill="#FFFFFF" font-family="Verdana" font-size="12.5" lengthAdjust="spacing" textLength="22.9167" x="1166.6667" y="739.6064">App</text><text fill="#4E5D6C" font-family="Verdana" font-size="12.5" lengthAdjust="spacing" textLength="28.125" x="1363.0208" y="89.4043">User</text><ellipse cx="1380.2083" cy="23.4375" fill="url(#g1xjcu1tpjlck30)" rx="16.6667" ry="16.6667" style="stroke:#EC7211;stroke-width:1.5625;"/><path d="M1380.2083,44.2708 C1384.375,44.2708 1387.5,44.2708 1391.6667,40.1042 C1400,40.1042 1408.3333,48.4375 1408.3333,56.7708 L1408.3333,60.9375 C1408.3333,65.1042 1404.1667,69.2708 1400,69.2708 L1360.4167,69.2708 C1356.25,69.2708 1352.0833,65.1042 1352.0833,60.9375 L1352.0833,56.7708 C1352.0833,48.4375 1360.4167,40.1042 1368.75,40.1042 C1372.9167,44.2708 1376.0417,44.2708 1380.2083,44.2708 " fill="url(#g1xjcu1tpjlck30)" style="stroke:#EC7211;stroke-width:1.5625;"/><text fill="#4E5D6C" font-family="Verdana" font-size="12.5" lengthAdjust="spacing" textLength="28.125" x="1363.0208" y="715.2896">User</text><ellipse cx="1380.2083" cy="742.3896" fill="url(#g1xjcu1tpjlck30)" rx="16.6667" ry="16.6667" style="stroke:#EC7211;stroke-width:1.5625;"/><path d="M1380.2083,763.223 C1384.375,763.223 1387.5,763.223 1391.6667,759.0563 C1400,759.0563 1408.3333,767.3896 1408.3333,775.723 L1408.3333,779.8896 C1408.3333,784.0563 1404.1667,788.223 1400,788.223 L1360.4167,788.223 C1356.25,788.223 1352.0833,784.0563 1352.0833,779.8896 L1352.0833,775.723 C1352.0833,767.3896 1360.4167,759.0563 1368.75,759.0563 C1372.9167,763.223 1376.0417,763.223 1380.2083,763.223 " fill="url(#g1xjcu1tpjlck30)" style="stroke:#EC7211;stroke-width:1.5625;"/><polygon fill="#EC7211" points="292.1875,155.242,302.6042,159.4087,292.1875,163.5754,296.3542,159.4087" style="stroke:#EC7211;stroke-width:1.0416666666666667;"/><line style="stroke:#EC7211;stroke-width:3.125;" x1="93.2292" x2="298.4375" y1="159.4087" y2="159.4087"/><text fill="#4E5D6C" font-family="Verdana" font-size="12.5" font-weight="bold" lengthAdjust="spacing" textLength="7.2917" x="105.7292" y="139.9419">1</text><text fill="#4E5D6C" font-family="Verdana" font-size="12.5" lengthAdjust="spacing" textLength="111.4583" x="127.6042" y="131.4294">Periodic tracking of</text><text fill="#4E5D6C" font-family="Verdana" font-size="12.5" lengthAdjust="spacing" textLength="154.1667" x="127.6042" y="148.4545">monitored/active bookings</text><polygon fill="#EC7211" points="476.5625,197.2671,486.9792,201.4338,476.5625,205.6005,480.7292,201.4338" style="stroke:#EC7211;stroke-width:1.0416666666666667;"/><line style="stroke:#EC7211;stroke-width:3.125;" x1="304.6875" x2="482.8125" y1="201.4338" y2="201.4338"/><text fill="#4E5D6C" font-family="Verdana" font-size="12.5" font-weight="bold" lengthAdjust="spacing" textLength="7.2917" x="317.1875" y="190.4796">2</text><text fill="#4E5D6C" font-family="Verdana" font-size="12.5" lengthAdjust="spacing" textLength="97.9167" x="339.0625" y="190.4796">API read request</text><polygon fill="#EC7211" points="316.1458,239.2923,305.7292,243.4589,316.1458,247.6256,311.9792,243.4589" style="stroke:#EC7211;stroke-width:1.0416666666666667;"/><line style="stroke:#EC7211;stroke-width:3.125;stroke-dasharray:2.0,2.0;" x1="309.8958" x2="488.0208" y1="243.4589" y2="243.4589"/><text fill="#4E5D6C" font-family="Verdana" font-size="12.5" font-weight="bold" lengthAdjust="spacing" textLength="7.2917" x="327.6042" y="232.5047">3</text><text fill="#4E5D6C" font-family="Verdana" font-size="12.5" lengthAdjust="spacing" textLength="100" x="349.4792" y="232.5047">Booking(s) status</text><polygon fill="#EC7211" points="104.6875,281.3174,94.2708,285.484,104.6875,289.6507,100.5208,285.484" style="stroke:#EC7211;stroke-width:1.0416666666666667;"/><line style="stroke:#EC7211;stroke-width:3.125;stroke-dasharray:2.0,2.0;" x1="98.4375" x2="303.6458" y1="285.484" y2="285.484"/><text fill="#4E5D6C" font-family="Verdana" font-size="12.5" font-weight="bold" lengthAdjust="spacing" textLength="7.2917" x="116.1458" y="274.5299">4</text><text fill="#4E5D6C" font-family="Verdana" font-size="12.5" lengthAdjust="spacing" textLength="76.0417" x="138.0208" y="274.5299">Booking data</text><path d="M5.2083,303.1924 L5.2083,349.0257 A4.1667,4.1667 0 0 0 9.375,353.1924 L178.125,353.1924 A4.1667,4.1667 0 0 0 182.2917,349.0257 L182.2917,309.4424 L171.875,299.0257 L9.375,299.0257 A4.1667,4.1667 0 0 0 5.2083,303.1924 " fill="#0073BB" style="stroke:#005C96;stroke-width:1.0416666666666667;"/><path d="M171.875,299.0257 L171.875,307.359 A2.0833,2.0833 0 0 0 173.9583,309.4424 L182.2917,309.4424 L171.875,299.0257 " fill="#0073BB" style="stroke:#005C96;stroke-width:1.0416666666666667;"/><text fill="#FFFFFF" font-family="Verdana" font-size="12.5" lengthAdjust="spacing" textLength="144.7917" x="16.6667" y="322.805">Booking(s) change(s) are</text><text fill="#FFFFFF" font-family="Verdana" font-size="12.5" lengthAdjust="spacing" textLength="51.0417" x="16.6667" y="339.8301">detected</text><polygon fill="#EC7211" points="657.8125,388.6427,668.2292,392.8094,657.8125,396.9761,661.9792,392.8094" style="stroke:#EC7211;stroke-width:1.0416666666666667;"/><line style="stroke:#EC7211;stroke-width:3.125;" x1="93.2292" x2="664.0625" y1="392.8094" y2="392.8094"/><text fill="#4E5D6C" font-family="Verdana" font-size="12.5" font-weight="bold" lengthAdjust="spacing" textLength="7.2917" x="105.7292" y="381.8552">5</text><text fill="#4E5D6C" font-family="Verdana" font-size="12.5" lengthAdjust="spacing" textLength="147.9167" x="127.6042" y="381.8552">Update booking record(s)</text><polygon fill="#EC7211" points="826.0417,430.6679,836.4583,434.8345,826.0417,439.0012,830.2083,434.8345" style="stroke:#EC7211;stroke-width:1.0416666666666667;"/><line style="stroke:#EC7211;stroke-width:3.125;" x1="670.3125" x2="832.2917" y1="434.8345" y2="434.8345"/><text fill="#4E5D6C" font-family="Verdana" font-size="12.5" font-weight="bold" lengthAdjust="spacing" textLength="7.2917" x="682.8125" y="423.8803">6</text><text fill="#4E5D6C" font-family="Verdana" font-size="12.5" lengthAdjust="spacing" textLength="81.25" x="704.6875" y="423.8803">Store updates</text><polygon fill="#EC7211" points="681.7708,472.693,671.3542,476.8596,681.7708,481.0263,677.6042,476.8596" style="stroke:#EC7211;stroke-width:1.0416666666666667;"/><line style="stroke:#EC7211;stroke-width:3.125;stroke-dasharray:2.0,2.0;" x1="675.5208" x2="837.5" y1="476.8596" y2="476.8596"/><text fill="#4E5D6C" font-family="Verdana" font-size="12.5" font-weight="bold" lengthAdjust="spacing" textLength="7.2917" x="693.2292" y="465.9055">7</text><text fill="#4E5D6C" font-family="Verdana" font-size="12.5" lengthAdjust="spacing" textLength="96.875" x="715.1042" y="465.9055">Confirm updates</text><polygon fill="#EC7211" points="990.1042,514.7181,1000.5208,518.8848,990.1042,523.0514,994.2708,518.8848" style="stroke:#EC7211;stroke-width:1.0416666666666667;"/><line style="stroke:#EC7211;stroke-width:3.125;" x1="670.3125" x2="996.3542" y1="518.8848" y2="518.8848"/><text fill="#4E5D6C" font-family="Verdana" font-size="12.5" font-weight="bold" lengthAdjust="spacing" textLength="7.2917" x="682.8125" y="507.9306">8</text><text fill="#4E5D6C" font-family="Verdana" font-size="12.5" lengthAdjust="spacing" textLength="234.375" x="704.6875" y="507.9306">Trigger notifications with status changes</text><polygon fill="#EC7211" points="1165.625,556.7432,1176.0417,560.9099,1165.625,565.0765,1169.7917,560.9099" style="stroke:#EC7211;stroke-width:1.0416666666666667;"/><line style="stroke:#EC7211;stroke-width:3.125;" x1="1002.6042" x2="1171.875" y1="560.9099" y2="560.9099"/><text fill="#4E5D6C" font-family="Verdana" font-size="12.5" font-weight="bold" lengthAdjust="spacing" textLength="7.2917" x="1015.1042" y="549.9557">9</text><text fill="#4E5D6C" font-family="Verdana" font-size="12.5" lengthAdjust="spacing" textLength="66.6667" x="1036.9792" y="549.9557">Notification</text><polygon fill="#EC7211" points="1367.7083,632.8186,1378.125,636.9852,1367.7083,641.1519,1371.875,636.9852" style="stroke:#EC7211;stroke-width:1.0416666666666667;"/><line style="stroke:#EC7211;stroke-width:3.125;" x1="1178.125" x2="1373.9583" y1="636.9852" y2="636.9852"/><text fill="#4E5D6C" font-family="Verdana" font-size="12.5" font-weight="bold" lengthAdjust="spacing" textLength="14.5833" x="1190.625" y="609.0059">10</text><text fill="#4E5D6C" font-family="Verdana" font-size="12.5" lengthAdjust="spacing" textLength="137.5" x="1219.7917" y="591.9808">Notification rendered in</text><text fill="#4E5D6C" font-family="Verdana" font-size="12.5" lengthAdjust="spacing" textLength="88.5417" x="1219.7917" y="609.0059">- Web interface</text><text fill="#4E5D6C" font-family="Verdana" font-size="12.5" lengthAdjust="spacing" textLength="71.875" x="1219.7917" y="626.031">- Mobile app</text><polygon fill="#EC7211" points="1367.7083,674.8437,1378.125,679.0104,1367.7083,683.177,1371.875,679.0104" style="stroke:#EC7211;stroke-width:1.0416666666666667;"/><line style="stroke:#EC7211;stroke-width:3.125;" x1="1002.6042" x2="1373.9583" y1="679.0104" y2="679.0104"/><text fill="#4E5D6C" font-family="Verdana" font-size="12.5" font-weight="bold" lengthAdjust="spacing" textLength="14.5833" x="1015.1042" y="668.0562">11</text><text fill="#4E5D6C" font-family="Verdana" font-size="12.5" lengthAdjust="spacing" textLength="100" x="1044.2708" y="668.0562">Email notification</text><!--SRC=[TLHDRzim3BthLt2vR3i4mQu-34W_qEwGea1Mx18WO2p64MfBdYGtoxyVBLkfhTWv1DRZUqyaHUcBFr55W6UtD1PrGKAuTwLhj5Z17URlXJMDblUcD1RE9-Lf4CVS6-lyfMmDo9cA13RUwAOwa8KVGdnbdbUvgb5xM6nGbJjTcx8akm1qK36mxzQJr58vJtf8ZiWa_QXAJtP8ZqX2VthOxdHkjAQsW40lfDjVaOI-FM5qTU4pZPjSOGaRaWfJNnTYizRFLDOx_OIUpdW9WXCZ-w834l83UlP__5SRw_jy94Dxwf64ljPONdZfU8EsPnXpmXZO5n6VbsuvYWKbGjUXyx9Hbf-wcLJ_q24GptGGOXIvCuR7hTXfRtaOUxz31-vxRAnOSr7v9Jq73EZW72Oqgp0NwzTV0yLCDafp4KVCQPJF5PrHkK4leoPsSgHuCLuTLL-jxXSYRTbgOmwg94wvhhkKwrg4EmcBDzUh6_uG8kaOB7_UT2I3LxBAI9L3O34Tp76dAwCLXqcks5fzKCpSYTJXqpK3xY9OGib_VnjoNbZoZTNGz-AR-mxEes-cNDWcoJUBkZ3mWZj2O3wuZdGIW7-3BV9J-wIrNtnjGr2Ivrr82jAoxInDjURcF3DugtddQ-rSLMwiP6DnmnqQz8URGNkB29fWuc8lxWq_MRQwmfDMyVGp-6rLKN227PAZLqRpbL7-rBUoBzU9g0a7KjSPl0maWf4sq0x6EC9LQSdFfGIbTte9F69mpQK5kdaBOpRSedDwR5_SKNBYFm00]--></g></svg>