<?xml version="1.0" encoding="us-ascii" standalone="no"?><svg xmlns="http://www.w3.org/2000/svg" xmlns:xlink="http://www.w3.org/1999/xlink" contentStyleType="text/css" height="794.7917px" preserveAspectRatio="none" style="width:1410px;height:794px;background:#FFFFFF;" version="1.1" viewBox="0 0 1410 794" width="1410.4167px" zoomAndPan="magnify"><defs><linearGradient id="g1w88y70nu53xi0" x1="50%" x2="50%" y1="0%" y2="100%"><stop offset="0%" stop-color="#F18E3E"/><stop offset="100%" stop-color="#EC7211"/></linearGradient></defs><g><line style="stroke:#ABB6C2;stroke-width:0.5208333333333334;stroke-dasharray:5.0,5.0;" x1="92.7083" x2="92.7083" y1="98.2751" y2="697.7604"/><line style="stroke:#ABB6C2;stroke-width:0.5208333333333334;stroke-dasharray:5.0,5.0;" x1="304.6875" x2="304.6875" y1="98.2751" y2="697.7604"/><line style="stroke:#ABB6C2;stroke-width:0.5208333333333334;stroke-dasharray:5.0,5.0;" x1="489.0625" x2="489.0625" y1="98.2751" y2="697.7604"/><line style="stroke:#ABB6C2;stroke-width:0.5208333333333334;stroke-dasharray:5.0,5.0;" x1="667.1875" x2="667.1875" y1="98.2751" y2="697.7604"/><line style="stroke:#ABB6C2;stroke-width:0.5208333333333334;stroke-dasharray:5.0,5.0;" x1="832.8125" x2="832.8125" y1="98.2751" y2="697.7604"/><line style="stroke:#ABB6C2;stroke-width:0.5208333333333334;stroke-dasharray:5.0,5.0;" x1="997.3958" x2="997.3958" y1="98.2751" y2="697.7604"/><line style="stroke:#ABB6C2;stroke-width:0.5208333333333334;stroke-dasharray:5.0,5.0;" x1="1172.3958" x2="1172.3958" y1="98.2751" y2="697.7604"/><line style="stroke:#ABB6C2;stroke-width:0.5208333333333334;stroke-dasharray:5.0,5.0;" x1="1374.4792" x2="1374.4792" y1="98.2751" y2="697.7604"/><rect fill="url(#g1w88y70nu53xi0)" height="59.0502" rx="4.1667" ry="4.1667" style="stroke:#EC7211;stroke-width:0.5208333333333334;" width="71.875" x="57.2917" y="38.1832"/><text fill="#FFFFFF" font-family="Verdana" font-size="12.5" lengthAdjust="spacing" textLength="46.875" x="69.7917" y="64.0458">Booking</text><text fill="#FFFFFF" font-family="Verdana" font-size="12.5" lengthAdjust="spacing" textLength="41.6667" x="72.3958" y="81.0709">tracker</text><rect fill="url(#g1w88y70nu53xi0)" height="59.0502" rx="4.1667" ry="4.1667" style="stroke:#EC7211;stroke-width:0.5208333333333334;" width="71.875" x="57.2917" y="696.7187"/><text fill="#FFFFFF" font-family="Verdana" font-size="12.5" lengthAdjust="spacing" textLength="46.875" x="69.7917" y="722.5813">Booking</text><text fill="#FFFFFF" font-family="Verdana" font-size="12.5" lengthAdjust="spacing" textLength="41.6667" x="72.3958" y="739.6064">tracker</text><rect fill="url(#g1w88y70nu53xi0)" height="59.0502" rx="4.1667" ry="4.1667" style="stroke:#EC7211;stroke-width:0.5208333333333334;" width="83.3333" x="263.0208" y="38.1832"/><text fill="#FFFFFF" font-family="Verdana" font-size="12.5" lengthAdjust="spacing" textLength="42.7083" x="283.3333" y="64.0458">Agency</text><text fill="#FFFFFF" font-family="Verdana" font-size="12.5" lengthAdjust="spacing" textLength="58.3333" x="275.5208" y="81.0709">connector</text><rect fill="url(#g1w88y70nu53xi0)" height="59.0502" rx="4.1667" ry="4.1667" style="stroke:#EC7211;stroke-width:0.5208333333333334;" width="83.3333" x="263.0208" y="696.7187"/><text fill="#FFFFFF" font-family="Verdana" font-size="12.5" lengthAdjust="spacing" textLength="42.7083" x="283.3333" y="722.5813">Agency</text><text fill="#FFFFFF" font-family="Verdana" font-size="12.5" lengthAdjust="spacing" textLength="58.3333" x="275.5208" y="739.6064">connector</text><rect fill="url(#g1w88y70nu53xi0)" height="59.0502" rx="4.1667" ry="4.1667" style="stroke:#EC7211;stroke-width:0.5208333333333334;" width="97.9167" x="440.1042" y="38.1832"/><text fill="#FFFFFF" font-family="Verdana" font-size="12.5" lengthAdjust="spacing" textLength="72.9167" x="452.6042" y="64.0458">Agency/GDS</text><text fill="#FFFFFF" font-family="Verdana" font-size="12.5" lengthAdjust="spacing" textLength="19.7917" x="479.1667" y="81.0709">API</text><rect fill="url(#g1w88y70nu53xi0)" height="59.0502" rx="4.1667" ry="4.1667" style="stroke:#EC7211;stroke-width:0.5208333333333334;" width="97.9167" x="440.1042" y="696.7187"/><text fill="#FFFFFF" font-family="Verdana" font-size="12.5" lengthAdjust="spacing" textLength="72.9167" x="452.6042" y="722.5813">Agency/GDS</text><text fill="#FFFFFF" font-family="Verdana" font-size="12.5" lengthAdjust="spacing" textLength="19.7917" x="479.1667" y="739.6064">API</text><rect fill="url(#g1w88y70nu53xi0)" height="59.0502" rx="4.1667" ry="4.1667" style="stroke:#EC7211;stroke-width:0.5208333333333334;" width="71.875" x="631.7708" y="38.1832"/><text fill="#FFFFFF" font-family="Verdana" font-size="12.5" lengthAdjust="spacing" textLength="46.875" x="644.2708" y="64.0458">Booking</text><text fill="#FFFFFF" font-family="Verdana" font-size="12.5" lengthAdjust="spacing" textLength="39.5833" x="647.9167" y="81.0709">Engine</text><rect fill="url(#g1w88y70nu53xi0)" height="59.0502" rx="4.1667" ry="4.1667" style="stroke:#EC7211;stroke-width:0.5208333333333334;" width="71.875" x="631.7708" y="696.7187"/><text fill="#FFFFFF" font-family="Verdana" font-size="12.5" lengthAdjust="spacing" textLength="46.875" x="644.2708" y="722.5813">Booking</text><text fill="#FFFFFF" font-family="Verdana" font-size="12.5" lengthAdjust="spacing" textLength="39.5833" x="647.9167" y="739.6064">Engine</text><rect fill="url(#g1w88y70nu53xi0)" height="59.0502" rx="4.1667" ry="4.1667" style="stroke:#EC7211;stroke-width:0.5208333333333334;" width="71.875" x="797.3958" y="38.1832"/><text fill="#FFFFFF" font-family="Verdana" font-size="12.5" lengthAdjust="spacing" textLength="46.875" x="809.8958" y="64.0458">Booking</text><text fill="#FFFFFF" font-family="Verdana" font-size="12.5" lengthAdjust="spacing" textLength="44.7917" x="810.9375" y="81.0709">storage</text><rect fill="url(#g1w88y70nu53xi0)" height="59.0502" rx="4.1667" ry="4.1667" style="stroke:#EC7211;stroke-width:0.5208333333333334;" width="71.875" x="797.3958" y="696.7187"/><text fill="#FFFFFF" font-family="Verdana" font-size="12.5" lengthAdjust="spacing" textLength="46.875" x="809.8958" y="722.5813">Booking</text><text fill="#FFFFFF" font-family="Verdana" font-size="12.5" lengthAdjust="spacing" textLength="44.7917" x="810.9375" y="739.6064">storage</text><rect fill="url(#g1w88y70nu53xi0)" height="42.0251" rx="4.1667" ry="4.1667" style="stroke:#EC7211;stroke-width:0.5208333333333334;" width="68.75" x="963.0208" y="55.2083"/><text fill="#FFFFFF" font-family="Verdana" font-size="12.5" lengthAdjust="spacing" textLength="43.75" x="975.5208" y="81.0709">Notifier</text><rect fill="url(#g1w88y70nu53xi0)" height="42.0251" rx="4.1667" ry="4.1667" style="stroke:#EC7211;stroke-width:0.5208333333333334;" width="68.75" x="963.0208" y="696.7187"/><text fill="#FFFFFF" font-family="Verdana" font-size="12.5" lengthAdjust="spacing" textLength="43.75" x="975.5208" y="722.5813">Notifier</text><rect fill="url(#g1w88y70nu53xi0)" height="59.0502" rx="4.1667" ry="4.1667" style="stroke:#EC7211;stroke-width:0.5208333333333334;" width="94.7917" x="1125.5208" y="38.1832"/><text fill="#FFFFFF" font-family="Verdana" font-size="12.5" lengthAdjust="spacing" textLength="69.7917" x="1138.0208" y="64.0458">Web/Mobile</text><text fill="#FFFFFF" font-family="Verdana" font-size="12.5" lengthAdjust="spacing" textLength="22.9167" x="1161.4583" y="81.0709">App</text><rect fill="url(#g1w88y70nu53xi0)" height="59.0502" rx="4.1667" ry="4.1667" style="stroke:#EC7211;stroke-width:0.5208333333333334;" width="94.7917" x="1125.5208" y="696.7187"/><text fill="#FFFFFF" font-family="Verdana" font-size="12.5" lengthAdjust="spacing" textLength="69.7917" x="1138.0208" y="722.5813">Web/Mobile</text><text fill="#FFFFFF" font-family="Verdana" font-size="12.5" lengthAdjust="spacing" textLength="22.9167" x="1161.4583" y="739.6064">App</text><text fill="#4E5D6C" font-family="Verdana" font-size="12.5" lengthAdjust="spacing" textLength="28.125" x="1357.8125" y="89.4043">User</text><ellipse cx="1375" cy="23.4375" fill="url(#g1w88y70nu53xi0)" rx="16.6667" ry="16.6667" style="stroke:#EC7211;stroke-width:1.5625;"/><path d="M1375,44.2708 C1379.1667,44.2708 1382.2917,44.2708 1386.4583,40.1042 C1394.7917,40.1042 1403.125,48.4375 1403.125,56.7708 L1403.125,60.9375 C1403.125,65.1042 1398.9583,69.2708 1394.7917,69.2708 L1355.2083,69.2708 C1351.0417,69.2708 1346.875,65.1042 1346.875,60.9375 L1346.875,56.7708 C1346.875,48.4375 1355.2083,40.1042 1363.5417,40.1042 C1367.7083,44.2708 1370.8333,44.2708 1375,44.2708 " fill="url(#g1w88y70nu53xi0)" style="stroke:#EC7211;stroke-width:1.5625;"/><text fill="#4E5D6C" font-family="Verdana" font-size="12.5" lengthAdjust="spacing" textLength="28.125" x="1357.8125" y="715.2896">User</text><ellipse cx="1375" cy="742.3896" fill="url(#g1w88y70nu53xi0)" rx="16.6667" ry="16.6667" style="stroke:#EC7211;stroke-width:1.5625;"/><path d="M1375,763.223 C1379.1667,763.223 1382.2917,763.223 1386.4583,759.0563 C1394.7917,759.0563 1403.125,767.3896 1403.125,775.723 L1403.125,779.8896 C1403.125,784.0563 1398.9583,788.223 1394.7917,788.223 L1355.2083,788.223 C1351.0417,788.223 1346.875,784.0563 1346.875,779.8896 L1346.875,775.723 C1346.875,767.3896 1355.2083,759.0563 1363.5417,759.0563 C1367.7083,763.223 1370.8333,763.223 1375,763.223 " fill="url(#g1w88y70nu53xi0)" style="stroke:#EC7211;stroke-width:1.5625;"/><polygon fill="#EC7211" points="292.1875,155.242,302.6042,159.4087,292.1875,163.5754,296.3542,159.4087" style="stroke:#EC7211;stroke-width:1.0416666666666667;"/><line style="stroke:#EC7211;stroke-width:3.125;" x1="93.2292" x2="298.4375" y1="159.4087" y2="159.4087"/><text fill="#4E5D6C" font-family="Verdana" font-size="12.5" font-weight="bold" lengthAdjust="spacing" textLength="7.2917" x="105.7292" y="139.9419">1</text><text fill="#4E5D6C" font-family="Verdana" font-size="12.5" lengthAdjust="spacing" textLength="111.4583" x="127.6042" y="131.4294">Periodic tracking of</text><text fill="#4E5D6C" font-family="Verdana" font-size="12.5" lengthAdjust="spacing" textLength="154.1667" x="127.6042" y="148.4545">monitored/active bookings</text><polygon fill="#EC7211" points="476.5625,197.2671,486.9792,201.4338,476.5625,205.6005,480.7292,201.4338" style="stroke:#EC7211;stroke-width:1.0416666666666667;"/><line style="stroke:#EC7211;stroke-width:3.125;" x1="304.6875" x2="482.8125" y1="201.4338" y2="201.4338"/><text fill="#4E5D6C" font-family="Verdana" font-size="12.5" font-weight="bold" lengthAdjust="spacing" textLength="7.2917" x="317.1875" y="190.4796">2</text><text fill="#4E5D6C" font-family="Verdana" font-size="12.5" lengthAdjust="spacing" textLength="97.9167" x="339.0625" y="190.4796">API read request</text><polygon fill="#EC7211" points="316.1458,239.2923,305.7292,243.4589,316.1458,247.6256,311.9792,243.4589" style="stroke:#EC7211;stroke-width:1.0416666666666667;"/><line style="stroke:#EC7211;stroke-width:3.125;stroke-dasharray:2.0,2.0;" x1="309.8958" x2="488.0208" y1="243.4589" y2="243.4589"/><text fill="#4E5D6C" font-family="Verdana" font-size="12.5" font-weight="bold" lengthAdjust="spacing" textLength="7.2917" x="327.6042" y="232.5047">3</text><text fill="#4E5D6C" font-family="Verdana" font-size="12.5" lengthAdjust="spacing" textLength="100" x="349.4792" y="232.5047">Booking(s) status</text><polygon fill="#EC7211" points="104.6875,281.3174,94.2708,285.484,104.6875,289.6507,100.5208,285.484" style="stroke:#EC7211;stroke-width:1.0416666666666667;"/><line style="stroke:#EC7211;stroke-width:3.125;stroke-dasharray:2.0,2.0;" x1="98.4375" x2="303.6458" y1="285.484" y2="285.484"/><text fill="#4E5D6C" font-family="Verdana" font-size="12.5" font-weight="bold" lengthAdjust="spacing" textLength="7.2917" x="116.1458" y="274.5299">4</text><text fill="#4E5D6C" font-family="Verdana" font-size="12.5" lengthAdjust="spacing" textLength="76.0417" x="138.0208" y="274.5299">Booking data</text><path d="M5.2083,303.1924 L5.2083,349.0257 A4.1667,4.1667 0 0 0 9.375,353.1924 L178.125,353.1924 A4.1667,4.1667 0 0 0 182.2917,349.0257 L182.2917,309.4424 L171.875,299.0257 L9.375,299.0257 A4.1667,4.1667 0 0 0 5.2083,303.1924 " fill="#0073BB" style="stroke:#005C96;stroke-width:1.0416666666666667;"/><path d="M171.875,299.0257 L171.875,307.359 A2.0833,2.0833 0 0 0 173.9583,309.4424 L182.2917,309.4424 L171.875,299.0257 " fill="#0073BB" style="stroke:#005C96;stroke-width:1.0416666666666667;"/><text fill="#FFFFFF" font-family="Verdana" font-size="12.5" lengthAdjust="spacing" textLength="144.7917" x="16.6667" y="322.805">Booking(s) change(s) are</text><text fill="#FFFFFF" font-family="Verdana" font-size="12.5" lengthAdjust="spacing" textLength="51.0417" x="16.6667" y="339.8301">detected</text><polygon fill="#EC7211" points="655.2083,388.6427,665.625,392.8094,655.2083,396.9761,659.375,392.8094" style="stroke:#EC7211;stroke-width:1.0416666666666667;"/><line style="stroke:#EC7211;stroke-width:3.125;" x1="93.2292" x2="661.4583" y1="392.8094" y2="392.8094"/><text fill="#4E5D6C" font-family="Verdana" font-size="12.5" font-weight="bold" lengthAdjust="spacing" textLength="7.2917" x="105.7292" y="381.8552">5</text><text fill="#4E5D6C" font-family="Verdana" font-size="12.5" lengthAdjust="spacing" textLength="147.9167" x="127.6042" y="381.8552">Update booking record(s)</text><polygon fill="#EC7211" points="820.8333,430.6679,831.25,434.8345,820.8333,439.0012,825,434.8345" style="stroke:#EC7211;stroke-width:1.0416666666666667;"/><line style="stroke:#EC7211;stroke-width:3.125;" x1="667.7083" x2="827.0833" y1="434.8345" y2="434.8345"/><text fill="#4E5D6C" font-family="Verdana" font-size="12.5" font-weight="bold" lengthAdjust="spacing" textLength="7.2917" x="680.2083" y="423.8803">6</text><text fill="#4E5D6C" font-family="Verdana" font-size="12.5" lengthAdjust="spacing" textLength="81.25" x="702.0833" y="423.8803">Store updates</text><polygon fill="#EC7211" points="679.1667,472.693,668.75,476.8596,679.1667,481.0263,675,476.8596" style="stroke:#EC7211;stroke-width:1.0416666666666667;"/><line style="stroke:#EC7211;stroke-width:3.125;stroke-dasharray:2.0,2.0;" x1="672.9167" x2="832.2917" y1="476.8596" y2="476.8596"/><text fill="#4E5D6C" font-family="Verdana" font-size="12.5" font-weight="bold" lengthAdjust="spacing" textLength="7.2917" x="690.625" y="465.9055">7</text><text fill="#4E5D6C" font-family="Verdana" font-size="12.5" lengthAdjust="spacing" textLength="96.875" x="712.5" y="465.9055">Confirm updates</text><polygon fill="#EC7211" points="984.8958,514.7181,995.3125,518.8848,984.8958,523.0514,989.0625,518.8848" style="stroke:#EC7211;stroke-width:1.0416666666666667;"/><line style="stroke:#EC7211;stroke-width:3.125;" x1="667.7083" x2="991.1458" y1="518.8848" y2="518.8848"/><text fill="#4E5D6C" font-family="Verdana" font-size="12.5" font-weight="bold" lengthAdjust="spacing" textLength="7.2917" x="680.2083" y="507.9306">8</text><text fill="#4E5D6C" font-family="Verdana" font-size="12.5" lengthAdjust="spacing" textLength="234.375" x="702.0833" y="507.9306">Trigger notifications with status changes</text><polygon fill="#EC7211" points="1160.4167,556.7432,1170.8333,560.9099,1160.4167,565.0765,1164.5833,560.9099" style="stroke:#EC7211;stroke-width:1.0416666666666667;"/><line style="stroke:#EC7211;stroke-width:3.125;" x1="997.3958" x2="1166.6667" y1="560.9099" y2="560.9099"/><text fill="#4E5D6C" font-family="Verdana" font-size="12.5" font-weight="bold" lengthAdjust="spacing" textLength="7.2917" x="1009.8958" y="549.9557">9</text><text fill="#4E5D6C" font-family="Verdana" font-size="12.5" lengthAdjust="spacing" textLength="66.6667" x="1031.7708" y="549.9557">Notification</text><polygon fill="#EC7211" points="1362.5,632.8186,1372.9167,636.9852,1362.5,641.1519,1366.6667,636.9852" style="stroke:#EC7211;stroke-width:1.0416666666666667;"/><line style="stroke:#EC7211;stroke-width:3.125;" x1="1172.9167" x2="1368.75" y1="636.9852" y2="636.9852"/><text fill="#4E5D6C" font-family="Verdana" font-size="12.5" font-weight="bold" lengthAdjust="spacing" textLength="14.5833" x="1185.4167" y="609.0059">10</text><text fill="#4E5D6C" font-family="Verdana" font-size="12.5" lengthAdjust="spacing" textLength="137.5" x="1214.5833" y="591.9808">Notification rendered in</text><text fill="#4E5D6C" font-family="Verdana" font-size="12.5" lengthAdjust="spacing" textLength="88.5417" x="1214.5833" y="609.0059">- Web interface</text><text fill="#4E5D6C" font-family="Verdana" font-size="12.5" lengthAdjust="spacing" textLength="71.875" x="1214.5833" y="626.031">- Mobile app</text><polygon fill="#EC7211" points="1362.5,674.8437,1372.9167,679.0104,1362.5,683.177,1366.6667,679.0104" style="stroke:#EC7211;stroke-width:1.0416666666666667;"/><line style="stroke:#EC7211;stroke-width:3.125;" x1="997.3958" x2="1368.75" y1="679.0104" y2="679.0104"/><text fill="#4E5D6C" font-family="Verdana" font-size="12.5" font-weight="bold" lengthAdjust="spacing" textLength="14.5833" x="1009.8958" y="668.0562">11</text><text fill="#4E5D6C" font-family="Verdana" font-size="12.5" lengthAdjust="spacing" textLength="100" x="1039.0625" y="668.0562">Email notification</text><!--SRC=[TLJ1Rjim3BthAxXSjXs2O5SV1gHjqEwGea1Mx6B0O2p64MfBdYGtoz-FbgtKLfCS0ldnlIUIelJ57waXm9DR6ekw8Y7Scz8jMcpW3iktoffEotjJ6mkde_8qYMFfZNN-NFS6v4n30ZjlTDVioS8F8RuopwjIjQWzBBQewbotfgx9BW0TD0mKm_TLQgsS9pqbH-Gg_Q1gJtPAZqX2VtpOvReqMbDVGA1NqXKN9A7lZXXTNLYcSLCgh65BKc7gwqBiflKJrMsk7z7J2Sz1S6Iag0OW8J-WP__DlzPOF-OZ6IfeH1BwMcDzva_76_GzmvWJna1HHVosTCTHh2WHkW6zBPjb-Q6xaUeVsWVYYVP2p29tnl2uLRdsbeTnzDiFO35YSyMQYohFwJbWG2VdS4Mp2dEnVlarKTp8PgChfMcM30Ne1jzDkXW5iOSpnRFnwg36ElNu8T9chRPchshYPDjsIBPjHRYDi7XrexhZXH19hs3vyrClCdWXgunK9GGMqy4SSjqOhJXCSiNMwfrYvawa3X-k6N3_m19A_llRaVF2ak-iXh4NtzntS1vzTys5RP9yiwWBeowu8mJcdUj8Pm3uDzcYFFQFMR_Y2nk2aZplGbAGbdrdwLfhveUPmMlBsruAvv9AOoMxYZbnAXsFDOF-vX1qmS75BjmRVgPiSu4_-yH3p-2tLLN5UGr8YLuPpNT4-UFOmR5A9w8cd4FRPl0yaGX6-a0_3_C8rwCbluyIbCxr4dYoUCNNyu0bzS0mPc6wfbiCJfl-YPqb9_u3]--></g></svg>