<?xml version="1.0" encoding="us-ascii" standalone="no"?><svg xmlns="http://www.w3.org/2000/svg" xmlns:xlink="http://www.w3.org/1999/xlink" contentStyleType="text/css" height="891.6667px" preserveAspectRatio="none" style="width:1695px;height:891px;background:#FFFFFF;" version="1.1" viewBox="0 0 1695 891" width="1695.8333px" zoomAndPan="magnify"><defs><linearGradient id="gqf4en6tki0ca0" x1="50%" x2="50%" y1="0%" y2="100%"><stop offset="0%" stop-color="#F18E3E"/><stop offset="100%" stop-color="#EC7211"/></linearGradient></defs><g><line style="stroke:#ABB6C2;stroke-width:0.5208333333333334;stroke-dasharray:5.0,5.0;" x1="148.9583" x2="148.9583" y1="98.2751" y2="794.669"/><line style="stroke:#ABB6C2;stroke-width:0.5208333333333334;stroke-dasharray:5.0,5.0;" x1="334.8958" x2="334.8958" y1="98.2751" y2="794.669"/><line style="stroke:#ABB6C2;stroke-width:0.5208333333333334;stroke-dasharray:5.0,5.0;" x1="545.8333" x2="545.8333" y1="98.2751" y2="794.669"/><line style="stroke:#ABB6C2;stroke-width:0.5208333333333334;stroke-dasharray:5.0,5.0;" x1="725" x2="725" y1="98.2751" y2="794.669"/><line style="stroke:#ABB6C2;stroke-width:0.5208333333333334;stroke-dasharray:5.0,5.0;" x1="955.2083" x2="955.2083" y1="98.2751" y2="794.669"/><line style="stroke:#ABB6C2;stroke-width:0.5208333333333334;stroke-dasharray:5.0,5.0;" x1="1171.875" x2="1171.875" y1="98.2751" y2="794.669"/><line style="stroke:#ABB6C2;stroke-width:0.5208333333333334;stroke-dasharray:5.0,5.0;" x1="1532.8125" x2="1532.8125" y1="98.2751" y2="794.669"/><line style="stroke:#ABB6C2;stroke-width:0.5208333333333334;stroke-dasharray:5.0,5.0;" x1="1653.6458" x2="1653.6458" y1="98.2751" y2="794.669"/><rect fill="url(#gqf4en6tki0ca0)" height="59.0502" rx="4.1667" ry="4.1667" style="stroke:#EC7211;stroke-width:0.5208333333333334;" width="71.875" x="113.5417" y="38.1832"/><text fill="#FFFFFF" font-family="Verdana" font-size="12.5" lengthAdjust="spacing" textLength="46.875" x="126.0417" y="64.0458">Booking</text><text fill="#FFFFFF" font-family="Verdana" font-size="12.5" lengthAdjust="spacing" textLength="41.6667" x="128.6458" y="81.0709">tracker</text><rect fill="url(#gqf4en6tki0ca0)" height="59.0502" rx="4.1667" ry="4.1667" style="stroke:#EC7211;stroke-width:0.5208333333333334;" width="71.875" x="113.5417" y="793.6274"/><text fill="#FFFFFF" font-family="Verdana" font-size="12.5" lengthAdjust="spacing" textLength="46.875" x="126.0417" y="819.49">Booking</text><text fill="#FFFFFF" font-family="Verdana" font-size="12.5" lengthAdjust="spacing" textLength="41.6667" x="128.6458" y="836.5151">tracker</text><rect fill="url(#gqf4en6tki0ca0)" height="59.0502" rx="4.1667" ry="4.1667" style="stroke:#EC7211;stroke-width:0.5208333333333334;" width="77.0833" x="296.3542" y="38.1832"/><text fill="#FFFFFF" font-family="Verdana" font-size="12.5" lengthAdjust="spacing" textLength="46.875" x="311.4583" y="64.0458">Booking</text><text fill="#FFFFFF" font-family="Verdana" font-size="12.5" lengthAdjust="spacing" textLength="52.0833" x="308.8542" y="81.0709">interface</text><rect fill="url(#gqf4en6tki0ca0)" height="59.0502" rx="4.1667" ry="4.1667" style="stroke:#EC7211;stroke-width:0.5208333333333334;" width="77.0833" x="296.3542" y="793.6274"/><text fill="#FFFFFF" font-family="Verdana" font-size="12.5" lengthAdjust="spacing" textLength="46.875" x="311.4583" y="819.49">Booking</text><text fill="#FFFFFF" font-family="Verdana" font-size="12.5" lengthAdjust="spacing" textLength="52.0833" x="308.8542" y="836.5151">interface</text><rect fill="url(#gqf4en6tki0ca0)" height="59.0502" rx="4.1667" ry="4.1667" style="stroke:#EC7211;stroke-width:0.5208333333333334;" width="71.875" x="510.4167" y="38.1832"/><text fill="#FFFFFF" font-family="Verdana" font-size="12.5" lengthAdjust="spacing" textLength="46.875" x="522.9167" y="64.0458">Booking</text><text fill="#FFFFFF" font-family="Verdana" font-size="12.5" lengthAdjust="spacing" textLength="44.7917" x="523.9583" y="81.0709">storage</text><rect fill="url(#gqf4en6tki0ca0)" height="59.0502" rx="4.1667" ry="4.1667" style="stroke:#EC7211;stroke-width:0.5208333333333334;" width="71.875" x="510.4167" y="793.6274"/><text fill="#FFFFFF" font-family="Verdana" font-size="12.5" lengthAdjust="spacing" textLength="46.875" x="522.9167" y="819.49">Booking</text><text fill="#FFFFFF" font-family="Verdana" font-size="12.5" lengthAdjust="spacing" textLength="44.7917" x="523.9583" y="836.5151">storage</text><rect fill="url(#gqf4en6tki0ca0)" height="59.0502" rx="4.1667" ry="4.1667" style="stroke:#EC7211;stroke-width:0.5208333333333334;" width="97.9167" x="676.0417" y="38.1832"/><text fill="#FFFFFF" font-family="Verdana" font-size="12.5" lengthAdjust="spacing" textLength="72.9167" x="688.5417" y="64.0458">Agency/GDS</text><text fill="#FFFFFF" font-family="Verdana" font-size="12.5" lengthAdjust="spacing" textLength="58.3333" x="695.8333" y="81.0709">connector</text><rect fill="url(#gqf4en6tki0ca0)" height="59.0502" rx="4.1667" ry="4.1667" style="stroke:#EC7211;stroke-width:0.5208333333333334;" width="97.9167" x="676.0417" y="793.6274"/><text fill="#FFFFFF" font-family="Verdana" font-size="12.5" lengthAdjust="spacing" textLength="72.9167" x="688.5417" y="819.49">Agency/GDS</text><text fill="#FFFFFF" font-family="Verdana" font-size="12.5" lengthAdjust="spacing" textLength="58.3333" x="695.8333" y="836.5151">connector</text><rect fill="url(#gqf4en6tki0ca0)" height="59.0502" rx="4.1667" ry="4.1667" style="stroke:#EC7211;stroke-width:0.5208333333333334;" width="176.0417" x="867.7083" y="38.1832"/><text fill="#FFFFFF" font-family="Verdana" font-size="12.5" lengthAdjust="spacing" textLength="151.0417" x="880.2083" y="64.0458">Agency/GDS/Third parties</text><text fill="#FFFFFF" font-family="Verdana" font-size="12.5" lengthAdjust="spacing" textLength="76.0417" x="917.7083" y="81.0709">Standard API</text><rect fill="url(#gqf4en6tki0ca0)" height="59.0502" rx="4.1667" ry="4.1667" style="stroke:#EC7211;stroke-width:0.5208333333333334;" width="176.0417" x="867.7083" y="793.6274"/><text fill="#FFFFFF" font-family="Verdana" font-size="12.5" lengthAdjust="spacing" textLength="151.0417" x="880.2083" y="819.49">Agency/GDS/Third parties</text><text fill="#FFFFFF" font-family="Verdana" font-size="12.5" lengthAdjust="spacing" textLength="76.0417" x="917.7083" y="836.5151">Standard API</text><rect fill="url(#gqf4en6tki0ca0)" height="42.0251" rx="4.1667" ry="4.1667" style="stroke:#EC7211;stroke-width:0.5208333333333334;" width="68.75" x="1137.5" y="55.2083"/><text fill="#FFFFFF" font-family="Verdana" font-size="12.5" lengthAdjust="spacing" textLength="43.75" x="1150" y="81.0709">Notifier</text><rect fill="url(#gqf4en6tki0ca0)" height="42.0251" rx="4.1667" ry="4.1667" style="stroke:#EC7211;stroke-width:0.5208333333333334;" width="68.75" x="1137.5" y="793.6274"/><text fill="#FFFFFF" font-family="Verdana" font-size="12.5" lengthAdjust="spacing" textLength="43.75" x="1150" y="819.49">Notifier</text><rect fill="url(#gqf4en6tki0ca0)" height="42.0251" rx="4.1667" ry="4.1667" style="stroke:#EC7211;stroke-width:0.5208333333333334;" width="78.125" x="1494.2708" y="55.2083"/><text fill="#FFFFFF" font-family="Verdana" font-size="12.5" lengthAdjust="spacing" textLength="53.125" x="1506.7708" y="81.0709">App/Web</text><rect fill="url(#gqf4en6tki0ca0)" height="42.0251" rx="4.1667" ry="4.1667" style="stroke:#EC7211;stroke-width:0.5208333333333334;" width="78.125" x="1494.2708" y="793.6274"/><text fill="#FFFFFF" font-family="Verdana" font-size="12.5" lengthAdjust="spacing" textLength="53.125" x="1506.7708" y="819.49">App/Web</text><text fill="#4E5D6C" font-family="Verdana" font-size="12.5" lengthAdjust="spacing" textLength="28.125" x="1636.9792" y="89.4043">User</text><ellipse cx="1654.1667" cy="23.4375" fill="url(#gqf4en6tki0ca0)" rx="16.6667" ry="16.6667" style="stroke:#EC7211;stroke-width:1.5625;"/><path d="M1654.1667,44.2708 C1658.3333,44.2708 1661.4583,44.2708 1665.625,40.1042 C1673.9583,40.1042 1682.2917,48.4375 1682.2917,56.7708 L1682.2917,60.9375 C1682.2917,65.1042 1678.125,69.2708 1673.9583,69.2708 L1634.375,69.2708 C1630.2083,69.2708 1626.0417,65.1042 1626.0417,60.9375 L1626.0417,56.7708 C1626.0417,48.4375 1634.375,40.1042 1642.7083,40.1042 C1646.875,44.2708 1650,44.2708 1654.1667,44.2708 " fill="url(#gqf4en6tki0ca0)" style="stroke:#EC7211;stroke-width:1.5625;"/><text fill="#4E5D6C" font-family="Verdana" font-size="12.5" lengthAdjust="spacing" textLength="28.125" x="1636.9792" y="812.1983">User</text><ellipse cx="1654.1667" cy="839.2983" fill="url(#gqf4en6tki0ca0)" rx="16.6667" ry="16.6667" style="stroke:#EC7211;stroke-width:1.5625;"/><path d="M1654.1667,860.1317 C1658.3333,860.1317 1661.4583,860.1317 1665.625,855.965 C1673.9583,855.965 1682.2917,864.2983 1682.2917,872.6317 L1682.2917,876.7983 C1682.2917,880.965 1678.125,885.1317 1673.9583,885.1317 L1634.375,885.1317 C1630.2083,885.1317 1626.0417,880.965 1626.0417,876.7983 L1626.0417,872.6317 C1626.0417,864.2983 1634.375,855.965 1642.7083,855.965 C1646.875,860.1317 1650,860.1317 1654.1667,860.1317 " fill="url(#gqf4en6tki0ca0)" style="stroke:#EC7211;stroke-width:1.5625;"/><polygon fill="#EC7211" points="322.3958,138.2169,332.8125,142.3836,322.3958,146.5502,326.5625,142.3836" style="stroke:#EC7211;stroke-width:1.0416666666666667;"/><line style="stroke:#EC7211;stroke-width:3.125;" x1="149.4792" x2="328.6458" y1="142.3836" y2="142.3836"/><text fill="#4E5D6C" font-family="Verdana" font-size="12.5" font-weight="bold" lengthAdjust="spacing" textLength="7.2917" x="161.9792" y="131.4294">1</text><text fill="#4E5D6C" font-family="Verdana" font-size="12.5" lengthAdjust="spacing" textLength="128.125" x="183.8542" y="131.4294">Query active bookings</text><polygon fill="#EC7211" points="533.8542,180.242,544.2708,184.4087,533.8542,188.5754,538.0208,184.4087" style="stroke:#EC7211;stroke-width:1.0416666666666667;"/><line style="stroke:#EC7211;stroke-width:3.125;" x1="334.8958" x2="540.1042" y1="184.4087" y2="184.4087"/><text fill="#4E5D6C" font-family="Verdana" font-size="12.5" font-weight="bold" lengthAdjust="spacing" textLength="7.2917" x="347.3958" y="173.4545">2</text><text fill="#4E5D6C" font-family="Verdana" font-size="12.5" lengthAdjust="spacing" textLength="35.4167" x="369.2708" y="173.4545">Query</text><polygon fill="#EC7211" points="346.3542,259.4424,335.9375,263.609,346.3542,267.7757,342.1875,263.609" style="stroke:#EC7211;stroke-width:1.0416666666666667;"/><line style="stroke:#EC7211;stroke-width:3.125;stroke-dasharray:2.0,2.0;" x1="340.1042" x2="545.3125" y1="263.609" y2="263.609"/><text fill="#4E5D6C" font-family="Verdana" font-size="12.5" font-weight="bold" lengthAdjust="spacing" textLength="7.2917" x="357.8125" y="252.6549">3</text><text fill="#4E5D6C" font-family="Verdana" font-size="12.5" lengthAdjust="spacing" textLength="154.1667" x="379.6875" y="252.6549">Relation of active bookings</text><path d="M551.0417,202.117 L551.0417,298.992 A4.1667,4.1667 0 0 0 555.2083,303.1587 L831.25,303.1587 A4.1667,4.1667 0 0 0 835.4167,298.992 L835.4167,208.367 L825,197.9504 L555.2083,197.9504 A4.1667,4.1667 0 0 0 551.0417,202.117 " fill="#0073BB" style="stroke:#005C96;stroke-width:1.0416666666666667;"/><path d="M825,197.9504 L825,206.2837 A2.0833,2.0833 0 0 0 827.0833,208.367 L835.4167,208.367 L825,197.9504 " fill="#0073BB" style="stroke:#005C96;stroke-width:1.0416666666666667;"/><text fill="#FFFFFF" font-family="Verdana" font-size="12.5" lengthAdjust="spacing" textLength="245.8333" x="562.5" y="221.7296">Active bookings are either bookings which:</text><text fill="#FFFFFF" font-family="Verdana" font-size="12.5" lengthAdjust="spacing" textLength="240.625" x="562.5" y="238.7547">- Are part of an active trip defined by user</text><text fill="#FFFFFF" font-family="Verdana" font-size="12.5" lengthAdjust="spacing" textLength="252.0833" x="562.5" y="255.7799">- Have not being reported as cancelled by\n</text><text fill="#FFFFFF" font-family="Verdana" font-size="12.5" lengthAdjust="spacing" textLength="165.625" x="568.75" y="272.805">the relevant agency/supplier</text><text fill="#FFFFFF" font-family="Verdana" font-size="12.5" lengthAdjust="spacing" textLength="234.375" x="562.5" y="289.8301">- Finalization date has not being reached</text><polygon fill="#EC7211" points="160.9375,338.6427,150.5208,342.8094,160.9375,346.9761,156.7708,342.8094" style="stroke:#EC7211;stroke-width:1.0416666666666667;"/><line style="stroke:#EC7211;stroke-width:3.125;stroke-dasharray:2.0,2.0;" x1="154.6875" x2="333.8542" y1="342.8094" y2="342.8094"/><text fill="#4E5D6C" font-family="Verdana" font-size="12.5" font-weight="bold" lengthAdjust="spacing" textLength="7.2917" x="172.3958" y="331.8552">4</text><text fill="#4E5D6C" font-family="Verdana" font-size="12.5" lengthAdjust="spacing" textLength="56.25" x="194.2708" y="331.8552">Response</text><polygon fill="#EC7211" points="712.5,380.6679,722.9167,384.8345,712.5,389.0012,716.6667,384.8345" style="stroke:#EC7211;stroke-width:1.0416666666666667;"/><line style="stroke:#EC7211;stroke-width:3.125;" x1="149.4792" x2="718.75" y1="384.8345" y2="384.8345"/><text fill="#4E5D6C" font-family="Verdana" font-size="12.5" font-weight="bold" lengthAdjust="spacing" textLength="7.2917" x="161.9792" y="373.8803">5</text><text fill="#4E5D6C" font-family="Verdana" font-size="12.5" lengthAdjust="spacing" textLength="3.125" x="183.8542" y="373.8803">&#160;</text><polygon fill="#EC7211" points="943.2292,422.693,953.6458,426.8596,943.2292,431.0263,947.3958,426.8596" style="stroke:#EC7211;stroke-width:1.0416666666666667;"/><line style="stroke:#EC7211;stroke-width:3.125;" x1="725" x2="949.4792" y1="426.8596" y2="426.8596"/><text fill="#4E5D6C" font-family="Verdana" font-size="12.5" font-weight="bold" lengthAdjust="spacing" textLength="7.2917" x="737.5" y="415.9055">6</text><text fill="#4E5D6C" font-family="Verdana" font-size="12.5" lengthAdjust="spacing" textLength="3.125" x="759.375" y="415.9055">&#160;</text><polygon fill="#EC7211" points="736.4583,464.7181,726.0417,468.8848,736.4583,473.0514,732.2917,468.8848" style="stroke:#EC7211;stroke-width:1.0416666666666667;"/><line style="stroke:#EC7211;stroke-width:3.125;stroke-dasharray:2.0,2.0;" x1="730.2083" x2="954.6875" y1="468.8848" y2="468.8848"/><text fill="#4E5D6C" font-family="Verdana" font-size="12.5" font-weight="bold" lengthAdjust="spacing" textLength="7.2917" x="747.9167" y="457.9306">7</text><text fill="#4E5D6C" font-family="Verdana" font-size="12.5" lengthAdjust="spacing" textLength="85.4167" x="769.7917" y="457.9306">Booking status</text><polygon fill="#EC7211" points="160.9375,506.7432,150.5208,510.9099,160.9375,515.0765,156.7708,510.9099" style="stroke:#EC7211;stroke-width:1.0416666666666667;"/><line style="stroke:#EC7211;stroke-width:3.125;stroke-dasharray:2.0,2.0;" x1="154.6875" x2="723.9583" y1="510.9099" y2="510.9099"/><text fill="#4E5D6C" font-family="Verdana" font-size="12.5" font-weight="bold" lengthAdjust="spacing" textLength="7.2917" x="172.3958" y="499.9557">8</text><text fill="#4E5D6C" font-family="Verdana" font-size="12.5" lengthAdjust="spacing" textLength="85.4167" x="194.2708" y="499.9557">Booking status</text><rect fill="#4E5D6C" height="3.125" rx="4.1667" ry="4.1667" style="stroke:#4E5D6C;stroke-width:1.0416666666666667;" width="1689.0625" x="0" y="546.5058"/><line style="stroke:#4E5D6C;stroke-width:1.0416666666666667;" x1="0" x2="1689.0625" y1="546.5058" y2="546.5058"/><line style="stroke:#4E5D6C;stroke-width:1.0416666666666667;" x1="0" x2="1689.0625" y1="549.6308" y2="549.6308"/><rect fill="#4E5D6C" height="35.7751" rx="4.1667" ry="4.1667" style="stroke:#4E5D6C;stroke-width:2.0833333333333335;" width="186.4583" x="751.3021" y="529.6599"/><text fill="#ABB6C2" font-family="Verdana" font-size="12.5" font-weight="bold" lengthAdjust="spacing" textLength="158.3333" x="762.7604" y="552.3975">Booking change detected</text><path d="M5.2083,585.2267 L5.2083,648.7683 A4.1667,4.1667 0 0 0 9.375,652.935 L289.5833,652.935 A4.1667,4.1667 0 0 0 293.75,648.7683 L293.75,591.4767 L283.3333,581.06 L9.375,581.06 A4.1667,4.1667 0 0 0 5.2083,585.2267 " fill="#0073BB" style="stroke:#005C96;stroke-width:1.0416666666666667;"/><path d="M283.3333,581.06 L283.3333,589.3933 A2.0833,2.0833 0 0 0 285.4167,591.4767 L293.75,591.4767 L283.3333,581.06 " fill="#0073BB" style="stroke:#005C96;stroke-width:1.0416666666666667;"/><text fill="#FFFFFF" font-family="Verdana" font-size="12.5" lengthAdjust="spacing" textLength="256.25" x="16.6667" y="604.8393">If a meaningful change in the booking status</text><text fill="#FFFFFF" font-family="Verdana" font-size="12.5" lengthAdjust="spacing" textLength="234.375" x="16.6667" y="621.8644">is confirmed, notification workflow starts</text><text fill="#FFFFFF" font-family="Verdana" font-size="12.5" lengthAdjust="spacing" textLength="107.2917" x="16.6667" y="638.8895">to inform end user</text><polygon fill="#EC7211" points="1159.375,687.7021,1169.7917,691.8688,1159.375,696.0355,1163.5417,691.8688" style="stroke:#EC7211;stroke-width:1.0416666666666667;"/><line style="stroke:#EC7211;stroke-width:3.125;" x1="149.4792" x2="1165.625" y1="691.8688" y2="691.8688"/><text fill="#4E5D6C" font-family="Verdana" font-size="12.5" font-weight="bold" lengthAdjust="spacing" textLength="7.2917" x="161.9792" y="680.9146">9</text><text fill="#4E5D6C" font-family="Verdana" font-size="12.5" lengthAdjust="spacing" textLength="141.6667" x="183.8542" y="680.9146">POST end user message</text><polygon fill="#EC7211" points="1520.8333,729.7273,1531.25,733.8939,1520.8333,738.0606,1525,733.8939" style="stroke:#EC7211;stroke-width:1.0416666666666667;"/><line style="stroke:#EC7211;stroke-width:3.125;" x1="1171.875" x2="1527.0833" y1="733.8939" y2="733.8939"/><text fill="#4E5D6C" font-family="Verdana" font-size="12.5" font-weight="bold" lengthAdjust="spacing" textLength="14.5833" x="1184.375" y="722.9397">10</text><text fill="#4E5D6C" font-family="Verdana" font-size="12.5" lengthAdjust="spacing" textLength="296.875" x="1213.5417" y="722.9397">Render message on interface or mobile notification</text><polygon fill="#EC7211" points="1641.6667,771.7524,1652.0833,775.919,1641.6667,780.0857,1645.8333,775.919" style="stroke:#EC7211;stroke-width:1.0416666666666667;"/><line style="stroke:#EC7211;stroke-width:3.125;" x1="1533.3333" x2="1647.9167" y1="775.919" y2="775.919"/><text fill="#4E5D6C" font-family="Verdana" font-size="12.5" font-weight="bold" lengthAdjust="spacing" textLength="14.5833" x="1545.8333" y="764.9649">11</text><text fill="#4E5D6C" font-family="Verdana" font-size="12.5" lengthAdjust="spacing" textLength="3.125" x="1575" y="764.9649">&#160;</text><!--SRC=[TLHDZzem4BtxLqmv5w5UaQZ4jjfsB-ssRDKBqifn9eb5ChPi1qH_VSUE2OIF6vatRpxU6_CXDDWXo8EV6oUfHY7yJfELJdRm9DMkTgQdyejfZOD3emDUu585utmujh40UjEXa7qmr7S5ElWa1AS5hRIL563sP0mpwoq5ntNHpK1wA8RWUuuzO6WAw2gfSC8PemzOdgUJzPIJOrF6kaPInyMthvijAKE4SQz4ambv7uEFU8ktHhiI4ef-IviWgPGSMR- -f48XukyPdrRvOOAkTDQ3yiTL8siNVx4OHh9M9E5XziTdLiy_XBZI4kQVRwLQmgyUtJ5Qf_TumhsuIRnaPz4oLpWClIFuZQqCsX2OwgOShu7WTDq40G3hAGhI8Q3cotFd6D-MQfOnUmvhnkF-gJATYWUdBPHOQS8IYkEmTCh_BXdcbb0WrmA7rhZ0IQoCagImRHDZIp4Ts0kU3LlSHsq7XnU-jxRLfuBFccIh_mthbP9tQGPlnWvIDLWAf396yPvy5_fbGvOicRU6FDwpwkRKhWCnQNf6sOXyyE233Bs_mxitoXLfjHeZged_0wnqO3eBjreDTfhzsQ_nlR9SBsmIT2ZvbTPLtvxucfBGnRGFvsjsnL2bNOVbntpmQf3wODokQiqXPhkGieFXIfLn7KIna-Stgb-eU7e_ItZzkNaREJoVz_7Td_2akBNH4YhFEF0GPmzPkyuKkiN9b89vaPvc-Gy0]--></g></svg>