<?xml version="1.0" encoding="us-ascii" standalone="no"?><svg xmlns="http://www.w3.org/2000/svg" xmlns:xlink="http://www.w3.org/1999/xlink" contentStyleType="text/css" height="383.3333px" preserveAspectRatio="none" style="width:603px;height:383px;background:#FFFFFF;" version="1.1" viewBox="0 0 603 383" width="603.125px" zoomAndPan="magnify"><defs><linearGradient id="gv7nqmgni7ytq0" x1="50%" x2="50%" y1="0%" y2="100%"><stop offset="0%" stop-color="#F18E3E"/><stop offset="100%" stop-color="#EC7211"/></linearGradient></defs><g><line style="stroke:#ABB6C2;stroke-width:0.5208333333333334;stroke-dasharray:5.0,5.0;" x1="95.8333" x2="95.8333" y1="65.3002" y2="319.5343"/><line style="stroke:#ABB6C2;stroke-width:0.5208333333333334;stroke-dasharray:5.0,5.0;" x1="303.6458" x2="303.6458" y1="65.3002" y2="319.5343"/><line style="stroke:#ABB6C2;stroke-width:0.5208333333333334;stroke-dasharray:5.0,5.0;" x1="558.8542" x2="558.8542" y1="65.3002" y2="319.5343"/><rect fill="url(#gv7nqmgni7ytq0)" height="42.0251" rx="4.1667" ry="4.1667" style="stroke:#EC7211;stroke-width:0.5208333333333334;" width="98.9583" x="46.875" y="22.2335"/><text fill="#FFFFFF" font-family="Verdana" font-size="12.5" lengthAdjust="spacing" textLength="73.9583" x="59.375" y="48.096">Third parties</text><rect fill="url(#gv7nqmgni7ytq0)" height="42.0251" rx="4.1667" ry="4.1667" style="stroke:#EC7211;stroke-width:0.5208333333333334;" width="98.9583" x="46.875" y="318.4926"/><text fill="#FFFFFF" font-family="Verdana" font-size="12.5" lengthAdjust="spacing" textLength="73.9583" x="59.375" y="344.3552">Third parties</text><rect fill="url(#gv7nqmgni7ytq0)" height="59.0502" rx="4.1667" ry="4.1667" style="stroke:#EC7211;stroke-width:0.5208333333333334;" width="77.0833" x="265.1042" y="5.2083"/><text fill="#FFFFFF" font-family="Verdana" font-size="12.5" lengthAdjust="spacing" textLength="52.0833" x="277.6042" y="31.0709">Analytics</text><text fill="#FFFFFF" font-family="Verdana" font-size="12.5" lengthAdjust="spacing" textLength="50" x="278.6458" y="48.096">Exporter</text><rect fill="url(#gv7nqmgni7ytq0)" height="59.0502" rx="4.1667" ry="4.1667" style="stroke:#EC7211;stroke-width:0.5208333333333334;" width="77.0833" x="265.1042" y="318.4926"/><text fill="#FFFFFF" font-family="Verdana" font-size="12.5" lengthAdjust="spacing" textLength="52.0833" x="277.6042" y="344.3552">Analytics</text><text fill="#FFFFFF" font-family="Verdana" font-size="12.5" lengthAdjust="spacing" textLength="50" x="278.6458" y="361.3803">Exporter</text><rect fill="url(#gv7nqmgni7ytq0)" height="59.0502" rx="4.1667" ry="4.1667" style="stroke:#EC7211;stroke-width:0.5208333333333334;" width="77.0833" x="520.3125" y="5.2083"/><text fill="#FFFFFF" font-family="Verdana" font-size="12.5" lengthAdjust="spacing" textLength="52.0833" x="532.8125" y="31.0709">Analytics</text><text fill="#FFFFFF" font-family="Verdana" font-size="12.5" lengthAdjust="spacing" textLength="45.8333" x="535.9375" y="48.096">Storage</text><rect fill="url(#gv7nqmgni7ytq0)" height="59.0502" rx="4.1667" ry="4.1667" style="stroke:#EC7211;stroke-width:0.5208333333333334;" width="77.0833" x="520.3125" y="318.4926"/><text fill="#FFFFFF" font-family="Verdana" font-size="12.5" lengthAdjust="spacing" textLength="52.0833" x="532.8125" y="344.3552">Analytics</text><text fill="#FFFFFF" font-family="Verdana" font-size="12.5" lengthAdjust="spacing" textLength="45.8333" x="535.9375" y="361.3803">Storage</text><polygon fill="#EC7211" points="107.8125,105.242,97.3958,109.4087,107.8125,113.5754,103.6458,109.4087" style="stroke:#EC7211;stroke-width:1.0416666666666667;"/><polygon fill="#EC7211" points="291.1458,105.242,301.5625,109.4087,291.1458,113.5754,295.3125,109.4087" style="stroke:#EC7211;stroke-width:1.0416666666666667;"/><line style="stroke:#EC7211;stroke-width:3.125;" x1="101.5625" x2="297.3958" y1="109.4087" y2="109.4087"/><text fill="#4E5D6C" font-family="Verdana" font-size="12.5" font-weight="bold" lengthAdjust="spacing" textLength="7.2917" x="119.2708" y="98.4545">1</text><text fill="#4E5D6C" font-family="Verdana" font-size="12.5" lengthAdjust="spacing" textLength="97.9167" x="141.1458" y="98.4545">HTTP, Streaming</text><path d="M187.5,127.117 L187.5,172.9504 A4.1667,4.1667 0 0 0 191.6667,177.117 L414.5833,177.117 A4.1667,4.1667 0 0 0 418.75,172.9504 L418.75,133.367 L408.3333,122.9504 L191.6667,122.9504 A4.1667,4.1667 0 0 0 187.5,127.117 " fill="#0073BB" style="stroke:#005C96;stroke-width:1.0416666666666667;"/><path d="M408.3333,122.9504 L408.3333,131.2837 A2.0833,2.0833 0 0 0 410.4167,133.367 L418.75,133.367 L408.3333,122.9504 " fill="#0073BB" style="stroke:#005C96;stroke-width:1.0416666666666667;"/><text fill="#FFFFFF" font-family="Verdana" font-size="12.5" lengthAdjust="spacing" textLength="160.4167" x="198.9583" y="146.7296">Data service can be offered</text><text fill="#FFFFFF" font-family="Verdana" font-size="12.5" lengthAdjust="spacing" textLength="198.9583" x="198.9583" y="163.7547">in different formats and interfaces</text><polygon fill="#EC7211" points="546.3542,212.5674,556.7708,216.734,546.3542,220.9007,550.5208,216.734" style="stroke:#EC7211;stroke-width:1.0416666666666667;"/><line style="stroke:#EC7211;stroke-width:3.125;" x1="303.6458" x2="552.6042" y1="216.734" y2="216.734"/><text fill="#4E5D6C" font-family="Verdana" font-size="12.5" font-weight="bold" lengthAdjust="spacing" textLength="7.2917" x="316.1458" y="205.7799">2</text><text fill="#4E5D6C" font-family="Verdana" font-size="12.5" lengthAdjust="spacing" textLength="197.9167" x="338.0208" y="205.7799">Report / Raw analytic data request</text><polygon fill="#EC7211" points="315.1042,254.5925,304.6875,258.7592,315.1042,262.9258,310.9375,258.7592" style="stroke:#EC7211;stroke-width:1.0416666666666667;"/><line style="stroke:#EC7211;stroke-width:3.125;stroke-dasharray:2.0,2.0;" x1="308.8542" x2="557.8125" y1="258.7592" y2="258.7592"/><text fill="#4E5D6C" font-family="Verdana" font-size="12.5" font-weight="bold" lengthAdjust="spacing" textLength="7.2917" x="326.5625" y="247.805">3</text><text fill="#4E5D6C" font-family="Verdana" font-size="12.5" lengthAdjust="spacing" textLength="28.125" x="348.4375" y="247.805">Data</text><polygon fill="#EC7211" points="107.8125,296.6176,97.3958,300.7843,107.8125,304.951,103.6458,300.7843" style="stroke:#EC7211;stroke-width:1.0416666666666667;"/><line style="stroke:#EC7211;stroke-width:3.125;stroke-dasharray:2.0,2.0;" x1="101.5625" x2="302.6042" y1="300.7843" y2="300.7843"/><text fill="#4E5D6C" font-family="Verdana" font-size="12.5" font-weight="bold" lengthAdjust="spacing" textLength="7.2917" x="119.2708" y="289.8301">4</text><text fill="#4E5D6C" font-family="Verdana" font-size="12.5" lengthAdjust="spacing" textLength="150" x="141.1458" y="289.8301">Report / Raw analytic data</text><!--SRC=[dLJ1Rfmm4BtxAwPxoQLHrMjKLMgQAhcagh9RzR8I6im0LenDRHEwVz_1QpP0eOTmOjwyz_myDhmBDJK4sFjhwz1K98H_LgP5XmtSedokdErCyTLgww2lLQ197sMmpeUJ7Wp8suO4Ti6Qhid9mKSXhY83TZyzkHsWXuvVn1MhWvAgHHDWzuXA7qrhjKwSXe7iNAzIjVA1p9Gy8glqKkb0RaeVaGNzrbhUMNKqod2xH4bHaf_Xx89koJnl5QkvA65Rak1umYdQA4dOGlBT1bMgH3MfM72-L6JawMYaDOQ6mJCvGja5MIZkx_PpkeUgy9lqVOtZ87ryNVQjLAZXaGg5IryVUvlM3wJRexd7G3sUeg1c9AlEm89yXu7zl_rfhGifJy5GHWbPpiMWFd7fUO7Xck2O2ST6LetujdG_ETvNuVe1JsIpbA-wZQY_A8_4dlAbPTkUBTfMY5ddK2jNG8J8HquOa2mXugt9tZO8CLiSFbr_Nl6-WOV3uSTxs0T7sF2j5tob2UmB_pPMaW0_mva3_prUb2IGQ21dVbdoTrp4lZ9Gg5XptDAw1iCGhu3BT-i5SJai9FvT0sOvqsPku8c6Ddo09-ml_NZPmD7lZdmGZaBdJCotwil6iv7yprJy1G00]--></g></svg>