<?xml version="1.0" encoding="us-ascii" standalone="no"?><svg xmlns="http://www.w3.org/2000/svg" xmlns:xlink="http://www.w3.org/1999/xlink" contentStyleType="text/css" height="791.6667px" preserveAspectRatio="none" style="width:1305px;height:791px;background:#FFFFFF;" version="1.1" viewBox="0 0 1305 791" width="1305.2083px" zoomAndPan="magnify"><defs><linearGradient id="g1lbgr46qj52fs0" x1="50%" x2="50%" y1="0%" y2="100%"><stop offset="0%" stop-color="#F18E3E"/><stop offset="100%" stop-color="#EC7211"/></linearGradient></defs><g><line style="stroke:#ABB6C2;stroke-width:0.5208333333333334;stroke-dasharray:5.0,5.0;" x1="70.8333" x2="70.8333" y1="98.2751" y2="694.2769"/><line style="stroke:#ABB6C2;stroke-width:0.5208333333333334;stroke-dasharray:5.0,5.0;" x1="342.7083" x2="342.7083" y1="98.2751" y2="694.2769"/><line style="stroke:#ABB6C2;stroke-width:0.5208333333333334;stroke-dasharray:5.0,5.0;" x1="510.4167" x2="510.4167" y1="98.2751" y2="694.2769"/><line style="stroke:#ABB6C2;stroke-width:0.5208333333333334;stroke-dasharray:5.0,5.0;" x1="725" x2="725" y1="98.2751" y2="694.2769"/><line style="stroke:#ABB6C2;stroke-width:0.5208333333333334;stroke-dasharray:5.0,5.0;" x1="964.5833" x2="964.5833" y1="98.2751" y2="694.2769"/><line style="stroke:#ABB6C2;stroke-width:0.5208333333333334;stroke-dasharray:5.0,5.0;" x1="1154.1667" x2="1154.1667" y1="98.2751" y2="694.2769"/><line style="stroke:#ABB6C2;stroke-width:0.5208333333333334;stroke-dasharray:5.0,5.0;" x1="1269.7917" x2="1269.7917" y1="98.2751" y2="694.2769"/><rect fill="url(#g1lbgr46qj52fs0)" height="42.0251" rx="4.1667" ry="4.1667" style="stroke:#EC7211;stroke-width:0.5208333333333334;" width="47.9167" x="46.875" y="55.2083"/><text fill="#FFFFFF" font-family="Verdana" font-size="12.5" lengthAdjust="spacing" textLength="22.9167" x="59.375" y="81.0709">App</text><rect fill="url(#g1lbgr46qj52fs0)" height="42.0251" rx="4.1667" ry="4.1667" style="stroke:#EC7211;stroke-width:0.5208333333333334;" width="47.9167" x="46.875" y="693.2352"/><text fill="#FFFFFF" font-family="Verdana" font-size="12.5" lengthAdjust="spacing" textLength="22.9167" x="59.375" y="719.0978">App</text><rect fill="url(#g1lbgr46qj52fs0)" height="59.0502" rx="4.1667" ry="4.1667" style="stroke:#EC7211;stroke-width:0.5208333333333334;" width="77.0833" x="304.1667" y="38.1832"/><text fill="#FFFFFF" font-family="Verdana" font-size="12.5" lengthAdjust="spacing" textLength="46.875" x="319.2708" y="64.0458">Booking</text><text fill="#FFFFFF" font-family="Verdana" font-size="12.5" lengthAdjust="spacing" textLength="52.0833" x="316.6667" y="81.0709">interface</text><rect fill="url(#g1lbgr46qj52fs0)" height="59.0502" rx="4.1667" ry="4.1667" style="stroke:#EC7211;stroke-width:0.5208333333333334;" width="77.0833" x="304.1667" y="693.2352"/><text fill="#FFFFFF" font-family="Verdana" font-size="12.5" lengthAdjust="spacing" textLength="46.875" x="319.2708" y="719.0978">Booking</text><text fill="#FFFFFF" font-family="Verdana" font-size="12.5" lengthAdjust="spacing" textLength="52.0833" x="316.6667" y="736.123">interface</text><rect fill="url(#g1lbgr46qj52fs0)" height="59.0502" rx="4.1667" ry="4.1667" style="stroke:#EC7211;stroke-width:0.5208333333333334;" width="71.875" x="475" y="38.1832"/><text fill="#FFFFFF" font-family="Verdana" font-size="12.5" lengthAdjust="spacing" textLength="46.875" x="487.5" y="64.0458">Booking</text><text fill="#FFFFFF" font-family="Verdana" font-size="12.5" lengthAdjust="spacing" textLength="44.7917" x="488.5417" y="81.0709">storage</text><rect fill="url(#g1lbgr46qj52fs0)" height="59.0502" rx="4.1667" ry="4.1667" style="stroke:#EC7211;stroke-width:0.5208333333333334;" width="71.875" x="475" y="693.2352"/><text fill="#FFFFFF" font-family="Verdana" font-size="12.5" lengthAdjust="spacing" textLength="46.875" x="487.5" y="719.0978">Booking</text><text fill="#FFFFFF" font-family="Verdana" font-size="12.5" lengthAdjust="spacing" textLength="44.7917" x="488.5417" y="736.123">storage</text><rect fill="url(#g1lbgr46qj52fs0)" height="76.0754" rx="4.1667" ry="4.1667" style="stroke:#EC7211;stroke-width:0.5208333333333334;" width="169.7917" x="640.625" y="21.1581"/><text fill="#FFFFFF" font-family="Verdana" font-size="12.5" lengthAdjust="spacing" textLength="73.9583" x="688.5417" y="47.0207">Third parties</text><text fill="#FFFFFF" font-family="Verdana" font-size="12.5" lengthAdjust="spacing" textLength="144.7917" x="653.125" y="64.0458">Complementary services</text><text fill="#FFFFFF" font-family="Verdana" font-size="12.5" lengthAdjust="spacing" textLength="58.3333" x="696.3542" y="81.0709">connector</text><rect fill="url(#g1lbgr46qj52fs0)" height="76.0754" rx="4.1667" ry="4.1667" style="stroke:#EC7211;stroke-width:0.5208333333333334;" width="169.7917" x="640.625" y="693.2352"/><text fill="#FFFFFF" font-family="Verdana" font-size="12.5" lengthAdjust="spacing" textLength="73.9583" x="688.5417" y="719.0978">Third parties</text><text fill="#FFFFFF" font-family="Verdana" font-size="12.5" lengthAdjust="spacing" textLength="144.7917" x="653.125" y="736.123">Complementary services</text><text fill="#FFFFFF" font-family="Verdana" font-size="12.5" lengthAdjust="spacing" textLength="58.3333" x="696.3542" y="753.1481">connector</text><rect fill="url(#g1lbgr46qj52fs0)" height="42.0251" rx="4.1667" ry="4.1667" style="stroke:#EC7211;stroke-width:0.5208333333333334;" width="121.875" x="904.1667" y="55.2083"/><text fill="#FFFFFF" font-family="Verdana" font-size="12.5" lengthAdjust="spacing" textLength="96.875" x="916.6667" y="81.0709">Third parties API</text><rect fill="url(#g1lbgr46qj52fs0)" height="42.0251" rx="4.1667" ry="4.1667" style="stroke:#EC7211;stroke-width:0.5208333333333334;" width="121.875" x="904.1667" y="693.2352"/><text fill="#FFFFFF" font-family="Verdana" font-size="12.5" lengthAdjust="spacing" textLength="96.875" x="916.6667" y="719.0978">Third parties API</text><rect fill="url(#g1lbgr46qj52fs0)" height="42.0251" rx="4.1667" ry="4.1667" style="stroke:#EC7211;stroke-width:0.5208333333333334;" width="68.75" x="1119.7917" y="55.2083"/><text fill="#FFFFFF" font-family="Verdana" font-size="12.5" lengthAdjust="spacing" textLength="43.75" x="1132.2917" y="81.0709">Notifier</text><rect fill="url(#g1lbgr46qj52fs0)" height="42.0251" rx="4.1667" ry="4.1667" style="stroke:#EC7211;stroke-width:0.5208333333333334;" width="68.75" x="1119.7917" y="693.2352"/><text fill="#FFFFFF" font-family="Verdana" font-size="12.5" lengthAdjust="spacing" textLength="43.75" x="1132.2917" y="719.0978">Notifier</text><text fill="#4E5D6C" font-family="Verdana" font-size="12.5" lengthAdjust="spacing" textLength="28.125" x="1253.125" y="89.4043">User</text><ellipse cx="1270.3125" cy="23.4375" fill="url(#g1lbgr46qj52fs0)" rx="16.6667" ry="16.6667" style="stroke:#EC7211;stroke-width:1.5625;"/><path d="M1270.3125,44.2708 C1274.4792,44.2708 1277.6042,44.2708 1281.7708,40.1042 C1290.1042,40.1042 1298.4375,48.4375 1298.4375,56.7708 L1298.4375,60.9375 C1298.4375,65.1042 1294.2708,69.2708 1290.1042,69.2708 L1250.5208,69.2708 C1246.3542,69.2708 1242.1875,65.1042 1242.1875,60.9375 L1242.1875,56.7708 C1242.1875,48.4375 1250.5208,40.1042 1258.8542,40.1042 C1263.0208,44.2708 1266.1458,44.2708 1270.3125,44.2708 " fill="url(#g1lbgr46qj52fs0)" style="stroke:#EC7211;stroke-width:1.5625;"/><text fill="#4E5D6C" font-family="Verdana" font-size="12.5" lengthAdjust="spacing" textLength="28.125" x="1253.125" y="711.8062">User</text><ellipse cx="1270.3125" cy="738.9062" fill="url(#g1lbgr46qj52fs0)" rx="16.6667" ry="16.6667" style="stroke:#EC7211;stroke-width:1.5625;"/><path d="M1270.3125,759.7395 C1274.4792,759.7395 1277.6042,759.7395 1281.7708,755.5729 C1290.1042,755.5729 1298.4375,763.9062 1298.4375,772.2395 L1298.4375,776.4062 C1298.4375,780.5729 1294.2708,784.7395 1290.1042,784.7395 L1250.5208,784.7395 C1246.3542,784.7395 1242.1875,780.5729 1242.1875,776.4062 L1242.1875,772.2395 C1242.1875,763.9062 1250.5208,755.5729 1258.8542,755.5729 C1263.0208,759.7395 1266.1458,759.7395 1270.3125,759.7395 " fill="url(#g1lbgr46qj52fs0)" style="stroke:#EC7211;stroke-width:1.5625;"/><line style="stroke:#EC7211;stroke-width:3.125;" x1="70.8333" x2="114.5833" y1="159.4087" y2="159.4087"/><line style="stroke:#EC7211;stroke-width:3.125;" x1="114.5833" x2="114.5833" y1="159.4087" y2="172.9504"/><line style="stroke:#EC7211;stroke-width:3.125;" x1="71.875" x2="114.5833" y1="172.9504" y2="172.9504"/><polygon fill="#EC7211" points="82.2917,168.7837,71.875,172.9504,82.2917,177.117,78.125,172.9504" style="stroke:#EC7211;stroke-width:1.0416666666666667;"/><text fill="#4E5D6C" font-family="Verdana" font-size="12.5" font-weight="bold" lengthAdjust="spacing" textLength="7.2917" x="83.3333" y="139.9419">1</text><text fill="#4E5D6C" font-family="Verdana" font-size="12.5" lengthAdjust="spacing" textLength="140.625" x="105.2083" y="131.4294">Obtains geolocation info</text><text fill="#4E5D6C" font-family="Verdana" font-size="12.5" lengthAdjust="spacing" textLength="197.9167" x="105.2083" y="148.4545">Eg: Smartphone GPS, Cell tower id</text><polygon fill="#EC7211" points="330.2083,210.8088,340.625,214.9755,330.2083,219.1421,334.375,214.9755" style="stroke:#EC7211;stroke-width:1.0416666666666667;"/><line style="stroke:#EC7211;stroke-width:3.125;" x1="70.8333" x2="336.4583" y1="214.9755" y2="214.9755"/><text fill="#4E5D6C" font-family="Verdana" font-size="12.5" font-weight="bold" lengthAdjust="spacing" textLength="7.2917" x="83.3333" y="204.0213">2</text><text fill="#4E5D6C" font-family="Verdana" font-size="12.5" lengthAdjust="spacing" textLength="196.875" x="105.2083" y="204.0213">Request geolocation based advice</text><polygon fill="#EC7211" points="498.4375,252.8339,508.8542,257.0006,498.4375,261.1673,502.6042,257.0006" style="stroke:#EC7211;stroke-width:1.0416666666666667;"/><line style="stroke:#EC7211;stroke-width:3.125;" x1="342.7083" x2="504.6875" y1="257.0006" y2="257.0006"/><text fill="#4E5D6C" font-family="Verdana" font-size="12.5" font-weight="bold" lengthAdjust="spacing" textLength="7.2917" x="355.2083" y="246.0464">3</text><text fill="#4E5D6C" font-family="Verdana" font-size="12.5" lengthAdjust="spacing" textLength="45.8333" x="377.0833" y="246.0464">Get info</text><polygon fill="#EC7211" points="354.1667,294.859,343.75,299.0257,354.1667,303.1924,350,299.0257" style="stroke:#EC7211;stroke-width:1.0416666666666667;"/><line style="stroke:#EC7211;stroke-width:3.125;stroke-dasharray:2.0,2.0;" x1="347.9167" x2="509.8958" y1="299.0257" y2="299.0257"/><text fill="#4E5D6C" font-family="Verdana" font-size="12.5" font-weight="bold" lengthAdjust="spacing" textLength="7.2917" x="365.625" y="288.0715">4</text><text fill="#4E5D6C" font-family="Verdana" font-size="12.5" lengthAdjust="spacing" textLength="97.9167" x="387.5" y="288.0715">Index of services</text><polygon fill="#EC7211" points="713.0208,336.8842,723.4375,341.0508,713.0208,345.2175,717.1875,341.0508" style="stroke:#EC7211;stroke-width:1.0416666666666667;"/><line style="stroke:#EC7211;stroke-width:3.125;" x1="342.7083" x2="719.2708" y1="341.0508" y2="341.0508"/><text fill="#4E5D6C" font-family="Verdana" font-size="12.5" font-weight="bold" lengthAdjust="spacing" textLength="7.2917" x="355.2083" y="330.0966">5</text><text fill="#4E5D6C" font-family="Verdana" font-size="12.5" lengthAdjust="spacing" textLength="227.0833" x="377.0833" y="330.0966">Get current info on services and events</text><polygon fill="#EC7211" points="952.6042,378.9093,963.0208,383.076,952.6042,387.2426,956.7708,383.076" style="stroke:#EC7211;stroke-width:1.0416666666666667;"/><line style="stroke:#EC7211;stroke-width:3.125;" x1="725.5208" x2="958.8542" y1="383.076" y2="383.076"/><text fill="#4E5D6C" font-family="Verdana" font-size="12.5" font-weight="bold" lengthAdjust="spacing" textLength="7.2917" x="738.0208" y="372.1218">6</text><text fill="#4E5D6C" font-family="Verdana" font-size="12.5" lengthAdjust="spacing" textLength="50" x="759.8958" y="372.1218">Get data</text><polygon fill="#EC7211" points="736.9792,420.9344,726.5625,425.1011,736.9792,429.2677,732.8125,425.1011" style="stroke:#EC7211;stroke-width:1.0416666666666667;"/><line style="stroke:#EC7211;stroke-width:3.125;stroke-dasharray:2.0,2.0;" x1="730.7292" x2="964.0625" y1="425.1011" y2="425.1011"/><text fill="#4E5D6C" font-family="Verdana" font-size="12.5" font-weight="bold" lengthAdjust="spacing" textLength="7.2917" x="748.4375" y="414.1469">7</text><text fill="#4E5D6C" font-family="Verdana" font-size="12.5" lengthAdjust="spacing" textLength="28.125" x="770.3125" y="414.1469">Data</text><polygon fill="#EC7211" points="354.1667,462.9595,343.75,467.1262,354.1667,471.2929,350,467.1262" style="stroke:#EC7211;stroke-width:1.0416666666666667;"/><line style="stroke:#EC7211;stroke-width:3.125;stroke-dasharray:2.0,2.0;" x1="347.9167" x2="724.4792" y1="467.1262" y2="467.1262"/><text fill="#4E5D6C" font-family="Verdana" font-size="12.5" font-weight="bold" lengthAdjust="spacing" textLength="7.2917" x="365.625" y="456.172">8</text><text fill="#4E5D6C" font-family="Verdana" font-size="12.5" lengthAdjust="spacing" textLength="3.125" x="387.5" y="456.172">&#160;</text><polygon fill="#EC7211" points="82.2917,504.9846,71.875,509.1513,82.2917,513.318,78.125,509.1513" style="stroke:#EC7211;stroke-width:1.0416666666666667;"/><line style="stroke:#EC7211;stroke-width:3.125;stroke-dasharray:2.0,2.0;" x1="76.0417" x2="341.6667" y1="509.1513" y2="509.1513"/><text fill="#4E5D6C" font-family="Verdana" font-size="12.5" font-weight="bold" lengthAdjust="spacing" textLength="7.2917" x="93.75" y="498.1971">9</text><text fill="#4E5D6C" font-family="Verdana" font-size="12.5" lengthAdjust="spacing" textLength="214.5833" x="115.625" y="498.1971">Render local events and services info</text><polygon fill="#EC7211" points="1141.6667,547.0098,1152.0833,551.1764,1141.6667,555.3431,1145.8333,551.1764" style="stroke:#EC7211;stroke-width:1.0416666666666667;"/><line style="stroke:#EC7211;stroke-width:3.125;" x1="342.7083" x2="1147.9167" y1="551.1764" y2="551.1764"/><text fill="#4E5D6C" font-family="Verdana" font-size="12.5" font-weight="bold" lengthAdjust="spacing" textLength="14.5833" x="355.2083" y="540.2222">10</text><text fill="#4E5D6C" font-family="Verdana" font-size="12.5" lengthAdjust="spacing" textLength="110.4167" x="384.375" y="540.2222">Trigger notification</text><path d="M1032.2917,568.8848 L1032.2917,632.4264 A4.1667,4.1667 0 0 0 1036.4583,636.5931 L1270.8333,636.5931 A4.1667,4.1667 0 0 0 1275,632.4264 L1275,575.1348 L1264.5833,564.7181 L1036.4583,564.7181 A4.1667,4.1667 0 0 0 1032.2917,568.8848 " fill="#0073BB" style="stroke:#005C96;stroke-width:1.0416666666666667;"/><path d="M1264.5833,564.7181 L1264.5833,573.0514 A2.0833,2.0833 0 0 0 1266.6667,575.1348 L1275,575.1348 L1264.5833,564.7181 " fill="#0073BB" style="stroke:#005C96;stroke-width:1.0416666666666667;"/><text fill="#FFFFFF" font-family="Verdana" font-size="12.5" lengthAdjust="spacing" textLength="173.9583" x="1043.75" y="588.4974">User will be notified on critical</text><text fill="#FFFFFF" font-family="Verdana" font-size="12.5" lengthAdjust="spacing" textLength="210.4167" x="1043.75" y="605.5225">events and services in all app clients</text><text fill="#FFFFFF" font-family="Verdana" font-size="12.5" lengthAdjust="spacing" textLength="110.4167" x="1043.75" y="622.5476">Mobile or Web App</text><polygon fill="#EC7211" points="82.2917,671.3602,71.875,675.5269,82.2917,679.6936,78.125,675.5269" style="stroke:#EC7211;stroke-width:1.0416666666666667;"/><line style="stroke:#EC7211;stroke-width:3.125;" x1="76.0417" x2="1153.125" y1="675.5269" y2="675.5269"/><text fill="#4E5D6C" font-family="Verdana" font-size="12.5" font-weight="bold" lengthAdjust="spacing" textLength="14.5833" x="93.75" y="664.5727">11</text><text fill="#4E5D6C" font-family="Verdana" font-size="12.5" lengthAdjust="spacing" textLength="207.2917" x="122.9167" y="664.5727">Notify local events and services info</text><!--SRC=[XLN1Rjim3BthAxXSTbaFk-Ome4s7h8TiHTDXbm06RJEEK5do93bf_dwKR6MnOwCvsOzyp-GZYNpo1we9yEJkZ4LTaH3kJUe6BTRmWCLRPKshovLHniBf83rTnR7mnZf_La60dAb9OEkDRkkSB7mLuZFdULd81hM7nGQbskd6A4Ls0UYWPY3htYTJbNIUz7LoGYRJzr9vijVf2HcbFnZ3FLGxxIrts1Fo3inwR4HPFsvtkZ1QK-Wv4ghIPHTabBuzO2h4nSTnt1GI5Moeb3ZMTJ4sA_s3LBFJQ_HqmdCa71Z9gWuO9J-YP_tlxusnlg-dP2YZ7XcbtsjKPtvr_85WCwQQC0MoAk7pr2r7iQ8HqNNeF6rGvN_UJAb_A8-99yg564esJIVHD69wx5AptXuB6Wp-Wiwmt5LRYPEQ6Z1U3zAM427YlbQcRXGVcVPep-387cKHyE7KVI1bFUbg-FFASF_yD475HWv9FusNUzdxgliN4MyN5hzT7sZvGGZs3Ew-1UkMy2ltA3NlEV7n5-YbqI3rtl2agYLiQ_v6Sp2QOFsy_G8hKWgyEV7XopBft5YxX1VwsvBp0zKS7PM0PJ16t72kXNg_bx0c7uiHbdnhDJpfajx1x2_-JklCkDpf5QsrFAMe2rnMak9bB86E779YHk1McyVGgOPxIrM6SvoNc39igeqqe1VYfYq46rLVNoprKdSqQDA7j0PBUBMogbYbGxg127uXCCSBpAi1_0lB0YV9WyufHShWL64bxnkgc3LT2I3JmbeKIaOdG-h6v9B_FBXvFcVWmnNSKb0caJvyMSUunkUFklq7]--></g></svg>