<?xml version="1.0" encoding="us-ascii" standalone="no"?><svg xmlns="http://www.w3.org/2000/svg" xmlns:xlink="http://www.w3.org/1999/xlink" contentStyleType="text/css" height="791.6667px" preserveAspectRatio="none" style="width:1303px;height:791px;background:#FFFFFF;" version="1.1" viewBox="0 0 1303 791" width="1303.125px" zoomAndPan="magnify"><defs><linearGradient id="g1w9sizwwotqg60" x1="50%" x2="50%" y1="0%" y2="100%"><stop offset="0%" stop-color="#F18E3E"/><stop offset="100%" stop-color="#EC7211"/></linearGradient></defs><g><line style="stroke:#ABB6C2;stroke-width:0.5208333333333334;stroke-dasharray:5.0,5.0;" x1="70.8333" x2="70.8333" y1="98.2751" y2="694.2769"/><line style="stroke:#ABB6C2;stroke-width:0.5208333333333334;stroke-dasharray:5.0,5.0;" x1="342.1875" x2="342.1875" y1="98.2751" y2="694.2769"/><line style="stroke:#ABB6C2;stroke-width:0.5208333333333334;stroke-dasharray:5.0,5.0;" x1="507.8125" x2="507.8125" y1="98.2751" y2="694.2769"/><line style="stroke:#ABB6C2;stroke-width:0.5208333333333334;stroke-dasharray:5.0,5.0;" x1="722.3958" x2="722.3958" y1="98.2751" y2="694.2769"/><line style="stroke:#ABB6C2;stroke-width:0.5208333333333334;stroke-dasharray:5.0,5.0;" x1="961.9792" x2="961.9792" y1="98.2751" y2="694.2769"/><line style="stroke:#ABB6C2;stroke-width:0.5208333333333334;stroke-dasharray:5.0,5.0;" x1="1151.5625" x2="1151.5625" y1="98.2751" y2="694.2769"/><line style="stroke:#ABB6C2;stroke-width:0.5208333333333334;stroke-dasharray:5.0,5.0;" x1="1267.1875" x2="1267.1875" y1="98.2751" y2="694.2769"/><rect fill="url(#g1w9sizwwotqg60)" height="42.0251" rx="4.1667" ry="4.1667" style="stroke:#EC7211;stroke-width:0.5208333333333334;" width="47.9167" x="46.875" y="55.2083"/><text fill="#FFFFFF" font-family="Verdana" font-size="12.5" lengthAdjust="spacing" textLength="22.9167" x="59.375" y="81.0709">App</text><rect fill="url(#g1w9sizwwotqg60)" height="42.0251" rx="4.1667" ry="4.1667" style="stroke:#EC7211;stroke-width:0.5208333333333334;" width="47.9167" x="46.875" y="693.2352"/><text fill="#FFFFFF" font-family="Verdana" font-size="12.5" lengthAdjust="spacing" textLength="22.9167" x="59.375" y="719.0978">App</text><rect fill="url(#g1w9sizwwotqg60)" height="59.0502" rx="4.1667" ry="4.1667" style="stroke:#EC7211;stroke-width:0.5208333333333334;" width="71.875" x="306.7708" y="38.1832"/><text fill="#FFFFFF" font-family="Verdana" font-size="12.5" lengthAdjust="spacing" textLength="46.875" x="319.2708" y="64.0458">Booking</text><text fill="#FFFFFF" font-family="Verdana" font-size="12.5" lengthAdjust="spacing" textLength="39.5833" x="322.9167" y="81.0709">Engine</text><rect fill="url(#g1w9sizwwotqg60)" height="59.0502" rx="4.1667" ry="4.1667" style="stroke:#EC7211;stroke-width:0.5208333333333334;" width="71.875" x="306.7708" y="693.2352"/><text fill="#FFFFFF" font-family="Verdana" font-size="12.5" lengthAdjust="spacing" textLength="46.875" x="319.2708" y="719.0978">Booking</text><text fill="#FFFFFF" font-family="Verdana" font-size="12.5" lengthAdjust="spacing" textLength="39.5833" x="322.9167" y="736.123">Engine</text><rect fill="url(#g1w9sizwwotqg60)" height="59.0502" rx="4.1667" ry="4.1667" style="stroke:#EC7211;stroke-width:0.5208333333333334;" width="71.875" x="472.3958" y="38.1832"/><text fill="#FFFFFF" font-family="Verdana" font-size="12.5" lengthAdjust="spacing" textLength="46.875" x="484.8958" y="64.0458">Booking</text><text fill="#FFFFFF" font-family="Verdana" font-size="12.5" lengthAdjust="spacing" textLength="44.7917" x="485.9375" y="81.0709">storage</text><rect fill="url(#g1w9sizwwotqg60)" height="59.0502" rx="4.1667" ry="4.1667" style="stroke:#EC7211;stroke-width:0.5208333333333334;" width="71.875" x="472.3958" y="693.2352"/><text fill="#FFFFFF" font-family="Verdana" font-size="12.5" lengthAdjust="spacing" textLength="46.875" x="484.8958" y="719.0978">Booking</text><text fill="#FFFFFF" font-family="Verdana" font-size="12.5" lengthAdjust="spacing" textLength="44.7917" x="485.9375" y="736.123">storage</text><rect fill="url(#g1w9sizwwotqg60)" height="76.0754" rx="4.1667" ry="4.1667" style="stroke:#EC7211;stroke-width:0.5208333333333334;" width="169.7917" x="638.0208" y="21.1581"/><text fill="#FFFFFF" font-family="Verdana" font-size="12.5" lengthAdjust="spacing" textLength="73.9583" x="685.9375" y="47.0207">Third parties</text><text fill="#FFFFFF" font-family="Verdana" font-size="12.5" lengthAdjust="spacing" textLength="144.7917" x="650.5208" y="64.0458">Complementary services</text><text fill="#FFFFFF" font-family="Verdana" font-size="12.5" lengthAdjust="spacing" textLength="58.3333" x="693.75" y="81.0709">connector</text><rect fill="url(#g1w9sizwwotqg60)" height="76.0754" rx="4.1667" ry="4.1667" style="stroke:#EC7211;stroke-width:0.5208333333333334;" width="169.7917" x="638.0208" y="693.2352"/><text fill="#FFFFFF" font-family="Verdana" font-size="12.5" lengthAdjust="spacing" textLength="73.9583" x="685.9375" y="719.0978">Third parties</text><text fill="#FFFFFF" font-family="Verdana" font-size="12.5" lengthAdjust="spacing" textLength="144.7917" x="650.5208" y="736.123">Complementary services</text><text fill="#FFFFFF" font-family="Verdana" font-size="12.5" lengthAdjust="spacing" textLength="58.3333" x="693.75" y="753.1481">connector</text><rect fill="url(#g1w9sizwwotqg60)" height="42.0251" rx="4.1667" ry="4.1667" style="stroke:#EC7211;stroke-width:0.5208333333333334;" width="121.875" x="901.5625" y="55.2083"/><text fill="#FFFFFF" font-family="Verdana" font-size="12.5" lengthAdjust="spacing" textLength="96.875" x="914.0625" y="81.0709">Third parties API</text><rect fill="url(#g1w9sizwwotqg60)" height="42.0251" rx="4.1667" ry="4.1667" style="stroke:#EC7211;stroke-width:0.5208333333333334;" width="121.875" x="901.5625" y="693.2352"/><text fill="#FFFFFF" font-family="Verdana" font-size="12.5" lengthAdjust="spacing" textLength="96.875" x="914.0625" y="719.0978">Third parties API</text><rect fill="url(#g1w9sizwwotqg60)" height="42.0251" rx="4.1667" ry="4.1667" style="stroke:#EC7211;stroke-width:0.5208333333333334;" width="68.75" x="1117.1875" y="55.2083"/><text fill="#FFFFFF" font-family="Verdana" font-size="12.5" lengthAdjust="spacing" textLength="43.75" x="1129.6875" y="81.0709">Notifier</text><rect fill="url(#g1w9sizwwotqg60)" height="42.0251" rx="4.1667" ry="4.1667" style="stroke:#EC7211;stroke-width:0.5208333333333334;" width="68.75" x="1117.1875" y="693.2352"/><text fill="#FFFFFF" font-family="Verdana" font-size="12.5" lengthAdjust="spacing" textLength="43.75" x="1129.6875" y="719.0978">Notifier</text><text fill="#4E5D6C" font-family="Verdana" font-size="12.5" lengthAdjust="spacing" textLength="28.125" x="1250.5208" y="89.4043">User</text><ellipse cx="1267.7083" cy="23.4375" fill="url(#g1w9sizwwotqg60)" rx="16.6667" ry="16.6667" style="stroke:#EC7211;stroke-width:1.5625;"/><path d="M1267.7083,44.2708 C1271.875,44.2708 1275,44.2708 1279.1667,40.1042 C1287.5,40.1042 1295.8333,48.4375 1295.8333,56.7708 L1295.8333,60.9375 C1295.8333,65.1042 1291.6667,69.2708 1287.5,69.2708 L1247.9167,69.2708 C1243.75,69.2708 1239.5833,65.1042 1239.5833,60.9375 L1239.5833,56.7708 C1239.5833,48.4375 1247.9167,40.1042 1256.25,40.1042 C1260.4167,44.2708 1263.5417,44.2708 1267.7083,44.2708 " fill="url(#g1w9sizwwotqg60)" style="stroke:#EC7211;stroke-width:1.5625;"/><text fill="#4E5D6C" font-family="Verdana" font-size="12.5" lengthAdjust="spacing" textLength="28.125" x="1250.5208" y="711.8062">User</text><ellipse cx="1267.7083" cy="738.9062" fill="url(#g1w9sizwwotqg60)" rx="16.6667" ry="16.6667" style="stroke:#EC7211;stroke-width:1.5625;"/><path d="M1267.7083,759.7395 C1271.875,759.7395 1275,759.7395 1279.1667,755.5729 C1287.5,755.5729 1295.8333,763.9062 1295.8333,772.2395 L1295.8333,776.4062 C1295.8333,780.5729 1291.6667,784.7395 1287.5,784.7395 L1247.9167,784.7395 C1243.75,784.7395 1239.5833,780.5729 1239.5833,776.4062 L1239.5833,772.2395 C1239.5833,763.9062 1247.9167,755.5729 1256.25,755.5729 C1260.4167,759.7395 1263.5417,759.7395 1267.7083,759.7395 " fill="url(#g1w9sizwwotqg60)" style="stroke:#EC7211;stroke-width:1.5625;"/><line style="stroke:#EC7211;stroke-width:3.125;" x1="70.8333" x2="114.5833" y1="159.4087" y2="159.4087"/><line style="stroke:#EC7211;stroke-width:3.125;" x1="114.5833" x2="114.5833" y1="159.4087" y2="172.9504"/><line style="stroke:#EC7211;stroke-width:3.125;" x1="71.875" x2="114.5833" y1="172.9504" y2="172.9504"/><polygon fill="#EC7211" points="82.2917,168.7837,71.875,172.9504,82.2917,177.117,78.125,172.9504" style="stroke:#EC7211;stroke-width:1.0416666666666667;"/><text fill="#4E5D6C" font-family="Verdana" font-size="12.5" font-weight="bold" lengthAdjust="spacing" textLength="7.2917" x="83.3333" y="139.9419">1</text><text fill="#4E5D6C" font-family="Verdana" font-size="12.5" lengthAdjust="spacing" textLength="140.625" x="105.2083" y="131.4294">Obtains geolocation info</text><text fill="#4E5D6C" font-family="Verdana" font-size="12.5" lengthAdjust="spacing" textLength="197.9167" x="105.2083" y="148.4545">Eg: Smartphone GPS, Cell tower id</text><polygon fill="#EC7211" points="330.2083,210.8088,340.625,214.9755,330.2083,219.1421,334.375,214.9755" style="stroke:#EC7211;stroke-width:1.0416666666666667;"/><line style="stroke:#EC7211;stroke-width:3.125;" x1="70.8333" x2="336.4583" y1="214.9755" y2="214.9755"/><text fill="#4E5D6C" font-family="Verdana" font-size="12.5" font-weight="bold" lengthAdjust="spacing" textLength="7.2917" x="83.3333" y="204.0213">2</text><text fill="#4E5D6C" font-family="Verdana" font-size="12.5" lengthAdjust="spacing" textLength="196.875" x="105.2083" y="204.0213">Request geolocation based advice</text><polygon fill="#EC7211" points="495.8333,252.8339,506.25,257.0006,495.8333,261.1673,500,257.0006" style="stroke:#EC7211;stroke-width:1.0416666666666667;"/><line style="stroke:#EC7211;stroke-width:3.125;" x1="342.7083" x2="502.0833" y1="257.0006" y2="257.0006"/><text fill="#4E5D6C" font-family="Verdana" font-size="12.5" font-weight="bold" lengthAdjust="spacing" textLength="7.2917" x="355.2083" y="246.0464">3</text><text fill="#4E5D6C" font-family="Verdana" font-size="12.5" lengthAdjust="spacing" textLength="45.8333" x="377.0833" y="246.0464">Get info</text><polygon fill="#EC7211" points="354.1667,294.859,343.75,299.0257,354.1667,303.1924,350,299.0257" style="stroke:#EC7211;stroke-width:1.0416666666666667;"/><line style="stroke:#EC7211;stroke-width:3.125;stroke-dasharray:2.0,2.0;" x1="347.9167" x2="507.2917" y1="299.0257" y2="299.0257"/><text fill="#4E5D6C" font-family="Verdana" font-size="12.5" font-weight="bold" lengthAdjust="spacing" textLength="7.2917" x="365.625" y="288.0715">4</text><text fill="#4E5D6C" font-family="Verdana" font-size="12.5" lengthAdjust="spacing" textLength="97.9167" x="387.5" y="288.0715">Index of services</text><polygon fill="#EC7211" points="710.4167,336.8842,720.8333,341.0508,710.4167,345.2175,714.5833,341.0508" style="stroke:#EC7211;stroke-width:1.0416666666666667;"/><line style="stroke:#EC7211;stroke-width:3.125;" x1="342.7083" x2="716.6667" y1="341.0508" y2="341.0508"/><text fill="#4E5D6C" font-family="Verdana" font-size="12.5" font-weight="bold" lengthAdjust="spacing" textLength="7.2917" x="355.2083" y="330.0966">5</text><text fill="#4E5D6C" font-family="Verdana" font-size="12.5" lengthAdjust="spacing" textLength="227.0833" x="377.0833" y="330.0966">Get current info on services and events</text><polygon fill="#EC7211" points="950,378.9093,960.4167,383.076,950,387.2426,954.1667,383.076" style="stroke:#EC7211;stroke-width:1.0416666666666667;"/><line style="stroke:#EC7211;stroke-width:3.125;" x1="722.9167" x2="956.25" y1="383.076" y2="383.076"/><text fill="#4E5D6C" font-family="Verdana" font-size="12.5" font-weight="bold" lengthAdjust="spacing" textLength="7.2917" x="735.4167" y="372.1218">6</text><text fill="#4E5D6C" font-family="Verdana" font-size="12.5" lengthAdjust="spacing" textLength="50" x="757.2917" y="372.1218">Get data</text><polygon fill="#EC7211" points="734.375,420.9344,723.9583,425.1011,734.375,429.2677,730.2083,425.1011" style="stroke:#EC7211;stroke-width:1.0416666666666667;"/><line style="stroke:#EC7211;stroke-width:3.125;stroke-dasharray:2.0,2.0;" x1="728.125" x2="961.4583" y1="425.1011" y2="425.1011"/><text fill="#4E5D6C" font-family="Verdana" font-size="12.5" font-weight="bold" lengthAdjust="spacing" textLength="7.2917" x="745.8333" y="414.1469">7</text><text fill="#4E5D6C" font-family="Verdana" font-size="12.5" lengthAdjust="spacing" textLength="28.125" x="767.7083" y="414.1469">Data</text><polygon fill="#EC7211" points="354.1667,462.9595,343.75,467.1262,354.1667,471.2929,350,467.1262" style="stroke:#EC7211;stroke-width:1.0416666666666667;"/><line style="stroke:#EC7211;stroke-width:3.125;stroke-dasharray:2.0,2.0;" x1="347.9167" x2="721.875" y1="467.1262" y2="467.1262"/><text fill="#4E5D6C" font-family="Verdana" font-size="12.5" font-weight="bold" lengthAdjust="spacing" textLength="7.2917" x="365.625" y="456.172">8</text><text fill="#4E5D6C" font-family="Verdana" font-size="12.5" lengthAdjust="spacing" textLength="3.125" x="387.5" y="456.172">&#160;</text><polygon fill="#EC7211" points="82.2917,504.9846,71.875,509.1513,82.2917,513.318,78.125,509.1513" style="stroke:#EC7211;stroke-width:1.0416666666666667;"/><line style="stroke:#EC7211;stroke-width:3.125;stroke-dasharray:2.0,2.0;" x1="76.0417" x2="341.6667" y1="509.1513" y2="509.1513"/><text fill="#4E5D6C" font-family="Verdana" font-size="12.5" font-weight="bold" lengthAdjust="spacing" textLength="7.2917" x="93.75" y="498.1971">9</text><text fill="#4E5D6C" font-family="Verdana" font-size="12.5" lengthAdjust="spacing" textLength="214.5833" x="115.625" y="498.1971">Render local events and services info</text><polygon fill="#EC7211" points="1139.0625,547.0098,1149.4792,551.1764,1139.0625,555.3431,1143.2292,551.1764" style="stroke:#EC7211;stroke-width:1.0416666666666667;"/><line style="stroke:#EC7211;stroke-width:3.125;" x1="342.7083" x2="1145.3125" y1="551.1764" y2="551.1764"/><text fill="#4E5D6C" font-family="Verdana" font-size="12.5" font-weight="bold" lengthAdjust="spacing" textLength="14.5833" x="355.2083" y="540.2222">10</text><text fill="#4E5D6C" font-family="Verdana" font-size="12.5" lengthAdjust="spacing" textLength="110.4167" x="384.375" y="540.2222">Trigger notification</text><path d="M1030.2083,568.8848 L1030.2083,632.4264 A4.1667,4.1667 0 0 0 1034.375,636.5931 L1268.75,636.5931 A4.1667,4.1667 0 0 0 1272.9167,632.4264 L1272.9167,575.1348 L1262.5,564.7181 L1034.375,564.7181 A4.1667,4.1667 0 0 0 1030.2083,568.8848 " fill="#0073BB" style="stroke:#005C96;stroke-width:1.0416666666666667;"/><path d="M1262.5,564.7181 L1262.5,573.0514 A2.0833,2.0833 0 0 0 1264.5833,575.1348 L1272.9167,575.1348 L1262.5,564.7181 " fill="#0073BB" style="stroke:#005C96;stroke-width:1.0416666666666667;"/><text fill="#FFFFFF" font-family="Verdana" font-size="12.5" lengthAdjust="spacing" textLength="173.9583" x="1041.6667" y="588.4974">User will be notified on critical</text><text fill="#FFFFFF" font-family="Verdana" font-size="12.5" lengthAdjust="spacing" textLength="210.4167" x="1041.6667" y="605.5225">events and services in all app clients</text><text fill="#FFFFFF" font-family="Verdana" font-size="12.5" lengthAdjust="spacing" textLength="110.4167" x="1041.6667" y="622.5476">Mobile or Web App</text><polygon fill="#EC7211" points="82.2917,671.3602,71.875,675.5269,82.2917,679.6936,78.125,675.5269" style="stroke:#EC7211;stroke-width:1.0416666666666667;"/><line style="stroke:#EC7211;stroke-width:3.125;" x1="76.0417" x2="1150.5208" y1="675.5269" y2="675.5269"/><text fill="#4E5D6C" font-family="Verdana" font-size="12.5" font-weight="bold" lengthAdjust="spacing" textLength="14.5833" x="93.75" y="664.5727">11</text><text fill="#4E5D6C" font-family="Verdana" font-size="12.5" lengthAdjust="spacing" textLength="207.2917" x="122.9167" y="664.5727">Notify local events and services info</text><!--SRC=[XLN1Rjim3BthAxXSTbaFk-Ome4sBh8TiHTDXbm06RJEsK5do93bf_dwKR6Mn4sCvsOzyp-GZYNpoDJK4U7HtngAkI0ZtBdMB5XjumEAzigRJvSeeO-5OIqyNSIoyiSwVL10WPneIs7cZkoOd2r-5-CnvNXQoHUrXiK6fTherIf5T03fe6CZwzvkfIZfF-Z8v8JVJzr9vifVf2PcaFnZ3FLGxxIrtE13o7im6R49PFsvtkZ1QK-Wv4ghIPMTaahwjCHNYukCqRWg92ZPKIfpgkXYRbVvEgjtfDNewuYaIQaQogWScoO_eMV_fepNM3_MK36Kq89FqUutgnA-EFn1inbGJfa1M9NoUkkKeLZGXkXwTfusg_CURAVKtvJ7nIBaGOycsxINQLjmU-vEkfARHr2b2C_dkeg54IEsC66-rj2L4YBYZbMbQnUUbFTeJEB87MGHyF6yVIDb0kXZxl3BSlppVe68hnwGVnikz71pLmuk8LmkBNsu8TFmW1Bi5Tz-2QKlucNkKcZUS-EmBzD9ea7flsBbg2Tk6lz7MHXEiNxPVO4LAWJT7FdbP9fsnhqjufJyTEJ-IpD5H2LW6LyIOS2anEBs4DVbOXh3aEwlXMPVq0MP_TlQ6o8ovlLZHMSl3YQB01IKTthuIwC0X9sO4hhNP_Lur75WgCTpVlCILJrSDf8cy4lTg8LYdXifYaUUAeo_NxQUXB-7DogfYYHxf9o3uXS0SpZ0l0l0lh0OS9OyrfnGfWq65bRnTg6BMxJ80cHQMe50o6XXIDoQN_2V1FVFP0X-eu7w2CedquVFonQKz_Q_Llm00]--></g></svg>