<?xml version="1.0" encoding="us-ascii" standalone="no"?><svg xmlns="http://www.w3.org/2000/svg" xmlns:xlink="http://www.w3.org/1999/xlink" contentStyleType="text/css" height="732.2917px" preserveAspectRatio="none" style="width:1637px;height:732px;background:#FFFFFF;" version="1.1" viewBox="0 0 1637 732" width="1637.5px" zoomAndPan="magnify"><defs><linearGradient id="g18t3fjpil88u80" x1="50%" x2="50%" y1="0%" y2="100%"><stop offset="0%" stop-color="#F18E3E"/><stop offset="100%" stop-color="#EC7211"/></linearGradient></defs><g><line style="stroke:#ABB6C2;stroke-width:0.5208333333333334;stroke-dasharray:5.0,5.0;" x1="82.2917" x2="82.2917" y1="98.2751" y2="635.2267"/><line style="stroke:#ABB6C2;stroke-width:0.5208333333333334;stroke-dasharray:5.0,5.0;" x1="375.5208" x2="375.5208" y1="98.2751" y2="635.2267"/><line style="stroke:#ABB6C2;stroke-width:0.5208333333333334;stroke-dasharray:5.0,5.0;" x1="543.2292" x2="543.2292" y1="98.2751" y2="635.2267"/><line style="stroke:#ABB6C2;stroke-width:0.5208333333333334;stroke-dasharray:5.0,5.0;" x1="757.8125" x2="757.8125" y1="98.2751" y2="635.2267"/><line style="stroke:#ABB6C2;stroke-width:0.5208333333333334;stroke-dasharray:5.0,5.0;" x1="997.3958" x2="997.3958" y1="98.2751" y2="635.2267"/><line style="stroke:#ABB6C2;stroke-width:0.5208333333333334;stroke-dasharray:5.0,5.0;" x1="1186.9792" x2="1186.9792" y1="98.2751" y2="635.2267"/><line style="stroke:#ABB6C2;stroke-width:0.5208333333333334;stroke-dasharray:5.0,5.0;" x1="1458.3333" x2="1458.3333" y1="98.2751" y2="635.2267"/><line style="stroke:#ABB6C2;stroke-width:0.5208333333333334;stroke-dasharray:5.0,5.0;" x1="1602.0833" x2="1602.0833" y1="98.2751" y2="635.2267"/><rect fill="url(#g18t3fjpil88u80)" height="59.0502" rx="4.1667" ry="4.1667" style="stroke:#EC7211;stroke-width:0.5208333333333334;" width="71.875" x="46.875" y="38.1832"/><text fill="#FFFFFF" font-family="Verdana" font-size="12.5" lengthAdjust="spacing" textLength="46.875" x="59.375" y="64.0458">Booking</text><text fill="#FFFFFF" font-family="Verdana" font-size="12.5" lengthAdjust="spacing" textLength="41.6667" x="61.9792" y="81.0709">tracker</text><rect fill="url(#g18t3fjpil88u80)" height="59.0502" rx="4.1667" ry="4.1667" style="stroke:#EC7211;stroke-width:0.5208333333333334;" width="71.875" x="46.875" y="634.185"/><text fill="#FFFFFF" font-family="Verdana" font-size="12.5" lengthAdjust="spacing" textLength="46.875" x="59.375" y="660.0476">Booking</text><text fill="#FFFFFF" font-family="Verdana" font-size="12.5" lengthAdjust="spacing" textLength="41.6667" x="61.9792" y="677.0727">tracker</text><rect fill="url(#g18t3fjpil88u80)" height="59.0502" rx="4.1667" ry="4.1667" style="stroke:#EC7211;stroke-width:0.5208333333333334;" width="77.0833" x="336.9792" y="38.1832"/><text fill="#FFFFFF" font-family="Verdana" font-size="12.5" lengthAdjust="spacing" textLength="46.875" x="352.0833" y="64.0458">Booking</text><text fill="#FFFFFF" font-family="Verdana" font-size="12.5" lengthAdjust="spacing" textLength="52.0833" x="349.4792" y="81.0709">interface</text><rect fill="url(#g18t3fjpil88u80)" height="59.0502" rx="4.1667" ry="4.1667" style="stroke:#EC7211;stroke-width:0.5208333333333334;" width="77.0833" x="336.9792" y="634.185"/><text fill="#FFFFFF" font-family="Verdana" font-size="12.5" lengthAdjust="spacing" textLength="46.875" x="352.0833" y="660.0476">Booking</text><text fill="#FFFFFF" font-family="Verdana" font-size="12.5" lengthAdjust="spacing" textLength="52.0833" x="349.4792" y="677.0727">interface</text><rect fill="url(#g18t3fjpil88u80)" height="59.0502" rx="4.1667" ry="4.1667" style="stroke:#EC7211;stroke-width:0.5208333333333334;" width="71.875" x="507.8125" y="38.1832"/><text fill="#FFFFFF" font-family="Verdana" font-size="12.5" lengthAdjust="spacing" textLength="46.875" x="520.3125" y="64.0458">Booking</text><text fill="#FFFFFF" font-family="Verdana" font-size="12.5" lengthAdjust="spacing" textLength="44.7917" x="521.3542" y="81.0709">storage</text><rect fill="url(#g18t3fjpil88u80)" height="59.0502" rx="4.1667" ry="4.1667" style="stroke:#EC7211;stroke-width:0.5208333333333334;" width="71.875" x="507.8125" y="634.185"/><text fill="#FFFFFF" font-family="Verdana" font-size="12.5" lengthAdjust="spacing" textLength="46.875" x="520.3125" y="660.0476">Booking</text><text fill="#FFFFFF" font-family="Verdana" font-size="12.5" lengthAdjust="spacing" textLength="44.7917" x="521.3542" y="677.0727">storage</text><rect fill="url(#g18t3fjpil88u80)" height="76.0754" rx="4.1667" ry="4.1667" style="stroke:#EC7211;stroke-width:0.5208333333333334;" width="169.7917" x="673.4375" y="21.1581"/><text fill="#FFFFFF" font-family="Verdana" font-size="12.5" lengthAdjust="spacing" textLength="73.9583" x="721.3542" y="47.0207">Third parties</text><text fill="#FFFFFF" font-family="Verdana" font-size="12.5" lengthAdjust="spacing" textLength="144.7917" x="685.9375" y="64.0458">Complementary services</text><text fill="#FFFFFF" font-family="Verdana" font-size="12.5" lengthAdjust="spacing" textLength="58.3333" x="729.1667" y="81.0709">connector</text><rect fill="url(#g18t3fjpil88u80)" height="76.0754" rx="4.1667" ry="4.1667" style="stroke:#EC7211;stroke-width:0.5208333333333334;" width="169.7917" x="673.4375" y="634.185"/><text fill="#FFFFFF" font-family="Verdana" font-size="12.5" lengthAdjust="spacing" textLength="73.9583" x="721.3542" y="660.0476">Third parties</text><text fill="#FFFFFF" font-family="Verdana" font-size="12.5" lengthAdjust="spacing" textLength="144.7917" x="685.9375" y="677.0727">Complementary services</text><text fill="#FFFFFF" font-family="Verdana" font-size="12.5" lengthAdjust="spacing" textLength="58.3333" x="729.1667" y="694.0978">connector</text><rect fill="url(#g18t3fjpil88u80)" height="42.0251" rx="4.1667" ry="4.1667" style="stroke:#EC7211;stroke-width:0.5208333333333334;" width="121.875" x="936.9792" y="55.2083"/><text fill="#FFFFFF" font-family="Verdana" font-size="12.5" lengthAdjust="spacing" textLength="96.875" x="949.4792" y="81.0709">Third parties API</text><rect fill="url(#g18t3fjpil88u80)" height="42.0251" rx="4.1667" ry="4.1667" style="stroke:#EC7211;stroke-width:0.5208333333333334;" width="121.875" x="936.9792" y="634.185"/><text fill="#FFFFFF" font-family="Verdana" font-size="12.5" lengthAdjust="spacing" textLength="96.875" x="949.4792" y="660.0476">Third parties API</text><rect fill="url(#g18t3fjpil88u80)" height="42.0251" rx="4.1667" ry="4.1667" style="stroke:#EC7211;stroke-width:0.5208333333333334;" width="68.75" x="1152.6042" y="55.2083"/><text fill="#FFFFFF" font-family="Verdana" font-size="12.5" lengthAdjust="spacing" textLength="43.75" x="1165.1042" y="81.0709">Notifier</text><rect fill="url(#g18t3fjpil88u80)" height="42.0251" rx="4.1667" ry="4.1667" style="stroke:#EC7211;stroke-width:0.5208333333333334;" width="68.75" x="1152.6042" y="634.185"/><text fill="#FFFFFF" font-family="Verdana" font-size="12.5" lengthAdjust="spacing" textLength="43.75" x="1165.1042" y="660.0476">Notifier</text><rect fill="url(#g18t3fjpil88u80)" height="42.0251" rx="4.1667" ry="4.1667" style="stroke:#EC7211;stroke-width:0.5208333333333334;" width="123.9583" x="1396.875" y="55.2083"/><text fill="#FFFFFF" font-family="Verdana" font-size="12.5" lengthAdjust="spacing" textLength="98.9583" x="1409.375" y="81.0709">Web/ Mobile App</text><rect fill="url(#g18t3fjpil88u80)" height="42.0251" rx="4.1667" ry="4.1667" style="stroke:#EC7211;stroke-width:0.5208333333333334;" width="123.9583" x="1396.875" y="634.185"/><text fill="#FFFFFF" font-family="Verdana" font-size="12.5" lengthAdjust="spacing" textLength="98.9583" x="1409.375" y="660.0476">Web/ Mobile App</text><text fill="#4E5D6C" font-family="Verdana" font-size="12.5" lengthAdjust="spacing" textLength="28.125" x="1585.4167" y="89.4043">User</text><ellipse cx="1602.6042" cy="23.4375" fill="url(#g18t3fjpil88u80)" rx="16.6667" ry="16.6667" style="stroke:#EC7211;stroke-width:1.5625;"/><path d="M1602.6042,44.2708 C1606.7708,44.2708 1609.8958,44.2708 1614.0625,40.1042 C1622.3958,40.1042 1630.7292,48.4375 1630.7292,56.7708 L1630.7292,60.9375 C1630.7292,65.1042 1626.5625,69.2708 1622.3958,69.2708 L1582.8125,69.2708 C1578.6458,69.2708 1574.4792,65.1042 1574.4792,60.9375 L1574.4792,56.7708 C1574.4792,48.4375 1582.8125,40.1042 1591.1458,40.1042 C1595.3125,44.2708 1598.4375,44.2708 1602.6042,44.2708 " fill="url(#g18t3fjpil88u80)" style="stroke:#EC7211;stroke-width:1.5625;"/><text fill="#4E5D6C" font-family="Verdana" font-size="12.5" lengthAdjust="spacing" textLength="28.125" x="1585.4167" y="652.7559">User</text><ellipse cx="1602.6042" cy="679.856" fill="url(#g18t3fjpil88u80)" rx="16.6667" ry="16.6667" style="stroke:#EC7211;stroke-width:1.5625;"/><path d="M1602.6042,700.6893 C1606.7708,700.6893 1609.8958,700.6893 1614.0625,696.5226 C1622.3958,696.5226 1630.7292,704.856 1630.7292,713.1893 L1630.7292,717.356 C1630.7292,721.5226 1626.5625,725.6893 1622.3958,725.6893 L1582.8125,725.6893 C1578.6458,725.6893 1574.4792,721.5226 1574.4792,717.356 L1574.4792,713.1893 C1574.4792,704.856 1582.8125,696.5226 1591.1458,696.5226 C1595.3125,700.6893 1598.4375,700.6893 1602.6042,700.6893 " fill="url(#g18t3fjpil88u80)" style="stroke:#EC7211;stroke-width:1.5625;"/><line style="stroke:#EC7211;stroke-width:3.125;" x1="82.8125" x2="126.5625" y1="142.3836" y2="142.3836"/><line style="stroke:#EC7211;stroke-width:3.125;" x1="126.5625" x2="126.5625" y1="142.3836" y2="155.9252"/><line style="stroke:#EC7211;stroke-width:3.125;" x1="83.8542" x2="126.5625" y1="155.9252" y2="155.9252"/><polygon fill="#EC7211" points="94.2708,151.7586,83.8542,155.9252,94.2708,160.0919,90.1042,155.9252" style="stroke:#EC7211;stroke-width:1.0416666666666667;"/><text fill="#4E5D6C" font-family="Verdana" font-size="12.5" font-weight="bold" lengthAdjust="spacing" textLength="7.2917" x="95.3125" y="131.4294">1</text><text fill="#4E5D6C" font-family="Verdana" font-size="12.5" lengthAdjust="spacing" textLength="177.0833" x="117.1875" y="131.4294">Detects booking close to occur</text><polygon fill="#EC7211" points="363.0208,193.7837,373.4375,197.9504,363.0208,202.117,367.1875,197.9504" style="stroke:#EC7211;stroke-width:1.0416666666666667;"/><line style="stroke:#EC7211;stroke-width:3.125;" x1="82.8125" x2="369.2708" y1="197.9504" y2="197.9504"/><text fill="#4E5D6C" font-family="Verdana" font-size="12.5" font-weight="bold" lengthAdjust="spacing" textLength="7.2917" x="95.3125" y="186.9962">2</text><text fill="#4E5D6C" font-family="Verdana" font-size="12.5" lengthAdjust="spacing" textLength="235.4167" x="117.1875" y="186.9962">Request get local events and service info</text><polygon fill="#EC7211" points="531.25,235.8088,541.6667,239.9755,531.25,244.1421,535.4167,239.9755" style="stroke:#EC7211;stroke-width:1.0416666666666667;"/><line style="stroke:#EC7211;stroke-width:3.125;" x1="375.5208" x2="537.5" y1="239.9755" y2="239.9755"/><text fill="#4E5D6C" font-family="Verdana" font-size="12.5" font-weight="bold" lengthAdjust="spacing" textLength="7.2917" x="388.0208" y="229.0213">3</text><text fill="#4E5D6C" font-family="Verdana" font-size="12.5" lengthAdjust="spacing" textLength="45.8333" x="409.8958" y="229.0213">Get info</text><polygon fill="#EC7211" points="386.9792,277.8339,376.5625,282.0006,386.9792,286.1673,382.8125,282.0006" style="stroke:#EC7211;stroke-width:1.0416666666666667;"/><line style="stroke:#EC7211;stroke-width:3.125;stroke-dasharray:2.0,2.0;" x1="380.7292" x2="542.7083" y1="282.0006" y2="282.0006"/><text fill="#4E5D6C" font-family="Verdana" font-size="12.5" font-weight="bold" lengthAdjust="spacing" textLength="7.2917" x="398.4375" y="271.0464">4</text><text fill="#4E5D6C" font-family="Verdana" font-size="12.5" lengthAdjust="spacing" textLength="97.9167" x="420.3125" y="271.0464">Index of services</text><polygon fill="#EC7211" points="745.8333,319.859,756.25,324.0257,745.8333,328.1924,750,324.0257" style="stroke:#EC7211;stroke-width:1.0416666666666667;"/><line style="stroke:#EC7211;stroke-width:3.125;" x1="375.5208" x2="752.0833" y1="324.0257" y2="324.0257"/><text fill="#4E5D6C" font-family="Verdana" font-size="12.5" font-weight="bold" lengthAdjust="spacing" textLength="7.2917" x="388.0208" y="313.0715">5</text><text fill="#4E5D6C" font-family="Verdana" font-size="12.5" lengthAdjust="spacing" textLength="227.0833" x="409.8958" y="313.0715">Get current info on services and events</text><polygon fill="#EC7211" points="985.4167,361.8842,995.8333,366.0508,985.4167,370.2175,989.5833,366.0508" style="stroke:#EC7211;stroke-width:1.0416666666666667;"/><line style="stroke:#EC7211;stroke-width:3.125;" x1="758.3333" x2="991.6667" y1="366.0508" y2="366.0508"/><text fill="#4E5D6C" font-family="Verdana" font-size="12.5" font-weight="bold" lengthAdjust="spacing" textLength="7.2917" x="770.8333" y="355.0966">6</text><text fill="#4E5D6C" font-family="Verdana" font-size="12.5" lengthAdjust="spacing" textLength="50" x="792.7083" y="355.0966">Get data</text><polygon fill="#EC7211" points="769.7917,403.9093,759.375,408.076,769.7917,412.2426,765.625,408.076" style="stroke:#EC7211;stroke-width:1.0416666666666667;"/><line style="stroke:#EC7211;stroke-width:3.125;stroke-dasharray:2.0,2.0;" x1="763.5417" x2="996.875" y1="408.076" y2="408.076"/><text fill="#4E5D6C" font-family="Verdana" font-size="12.5" font-weight="bold" lengthAdjust="spacing" textLength="7.2917" x="781.25" y="397.1218">7</text><text fill="#4E5D6C" font-family="Verdana" font-size="12.5" lengthAdjust="spacing" textLength="28.125" x="803.125" y="397.1218">Data</text><polygon fill="#EC7211" points="386.9792,445.9344,376.5625,450.1011,386.9792,454.2677,382.8125,450.1011" style="stroke:#EC7211;stroke-width:1.0416666666666667;"/><line style="stroke:#EC7211;stroke-width:3.125;stroke-dasharray:2.0,2.0;" x1="380.7292" x2="757.2917" y1="450.1011" y2="450.1011"/><text fill="#4E5D6C" font-family="Verdana" font-size="12.5" font-weight="bold" lengthAdjust="spacing" textLength="7.2917" x="398.4375" y="439.1469">8</text><text fill="#4E5D6C" font-family="Verdana" font-size="12.5" lengthAdjust="spacing" textLength="3.125" x="420.3125" y="439.1469">&#160;</text><polygon fill="#EC7211" points="1174.4792,487.9595,1184.8958,492.1262,1174.4792,496.2929,1178.6458,492.1262" style="stroke:#EC7211;stroke-width:1.0416666666666667;"/><line style="stroke:#EC7211;stroke-width:3.125;" x1="375.5208" x2="1180.7292" y1="492.1262" y2="492.1262"/><text fill="#4E5D6C" font-family="Verdana" font-size="12.5" font-weight="bold" lengthAdjust="spacing" textLength="7.2917" x="388.0208" y="481.172">9</text><text fill="#4E5D6C" font-family="Verdana" font-size="12.5" lengthAdjust="spacing" textLength="110.4167" x="409.8958" y="481.172">Trigger notification</text><path d="M1065.625,509.8345 L1065.625,573.3762 A4.1667,4.1667 0 0 0 1069.7917,577.5429 L1304.1667,577.5429 A4.1667,4.1667 0 0 0 1308.3333,573.3762 L1308.3333,516.0845 L1297.9167,505.6679 L1069.7917,505.6679 A4.1667,4.1667 0 0 0 1065.625,509.8345 " fill="#0073BB" style="stroke:#005C96;stroke-width:1.0416666666666667;"/><path d="M1297.9167,505.6679 L1297.9167,514.0012 A2.0833,2.0833 0 0 0 1300,516.0845 L1308.3333,516.0845 L1297.9167,505.6679 " fill="#0073BB" style="stroke:#005C96;stroke-width:1.0416666666666667;"/><text fill="#FFFFFF" font-family="Verdana" font-size="12.5" lengthAdjust="spacing" textLength="134.375" x="1077.0833" y="529.4471">User notified on critical</text><text fill="#FFFFFF" font-family="Verdana" font-size="12.5" lengthAdjust="spacing" textLength="210.4167" x="1077.0833" y="546.4722">events and services in all app clients</text><text fill="#FFFFFF" font-family="Verdana" font-size="12.5" lengthAdjust="spacing" textLength="110.4167" x="1077.0833" y="563.4974">Mobile or Web App</text><polygon fill="#EC7211" points="1446.3542,612.31,1456.7708,616.4767,1446.3542,620.6433,1450.5208,616.4767" style="stroke:#EC7211;stroke-width:1.0416666666666667;"/><line style="stroke:#EC7211;stroke-width:3.125;" x1="1186.9792" x2="1452.6042" y1="616.4767" y2="616.4767"/><text fill="#4E5D6C" font-family="Verdana" font-size="12.5" font-weight="bold" lengthAdjust="spacing" textLength="14.5833" x="1199.4792" y="605.5225">10</text><text fill="#4E5D6C" font-family="Verdana" font-size="12.5" lengthAdjust="spacing" textLength="207.2917" x="1228.6458" y="605.5225">Notify local events and services info</text><!--SRC=[dLJBRjim4BppAxQ-z1GKlVfG88cBD8SKHPEY5mF2cbhBH2XI9Qau_likgKTaMYhQ-cGETuRBcQNUXGFL17ZqLzQXgKW8_wnCWmvhk47vN3dRclBMQklWU5219lieWtK-d7GK86zh4jW6QzfwHmu-2l6UwuAIga4JOFM0IczDOxKcjmBqK3DGTElPKgry83Cj7f3PyhtIWToqV42oyXjh-GxLrYZ3stkKb2Yx3Yv6T8dc-TfOdPDwBADyjK7jLT-IwHTPpNL5HfwsHbfZA3gQYZ6XnGXcfBlDOyweIhzO_dZ0mHYV_kRxLYhKy42bmbpNfxr5wI-acwsvmq17F2N2WP6Ywe2iU8E1zJ-_DjQ5lf-IeO9w9BV6e3xnqlC1CNOStHasYch0bwcFaxZUYFE1JMXdNRxn5bhzIRjKUAHTBjaqdKJJ234_KC7nI-jF6WQgnyJ_JUw_3-uPu-cWN0a98hRYrjQDvk-42UXEuCczA1dnyq49aLJqfCcyB2l3zRVx6IesIlp5Cyhz_m0FTgVuOpHrF7sZOFN3z-oM_mYHcGnNdtBVrx2XmFsFHe7KrXC42rRArlr9OenX3T_fLqi-G4K1j9NynkY5ROm3LGv6WZ9xAox8KyK-f3NSiKugTnHQP-3UbFGATZ-6Cg-p44sdnxTnt5FI1Mj6gTHZrwvO4BZKvkmwrVYkXoxZir-Mc7Dk_Xf3z6juSgggsFKEaHYKDO8N1FPbX3bfu5_CVa3AU47f50yEwhHxcOTd9m2rZlF3gQjaG2pjnujxvccBKoQ8MV5KCHmOksJQ6jB8dXOpzrsAlm40]--></g></svg>