<?xml version="1.0" encoding="us-ascii" standalone="no"?><svg xmlns="http://www.w3.org/2000/svg" xmlns:xlink="http://www.w3.org/1999/xlink" contentStyleType="text/css" height="732.2917px" preserveAspectRatio="none" style="width:1635px;height:732px;background:#FFFFFF;" version="1.1" viewBox="0 0 1635 732" width="1635.4167px" zoomAndPan="magnify"><defs><linearGradient id="gfp4jrnzi3py90" x1="50%" x2="50%" y1="0%" y2="100%"><stop offset="0%" stop-color="#F18E3E"/><stop offset="100%" stop-color="#EC7211"/></linearGradient></defs><g><line style="stroke:#ABB6C2;stroke-width:0.5208333333333334;stroke-dasharray:5.0,5.0;" x1="82.2917" x2="82.2917" y1="98.2751" y2="635.2267"/><line style="stroke:#ABB6C2;stroke-width:0.5208333333333334;stroke-dasharray:5.0,5.0;" x1="375" x2="375" y1="98.2751" y2="635.2267"/><line style="stroke:#ABB6C2;stroke-width:0.5208333333333334;stroke-dasharray:5.0,5.0;" x1="540.625" x2="540.625" y1="98.2751" y2="635.2267"/><line style="stroke:#ABB6C2;stroke-width:0.5208333333333334;stroke-dasharray:5.0,5.0;" x1="755.2083" x2="755.2083" y1="98.2751" y2="635.2267"/><line style="stroke:#ABB6C2;stroke-width:0.5208333333333334;stroke-dasharray:5.0,5.0;" x1="994.7917" x2="994.7917" y1="98.2751" y2="635.2267"/><line style="stroke:#ABB6C2;stroke-width:0.5208333333333334;stroke-dasharray:5.0,5.0;" x1="1184.375" x2="1184.375" y1="98.2751" y2="635.2267"/><line style="stroke:#ABB6C2;stroke-width:0.5208333333333334;stroke-dasharray:5.0,5.0;" x1="1455.7292" x2="1455.7292" y1="98.2751" y2="635.2267"/><line style="stroke:#ABB6C2;stroke-width:0.5208333333333334;stroke-dasharray:5.0,5.0;" x1="1599.4792" x2="1599.4792" y1="98.2751" y2="635.2267"/><rect fill="url(#gfp4jrnzi3py90)" height="59.0502" rx="4.1667" ry="4.1667" style="stroke:#EC7211;stroke-width:0.5208333333333334;" width="71.875" x="46.875" y="38.1832"/><text fill="#FFFFFF" font-family="Verdana" font-size="12.5" lengthAdjust="spacing" textLength="46.875" x="59.375" y="64.0458">Booking</text><text fill="#FFFFFF" font-family="Verdana" font-size="12.5" lengthAdjust="spacing" textLength="41.6667" x="61.9792" y="81.0709">tracker</text><rect fill="url(#gfp4jrnzi3py90)" height="59.0502" rx="4.1667" ry="4.1667" style="stroke:#EC7211;stroke-width:0.5208333333333334;" width="71.875" x="46.875" y="634.185"/><text fill="#FFFFFF" font-family="Verdana" font-size="12.5" lengthAdjust="spacing" textLength="46.875" x="59.375" y="660.0476">Booking</text><text fill="#FFFFFF" font-family="Verdana" font-size="12.5" lengthAdjust="spacing" textLength="41.6667" x="61.9792" y="677.0727">tracker</text><rect fill="url(#gfp4jrnzi3py90)" height="59.0502" rx="4.1667" ry="4.1667" style="stroke:#EC7211;stroke-width:0.5208333333333334;" width="71.875" x="339.5833" y="38.1832"/><text fill="#FFFFFF" font-family="Verdana" font-size="12.5" lengthAdjust="spacing" textLength="46.875" x="352.0833" y="64.0458">Booking</text><text fill="#FFFFFF" font-family="Verdana" font-size="12.5" lengthAdjust="spacing" textLength="39.5833" x="355.7292" y="81.0709">Engine</text><rect fill="url(#gfp4jrnzi3py90)" height="59.0502" rx="4.1667" ry="4.1667" style="stroke:#EC7211;stroke-width:0.5208333333333334;" width="71.875" x="339.5833" y="634.185"/><text fill="#FFFFFF" font-family="Verdana" font-size="12.5" lengthAdjust="spacing" textLength="46.875" x="352.0833" y="660.0476">Booking</text><text fill="#FFFFFF" font-family="Verdana" font-size="12.5" lengthAdjust="spacing" textLength="39.5833" x="355.7292" y="677.0727">Engine</text><rect fill="url(#gfp4jrnzi3py90)" height="59.0502" rx="4.1667" ry="4.1667" style="stroke:#EC7211;stroke-width:0.5208333333333334;" width="71.875" x="505.2083" y="38.1832"/><text fill="#FFFFFF" font-family="Verdana" font-size="12.5" lengthAdjust="spacing" textLength="46.875" x="517.7083" y="64.0458">Booking</text><text fill="#FFFFFF" font-family="Verdana" font-size="12.5" lengthAdjust="spacing" textLength="44.7917" x="518.75" y="81.0709">storage</text><rect fill="url(#gfp4jrnzi3py90)" height="59.0502" rx="4.1667" ry="4.1667" style="stroke:#EC7211;stroke-width:0.5208333333333334;" width="71.875" x="505.2083" y="634.185"/><text fill="#FFFFFF" font-family="Verdana" font-size="12.5" lengthAdjust="spacing" textLength="46.875" x="517.7083" y="660.0476">Booking</text><text fill="#FFFFFF" font-family="Verdana" font-size="12.5" lengthAdjust="spacing" textLength="44.7917" x="518.75" y="677.0727">storage</text><rect fill="url(#gfp4jrnzi3py90)" height="76.0754" rx="4.1667" ry="4.1667" style="stroke:#EC7211;stroke-width:0.5208333333333334;" width="169.7917" x="670.8333" y="21.1581"/><text fill="#FFFFFF" font-family="Verdana" font-size="12.5" lengthAdjust="spacing" textLength="73.9583" x="718.75" y="47.0207">Third parties</text><text fill="#FFFFFF" font-family="Verdana" font-size="12.5" lengthAdjust="spacing" textLength="144.7917" x="683.3333" y="64.0458">Complementary services</text><text fill="#FFFFFF" font-family="Verdana" font-size="12.5" lengthAdjust="spacing" textLength="58.3333" x="726.5625" y="81.0709">connector</text><rect fill="url(#gfp4jrnzi3py90)" height="76.0754" rx="4.1667" ry="4.1667" style="stroke:#EC7211;stroke-width:0.5208333333333334;" width="169.7917" x="670.8333" y="634.185"/><text fill="#FFFFFF" font-family="Verdana" font-size="12.5" lengthAdjust="spacing" textLength="73.9583" x="718.75" y="660.0476">Third parties</text><text fill="#FFFFFF" font-family="Verdana" font-size="12.5" lengthAdjust="spacing" textLength="144.7917" x="683.3333" y="677.0727">Complementary services</text><text fill="#FFFFFF" font-family="Verdana" font-size="12.5" lengthAdjust="spacing" textLength="58.3333" x="726.5625" y="694.0978">connector</text><rect fill="url(#gfp4jrnzi3py90)" height="42.0251" rx="4.1667" ry="4.1667" style="stroke:#EC7211;stroke-width:0.5208333333333334;" width="121.875" x="934.375" y="55.2083"/><text fill="#FFFFFF" font-family="Verdana" font-size="12.5" lengthAdjust="spacing" textLength="96.875" x="946.875" y="81.0709">Third parties API</text><rect fill="url(#gfp4jrnzi3py90)" height="42.0251" rx="4.1667" ry="4.1667" style="stroke:#EC7211;stroke-width:0.5208333333333334;" width="121.875" x="934.375" y="634.185"/><text fill="#FFFFFF" font-family="Verdana" font-size="12.5" lengthAdjust="spacing" textLength="96.875" x="946.875" y="660.0476">Third parties API</text><rect fill="url(#gfp4jrnzi3py90)" height="42.0251" rx="4.1667" ry="4.1667" style="stroke:#EC7211;stroke-width:0.5208333333333334;" width="68.75" x="1150" y="55.2083"/><text fill="#FFFFFF" font-family="Verdana" font-size="12.5" lengthAdjust="spacing" textLength="43.75" x="1162.5" y="81.0709">Notifier</text><rect fill="url(#gfp4jrnzi3py90)" height="42.0251" rx="4.1667" ry="4.1667" style="stroke:#EC7211;stroke-width:0.5208333333333334;" width="68.75" x="1150" y="634.185"/><text fill="#FFFFFF" font-family="Verdana" font-size="12.5" lengthAdjust="spacing" textLength="43.75" x="1162.5" y="660.0476">Notifier</text><rect fill="url(#gfp4jrnzi3py90)" height="42.0251" rx="4.1667" ry="4.1667" style="stroke:#EC7211;stroke-width:0.5208333333333334;" width="123.9583" x="1394.2708" y="55.2083"/><text fill="#FFFFFF" font-family="Verdana" font-size="12.5" lengthAdjust="spacing" textLength="98.9583" x="1406.7708" y="81.0709">Web/ Mobile App</text><rect fill="url(#gfp4jrnzi3py90)" height="42.0251" rx="4.1667" ry="4.1667" style="stroke:#EC7211;stroke-width:0.5208333333333334;" width="123.9583" x="1394.2708" y="634.185"/><text fill="#FFFFFF" font-family="Verdana" font-size="12.5" lengthAdjust="spacing" textLength="98.9583" x="1406.7708" y="660.0476">Web/ Mobile App</text><text fill="#4E5D6C" font-family="Verdana" font-size="12.5" lengthAdjust="spacing" textLength="28.125" x="1582.8125" y="89.4043">User</text><ellipse cx="1600" cy="23.4375" fill="url(#gfp4jrnzi3py90)" rx="16.6667" ry="16.6667" style="stroke:#EC7211;stroke-width:1.5625;"/><path d="M1600,44.2708 C1604.1667,44.2708 1607.2917,44.2708 1611.4583,40.1042 C1619.7917,40.1042 1628.125,48.4375 1628.125,56.7708 L1628.125,60.9375 C1628.125,65.1042 1623.9583,69.2708 1619.7917,69.2708 L1580.2083,69.2708 C1576.0417,69.2708 1571.875,65.1042 1571.875,60.9375 L1571.875,56.7708 C1571.875,48.4375 1580.2083,40.1042 1588.5417,40.1042 C1592.7083,44.2708 1595.8333,44.2708 1600,44.2708 " fill="url(#gfp4jrnzi3py90)" style="stroke:#EC7211;stroke-width:1.5625;"/><text fill="#4E5D6C" font-family="Verdana" font-size="12.5" lengthAdjust="spacing" textLength="28.125" x="1582.8125" y="652.7559">User</text><ellipse cx="1600" cy="679.856" fill="url(#gfp4jrnzi3py90)" rx="16.6667" ry="16.6667" style="stroke:#EC7211;stroke-width:1.5625;"/><path d="M1600,700.6893 C1604.1667,700.6893 1607.2917,700.6893 1611.4583,696.5226 C1619.7917,696.5226 1628.125,704.856 1628.125,713.1893 L1628.125,717.356 C1628.125,721.5226 1623.9583,725.6893 1619.7917,725.6893 L1580.2083,725.6893 C1576.0417,725.6893 1571.875,721.5226 1571.875,717.356 L1571.875,713.1893 C1571.875,704.856 1580.2083,696.5226 1588.5417,696.5226 C1592.7083,700.6893 1595.8333,700.6893 1600,700.6893 " fill="url(#gfp4jrnzi3py90)" style="stroke:#EC7211;stroke-width:1.5625;"/><line style="stroke:#EC7211;stroke-width:3.125;" x1="82.8125" x2="126.5625" y1="142.3836" y2="142.3836"/><line style="stroke:#EC7211;stroke-width:3.125;" x1="126.5625" x2="126.5625" y1="142.3836" y2="155.9252"/><line style="stroke:#EC7211;stroke-width:3.125;" x1="83.8542" x2="126.5625" y1="155.9252" y2="155.9252"/><polygon fill="#EC7211" points="94.2708,151.7586,83.8542,155.9252,94.2708,160.0919,90.1042,155.9252" style="stroke:#EC7211;stroke-width:1.0416666666666667;"/><text fill="#4E5D6C" font-family="Verdana" font-size="12.5" font-weight="bold" lengthAdjust="spacing" textLength="7.2917" x="95.3125" y="131.4294">1</text><text fill="#4E5D6C" font-family="Verdana" font-size="12.5" lengthAdjust="spacing" textLength="177.0833" x="117.1875" y="131.4294">Detects booking close to occur</text><polygon fill="#EC7211" points="363.0208,193.7837,373.4375,197.9504,363.0208,202.117,367.1875,197.9504" style="stroke:#EC7211;stroke-width:1.0416666666666667;"/><line style="stroke:#EC7211;stroke-width:3.125;" x1="82.8125" x2="369.2708" y1="197.9504" y2="197.9504"/><text fill="#4E5D6C" font-family="Verdana" font-size="12.5" font-weight="bold" lengthAdjust="spacing" textLength="7.2917" x="95.3125" y="186.9962">2</text><text fill="#4E5D6C" font-family="Verdana" font-size="12.5" lengthAdjust="spacing" textLength="235.4167" x="117.1875" y="186.9962">Request get local events and service info</text><polygon fill="#EC7211" points="528.6458,235.8088,539.0625,239.9755,528.6458,244.1421,532.8125,239.9755" style="stroke:#EC7211;stroke-width:1.0416666666666667;"/><line style="stroke:#EC7211;stroke-width:3.125;" x1="375.5208" x2="534.8958" y1="239.9755" y2="239.9755"/><text fill="#4E5D6C" font-family="Verdana" font-size="12.5" font-weight="bold" lengthAdjust="spacing" textLength="7.2917" x="388.0208" y="229.0213">3</text><text fill="#4E5D6C" font-family="Verdana" font-size="12.5" lengthAdjust="spacing" textLength="45.8333" x="409.8958" y="229.0213">Get info</text><polygon fill="#EC7211" points="386.9792,277.8339,376.5625,282.0006,386.9792,286.1673,382.8125,282.0006" style="stroke:#EC7211;stroke-width:1.0416666666666667;"/><line style="stroke:#EC7211;stroke-width:3.125;stroke-dasharray:2.0,2.0;" x1="380.7292" x2="540.1042" y1="282.0006" y2="282.0006"/><text fill="#4E5D6C" font-family="Verdana" font-size="12.5" font-weight="bold" lengthAdjust="spacing" textLength="7.2917" x="398.4375" y="271.0464">4</text><text fill="#4E5D6C" font-family="Verdana" font-size="12.5" lengthAdjust="spacing" textLength="97.9167" x="420.3125" y="271.0464">Index of services</text><polygon fill="#EC7211" points="743.2292,319.859,753.6458,324.0257,743.2292,328.1924,747.3958,324.0257" style="stroke:#EC7211;stroke-width:1.0416666666666667;"/><line style="stroke:#EC7211;stroke-width:3.125;" x1="375.5208" x2="749.4792" y1="324.0257" y2="324.0257"/><text fill="#4E5D6C" font-family="Verdana" font-size="12.5" font-weight="bold" lengthAdjust="spacing" textLength="7.2917" x="388.0208" y="313.0715">5</text><text fill="#4E5D6C" font-family="Verdana" font-size="12.5" lengthAdjust="spacing" textLength="227.0833" x="409.8958" y="313.0715">Get current info on services and events</text><polygon fill="#EC7211" points="982.8125,361.8842,993.2292,366.0508,982.8125,370.2175,986.9792,366.0508" style="stroke:#EC7211;stroke-width:1.0416666666666667;"/><line style="stroke:#EC7211;stroke-width:3.125;" x1="755.7292" x2="989.0625" y1="366.0508" y2="366.0508"/><text fill="#4E5D6C" font-family="Verdana" font-size="12.5" font-weight="bold" lengthAdjust="spacing" textLength="7.2917" x="768.2292" y="355.0966">6</text><text fill="#4E5D6C" font-family="Verdana" font-size="12.5" lengthAdjust="spacing" textLength="50" x="790.1042" y="355.0966">Get data</text><polygon fill="#EC7211" points="767.1875,403.9093,756.7708,408.076,767.1875,412.2426,763.0208,408.076" style="stroke:#EC7211;stroke-width:1.0416666666666667;"/><line style="stroke:#EC7211;stroke-width:3.125;stroke-dasharray:2.0,2.0;" x1="760.9375" x2="994.2708" y1="408.076" y2="408.076"/><text fill="#4E5D6C" font-family="Verdana" font-size="12.5" font-weight="bold" lengthAdjust="spacing" textLength="7.2917" x="778.6458" y="397.1218">7</text><text fill="#4E5D6C" font-family="Verdana" font-size="12.5" lengthAdjust="spacing" textLength="28.125" x="800.5208" y="397.1218">Data</text><polygon fill="#EC7211" points="386.9792,445.9344,376.5625,450.1011,386.9792,454.2677,382.8125,450.1011" style="stroke:#EC7211;stroke-width:1.0416666666666667;"/><line style="stroke:#EC7211;stroke-width:3.125;stroke-dasharray:2.0,2.0;" x1="380.7292" x2="754.6875" y1="450.1011" y2="450.1011"/><text fill="#4E5D6C" font-family="Verdana" font-size="12.5" font-weight="bold" lengthAdjust="spacing" textLength="7.2917" x="398.4375" y="439.1469">8</text><text fill="#4E5D6C" font-family="Verdana" font-size="12.5" lengthAdjust="spacing" textLength="3.125" x="420.3125" y="439.1469">&#160;</text><polygon fill="#EC7211" points="1171.875,487.9595,1182.2917,492.1262,1171.875,496.2929,1176.0417,492.1262" style="stroke:#EC7211;stroke-width:1.0416666666666667;"/><line style="stroke:#EC7211;stroke-width:3.125;" x1="375.5208" x2="1178.125" y1="492.1262" y2="492.1262"/><text fill="#4E5D6C" font-family="Verdana" font-size="12.5" font-weight="bold" lengthAdjust="spacing" textLength="7.2917" x="388.0208" y="481.172">9</text><text fill="#4E5D6C" font-family="Verdana" font-size="12.5" lengthAdjust="spacing" textLength="110.4167" x="409.8958" y="481.172">Trigger notification</text><path d="M1062.5,509.8345 L1062.5,573.3762 A4.1667,4.1667 0 0 0 1066.6667,577.5429 L1301.0417,577.5429 A4.1667,4.1667 0 0 0 1305.2083,573.3762 L1305.2083,516.0845 L1294.7917,505.6679 L1066.6667,505.6679 A4.1667,4.1667 0 0 0 1062.5,509.8345 " fill="#0073BB" style="stroke:#005C96;stroke-width:1.0416666666666667;"/><path d="M1294.7917,505.6679 L1294.7917,514.0012 A2.0833,2.0833 0 0 0 1296.875,516.0845 L1305.2083,516.0845 L1294.7917,505.6679 " fill="#0073BB" style="stroke:#005C96;stroke-width:1.0416666666666667;"/><text fill="#FFFFFF" font-family="Verdana" font-size="12.5" lengthAdjust="spacing" textLength="134.375" x="1073.9583" y="529.4471">User notified on critical</text><text fill="#FFFFFF" font-family="Verdana" font-size="12.5" lengthAdjust="spacing" textLength="210.4167" x="1073.9583" y="546.4722">events and services in all app clients</text><text fill="#FFFFFF" font-family="Verdana" font-size="12.5" lengthAdjust="spacing" textLength="110.4167" x="1073.9583" y="563.4974">Mobile or Web App</text><polygon fill="#EC7211" points="1443.75,612.31,1454.1667,616.4767,1443.75,620.6433,1447.9167,616.4767" style="stroke:#EC7211;stroke-width:1.0416666666666667;"/><line style="stroke:#EC7211;stroke-width:3.125;" x1="1184.375" x2="1450" y1="616.4767" y2="616.4767"/><text fill="#4E5D6C" font-family="Verdana" font-size="12.5" font-weight="bold" lengthAdjust="spacing" textLength="14.5833" x="1196.875" y="605.5225">10</text><text fill="#4E5D6C" font-family="Verdana" font-size="12.5" lengthAdjust="spacing" textLength="207.2917" x="1226.0417" y="605.5225">Notify local events and services info</text><!--SRC=[bLHDZzem4BtxLqovzBIgUkLGQRz4zq1LbQrwGOe6PmZM6Zkr7LZ-VSTEmWQJhBgSyFEyv_5xutmAEzeJuD7VM8Uc8Y7yYp8rEjp37SgNojd6bFTMMmV7dGeqs4SPhFFXfAC0URidWKsmfjbloC5N8JvpNL1IrMW2p9QezDhKLcjoCq0FUmQATZrQgfKFP8R5FJ9QlbKwa1kMzqXMVcSjtw5QcqTJAKEfVjDY1ILeYk3vmbXTCZeie_omGMrLrupf5bdDRKL6djP6McCeUfcACQ756Sn8YuTLpgXAFrc-sc5lYKz_ytqh5MfOKgamr_LfRrBwE-bwRHOOw8YdHDWnKbGja1K_O63znzVQkj3rKp9KK8VarXZK9rvwFY06ZcTt-esYwl5fwceGrnjnFB01xQBBDzv4gtzeamgFjCabwxgLg6iXnWSgE7vZtKdzG7MO-EZCVdnaBnZFE-LAI12n2VTsNsl-DfY0xWIUt479Y5-EI8YaeYCD9cLQ6Mv_FerGiLRYFnvGxlmNMDgDuW_GqElqNOBPRz-n6_uZH6Olt7pB7P_30mNk_smKI6qzGR1WfMpSUn9j1dFuHNyRyW4g2g2jvAT51_Ompb7PkmZARAsuP0wrkdZci62HLEieDCx0aodf5Ups7CU8o4GYhHXVmd4tIHIiEUkaxjf6nOJ0jJP7rgh6Xzot6D_vjCILOICNwBEUmxDJLSKsjuZ4eAmHl22mXpFCqGB_OjWzKiQhIQTuKb2dtUiCF7i0g7KS68vPfQl7qcwUk5iUhpXMWfWLJnNzWR5BfiqXpUXfCcUVVFu7]--></g></svg>