<?xml version="1.0" encoding="us-ascii" standalone="no"?><svg xmlns="http://www.w3.org/2000/svg" xmlns:xlink="http://www.w3.org/1999/xlink" contentStyleType="text/css" height="1154.1667px" preserveAspectRatio="none" style="width:1135px;height:1154px;background:#FFFFFF;" version="1.1" viewBox="0 0 1135 1154" width="1135.4167px" zoomAndPan="magnify"><defs><linearGradient id="g4bttnkc98j6x0" x1="50%" x2="50%" y1="0%" y2="100%"><stop offset="0%" stop-color="#F18E3E"/><stop offset="100%" stop-color="#EC7211"/></linearGradient></defs><g><line style="stroke:#ABB6C2;stroke-width:0.5208333333333334;stroke-dasharray:5.0,5.0;" x1="34.375" x2="34.375" y1="98.2751" y2="1057.2364"/><line style="stroke:#ABB6C2;stroke-width:0.5208333333333334;stroke-dasharray:5.0,5.0;" x1="268.2292" x2="268.2292" y1="98.2751" y2="1057.2364"/><line style="stroke:#ABB6C2;stroke-width:0.5208333333333334;stroke-dasharray:5.0,5.0;" x1="584.8958" x2="584.8958" y1="98.2751" y2="1057.2364"/><line style="stroke:#ABB6C2;stroke-width:0.5208333333333334;stroke-dasharray:5.0,5.0;" x1="794.7917" x2="794.7917" y1="98.2751" y2="1057.2364"/><line style="stroke:#ABB6C2;stroke-width:0.5208333333333334;stroke-dasharray:5.0,5.0;" x1="959.375" x2="959.375" y1="98.2751" y2="1057.2364"/><line style="stroke:#ABB6C2;stroke-width:0.5208333333333334;stroke-dasharray:5.0,5.0;" x1="1092.7083" x2="1092.7083" y1="98.2751" y2="1057.2364"/><text fill="#4E5D6C" font-family="Verdana" font-size="12.5" lengthAdjust="spacing" textLength="28.125" x="17.7083" y="89.4043">User</text><ellipse cx="34.8958" cy="23.4375" fill="url(#g4bttnkc98j6x0)" rx="16.6667" ry="16.6667" style="stroke:#EC7211;stroke-width:1.5625;"/><path d="M34.8958,44.2708 C39.0625,44.2708 42.1875,44.2708 46.3542,40.1042 C54.6875,40.1042 63.0208,48.4375 63.0208,56.7708 L63.0208,60.9375 C63.0208,65.1042 58.8542,69.2708 54.6875,69.2708 L15.1042,69.2708 C10.9375,69.2708 6.7708,65.1042 6.7708,60.9375 L6.7708,56.7708 C6.7708,48.4375 15.1042,40.1042 23.4375,40.1042 C27.6042,44.2708 30.7292,44.2708 34.8958,44.2708 " fill="url(#g4bttnkc98j6x0)" style="stroke:#EC7211;stroke-width:1.5625;"/><text fill="#4E5D6C" font-family="Verdana" font-size="12.5" lengthAdjust="spacing" textLength="28.125" x="17.7083" y="1074.7657">User</text><ellipse cx="34.8958" cy="1101.8657" fill="url(#g4bttnkc98j6x0)" rx="16.6667" ry="16.6667" style="stroke:#EC7211;stroke-width:1.5625;"/><path d="M34.8958,1122.699 C39.0625,1122.699 42.1875,1122.699 46.3542,1118.5324 C54.6875,1118.5324 63.0208,1126.8657 63.0208,1135.199 L63.0208,1139.3657 C63.0208,1143.5324 58.8542,1147.699 54.6875,1147.699 L15.1042,1147.699 C10.9375,1147.699 6.7708,1143.5324 6.7708,1139.3657 L6.7708,1135.199 C6.7708,1126.8657 15.1042,1118.5324 23.4375,1118.5324 C27.6042,1122.699 30.7292,1122.699 34.8958,1122.699 " fill="url(#g4bttnkc98j6x0)" style="stroke:#EC7211;stroke-width:1.5625;"/><rect fill="url(#g4bttnkc98j6x0)" height="42.0251" rx="4.1667" ry="4.1667" style="stroke:#EC7211;stroke-width:0.5208333333333334;" width="120.8333" x="207.8125" y="55.2083"/><text fill="#FFFFFF" font-family="Verdana" font-size="12.5" lengthAdjust="spacing" textLength="95.8333" x="220.3125" y="81.0709">Web/Mobile App</text><rect fill="url(#g4bttnkc98j6x0)" height="42.0251" rx="4.1667" ry="4.1667" style="stroke:#EC7211;stroke-width:0.5208333333333334;" width="120.8333" x="207.8125" y="1056.1948"/><text fill="#FFFFFF" font-family="Verdana" font-size="12.5" lengthAdjust="spacing" textLength="95.8333" x="220.3125" y="1082.0574">Web/Mobile App</text><rect fill="url(#g4bttnkc98j6x0)" height="59.0502" rx="4.1667" ry="4.1667" style="stroke:#EC7211;stroke-width:0.5208333333333334;" width="77.0833" x="546.3542" y="38.1832"/><text fill="#FFFFFF" font-family="Verdana" font-size="12.5" lengthAdjust="spacing" textLength="46.875" x="561.4583" y="64.0458">Booking</text><text fill="#FFFFFF" font-family="Verdana" font-size="12.5" lengthAdjust="spacing" textLength="52.0833" x="558.8542" y="81.0709">interface</text><rect fill="url(#g4bttnkc98j6x0)" height="59.0502" rx="4.1667" ry="4.1667" style="stroke:#EC7211;stroke-width:0.5208333333333334;" width="77.0833" x="546.3542" y="1056.1948"/><text fill="#FFFFFF" font-family="Verdana" font-size="12.5" lengthAdjust="spacing" textLength="46.875" x="561.4583" y="1082.0574">Booking</text><text fill="#FFFFFF" font-family="Verdana" font-size="12.5" lengthAdjust="spacing" textLength="52.0833" x="558.8542" y="1099.0825">interface</text><rect fill="url(#g4bttnkc98j6x0)" height="59.0502" rx="4.1667" ry="4.1667" style="stroke:#EC7211;stroke-width:0.5208333333333334;" width="71.875" x="759.375" y="38.1832"/><text fill="#FFFFFF" font-family="Verdana" font-size="12.5" lengthAdjust="spacing" textLength="46.875" x="771.875" y="64.0458">Booking</text><text fill="#FFFFFF" font-family="Verdana" font-size="12.5" lengthAdjust="spacing" textLength="44.7917" x="772.9167" y="81.0709">storage</text><rect fill="url(#g4bttnkc98j6x0)" height="59.0502" rx="4.1667" ry="4.1667" style="stroke:#EC7211;stroke-width:0.5208333333333334;" width="71.875" x="759.375" y="1056.1948"/><text fill="#FFFFFF" font-family="Verdana" font-size="12.5" lengthAdjust="spacing" textLength="46.875" x="771.875" y="1082.0574">Booking</text><text fill="#FFFFFF" font-family="Verdana" font-size="12.5" lengthAdjust="spacing" textLength="44.7917" x="772.9167" y="1099.0825">storage</text><rect fill="url(#g4bttnkc98j6x0)" height="42.0251" rx="4.1667" ry="4.1667" style="stroke:#EC7211;stroke-width:0.5208333333333334;" width="68.75" x="925" y="55.2083"/><text fill="#FFFFFF" font-family="Verdana" font-size="12.5" lengthAdjust="spacing" textLength="43.75" x="937.5" y="81.0709">Notifier</text><rect fill="url(#g4bttnkc98j6x0)" height="42.0251" rx="4.1667" ry="4.1667" style="stroke:#EC7211;stroke-width:0.5208333333333334;" width="68.75" x="925" y="1056.1948"/><text fill="#FFFFFF" font-family="Verdana" font-size="12.5" lengthAdjust="spacing" textLength="43.75" x="937.5" y="1082.0574">Notifier</text><text fill="#4E5D6C" font-family="Verdana" font-size="12.5" lengthAdjust="spacing" textLength="77.0833" x="1051.0417" y="89.4043">Other user(s)</text><ellipse cx="1092.7083" cy="23.4375" fill="url(#g4bttnkc98j6x0)" rx="16.6667" ry="16.6667" style="stroke:#EC7211;stroke-width:1.5625;"/><path d="M1092.7083,44.2708 C1096.875,44.2708 1100,44.2708 1104.1667,40.1042 C1112.5,40.1042 1120.8333,48.4375 1120.8333,56.7708 L1120.8333,60.9375 C1120.8333,65.1042 1116.6667,69.2708 1112.5,69.2708 L1072.9167,69.2708 C1068.75,69.2708 1064.5833,65.1042 1064.5833,60.9375 L1064.5833,56.7708 C1064.5833,48.4375 1072.9167,40.1042 1081.25,40.1042 C1085.4167,44.2708 1088.5417,44.2708 1092.7083,44.2708 " fill="url(#g4bttnkc98j6x0)" style="stroke:#EC7211;stroke-width:1.5625;"/><text fill="#4E5D6C" font-family="Verdana" font-size="12.5" lengthAdjust="spacing" textLength="77.0833" x="1051.0417" y="1074.7657">Other user(s)</text><ellipse cx="1092.7083" cy="1101.8657" fill="url(#g4bttnkc98j6x0)" rx="16.6667" ry="16.6667" style="stroke:#EC7211;stroke-width:1.5625;"/><path d="M1092.7083,1122.699 C1096.875,1122.699 1100,1122.699 1104.1667,1118.5324 C1112.5,1118.5324 1120.8333,1126.8657 1120.8333,1135.199 L1120.8333,1139.3657 C1120.8333,1143.5324 1116.6667,1147.699 1112.5,1147.699 L1072.9167,1147.699 C1068.75,1147.699 1064.5833,1143.5324 1064.5833,1139.3657 L1064.5833,1135.199 C1064.5833,1126.8657 1072.9167,1118.5324 1081.25,1118.5324 C1085.4167,1122.699 1088.5417,1122.699 1092.7083,1122.699 " fill="url(#g4bttnkc98j6x0)" style="stroke:#EC7211;stroke-width:1.5625;"/><polygon fill="#EC7211" points="255.7292,138.2169,266.1458,142.3836,255.7292,146.5502,259.8958,142.3836" style="stroke:#EC7211;stroke-width:1.0416666666666667;"/><line style="stroke:#EC7211;stroke-width:3.125;" x1="34.8958" x2="261.9792" y1="142.3836" y2="142.3836"/><text fill="#4E5D6C" font-family="Verdana" font-size="12.5" font-weight="bold" lengthAdjust="spacing" textLength="7.2917" x="47.3958" y="131.4294">1</text><text fill="#4E5D6C" font-family="Verdana" font-size="12.5" lengthAdjust="spacing" textLength="106.25" x="69.2708" y="131.4294">Access dashboard</text><polygon fill="#EC7211" points="572.3958,180.242,582.8125,184.4087,572.3958,188.5754,576.5625,184.4087" style="stroke:#EC7211;stroke-width:1.0416666666666667;"/><line style="stroke:#EC7211;stroke-width:3.125;" x1="268.2292" x2="578.6458" y1="184.4087" y2="184.4087"/><text fill="#4E5D6C" font-family="Verdana" font-size="12.5" font-weight="bold" lengthAdjust="spacing" textLength="7.2917" x="280.7292" y="173.4545">2</text><text fill="#4E5D6C" font-family="Verdana" font-size="12.5" lengthAdjust="spacing" textLength="191.6667" x="302.6042" y="173.4545">Request trips and booking details</text><polygon fill="#EC7211" points="782.8125,222.2671,793.2292,226.4338,782.8125,230.6005,786.9792,226.4338" style="stroke:#EC7211;stroke-width:1.0416666666666667;"/><line style="stroke:#EC7211;stroke-width:3.125;" x1="584.8958" x2="789.0625" y1="226.4338" y2="226.4338"/><text fill="#4E5D6C" font-family="Verdana" font-size="12.5" font-weight="bold" lengthAdjust="spacing" textLength="7.2917" x="597.3958" y="215.4796">3</text><text fill="#4E5D6C" font-family="Verdana" font-size="12.5" lengthAdjust="spacing" textLength="143.75" x="619.2708" y="215.4796">Read active user records</text><polygon fill="#EC7211" points="596.3542,264.2923,585.9375,268.4589,596.3542,272.6256,592.1875,268.4589" style="stroke:#EC7211;stroke-width:1.0416666666666667;"/><line style="stroke:#EC7211;stroke-width:3.125;stroke-dasharray:2.0,2.0;" x1="590.1042" x2="794.2708" y1="268.4589" y2="268.4589"/><text fill="#4E5D6C" font-family="Verdana" font-size="12.5" font-weight="bold" lengthAdjust="spacing" textLength="7.2917" x="607.8125" y="257.5047">4</text><text fill="#4E5D6C" font-family="Verdana" font-size="12.5" lengthAdjust="spacing" textLength="76.0417" x="629.6875" y="257.5047">User records</text><polygon fill="#EC7211" points="279.6875,306.3174,269.2708,310.484,279.6875,314.6507,275.5208,310.484" style="stroke:#EC7211;stroke-width:1.0416666666666667;"/><line style="stroke:#EC7211;stroke-width:3.125;stroke-dasharray:2.0,2.0;" x1="273.4375" x2="583.8542" y1="310.484" y2="310.484"/><text fill="#4E5D6C" font-family="Verdana" font-size="12.5" font-weight="bold" lengthAdjust="spacing" textLength="7.2917" x="291.1458" y="299.5299">5</text><text fill="#4E5D6C" font-family="Verdana" font-size="12.5" lengthAdjust="spacing" textLength="76.0417" x="313.0208" y="299.5299">User records</text><polygon fill="#EC7211" points="255.7292,348.3425,266.1458,352.5092,255.7292,356.6758,259.8958,352.5092" style="stroke:#EC7211;stroke-width:1.0416666666666667;"/><line style="stroke:#EC7211;stroke-width:3.125;" x1="34.8958" x2="261.9792" y1="352.5092" y2="352.5092"/><text fill="#4E5D6C" font-family="Verdana" font-size="12.5" font-weight="bold" lengthAdjust="spacing" textLength="7.2917" x="47.3958" y="341.555">6</text><text fill="#4E5D6C" font-family="Verdana" font-size="12.5" lengthAdjust="spacing" textLength="176.0417" x="69.2708" y="341.555">Trigger share with other users</text><path d="M151.0417,370.2175 L151.0417,433.7592 A4.1667,4.1667 0 0 0 155.2083,437.9258 L380.2083,437.9258 A4.1667,4.1667 0 0 0 384.375,433.7592 L384.375,376.4675 L373.9583,366.0508 L155.2083,366.0508 A4.1667,4.1667 0 0 0 151.0417,370.2175 " fill="#0073BB" style="stroke:#005C96;stroke-width:1.0416666666666667;"/><path d="M373.9583,366.0508 L373.9583,374.3842 A2.0833,2.0833 0 0 0 376.0417,376.4675 L384.375,376.4675 L373.9583,366.0508 " fill="#0073BB" style="stroke:#005C96;stroke-width:1.0416666666666667;"/><text fill="#FFFFFF" font-family="Verdana" font-size="12.5" lengthAdjust="spacing" textLength="148.9583" x="162.5" y="389.8301">User can optionally select</text><text fill="#FFFFFF" font-family="Verdana" font-size="12.5" lengthAdjust="spacing" textLength="145.8333" x="162.5" y="406.8552">which bookings or details</text><text fill="#FFFFFF" font-family="Verdana" font-size="12.5" lengthAdjust="spacing" textLength="201.0417" x="162.5" y="423.8803">will be shared and the target users</text><polygon fill="#EC7211" points="572.3958,472.693,582.8125,476.8596,572.3958,481.0263,576.5625,476.8596" style="stroke:#EC7211;stroke-width:1.0416666666666667;"/><line style="stroke:#EC7211;stroke-width:3.125;" x1="268.2292" x2="578.6458" y1="476.8596" y2="476.8596"/><text fill="#4E5D6C" font-family="Verdana" font-size="12.5" font-weight="bold" lengthAdjust="spacing" textLength="7.2917" x="280.7292" y="465.9055">7</text><text fill="#4E5D6C" font-family="Verdana" font-size="12.5" lengthAdjust="spacing" textLength="89.5833" x="302.6042" y="465.9055">Get user(s) info</text><polygon fill="#EC7211" points="782.8125,514.7181,793.2292,518.8848,782.8125,523.0514,786.9792,518.8848" style="stroke:#EC7211;stroke-width:1.0416666666666667;"/><line style="stroke:#EC7211;stroke-width:3.125;" x1="584.8958" x2="789.0625" y1="518.8848" y2="518.8848"/><text fill="#4E5D6C" font-family="Verdana" font-size="12.5" font-weight="bold" lengthAdjust="spacing" textLength="7.2917" x="597.3958" y="507.9306">8</text><text fill="#4E5D6C" font-family="Verdana" font-size="12.5" lengthAdjust="spacing" textLength="83.3333" x="619.2708" y="507.9306">Read user info</text><polygon fill="#EC7211" points="596.3542,556.7432,585.9375,560.9099,596.3542,565.0765,592.1875,560.9099" style="stroke:#EC7211;stroke-width:1.0416666666666667;"/><line style="stroke:#EC7211;stroke-width:3.125;stroke-dasharray:2.0,2.0;" x1="590.1042" x2="794.2708" y1="560.9099" y2="560.9099"/><text fill="#4E5D6C" font-family="Verdana" font-size="12.5" font-weight="bold" lengthAdjust="spacing" textLength="7.2917" x="607.8125" y="549.9557">9</text><text fill="#4E5D6C" font-family="Verdana" font-size="12.5" lengthAdjust="spacing" textLength="53.125" x="629.6875" y="549.9557">User info</text><polygon fill="#EC7211" points="279.6875,598.7683,269.2708,602.935,279.6875,607.1017,275.5208,602.935" style="stroke:#EC7211;stroke-width:1.0416666666666667;"/><line style="stroke:#EC7211;stroke-width:3.125;stroke-dasharray:2.0,2.0;" x1="273.4375" x2="583.8542" y1="602.935" y2="602.935"/><text fill="#4E5D6C" font-family="Verdana" font-size="12.5" font-weight="bold" lengthAdjust="spacing" textLength="14.5833" x="291.1458" y="591.9808">10</text><text fill="#4E5D6C" font-family="Verdana" font-size="12.5" lengthAdjust="spacing" textLength="53.125" x="320.3125" y="591.9808">User info</text><polygon fill="#EC7211" points="572.3958,640.7935,582.8125,644.9601,572.3958,649.1268,576.5625,644.9601" style="stroke:#EC7211;stroke-width:1.0416666666666667;"/><line style="stroke:#EC7211;stroke-width:3.125;" x1="268.2292" x2="578.6458" y1="644.9601" y2="644.9601"/><text fill="#4E5D6C" font-family="Verdana" font-size="12.5" font-weight="bold" lengthAdjust="spacing" textLength="14.5833" x="280.7292" y="634.0059">11</text><text fill="#4E5D6C" font-family="Verdana" font-size="12.5" lengthAdjust="spacing" textLength="59.375" x="309.8958" y="634.0059">Share info</text><polygon fill="#EC7211" points="782.8125,682.8186,793.2292,686.9852,782.8125,691.1519,786.9792,686.9852" style="stroke:#EC7211;stroke-width:1.0416666666666667;"/><line style="stroke:#EC7211;stroke-width:3.125;" x1="584.8958" x2="789.0625" y1="686.9852" y2="686.9852"/><text fill="#4E5D6C" font-family="Verdana" font-size="12.5" font-weight="bold" lengthAdjust="spacing" textLength="14.5833" x="597.3958" y="676.031">12</text><text fill="#4E5D6C" font-family="Verdana" font-size="12.5" lengthAdjust="spacing" textLength="125" x="626.5625" y="676.031">Update users notified</text><path d="M490.625,704.6936 L490.625,784.9019 A4.1667,4.1667 0 0 0 494.7917,789.0686 L675,789.0686 A4.1667,4.1667 0 0 0 679.1667,784.9019 L679.1667,710.9436 L668.75,700.5269 L494.7917,700.5269 A4.1667,4.1667 0 0 0 490.625,704.6936 " fill="#0073BB" style="stroke:#005C96;stroke-width:1.0416666666666667;"/><path d="M668.75,700.5269 L668.75,708.8602 A2.0833,2.0833 0 0 0 670.8333,710.9436 L679.1667,710.9436 L668.75,700.5269 " fill="#0073BB" style="stroke:#005C96;stroke-width:1.0416666666666667;"/><text fill="#FFFFFF" font-family="Verdana" font-size="12.5" lengthAdjust="spacing" textLength="137.5" x="502.0833" y="724.3062">Record of users notified</text><text fill="#FFFFFF" font-family="Verdana" font-size="12.5" lengthAdjust="spacing" textLength="132.2917" x="502.0833" y="741.3313">on booking(s) allows to</text><text fill="#FFFFFF" font-family="Verdana" font-size="12.5" lengthAdjust="spacing" textLength="139.5833" x="502.0833" y="758.3564">update them in case the</text><text fill="#FFFFFF" font-family="Verdana" font-size="12.5" lengthAdjust="spacing" textLength="156.25" x="502.0833" y="775.3815">bookings are updated later</text><polygon fill="#EC7211" points="596.3542,824.1942,585.9375,828.3608,596.3542,832.5275,592.1875,828.3608" style="stroke:#EC7211;stroke-width:1.0416666666666667;"/><line style="stroke:#EC7211;stroke-width:3.125;stroke-dasharray:2.0,2.0;" x1="590.1042" x2="794.2708" y1="828.3608" y2="828.3608"/><text fill="#4E5D6C" font-family="Verdana" font-size="12.5" font-weight="bold" lengthAdjust="spacing" textLength="14.5833" x="607.8125" y="817.4066">13</text><text fill="#4E5D6C" font-family="Verdana" font-size="12.5" lengthAdjust="spacing" textLength="145.8333" x="636.9792" y="817.4066">Confirm records updated</text><polygon fill="#EC7211" points="279.6875,866.2193,269.2708,870.386,279.6875,874.5526,275.5208,870.386" style="stroke:#EC7211;stroke-width:1.0416666666666667;"/><line style="stroke:#EC7211;stroke-width:3.125;stroke-dasharray:2.0,2.0;" x1="273.4375" x2="583.8542" y1="870.386" y2="870.386"/><text fill="#4E5D6C" font-family="Verdana" font-size="12.5" font-weight="bold" lengthAdjust="spacing" textLength="14.5833" x="291.1458" y="859.4318">14</text><text fill="#4E5D6C" font-family="Verdana" font-size="12.5" lengthAdjust="spacing" textLength="252.0833" x="320.3125" y="859.4318">Confirm booking(s) details has been shared</text><polygon fill="#EC7211" points="46.3542,908.2444,35.9375,912.4111,46.3542,916.5777,42.1875,912.4111" style="stroke:#EC7211;stroke-width:1.0416666666666667;"/><line style="stroke:#EC7211;stroke-width:3.125;stroke-dasharray:2.0,2.0;" x1="40.1042" x2="267.1875" y1="912.4111" y2="912.4111"/><text fill="#4E5D6C" font-family="Verdana" font-size="12.5" font-weight="bold" lengthAdjust="spacing" textLength="14.5833" x="57.8125" y="901.4569">15</text><text fill="#4E5D6C" font-family="Verdana" font-size="12.5" lengthAdjust="spacing" textLength="3.125" x="86.9792" y="901.4569">&#160;</text><polygon fill="#EC7211" points="946.875,950.2695,957.2917,954.4362,946.875,958.6029,951.0417,954.4362" style="stroke:#EC7211;stroke-width:1.0416666666666667;"/><line style="stroke:#EC7211;stroke-width:3.125;" x1="584.8958" x2="953.125" y1="954.4362" y2="954.4362"/><text fill="#4E5D6C" font-family="Verdana" font-size="12.5" font-weight="bold" lengthAdjust="spacing" textLength="14.5833" x="597.3958" y="943.482">16</text><text fill="#4E5D6C" font-family="Verdana" font-size="12.5" lengthAdjust="spacing" textLength="209.375" x="626.5625" y="943.482">Notify user(s) on the trip shared info</text><polygon fill="#EC7211" points="279.6875,992.2946,269.2708,996.4613,279.6875,1000.628,275.5208,996.4613" style="stroke:#EC7211;stroke-width:1.0416666666666667;"/><line style="stroke:#EC7211;stroke-width:3.125;" x1="273.4375" x2="958.3333" y1="996.4613" y2="996.4613"/><text fill="#4E5D6C" font-family="Verdana" font-size="12.5" font-weight="bold" lengthAdjust="spacing" textLength="14.5833" x="291.1458" y="985.5071">17</text><text fill="#4E5D6C" font-family="Verdana" font-size="12.5" lengthAdjust="spacing" textLength="3.125" x="320.3125" y="985.5071">&#160;</text><polygon fill="#EC7211" points="1080.2083,1034.3198,1090.625,1038.4864,1080.2083,1042.6531,1084.375,1038.4864" style="stroke:#EC7211;stroke-width:1.0416666666666667;"/><line style="stroke:#EC7211;stroke-width:3.125;" x1="268.2292" x2="1086.4583" y1="1038.4864" y2="1038.4864"/><text fill="#4E5D6C" font-family="Verdana" font-size="12.5" font-weight="bold" lengthAdjust="spacing" textLength="14.5833" x="280.7292" y="1027.5322">18</text><text fill="#4E5D6C" font-family="Verdana" font-size="12.5" lengthAdjust="spacing" textLength="3.125" x="309.8958" y="1027.5322">&#160;</text><!--SRC=[dLLDRzim3BthLt2zR3iKmwuz3EZ7q5sw0SsANG8OiitOGXNHa-Hc-VUZPCcrtRX0cqCGFV9Hv2EfVF0jxX7amPsJbQP18ToZCfsqSWzNidfiBFMclYPD5WwjyZYnoygJTVweGm1qj4SXUq-ctvTeuQiG7zdFgqfrqdWukvDARqr7MgCz0-bWpq0nd4-wQkKycgbpHawwxvJsQAVk6LcuNn5n3StMACFcdQmmKie1BaPqZUQuRDdCIGbRetZBMgRKCYLX2yfbWwOwRar5nc0Gc3aHAaPamRYzsSpT7JIrMtNVKAMaXZkibLpoNBIjKd-WxhRcLdeyo6Caj8mKpG0id6-av_ZV_tLaVQgyPgZ0X2phDb8V-UZuWj1YcNEIsL0q6L-dRYQjUIQURiw4DilocRUIwXyie-C1osN8hXj2T9qGSJtWxC6bk3t_4Cj0N-weLBn0K-RxXlNjipfZ_2IlTYgbQj8Xr_2BdmaR2_ZaFaSF2aWHInBX6yw_XTmluBAgq8LMkxOaQMl1Q32-IFW2xl5lZyw3jweBijVP2MhqlBzEl21D8wKoGXnPXyT8FM7C4InMP6idBFhU6dYOOYT2vjHdVhEYVblLD7nshRG81-NRGO1udHCi5m8zyJcq3_WJGrNI07LU4G-KFe93pKiLpVoILcqkXCMqOyNHghI64eVRwYWCNmPUsWPzkX8P3DU-8kzjSkQMWJ8xUekQiVf8ccgu5cKcO7HQpseJ9Nn3FWyTFnj3OyV1h2UIlzo4eE5zR2FGRaaCHZAP5RJXvj31WQTewuVhmlyYPyazTF4GRMF3GWc3OmrQXXTYx4VIwvhu_yZkypXbxzVKovH9Qcage0tRYsZII0poCY_ktqaPymPVG5piupW9N7iS9jwvF62n6PcGPZvtSBBd_m40]--></g></svg>