<?xml version="1.0" encoding="us-ascii" standalone="no"?><svg xmlns="http://www.w3.org/2000/svg" xmlns:xlink="http://www.w3.org/1999/xlink" contentStyleType="text/css" height="877.0833px" preserveAspectRatio="none" style="width:1178px;height:877px;background:#FFFFFF;" version="1.1" viewBox="0 0 1178 877" width="1178.125px" zoomAndPan="magnify"><defs><linearGradient id="g1j5ngcd8o4ucj0" x1="50%" x2="50%" y1="0%" y2="100%"><stop offset="0%" stop-color="#F18E3E"/><stop offset="100%" stop-color="#EC7211"/></linearGradient></defs><g><line style="stroke:#ABB6C2;stroke-width:0.5208333333333334;stroke-dasharray:5.0,5.0;" x1="34.375" x2="34.375" y1="98.2751" y2="780.0857"/><line style="stroke:#ABB6C2;stroke-width:0.5208333333333334;stroke-dasharray:5.0,5.0;" x1="260.9375" x2="260.9375" y1="98.2751" y2="780.0857"/><line style="stroke:#ABB6C2;stroke-width:0.5208333333333334;stroke-dasharray:5.0,5.0;" x1="509.8958" x2="509.8958" y1="98.2751" y2="780.0857"/><line style="stroke:#ABB6C2;stroke-width:0.5208333333333334;stroke-dasharray:5.0,5.0;" x1="710.4167" x2="710.4167" y1="98.2751" y2="780.0857"/><line style="stroke:#ABB6C2;stroke-width:0.5208333333333334;stroke-dasharray:5.0,5.0;" x1="889.5833" x2="889.5833" y1="98.2751" y2="780.0857"/><line style="stroke:#ABB6C2;stroke-width:0.5208333333333334;stroke-dasharray:5.0,5.0;" x1="1121.875" x2="1121.875" y1="98.2751" y2="780.0857"/><text fill="#4E5D6C" font-family="Verdana" font-size="12.5" lengthAdjust="spacing" textLength="28.125" x="17.7083" y="89.4043">User</text><ellipse cx="34.8958" cy="23.4375" fill="url(#g1j5ngcd8o4ucj0)" rx="16.6667" ry="16.6667" style="stroke:#EC7211;stroke-width:1.5625;"/><path d="M34.8958,44.2708 C39.0625,44.2708 42.1875,44.2708 46.3542,40.1042 C54.6875,40.1042 63.0208,48.4375 63.0208,56.7708 L63.0208,60.9375 C63.0208,65.1042 58.8542,69.2708 54.6875,69.2708 L15.1042,69.2708 C10.9375,69.2708 6.7708,65.1042 6.7708,60.9375 L6.7708,56.7708 C6.7708,48.4375 15.1042,40.1042 23.4375,40.1042 C27.6042,44.2708 30.7292,44.2708 34.8958,44.2708 " fill="url(#g1j5ngcd8o4ucj0)" style="stroke:#EC7211;stroke-width:1.5625;"/><text fill="#4E5D6C" font-family="Verdana" font-size="12.5" lengthAdjust="spacing" textLength="28.125" x="17.7083" y="797.615">User</text><ellipse cx="34.8958" cy="824.715" fill="url(#g1j5ngcd8o4ucj0)" rx="16.6667" ry="16.6667" style="stroke:#EC7211;stroke-width:1.5625;"/><path d="M34.8958,845.5483 C39.0625,845.5483 42.1875,845.5483 46.3542,841.3817 C54.6875,841.3817 63.0208,849.715 63.0208,858.0483 L63.0208,862.215 C63.0208,866.3817 58.8542,870.5483 54.6875,870.5483 L15.1042,870.5483 C10.9375,870.5483 6.7708,866.3817 6.7708,862.215 L6.7708,858.0483 C6.7708,849.715 15.1042,841.3817 23.4375,841.3817 C27.6042,845.5483 30.7292,845.5483 34.8958,845.5483 " fill="url(#g1j5ngcd8o4ucj0)" style="stroke:#EC7211;stroke-width:1.5625;"/><rect fill="url(#g1j5ngcd8o4ucj0)" height="42.0251" rx="4.1667" ry="4.1667" style="stroke:#EC7211;stroke-width:0.5208333333333334;" width="120.8333" x="200.5208" y="55.2083"/><text fill="#FFFFFF" font-family="Verdana" font-size="12.5" lengthAdjust="spacing" textLength="95.8333" x="213.0208" y="81.0709">Web/Mobile App</text><rect fill="url(#g1j5ngcd8o4ucj0)" height="42.0251" rx="4.1667" ry="4.1667" style="stroke:#EC7211;stroke-width:0.5208333333333334;" width="120.8333" x="200.5208" y="779.044"/><text fill="#FFFFFF" font-family="Verdana" font-size="12.5" lengthAdjust="spacing" textLength="95.8333" x="213.0208" y="804.9066">Web/Mobile App</text><rect fill="url(#g1j5ngcd8o4ucj0)" height="59.0502" rx="4.1667" ry="4.1667" style="stroke:#EC7211;stroke-width:0.5208333333333334;" width="77.0833" x="471.3542" y="38.1832"/><text fill="#FFFFFF" font-family="Verdana" font-size="12.5" lengthAdjust="spacing" textLength="46.875" x="486.4583" y="64.0458">Booking</text><text fill="#FFFFFF" font-family="Verdana" font-size="12.5" lengthAdjust="spacing" textLength="52.0833" x="483.8542" y="81.0709">interface</text><rect fill="url(#g1j5ngcd8o4ucj0)" height="59.0502" rx="4.1667" ry="4.1667" style="stroke:#EC7211;stroke-width:0.5208333333333334;" width="77.0833" x="471.3542" y="779.044"/><text fill="#FFFFFF" font-family="Verdana" font-size="12.5" lengthAdjust="spacing" textLength="46.875" x="486.4583" y="804.9066">Booking</text><text fill="#FFFFFF" font-family="Verdana" font-size="12.5" lengthAdjust="spacing" textLength="52.0833" x="483.8542" y="821.9318">interface</text><rect fill="url(#g1j5ngcd8o4ucj0)" height="59.0502" rx="4.1667" ry="4.1667" style="stroke:#EC7211;stroke-width:0.5208333333333334;" width="71.875" x="675" y="38.1832"/><text fill="#FFFFFF" font-family="Verdana" font-size="12.5" lengthAdjust="spacing" textLength="46.875" x="687.5" y="64.0458">Booking</text><text fill="#FFFFFF" font-family="Verdana" font-size="12.5" lengthAdjust="spacing" textLength="44.7917" x="688.5417" y="81.0709">storage</text><rect fill="url(#g1j5ngcd8o4ucj0)" height="59.0502" rx="4.1667" ry="4.1667" style="stroke:#EC7211;stroke-width:0.5208333333333334;" width="71.875" x="675" y="779.044"/><text fill="#FFFFFF" font-family="Verdana" font-size="12.5" lengthAdjust="spacing" textLength="46.875" x="687.5" y="804.9066">Booking</text><text fill="#FFFFFF" font-family="Verdana" font-size="12.5" lengthAdjust="spacing" textLength="44.7917" x="688.5417" y="821.9318">storage</text><rect fill="url(#g1j5ngcd8o4ucj0)" height="59.0502" rx="4.1667" ry="4.1667" style="stroke:#EC7211;stroke-width:0.5208333333333334;" width="98.9583" x="840.625" y="38.1832"/><text fill="#FFFFFF" font-family="Verdana" font-size="12.5" lengthAdjust="spacing" textLength="73.9583" x="853.125" y="64.0458">Social Media</text><text fill="#FFFFFF" font-family="Verdana" font-size="12.5" lengthAdjust="spacing" textLength="58.3333" x="860.9375" y="81.0709">connector</text><rect fill="url(#g1j5ngcd8o4ucj0)" height="59.0502" rx="4.1667" ry="4.1667" style="stroke:#EC7211;stroke-width:0.5208333333333334;" width="98.9583" x="840.625" y="779.044"/><text fill="#FFFFFF" font-family="Verdana" font-size="12.5" lengthAdjust="spacing" textLength="73.9583" x="853.125" y="804.9066">Social Media</text><text fill="#FFFFFF" font-family="Verdana" font-size="12.5" lengthAdjust="spacing" textLength="58.3333" x="860.9375" y="821.9318">connector</text><rect fill="url(#g1j5ngcd8o4ucj0)" height="59.0502" rx="4.1667" ry="4.1667" style="stroke:#EC7211;stroke-width:0.5208333333333334;" width="98.9583" x="1072.9167" y="38.1832"/><text fill="#FFFFFF" font-family="Verdana" font-size="12.5" lengthAdjust="spacing" textLength="73.9583" x="1085.4167" y="64.0458">Social Media</text><text fill="#FFFFFF" font-family="Verdana" font-size="12.5" lengthAdjust="spacing" textLength="57.2917" x="1093.75" y="81.0709">Public API</text><rect fill="url(#g1j5ngcd8o4ucj0)" height="59.0502" rx="4.1667" ry="4.1667" style="stroke:#EC7211;stroke-width:0.5208333333333334;" width="98.9583" x="1072.9167" y="779.044"/><text fill="#FFFFFF" font-family="Verdana" font-size="12.5" lengthAdjust="spacing" textLength="73.9583" x="1085.4167" y="804.9066">Social Media</text><text fill="#FFFFFF" font-family="Verdana" font-size="12.5" lengthAdjust="spacing" textLength="57.2917" x="1093.75" y="821.9318">Public API</text><polygon fill="#EC7211" points="248.4375,138.2169,258.8542,142.3836,248.4375,146.5502,252.6042,142.3836" style="stroke:#EC7211;stroke-width:1.0416666666666667;"/><line style="stroke:#EC7211;stroke-width:3.125;" x1="34.8958" x2="254.6875" y1="142.3836" y2="142.3836"/><text fill="#4E5D6C" font-family="Verdana" font-size="12.5" font-weight="bold" lengthAdjust="spacing" textLength="7.2917" x="47.3958" y="131.4294">1</text><text fill="#4E5D6C" font-family="Verdana" font-size="12.5" lengthAdjust="spacing" textLength="106.25" x="69.2708" y="131.4294">Access dashboard</text><polygon fill="#EC7211" points="497.3958,180.242,507.8125,184.4087,497.3958,188.5754,501.5625,184.4087" style="stroke:#EC7211;stroke-width:1.0416666666666667;"/><line style="stroke:#EC7211;stroke-width:3.125;" x1="260.9375" x2="503.6458" y1="184.4087" y2="184.4087"/><text fill="#4E5D6C" font-family="Verdana" font-size="12.5" font-weight="bold" lengthAdjust="spacing" textLength="7.2917" x="273.4375" y="173.4545">2</text><text fill="#4E5D6C" font-family="Verdana" font-size="12.5" lengthAdjust="spacing" textLength="191.6667" x="295.3125" y="173.4545">Request trips and booking details</text><polygon fill="#EC7211" points="698.4375,222.2671,708.8542,226.4338,698.4375,230.6005,702.6042,226.4338" style="stroke:#EC7211;stroke-width:1.0416666666666667;"/><line style="stroke:#EC7211;stroke-width:3.125;" x1="509.8958" x2="704.6875" y1="226.4338" y2="226.4338"/><text fill="#4E5D6C" font-family="Verdana" font-size="12.5" font-weight="bold" lengthAdjust="spacing" textLength="7.2917" x="522.3958" y="215.4796">3</text><text fill="#4E5D6C" font-family="Verdana" font-size="12.5" lengthAdjust="spacing" textLength="143.75" x="544.2708" y="215.4796">Read active user records</text><polygon fill="#EC7211" points="521.3542,264.2923,510.9375,268.4589,521.3542,272.6256,517.1875,268.4589" style="stroke:#EC7211;stroke-width:1.0416666666666667;"/><line style="stroke:#EC7211;stroke-width:3.125;stroke-dasharray:2.0,2.0;" x1="515.1042" x2="709.8958" y1="268.4589" y2="268.4589"/><text fill="#4E5D6C" font-family="Verdana" font-size="12.5" font-weight="bold" lengthAdjust="spacing" textLength="7.2917" x="532.8125" y="257.5047">4</text><text fill="#4E5D6C" font-family="Verdana" font-size="12.5" lengthAdjust="spacing" textLength="76.0417" x="554.6875" y="257.5047">User records</text><polygon fill="#EC7211" points="272.3958,306.3174,261.9792,310.484,272.3958,314.6507,268.2292,310.484" style="stroke:#EC7211;stroke-width:1.0416666666666667;"/><line style="stroke:#EC7211;stroke-width:3.125;stroke-dasharray:2.0,2.0;" x1="266.1458" x2="508.8542" y1="310.484" y2="310.484"/><text fill="#4E5D6C" font-family="Verdana" font-size="12.5" font-weight="bold" lengthAdjust="spacing" textLength="7.2917" x="283.8542" y="299.5299">5</text><text fill="#4E5D6C" font-family="Verdana" font-size="12.5" lengthAdjust="spacing" textLength="76.0417" x="305.7292" y="299.5299">User records</text><polygon fill="#EC7211" points="248.4375,348.3425,258.8542,352.5092,248.4375,356.6758,252.6042,352.5092" style="stroke:#EC7211;stroke-width:1.0416666666666667;"/><line style="stroke:#EC7211;stroke-width:3.125;" x1="34.8958" x2="254.6875" y1="352.5092" y2="352.5092"/><text fill="#4E5D6C" font-family="Verdana" font-size="12.5" font-weight="bold" lengthAdjust="spacing" textLength="7.2917" x="47.3958" y="341.555">6</text><text fill="#4E5D6C" font-family="Verdana" font-size="12.5" lengthAdjust="spacing" textLength="168.75" x="69.2708" y="341.555">Trigger share in social media</text><path d="M152.0833,370.2175 L152.0833,433.7592 A4.1667,4.1667 0 0 0 156.25,437.9258 L364.5833,437.9258 A4.1667,4.1667 0 0 0 368.75,433.7592 L368.75,376.4675 L358.3333,366.0508 L156.25,366.0508 A4.1667,4.1667 0 0 0 152.0833,370.2175 " fill="#0073BB" style="stroke:#005C96;stroke-width:1.0416666666666667;"/><path d="M358.3333,366.0508 L358.3333,374.3842 A2.0833,2.0833 0 0 0 360.4167,376.4675 L368.75,376.4675 L358.3333,366.0508 " fill="#0073BB" style="stroke:#005C96;stroke-width:1.0416666666666667;"/><text fill="#FFFFFF" font-family="Verdana" font-size="12.5" lengthAdjust="spacing" textLength="139.5833" x="163.5417" y="389.8301">User fill short text which</text><text fill="#FFFFFF" font-family="Verdana" font-size="12.5" lengthAdjust="spacing" textLength="168.75" x="163.5417" y="406.8552">will be complementarily send</text><text fill="#FFFFFF" font-family="Verdana" font-size="12.5" lengthAdjust="spacing" textLength="184.375" x="163.5417" y="423.8803">next to the trip summary details</text><polygon fill="#EC7211" points="877.6042,472.693,888.0208,476.8596,877.6042,481.0263,881.7708,476.8596" style="stroke:#EC7211;stroke-width:1.0416666666666667;"/><line style="stroke:#EC7211;stroke-width:3.125;" x1="260.9375" x2="883.8542" y1="476.8596" y2="476.8596"/><text fill="#4E5D6C" font-family="Verdana" font-size="12.5" font-weight="bold" lengthAdjust="spacing" textLength="7.2917" x="273.4375" y="465.9055">7</text><text fill="#4E5D6C" font-family="Verdana" font-size="12.5" lengthAdjust="spacing" textLength="127.0833" x="295.3125" y="465.9055">POST share operation</text><polygon fill="#EC7211" points="1109.8958,514.7181,1120.3125,518.8848,1109.8958,523.0514,1114.0625,518.8848" style="stroke:#EC7211;stroke-width:1.0416666666666667;"/><line style="stroke:#EC7211;stroke-width:3.125;" x1="890.1042" x2="1116.1458" y1="518.8848" y2="518.8848"/><text fill="#4E5D6C" font-family="Verdana" font-size="12.5" font-weight="bold" lengthAdjust="spacing" textLength="7.2917" x="902.6042" y="507.9306">8</text><text fill="#4E5D6C" font-family="Verdana" font-size="12.5" lengthAdjust="spacing" textLength="67.7083" x="924.4792" y="507.9306">API request</text><polygon fill="#EC7211" points="901.5625,556.7432,891.1458,560.9099,901.5625,565.0765,897.3958,560.9099" style="stroke:#EC7211;stroke-width:1.0416666666666667;"/><line style="stroke:#EC7211;stroke-width:3.125;stroke-dasharray:2.0,2.0;" x1="895.3125" x2="1121.3542" y1="560.9099" y2="560.9099"/><text fill="#4E5D6C" font-family="Verdana" font-size="12.5" font-weight="bold" lengthAdjust="spacing" textLength="7.2917" x="913.0208" y="549.9557">9</text><text fill="#4E5D6C" font-family="Verdana" font-size="12.5" lengthAdjust="spacing" textLength="175" x="934.8958" y="549.9557">Confirm share operation done</text><polygon fill="#EC7211" points="272.3958,598.7683,261.9792,602.935,272.3958,607.1017,268.2292,602.935" style="stroke:#EC7211;stroke-width:1.0416666666666667;"/><line style="stroke:#EC7211;stroke-width:3.125;stroke-dasharray:2.0,2.0;" x1="266.1458" x2="889.0625" y1="602.935" y2="602.935"/><text fill="#4E5D6C" font-family="Verdana" font-size="12.5" font-weight="bold" lengthAdjust="spacing" textLength="14.5833" x="283.8542" y="591.9808">10</text><text fill="#4E5D6C" font-family="Verdana" font-size="12.5" lengthAdjust="spacing" textLength="115.625" x="313.0208" y="591.9808">Confirm share done</text><path d="M130.2083,620.6433 L130.2083,717.5183 A4.1667,4.1667 0 0 0 134.375,721.685 L387.5,721.685 A4.1667,4.1667 0 0 0 391.6667,717.5183 L391.6667,626.8933 L381.25,616.4767 L134.375,616.4767 A4.1667,4.1667 0 0 0 130.2083,620.6433 " fill="#0073BB" style="stroke:#005C96;stroke-width:1.0416666666666667;"/><path d="M381.25,616.4767 L381.25,624.81 A2.0833,2.0833 0 0 0 383.3333,626.8933 L391.6667,626.8933 L381.25,616.4767 " fill="#0073BB" style="stroke:#005C96;stroke-width:1.0416666666666667;"/><text fill="#FFFFFF" font-family="Verdana" font-size="12.5" lengthAdjust="spacing" textLength="178.125" x="141.6667" y="640.2559">Dashboard will show in the trip</text><text fill="#FFFFFF" font-family="Verdana" font-size="12.5" lengthAdjust="spacing" textLength="203.125" x="141.6667" y="657.281">small artifact component to denote</text><text fill="#FFFFFF" font-family="Verdana" font-size="12.5" lengthAdjust="spacing" textLength="206.25" x="141.6667" y="674.3062">the trip has been shared on specific</text><text fill="#FFFFFF" font-family="Verdana" font-size="12.5" lengthAdjust="spacing" textLength="229.1667" x="141.6667" y="691.3313">social media company. Eg: social media</text><text fill="#FFFFFF" font-family="Verdana" font-size="12.5" lengthAdjust="spacing" textLength="84.375" x="141.6667" y="708.3564">favicon or icon</text><polygon fill="#EC7211" points="46.3542,757.169,35.9375,761.3357,46.3542,765.5024,42.1875,761.3357" style="stroke:#EC7211;stroke-width:1.0416666666666667;"/><line style="stroke:#EC7211;stroke-width:3.125;stroke-dasharray:2.0,2.0;" x1="40.1042" x2="259.8958" y1="761.3357" y2="761.3357"/><text fill="#4E5D6C" font-family="Verdana" font-size="12.5" font-weight="bold" lengthAdjust="spacing" textLength="14.5833" x="57.8125" y="750.3815">11</text><text fill="#4E5D6C" font-family="Verdana" font-size="12.5" lengthAdjust="spacing" textLength="3.125" x="86.9792" y="750.3815">&#160;</text><!--SRC=[VLHDRzim3BthLt2zxDGDk-Om8Fr0jqEtOccnIu20bXbRg2rvajpK_twKR6MsaYoNM8_lKU8ZfG- -ffO03-xQMDGL2U5UbUxGOWitA5yhQtfTtfh6M3ZKojCiZj8Rw_pGX0JaJ4i2UszqtnPauOiG7vddbLGTQWzNZwYQhUvCqv2z0dJGCh0RrsUfZNAUz9oSaBFqlMeysJaz8HdznXYkeTfgRxd2IL2Cu6x2CiaFuzLUJLGzBJBEkY8jXwsMHciArZ0vGhiZaYaUxZPBkeEgT1VfcnfJUIv-Pl5lr7HR_O2U3ZX4Mit8hXg1Z7o77hVw_hqpraz9IuPsD25vSHgRWPUEDmWTm7HWJ85TbV3BqWr7sPDCw4Rqicnnod-w2qVzJKKa7gWG8iueNBsuITtpXyZfdnzDeNYArrqtRj5rulp4ACtxxL7IOcQEw0MLcvMTDAdePOUDLDZ08vKAyybmCJORZlyed_gYKHBMJz_dKkoK4C40kFuQQbp1MafoeV6kBWpQKZ0QWYU5hU0N_Ud9UV1MTQ49PI91IPulcnCdedccgToG1ylmSgWtYiq0IzBOqWbBlhSQNkROcPJfw0lUegXdgwgAr_6EWD9J-T06RmHVNWBpnl7GPU1VpCHFHSCAdYVmzEx3MoVh63w4I44WJTir_5XgZrOr0pZIPIJemFS6-2cDxe3hsnRjS3I6YU7DeEHktiaLFFtSF4_dDLsuHCfeaTDcKkxaAdIN3OXTIURT6du5RPkdWj9eEfClERQKHVAfJNTfI4P7sAj3C3TL7JckHGw5kUHc-MWP9zFHdfAY1u5sTAeE5u98ZpkNm4Tr7Kb-NUMORzQvc0try0dkgzMofu6wnpV5fG7N5VupqxdIC2D_0G00]--></g></svg>