<?xml version="1.0" encoding="us-ascii" standalone="no"?><svg xmlns="http://www.w3.org/2000/svg" xmlns:xlink="http://www.w3.org/1999/xlink" contentStyleType="text/css" height="1387.5px" preserveAspectRatio="none" style="width:1438px;height:1387px;background:#FFFFFF;" version="1.1" viewBox="0 0 1438 1387" width="1438.5417px" zoomAndPan="magnify"><defs><linearGradient id="g1gevkefw91gwk0" x1="50%" x2="50%" y1="0%" y2="100%"><stop offset="0%" stop-color="#F18E3E"/><stop offset="100%" stop-color="#EC7211"/></linearGradient></defs><g><line style="stroke:#ABB6C2;stroke-width:0.5208333333333334;stroke-dasharray:5.0,5.0;" x1="145.8333" x2="145.8333" y1="98.2751" y2="1290.6371"/><line style="stroke:#ABB6C2;stroke-width:0.5208333333333334;stroke-dasharray:5.0,5.0;" x1="411.9792" x2="411.9792" y1="98.2751" y2="1290.6371"/><line style="stroke:#ABB6C2;stroke-width:0.5208333333333334;stroke-dasharray:5.0,5.0;" x1="682.2917" x2="682.2917" y1="98.2751" y2="1290.6371"/><line style="stroke:#ABB6C2;stroke-width:0.5208333333333334;stroke-dasharray:5.0,5.0;" x1="847.9167" x2="847.9167" y1="98.2751" y2="1290.6371"/><line style="stroke:#ABB6C2;stroke-width:0.5208333333333334;stroke-dasharray:5.0,5.0;" x1="1019.7917" x2="1019.7917" y1="98.2751" y2="1290.6371"/><line style="stroke:#ABB6C2;stroke-width:0.5208333333333334;stroke-dasharray:5.0,5.0;" x1="1207.2917" x2="1207.2917" y1="98.2751" y2="1290.6371"/><line style="stroke:#ABB6C2;stroke-width:0.5208333333333334;stroke-dasharray:5.0,5.0;" x1="1368.75" x2="1368.75" y1="98.2751" y2="1290.6371"/><rect fill="url(#g1gevkefw91gwk0)" height="42.0251" rx="4.1667" ry="4.1667" style="stroke:#EC7211;stroke-width:0.5208333333333334;" width="51.0417" x="120.8333" y="55.2083"/><text fill="#FFFFFF" font-family="Verdana" font-size="12.5" lengthAdjust="spacing" textLength="26.0417" x="133.3333" y="81.0709">user</text><rect fill="url(#g1gevkefw91gwk0)" height="42.0251" rx="4.1667" ry="4.1667" style="stroke:#EC7211;stroke-width:0.5208333333333334;" width="51.0417" x="120.8333" y="1289.5955"/><text fill="#FFFFFF" font-family="Verdana" font-size="12.5" lengthAdjust="spacing" textLength="26.0417" x="133.3333" y="1315.4581">user</text><rect fill="url(#g1gevkefw91gwk0)" height="42.0251" rx="4.1667" ry="4.1667" style="stroke:#EC7211;stroke-width:0.5208333333333334;" width="120.8333" x="351.5625" y="55.2083"/><text fill="#FFFFFF" font-family="Verdana" font-size="12.5" lengthAdjust="spacing" textLength="95.8333" x="364.0625" y="81.0709">Web/Mobile App</text><rect fill="url(#g1gevkefw91gwk0)" height="42.0251" rx="4.1667" ry="4.1667" style="stroke:#EC7211;stroke-width:0.5208333333333334;" width="120.8333" x="351.5625" y="1289.5955"/><text fill="#FFFFFF" font-family="Verdana" font-size="12.5" lengthAdjust="spacing" textLength="95.8333" x="364.0625" y="1315.4581">Web/Mobile App</text><rect fill="url(#g1gevkefw91gwk0)" height="59.0502" rx="4.1667" ry="4.1667" style="stroke:#EC7211;stroke-width:0.5208333333333334;" width="71.875" x="646.875" y="38.1832"/><text fill="#FFFFFF" font-family="Verdana" font-size="12.5" lengthAdjust="spacing" textLength="46.875" x="659.375" y="64.0458">Booking</text><text fill="#FFFFFF" font-family="Verdana" font-size="12.5" lengthAdjust="spacing" textLength="39.5833" x="663.0208" y="81.0709">Engine</text><rect fill="url(#g1gevkefw91gwk0)" height="59.0502" rx="4.1667" ry="4.1667" style="stroke:#EC7211;stroke-width:0.5208333333333334;" width="71.875" x="646.875" y="1289.5955"/><text fill="#FFFFFF" font-family="Verdana" font-size="12.5" lengthAdjust="spacing" textLength="46.875" x="659.375" y="1315.4581">Booking</text><text fill="#FFFFFF" font-family="Verdana" font-size="12.5" lengthAdjust="spacing" textLength="39.5833" x="663.0208" y="1332.4832">Engine</text><rect fill="url(#g1gevkefw91gwk0)" height="59.0502" rx="4.1667" ry="4.1667" style="stroke:#EC7211;stroke-width:0.5208333333333334;" width="71.875" x="812.5" y="38.1832"/><text fill="#FFFFFF" font-family="Verdana" font-size="12.5" lengthAdjust="spacing" textLength="46.875" x="825" y="64.0458">Booking</text><text fill="#FFFFFF" font-family="Verdana" font-size="12.5" lengthAdjust="spacing" textLength="44.7917" x="826.0417" y="81.0709">storage</text><rect fill="url(#g1gevkefw91gwk0)" height="59.0502" rx="4.1667" ry="4.1667" style="stroke:#EC7211;stroke-width:0.5208333333333334;" width="71.875" x="812.5" y="1289.5955"/><text fill="#FFFFFF" font-family="Verdana" font-size="12.5" lengthAdjust="spacing" textLength="46.875" x="825" y="1315.4581">Booking</text><text fill="#FFFFFF" font-family="Verdana" font-size="12.5" lengthAdjust="spacing" textLength="44.7917" x="826.0417" y="1332.4832">storage</text><rect fill="url(#g1gevkefw91gwk0)" height="59.0502" rx="4.1667" ry="4.1667" style="stroke:#EC7211;stroke-width:0.5208333333333334;" width="83.3333" x="978.125" y="38.1832"/><text fill="#FFFFFF" font-family="Verdana" font-size="12.5" lengthAdjust="spacing" textLength="42.7083" x="998.4375" y="64.0458">Agency</text><text fill="#FFFFFF" font-family="Verdana" font-size="12.5" lengthAdjust="spacing" textLength="58.3333" x="990.625" y="81.0709">connector</text><rect fill="url(#g1gevkefw91gwk0)" height="59.0502" rx="4.1667" ry="4.1667" style="stroke:#EC7211;stroke-width:0.5208333333333334;" width="83.3333" x="978.125" y="1289.5955"/><text fill="#FFFFFF" font-family="Verdana" font-size="12.5" lengthAdjust="spacing" textLength="42.7083" x="998.4375" y="1315.4581">Agency</text><text fill="#FFFFFF" font-family="Verdana" font-size="12.5" lengthAdjust="spacing" textLength="58.3333" x="990.625" y="1332.4832">connector</text><rect fill="url(#g1gevkefw91gwk0)" height="59.0502" rx="4.1667" ry="4.1667" style="stroke:#EC7211;stroke-width:0.5208333333333334;" width="105.2083" x="1155.2083" y="38.1832"/><text fill="#FFFFFF" font-family="Verdana" font-size="12.5" lengthAdjust="spacing" textLength="80.2083" x="1167.7083" y="64.0458">Agency public</text><text fill="#FFFFFF" font-family="Verdana" font-size="12.5" lengthAdjust="spacing" textLength="50" x="1182.8125" y="81.0709">Web/API</text><rect fill="url(#g1gevkefw91gwk0)" height="59.0502" rx="4.1667" ry="4.1667" style="stroke:#EC7211;stroke-width:0.5208333333333334;" width="105.2083" x="1155.2083" y="1289.5955"/><text fill="#FFFFFF" font-family="Verdana" font-size="12.5" lengthAdjust="spacing" textLength="80.2083" x="1167.7083" y="1315.4581">Agency public</text><text fill="#FFFFFF" font-family="Verdana" font-size="12.5" lengthAdjust="spacing" textLength="50" x="1182.8125" y="1332.4832">Web/API</text><text fill="#4E5D6C" font-family="Verdana" font-size="12.5" lengthAdjust="spacing" textLength="96.875" x="1317.7083" y="89.4043">Agent Help Desk</text><ellipse cx="1369.2708" cy="23.4375" fill="url(#g1gevkefw91gwk0)" rx="16.6667" ry="16.6667" style="stroke:#EC7211;stroke-width:1.5625;"/><path d="M1369.2708,44.2708 C1373.4375,44.2708 1376.5625,44.2708 1380.7292,40.1042 C1389.0625,40.1042 1397.3958,48.4375 1397.3958,56.7708 L1397.3958,60.9375 C1397.3958,65.1042 1393.2292,69.2708 1389.0625,69.2708 L1349.4792,69.2708 C1345.3125,69.2708 1341.1458,65.1042 1341.1458,60.9375 L1341.1458,56.7708 C1341.1458,48.4375 1349.4792,40.1042 1357.8125,40.1042 C1361.9792,44.2708 1365.1042,44.2708 1369.2708,44.2708 " fill="url(#g1gevkefw91gwk0)" style="stroke:#EC7211;stroke-width:1.5625;"/><text fill="#4E5D6C" font-family="Verdana" font-size="12.5" lengthAdjust="spacing" textLength="96.875" x="1317.7083" y="1308.1664">Agent Help Desk</text><ellipse cx="1369.2708" cy="1335.2664" fill="url(#g1gevkefw91gwk0)" rx="16.6667" ry="16.6667" style="stroke:#EC7211;stroke-width:1.5625;"/><path d="M1369.2708,1356.0998 C1373.4375,1356.0998 1376.5625,1356.0998 1380.7292,1351.9331 C1389.0625,1351.9331 1397.3958,1360.2664 1397.3958,1368.5998 L1397.3958,1372.7664 C1397.3958,1376.9331 1393.2292,1381.0998 1389.0625,1381.0998 L1349.4792,1381.0998 C1345.3125,1381.0998 1341.1458,1376.9331 1341.1458,1372.7664 L1341.1458,1368.5998 C1341.1458,1360.2664 1349.4792,1351.9331 1357.8125,1351.9331 C1361.9792,1356.0998 1365.1042,1356.0998 1369.2708,1356.0998 " fill="url(#g1gevkefw91gwk0)" style="stroke:#EC7211;stroke-width:1.5625;"/><path d="M41.6667,118.0668 L41.6667,181.6085 A4.1667,4.1667 0 0 0 45.8333,185.7751 L245.8333,185.7751 A4.1667,4.1667 0 0 0 250,181.6085 L250,124.3168 L239.5833,113.9001 L45.8333,113.9001 A4.1667,4.1667 0 0 0 41.6667,118.0668 " fill="#0073BB" style="stroke:#005C96;stroke-width:1.0416666666666667;"/><path d="M239.5833,113.9001 L239.5833,122.2335 A2.0833,2.0833 0 0 0 241.6667,124.3168 L250,124.3168 L239.5833,113.9001 " fill="#0073BB" style="stroke:#005C96;stroke-width:1.0416666666666667;"/><text fill="#FFFFFF" font-family="Verdana" font-size="12.5" lengthAdjust="spacing" textLength="176.0417" x="53.125" y="137.6794">User suffers unexpected issue</text><text fill="#FFFFFF" font-family="Verdana" font-size="12.5" lengthAdjust="spacing" textLength="173.9583" x="53.125" y="154.7045">and access the app to request</text><text fill="#FFFFFF" font-family="Verdana" font-size="12.5" lengthAdjust="spacing" textLength="123.9583" x="53.125" y="171.7296">help and remediation</text><polygon fill="#EC7211" points="399.4792,220.5423,409.8958,224.7089,399.4792,228.8756,403.6458,224.7089" style="stroke:#EC7211;stroke-width:1.0416666666666667;"/><line style="stroke:#EC7211;stroke-width:3.125;" x1="146.3542" x2="405.7292" y1="224.7089" y2="224.7089"/><text fill="#4E5D6C" font-family="Verdana" font-size="12.5" font-weight="bold" lengthAdjust="spacing" textLength="7.2917" x="158.8542" y="213.7547">1</text><text fill="#4E5D6C" font-family="Verdana" font-size="12.5" lengthAdjust="spacing" textLength="122.9167" x="180.7292" y="213.7547">Trigger Request Help</text><polygon fill="#EC7211" points="670.3125,262.5674,680.7292,266.734,670.3125,270.9007,674.4792,266.734" style="stroke:#EC7211;stroke-width:1.0416666666666667;"/><line style="stroke:#EC7211;stroke-width:3.125;" x1="411.9792" x2="676.5625" y1="266.734" y2="266.734"/><text fill="#4E5D6C" font-family="Verdana" font-size="12.5" font-weight="bold" lengthAdjust="spacing" textLength="7.2917" x="424.4792" y="255.7799">2</text><text fill="#4E5D6C" font-family="Verdana" font-size="12.5" lengthAdjust="spacing" textLength="213.5417" x="446.3542" y="255.7799">Get Agency Help contact information</text><polygon fill="#EC7211" points="835.9375,304.5925,846.3542,308.7592,835.9375,312.9258,840.1042,308.7592" style="stroke:#EC7211;stroke-width:1.0416666666666667;"/><line style="stroke:#EC7211;stroke-width:3.125;" x1="682.8125" x2="842.1875" y1="308.7592" y2="308.7592"/><text fill="#4E5D6C" font-family="Verdana" font-size="12.5" font-weight="bold" lengthAdjust="spacing" textLength="7.2917" x="695.3125" y="297.805">3</text><text fill="#4E5D6C" font-family="Verdana" font-size="12.5" lengthAdjust="spacing" textLength="58.3333" x="717.1875" y="297.805">Read data</text><polygon fill="#EC7211" points="694.2708,346.6176,683.8542,350.7843,694.2708,354.951,690.1042,350.7843" style="stroke:#EC7211;stroke-width:1.0416666666666667;"/><line style="stroke:#EC7211;stroke-width:3.125;stroke-dasharray:2.0,2.0;" x1="688.0208" x2="847.3958" y1="350.7843" y2="350.7843"/><text fill="#4E5D6C" font-family="Verdana" font-size="12.5" font-weight="bold" lengthAdjust="spacing" textLength="7.2917" x="705.7292" y="339.8301">4</text><text fill="#4E5D6C" font-family="Verdana" font-size="12.5" lengthAdjust="spacing" textLength="28.125" x="727.6042" y="339.8301">Data</text><polygon fill="#EC7211" points="423.4375,388.6427,413.0208,392.8094,423.4375,396.9761,419.2708,392.8094" style="stroke:#EC7211;stroke-width:1.0416666666666667;"/><line style="stroke:#EC7211;stroke-width:3.125;stroke-dasharray:2.0,2.0;" x1="417.1875" x2="681.7708" y1="392.8094" y2="392.8094"/><text fill="#4E5D6C" font-family="Verdana" font-size="12.5" font-weight="bold" lengthAdjust="spacing" textLength="7.2917" x="434.8958" y="381.8552">5</text><text fill="#4E5D6C" font-family="Verdana" font-size="12.5" lengthAdjust="spacing" textLength="204.1667" x="456.7708" y="381.8552">Report contact and solution options</text><polygon fill="#EC7211" points="157.8125,430.6679,147.3958,434.8345,157.8125,439.0012,153.6458,434.8345" style="stroke:#EC7211;stroke-width:1.0416666666666667;"/><line style="stroke:#EC7211;stroke-width:3.125;stroke-dasharray:2.0,2.0;" x1="151.5625" x2="410.9375" y1="434.8345" y2="434.8345"/><text fill="#4E5D6C" font-family="Verdana" font-size="12.5" font-weight="bold" lengthAdjust="spacing" textLength="7.2917" x="169.2708" y="423.8803">6</text><text fill="#4E5D6C" font-family="Verdana" font-size="12.5" lengthAdjust="spacing" textLength="202.0833" x="191.1458" y="423.8803">Render options to escalate support</text><rect fill="#4E5D6C" height="3.125" rx="4.1667" ry="4.1667" style="stroke:#4E5D6C;stroke-width:1.0416666666666667;" width="1431.25" x="0" y="470.4304"/><line style="stroke:#4E5D6C;stroke-width:1.0416666666666667;" x1="0" x2="1431.25" y1="470.4304" y2="470.4304"/><line style="stroke:#4E5D6C;stroke-width:1.0416666666666667;" x1="0" x2="1431.25" y1="473.5554" y2="473.5554"/><rect fill="#4E5D6C" height="35.7751" rx="4.1667" ry="4.1667" style="stroke:#4E5D6C;stroke-width:2.0833333333333335;" width="110.4167" x="660.4167" y="453.5845"/><text fill="#ABB6C2" font-family="Verdana" font-size="12.5" font-weight="bold" lengthAdjust="spacing" textLength="82.2917" x="671.875" y="476.3221">Email Option</text><path d="M5.2083,509.1513 L5.2083,572.693 A4.1667,4.1667 0 0 0 9.375,576.8596 L284.375,576.8596 A4.1667,4.1667 0 0 0 288.5417,572.693 L288.5417,515.4013 L278.125,504.9846 L9.375,504.9846 A4.1667,4.1667 0 0 0 5.2083,509.1513 " fill="#0073BB" style="stroke:#005C96;stroke-width:1.0416666666666667;"/><path d="M278.125,504.9846 L278.125,513.318 A2.0833,2.0833 0 0 0 280.2083,515.4013 L288.5417,515.4013 L278.125,504.9846 " fill="#0073BB" style="stroke:#005C96;stroke-width:1.0416666666666667;"/><text fill="#FFFFFF" font-family="Verdana" font-size="12.5" lengthAdjust="spacing" textLength="236.4583" x="16.6667" y="528.7639">User fills a message describing the issue</text><text fill="#FFFFFF" font-family="Verdana" font-size="12.5" lengthAdjust="spacing" textLength="246.875" x="16.6667" y="545.789">and requesting assistance. Booking details</text><text fill="#FFFFFF" font-family="Verdana" font-size="12.5" lengthAdjust="spacing" textLength="251.0417" x="16.6667" y="562.8141">are info are attached to the communication</text><polygon fill="#EC7211" points="399.4792,611.6268,409.8958,615.7935,399.4792,619.9601,403.6458,615.7935" style="stroke:#EC7211;stroke-width:1.0416666666666667;"/><line style="stroke:#EC7211;stroke-width:3.125;" x1="146.3542" x2="405.7292" y1="615.7935" y2="615.7935"/><text fill="#4E5D6C" font-family="Verdana" font-size="12.5" font-weight="bold" lengthAdjust="spacing" textLength="7.2917" x="158.8542" y="604.8393">7</text><text fill="#4E5D6C" font-family="Verdana" font-size="12.5" lengthAdjust="spacing" textLength="104.1667" x="180.7292" y="604.8393">Escalate via email</text><polygon fill="#EC7211" points="1356.7708,653.6519,1367.1875,657.8186,1356.7708,661.9852,1360.9375,657.8186" style="stroke:#EC7211;stroke-width:1.0416666666666667;"/><line style="stroke:#EC7211;stroke-width:3.125;" x1="411.9792" x2="1363.0208" y1="657.8186" y2="657.8186"/><text fill="#4E5D6C" font-family="Verdana" font-size="12.5" font-weight="bold" lengthAdjust="spacing" textLength="7.2917" x="424.4792" y="646.8644">8</text><text fill="#4E5D6C" font-family="Verdana" font-size="12.5" lengthAdjust="spacing" textLength="101.0417" x="446.3542" y="646.8644">Email submission</text><polygon fill="#EC7211" points="157.8125,695.677,147.3958,699.8437,157.8125,704.0104,153.6458,699.8437" style="stroke:#EC7211;stroke-width:1.0416666666666667;"/><line style="stroke:#EC7211;stroke-width:3.125;" x1="151.5625" x2="1368.2292" y1="699.8437" y2="699.8437"/><text fill="#4E5D6C" font-family="Verdana" font-size="12.5" font-weight="bold" lengthAdjust="spacing" textLength="7.2917" x="169.2708" y="688.8895">9</text><text fill="#4E5D6C" font-family="Verdana" font-size="12.5" lengthAdjust="spacing" textLength="170.8333" x="191.1458" y="688.8895">Support response (email/call)</text><rect fill="#4E5D6C" height="3.125" rx="4.1667" ry="4.1667" style="stroke:#4E5D6C;stroke-width:1.0416666666666667;" width="1431.25" x="0" y="735.4396"/><line style="stroke:#4E5D6C;stroke-width:1.0416666666666667;" x1="0" x2="1431.25" y1="735.4396" y2="735.4396"/><line style="stroke:#4E5D6C;stroke-width:1.0416666666666667;" x1="0" x2="1431.25" y1="738.5646" y2="738.5646"/><rect fill="#4E5D6C" height="35.7751" rx="4.1667" ry="4.1667" style="stroke:#4E5D6C;stroke-width:2.0833333333333335;" width="92.7083" x="669.2708" y="718.5937"/><text fill="#ABB6C2" font-family="Verdana" font-size="12.5" font-weight="bold" lengthAdjust="spacing" textLength="64.5833" x="680.7292" y="741.3313">Phone call</text><path d="M20.8333,774.1605 L20.8333,837.7021 A4.1667,4.1667 0 0 0 25,841.8688 L267.7083,841.8688 A4.1667,4.1667 0 0 0 271.875,837.7021 L271.875,780.4105 L261.4583,769.9938 L25,769.9938 A4.1667,4.1667 0 0 0 20.8333,774.1605 " fill="#0073BB" style="stroke:#005C96;stroke-width:1.0416666666666667;"/><path d="M261.4583,769.9938 L261.4583,778.3271 A2.0833,2.0833 0 0 0 263.5417,780.4105 L271.875,780.4105 L261.4583,769.9938 " fill="#0073BB" style="stroke:#005C96;stroke-width:1.0416666666666667;"/><text fill="#FFFFFF" font-family="Verdana" font-size="12.5" lengthAdjust="spacing" textLength="202.0833" x="32.2917" y="793.7731">Option only available in Mobile app</text><text fill="#FFFFFF" font-family="Verdana" font-size="12.5" lengthAdjust="spacing" textLength="218.75" x="32.2917" y="810.7982">User push option to trigger phone call</text><text fill="#FFFFFF" font-family="Verdana" font-size="12.5" lengthAdjust="spacing" textLength="56.25" x="32.2917" y="827.8233">to agency</text><polygon fill="#EC7211" points="1356.7708,876.636,1367.1875,880.8026,1356.7708,884.9693,1360.9375,880.8026" style="stroke:#EC7211;stroke-width:1.0416666666666667;"/><line style="stroke:#EC7211;stroke-width:3.125;" x1="146.3542" x2="1363.0208" y1="880.8026" y2="880.8026"/><text fill="#4E5D6C" font-family="Verdana" font-size="12.5" font-weight="bold" lengthAdjust="spacing" textLength="14.5833" x="158.8542" y="869.8484">10</text><text fill="#4E5D6C" font-family="Verdana" font-size="12.5" lengthAdjust="spacing" textLength="59.375" x="188.0208" y="869.8484">Phone call</text><polygon fill="#EC7211" points="157.8125,918.6611,147.3958,922.8277,157.8125,926.9944,153.6458,922.8277" style="stroke:#EC7211;stroke-width:1.0416666666666667;"/><line style="stroke:#EC7211;stroke-width:3.125;stroke-dasharray:2.0,2.0;" x1="151.5625" x2="1368.2292" y1="922.8277" y2="922.8277"/><text fill="#4E5D6C" font-family="Verdana" font-size="12.5" font-weight="bold" lengthAdjust="spacing" textLength="14.5833" x="169.2708" y="911.8735">11</text><text fill="#4E5D6C" font-family="Verdana" font-size="12.5" lengthAdjust="spacing" textLength="103.125" x="198.4375" y="911.8735">Support response</text><rect fill="#4E5D6C" height="3.125" rx="4.1667" ry="4.1667" style="stroke:#4E5D6C;stroke-width:1.0416666666666667;" width="1431.25" x="0" y="958.4236"/><line style="stroke:#4E5D6C;stroke-width:1.0416666666666667;" x1="0" x2="1431.25" y1="958.4236" y2="958.4236"/><line style="stroke:#4E5D6C;stroke-width:1.0416666666666667;" x1="0" x2="1431.25" y1="961.5486" y2="961.5486"/><rect fill="#4E5D6C" height="35.7751" rx="4.1667" ry="4.1667" style="stroke:#4E5D6C;stroke-width:2.0833333333333335;" width="205.2083" x="613.0208" y="941.5777"/><text fill="#ABB6C2" font-family="Verdana" font-size="12.5" font-weight="bold" lengthAdjust="spacing" textLength="177.0833" x="624.4792" y="964.3153">Escalate via Agency web site</text><path d="M26.0417,997.1445 L26.0417,1060.6862 A4.1667,4.1667 0 0 0 30.2083,1064.8529 L261.4583,1064.8529 A4.1667,4.1667 0 0 0 265.625,1060.6862 L265.625,1003.3945 L255.2083,992.9779 L30.2083,992.9779 A4.1667,4.1667 0 0 0 26.0417,997.1445 " fill="#0073BB" style="stroke:#005C96;stroke-width:1.0416666666666667;"/><path d="M255.2083,992.9779 L255.2083,1001.3112 A2.0833,2.0833 0 0 0 257.2917,1003.3945 L265.625,1003.3945 L255.2083,992.9779 " fill="#0073BB" style="stroke:#005C96;stroke-width:1.0416666666666667;"/><text fill="#FFFFFF" font-family="Verdana" font-size="12.5" lengthAdjust="spacing" textLength="193.75" x="37.5" y="1016.7571">User wants to access the booking</text><text fill="#FFFFFF" font-family="Verdana" font-size="12.5" lengthAdjust="spacing" textLength="182.2917" x="37.5" y="1033.7822">agency web site and trigger the</text><text fill="#FFFFFF" font-family="Verdana" font-size="12.5" lengthAdjust="spacing" textLength="207.2917" x="37.5" y="1050.8074">relevant support escalation process</text><polygon fill="#EC7211" points="399.4792,1099.62,409.8958,1103.7867,399.4792,1107.9533,403.6458,1103.7867" style="stroke:#EC7211;stroke-width:1.0416666666666667;"/><line style="stroke:#EC7211;stroke-width:3.125;" x1="146.3542" x2="405.7292" y1="1103.7867" y2="1103.7867"/><text fill="#4E5D6C" font-family="Verdana" font-size="12.5" font-weight="bold" lengthAdjust="spacing" textLength="14.5833" x="158.8542" y="1092.8325">12</text><text fill="#4E5D6C" font-family="Verdana" font-size="12.5" lengthAdjust="spacing" textLength="201.0417" x="188.0208" y="1092.8325">Request access to Agency web site</text><polygon fill="#EC7211" points="157.8125,1141.6451,147.3958,1145.8118,157.8125,1149.9785,153.6458,1145.8118" style="stroke:#EC7211;stroke-width:1.0416666666666667;"/><line style="stroke:#EC7211;stroke-width:3.125;stroke-dasharray:2.0,2.0;" x1="151.5625" x2="410.9375" y1="1145.8118" y2="1145.8118"/><text fill="#4E5D6C" font-family="Verdana" font-size="12.5" font-weight="bold" lengthAdjust="spacing" textLength="14.5833" x="169.2708" y="1134.8576">13</text><text fill="#4E5D6C" font-family="Verdana" font-size="12.5" lengthAdjust="spacing" textLength="183.3333" x="198.4375" y="1134.8576">Redirect / Open Agency website</text><polygon fill="#EC7211" points="1195.3125,1183.6702,1205.7292,1187.8369,1195.3125,1192.0036,1199.4792,1187.8369" style="stroke:#EC7211;stroke-width:1.0416666666666667;"/><line style="stroke:#EC7211;stroke-width:3.125;" x1="146.3542" x2="1201.5625" y1="1187.8369" y2="1187.8369"/><text fill="#4E5D6C" font-family="Verdana" font-size="12.5" font-weight="bold" lengthAdjust="spacing" textLength="14.5833" x="158.8542" y="1176.8827">14</text><text fill="#4E5D6C" font-family="Verdana" font-size="12.5" lengthAdjust="spacing" textLength="188.5417" x="188.0208" y="1176.8827">Start Support escalation process</text><polygon fill="#EC7211" points="1356.7708,1225.6954,1367.1875,1229.862,1356.7708,1234.0287,1360.9375,1229.862" style="stroke:#EC7211;stroke-width:1.0416666666666667;"/><line style="stroke:#EC7211;stroke-width:3.125;" x1="1207.8125" x2="1363.0208" y1="1229.862" y2="1229.862"/><text fill="#4E5D6C" font-family="Verdana" font-size="12.5" font-weight="bold" lengthAdjust="spacing" textLength="14.5833" x="1220.3125" y="1218.9078">15</text><text fill="#4E5D6C" font-family="Verdana" font-size="12.5" lengthAdjust="spacing" textLength="83.3333" x="1249.4792" y="1218.9078">Notify incident</text><polygon fill="#EC7211" points="157.8125,1267.7205,147.3958,1271.8871,157.8125,1276.0538,153.6458,1271.8871" style="stroke:#EC7211;stroke-width:1.0416666666666667;"/><line style="stroke:#EC7211;stroke-width:3.125;stroke-dasharray:2.0,2.0;" x1="151.5625" x2="1368.2292" y1="1271.8871" y2="1271.8871"/><text fill="#4E5D6C" font-family="Verdana" font-size="12.5" font-weight="bold" lengthAdjust="spacing" textLength="14.5833" x="169.2708" y="1260.933">16</text><text fill="#4E5D6C" font-family="Verdana" font-size="12.5" lengthAdjust="spacing" textLength="194.7917" x="198.4375" y="1260.933">Support / Remediation interaction</text><!--SRC=[VLLDRziu4BthLqnpQNle1hq6o09f4sJtaBPejkZ5W459Ova8HR8a5TV_leyKwSYClRd47BxvUlE6UXEsF3A9dVzWdD03Dur_ajeA9qRw9BgdmPb9zv-DCevsMnbuSI-wO9mFUnK3i3SZDs8AHazZouu-DirRu8Bif1KwqCM3a6gbhL6AtGK9JoCCw_by4gga3woNu68v2Tz85TWjuSLImJyPWnw6bGuE7MQ7TZQkiwro-MA2tCWCrVbGOUvl7rUwCrfpv2KXXzwl3vOA_hWLfLYVVjRtffD2qGFtKjHnVRex6_eVLdQbxqNWdTWdXoqiws4sLE1R4H3_xhSrBkHwUfZMd2qL_4OBjSVH8q4SXIWrYNAn7ehzlEiZRiN0bQEVhUVTZgfyyJjJwazk4t37RTDWQ4pc6SASF924ln_uGNxQRDXvcZIYW4pkINe_SK88tKFb7NjFM1GIrb8mvFZNn3uaH2GsmHps29CAqkY6SOxvchGXT14JfKfIwhh6omVJIkpGZRLpNzOsf_LwfmUf-KYkd4ndy7x1Sd4e71zJZ95r-rfb8baNAZlXGtPgbUnMEZPoy-tVfQEmiZ0GmO6YBkcM_TC15TP9cJriJHFPeGz_HmAkw3ydXm7dxpFPoRU90m3WkFahkkT0kPoK0XK792QfDyQDyqoEVPPHCYDNI2NwfFt6SPYSfhWQhnnBWTyvYkwGAsh06pN5P6Hi_EVdUk4GEuiUkaT7-J8gYNqd5BOIAhGnMjDSNzDTVBleQqBHzVLPvU9rKs2HHiWJzHD8x9niKMiIwx6AisRZfV0UpwZG7Vz5MIhm3KZgPxZZn5pw8GAwss8fK6sCsfbndBJiAg4VZUwkTFKi1N7ifWok6lbLxjLFxOXoOyGAGGVo7cU6q8YtO8_fNOfyYLJgVUBjszPWFl5yXhLCgT5gJ-8Ppg9LiLNA2nWNxy2kdVmsZohrdkLe3qaI53Ups4zGKVVwKb_HLztJFFubUrdLUC78u-FxVtBOOIkJg1OFLjRkFDOgL5H5wGhOX76i-3bkTzPZ4MWamJeJuxuqUZpqigSbkwbhVxKClNHuLkWISs6zG2VmaiNvAO440jwV0sadIdi1dnn0-eZlCV1EzhXwhRLNOhj4cOTd7Oxunc3Neqx_0000]--></g></svg>