<?xml version="1.0" encoding="us-ascii" standalone="no"?><svg xmlns="http://www.w3.org/2000/svg" xmlns:xlink="http://www.w3.org/1999/xlink" contentStyleType="text/css" height="1037.5px" preserveAspectRatio="none" style="width:1472px;height:1037px;background:#FFFFFF;" version="1.1" viewBox="0 0 1472 1037" width="1472.9167px" zoomAndPan="magnify"><defs><linearGradient id="g194nh5qkj1wjj0" x1="50%" x2="50%" y1="0%" y2="100%"><stop offset="0%" stop-color="#F18E3E"/><stop offset="100%" stop-color="#EC7211"/></linearGradient></defs><g><rect fill="none" height="405.3431" rx="4.1667" ry="4.1667" style="stroke:#4E5D6C;stroke-width:1.5625;" width="1344.2708" x="9.375" y="284.0839"/><line style="stroke:#ABB6C2;stroke-width:0.5208333333333334;stroke-dasharray:5.0,5.0;" x1="154.1667" x2="154.1667" y1="98.2751" y2="940.5361"/><line style="stroke:#ABB6C2;stroke-width:0.5208333333333334;stroke-dasharray:5.0,5.0;" x1="376.0417" x2="376.0417" y1="98.2751" y2="940.5361"/><line style="stroke:#ABB6C2;stroke-width:0.5208333333333334;stroke-dasharray:5.0,5.0;" x1="639.0625" x2="639.0625" y1="98.2751" y2="940.5361"/><line style="stroke:#ABB6C2;stroke-width:0.5208333333333334;stroke-dasharray:5.0,5.0;" x1="813.0208" x2="813.0208" y1="98.2751" y2="940.5361"/><line style="stroke:#ABB6C2;stroke-width:0.5208333333333334;stroke-dasharray:5.0,5.0;" x1="990.1042" x2="990.1042" y1="98.2751" y2="940.5361"/><line style="stroke:#ABB6C2;stroke-width:0.5208333333333334;stroke-dasharray:5.0,5.0;" x1="1213.0208" x2="1213.0208" y1="98.2751" y2="940.5361"/><line style="stroke:#ABB6C2;stroke-width:0.5208333333333334;stroke-dasharray:5.0,5.0;" x1="1430.7292" x2="1430.7292" y1="98.2751" y2="940.5361"/><text fill="#4E5D6C" font-family="Verdana" font-size="12.5" lengthAdjust="spacing" textLength="28.125" x="137.5" y="89.4043">User</text><ellipse cx="154.6875" cy="23.4375" fill="url(#g194nh5qkj1wjj0)" rx="16.6667" ry="16.6667" style="stroke:#EC7211;stroke-width:1.5625;"/><path d="M154.6875,44.2708 C158.8542,44.2708 161.9792,44.2708 166.1458,40.1042 C174.4792,40.1042 182.8125,48.4375 182.8125,56.7708 L182.8125,60.9375 C182.8125,65.1042 178.6458,69.2708 174.4792,69.2708 L134.8958,69.2708 C130.7292,69.2708 126.5625,65.1042 126.5625,60.9375 L126.5625,56.7708 C126.5625,48.4375 134.8958,40.1042 143.2292,40.1042 C147.3958,44.2708 150.5208,44.2708 154.6875,44.2708 " fill="url(#g194nh5qkj1wjj0)" style="stroke:#EC7211;stroke-width:1.5625;"/><text fill="#4E5D6C" font-family="Verdana" font-size="12.5" lengthAdjust="spacing" textLength="28.125" x="137.5" y="958.0653">User</text><ellipse cx="154.6875" cy="985.1654" fill="url(#g194nh5qkj1wjj0)" rx="16.6667" ry="16.6667" style="stroke:#EC7211;stroke-width:1.5625;"/><path d="M154.6875,1005.9987 C158.8542,1005.9987 161.9792,1005.9987 166.1458,1001.832 C174.4792,1001.832 182.8125,1010.1654 182.8125,1018.4987 L182.8125,1022.6654 C182.8125,1026.832 178.6458,1030.9987 174.4792,1030.9987 L134.8958,1030.9987 C130.7292,1030.9987 126.5625,1026.832 126.5625,1022.6654 L126.5625,1018.4987 C126.5625,1010.1654 134.8958,1001.832 143.2292,1001.832 C147.3958,1005.9987 150.5208,1005.9987 154.6875,1005.9987 " fill="url(#g194nh5qkj1wjj0)" style="stroke:#EC7211;stroke-width:1.5625;"/><rect fill="url(#g194nh5qkj1wjj0)" height="42.0251" rx="4.1667" ry="4.1667" style="stroke:#EC7211;stroke-width:0.5208333333333334;" width="78.125" x="337.5" y="55.2083"/><text fill="#FFFFFF" font-family="Verdana" font-size="12.5" lengthAdjust="spacing" textLength="53.125" x="350" y="81.0709">App/Web</text><rect fill="url(#g194nh5qkj1wjj0)" height="42.0251" rx="4.1667" ry="4.1667" style="stroke:#EC7211;stroke-width:0.5208333333333334;" width="78.125" x="337.5" y="939.4944"/><text fill="#FFFFFF" font-family="Verdana" font-size="12.5" lengthAdjust="spacing" textLength="53.125" x="350" y="965.357">App/Web</text><rect fill="url(#g194nh5qkj1wjj0)" height="59.0502" rx="4.1667" ry="4.1667" style="stroke:#EC7211;stroke-width:0.5208333333333334;" width="77.0833" x="600.5208" y="38.1832"/><text fill="#FFFFFF" font-family="Verdana" font-size="12.5" lengthAdjust="spacing" textLength="46.875" x="615.625" y="64.0458">Booking</text><text fill="#FFFFFF" font-family="Verdana" font-size="12.5" lengthAdjust="spacing" textLength="52.0833" x="613.0208" y="81.0709">interface</text><rect fill="url(#g194nh5qkj1wjj0)" height="59.0502" rx="4.1667" ry="4.1667" style="stroke:#EC7211;stroke-width:0.5208333333333334;" width="77.0833" x="600.5208" y="939.4944"/><text fill="#FFFFFF" font-family="Verdana" font-size="12.5" lengthAdjust="spacing" textLength="46.875" x="615.625" y="965.357">Booking</text><text fill="#FFFFFF" font-family="Verdana" font-size="12.5" lengthAdjust="spacing" textLength="52.0833" x="613.0208" y="982.3821">interface</text><rect fill="url(#g194nh5qkj1wjj0)" height="59.0502" rx="4.1667" ry="4.1667" style="stroke:#EC7211;stroke-width:0.5208333333333334;" width="83.3333" x="771.3542" y="38.1832"/><text fill="#FFFFFF" font-family="Verdana" font-size="12.5" lengthAdjust="spacing" textLength="42.7083" x="791.6667" y="64.0458">Agency</text><text fill="#FFFFFF" font-family="Verdana" font-size="12.5" lengthAdjust="spacing" textLength="58.3333" x="783.8542" y="81.0709">connector</text><rect fill="url(#g194nh5qkj1wjj0)" height="59.0502" rx="4.1667" ry="4.1667" style="stroke:#EC7211;stroke-width:0.5208333333333334;" width="83.3333" x="771.3542" y="939.4944"/><text fill="#FFFFFF" font-family="Verdana" font-size="12.5" lengthAdjust="spacing" textLength="42.7083" x="791.6667" y="965.357">Agency</text><text fill="#FFFFFF" font-family="Verdana" font-size="12.5" lengthAdjust="spacing" textLength="58.3333" x="783.8542" y="982.3821">connector</text><rect fill="url(#g194nh5qkj1wjj0)" height="59.0502" rx="4.1667" ry="4.1667" style="stroke:#EC7211;stroke-width:0.5208333333333334;" width="83.3333" x="948.4375" y="38.1832"/><text fill="#FFFFFF" font-family="Verdana" font-size="12.5" lengthAdjust="spacing" textLength="26.0417" x="977.0833" y="64.0458">GDS</text><text fill="#FFFFFF" font-family="Verdana" font-size="12.5" lengthAdjust="spacing" textLength="58.3333" x="960.9375" y="81.0709">connector</text><rect fill="url(#g194nh5qkj1wjj0)" height="59.0502" rx="4.1667" ry="4.1667" style="stroke:#EC7211;stroke-width:0.5208333333333334;" width="83.3333" x="948.4375" y="939.4944"/><text fill="#FFFFFF" font-family="Verdana" font-size="12.5" lengthAdjust="spacing" textLength="26.0417" x="977.0833" y="965.357">GDS</text><text fill="#FFFFFF" font-family="Verdana" font-size="12.5" lengthAdjust="spacing" textLength="58.3333" x="960.9375" y="982.3821">connector</text><rect fill="url(#g194nh5qkj1wjj0)" height="59.0502" rx="4.1667" ry="4.1667" style="stroke:#EC7211;stroke-width:0.5208333333333334;" width="176.0417" x="1125.5208" y="38.1832"/><text fill="#FFFFFF" font-family="Verdana" font-size="12.5" lengthAdjust="spacing" textLength="151.0417" x="1138.0208" y="64.0458">Agency/GDS/Third parties</text><text fill="#FFFFFF" font-family="Verdana" font-size="12.5" lengthAdjust="spacing" textLength="76.0417" x="1175.5208" y="81.0709">Standard API</text><rect fill="url(#g194nh5qkj1wjj0)" height="59.0502" rx="4.1667" ry="4.1667" style="stroke:#EC7211;stroke-width:0.5208333333333334;" width="176.0417" x="1125.5208" y="939.4944"/><text fill="#FFFFFF" font-family="Verdana" font-size="12.5" lengthAdjust="spacing" textLength="151.0417" x="1138.0208" y="965.357">Agency/GDS/Third parties</text><text fill="#FFFFFF" font-family="Verdana" font-size="12.5" lengthAdjust="spacing" textLength="76.0417" x="1175.5208" y="982.3821">Standard API</text><rect fill="url(#g194nh5qkj1wjj0)" height="59.0502" rx="4.1667" ry="4.1667" style="stroke:#EC7211;stroke-width:0.5208333333333334;" width="71.875" x="1395.3125" y="38.1832"/><text fill="#FFFFFF" font-family="Verdana" font-size="12.5" lengthAdjust="spacing" textLength="46.875" x="1407.8125" y="64.0458">Booking</text><text fill="#FFFFFF" font-family="Verdana" font-size="12.5" lengthAdjust="spacing" textLength="44.7917" x="1408.8542" y="81.0709">storage</text><rect fill="url(#g194nh5qkj1wjj0)" height="59.0502" rx="4.1667" ry="4.1667" style="stroke:#EC7211;stroke-width:0.5208333333333334;" width="71.875" x="1395.3125" y="939.4944"/><text fill="#FFFFFF" font-family="Verdana" font-size="12.5" lengthAdjust="spacing" textLength="46.875" x="1407.8125" y="965.357">Booking</text><text fill="#FFFFFF" font-family="Verdana" font-size="12.5" lengthAdjust="spacing" textLength="44.7917" x="1408.8542" y="982.3821">storage</text><polygon fill="#EC7211" points="364.0625,138.2169,374.4792,142.3836,364.0625,146.5502,368.2292,142.3836" style="stroke:#EC7211;stroke-width:1.0416666666666667;"/><line style="stroke:#EC7211;stroke-width:3.125;" x1="154.6875" x2="370.3125" y1="142.3836" y2="142.3836"/><text fill="#4E5D6C" font-family="Verdana" font-size="12.5" font-weight="bold" lengthAdjust="spacing" textLength="7.2917" x="167.1875" y="131.4294">1</text><text fill="#4E5D6C" font-family="Verdana" font-size="12.5" lengthAdjust="spacing" textLength="98.9583" x="189.0625" y="131.4294">Add new booking</text><polygon fill="#EC7211" points="626.5625,180.242,636.9792,184.4087,626.5625,188.5754,630.7292,184.4087" style="stroke:#EC7211;stroke-width:1.0416666666666667;"/><line style="stroke:#EC7211;stroke-width:3.125;" x1="376.5625" x2="632.8125" y1="184.4087" y2="184.4087"/><text fill="#4E5D6C" font-family="Verdana" font-size="12.5" font-weight="bold" lengthAdjust="spacing" textLength="7.2917" x="389.0625" y="173.4545">2</text><text fill="#4E5D6C" font-family="Verdana" font-size="12.5" lengthAdjust="spacing" textLength="90.625" x="410.9375" y="173.4545">POST operation</text><polygon fill="#EC7211" points="800.5208,222.2671,810.9375,226.4338,800.5208,230.6005,804.6875,226.4338" style="stroke:#EC7211;stroke-width:1.0416666666666667;"/><line style="stroke:#EC7211;stroke-width:3.125;" x1="639.0625" x2="806.7708" y1="226.4338" y2="226.4338"/><text fill="#4E5D6C" font-family="Verdana" font-size="12.5" font-weight="bold" lengthAdjust="spacing" textLength="7.2917" x="651.5625" y="215.4796">3</text><text fill="#4E5D6C" font-family="Verdana" font-size="12.5" lengthAdjust="spacing" textLength="3.125" x="673.4375" y="215.4796">&#160;</text><polygon fill="#EC7211" points="1201.0417,264.2923,1211.4583,268.4589,1201.0417,272.6256,1205.2083,268.4589" style="stroke:#EC7211;stroke-width:1.0416666666666667;"/><line style="stroke:#EC7211;stroke-width:3.125;" x1="813.0208" x2="1207.2917" y1="268.4589" y2="268.4589"/><text fill="#4E5D6C" font-family="Verdana" font-size="12.5" font-weight="bold" lengthAdjust="spacing" textLength="7.2917" x="825.5208" y="257.5047">4</text><text fill="#4E5D6C" font-family="Verdana" font-size="12.5" lengthAdjust="spacing" textLength="3.125" x="847.3958" y="257.5047">&#160;</text><path d="M13.5417,284.0839 L83.3333,284.0839 L83.3333,303.1924 L72.9167,313.609 L9.375,313.609 L9.375,288.2506 A4.1667,4.1667 0 0 1 13.5417,284.0839 " fill="#EEEEEE" style="stroke:#4E5D6C;stroke-width:1.5625;"/><rect fill="none" height="405.3431" rx="4.1667" ry="4.1667" style="stroke:#4E5D6C;stroke-width:1.5625;" width="1344.2708" x="9.375" y="284.0839"/><text fill="#0073BB" font-family="Verdana" font-size="12.5" font-weight="bold" lengthAdjust="spacing" textLength="16.6667" x="30.2083" y="303.6965">alt</text><text fill="#4E5D6C" font-family="Verdana" font-size="12.5" font-weight="bold" lengthAdjust="spacing" textLength="100" x="104.1667" y="304.7382">[Response NOK]</text><polygon fill="#EC7211" points="824.4792,354.951,814.0625,359.1176,824.4792,363.2843,820.3125,359.1176" style="stroke:#EC7211;stroke-width:1.0416666666666667;"/><line style="stroke:#EC7211;stroke-width:3.125;stroke-dasharray:2.0,2.0;" x1="818.2292" x2="1212.5" y1="359.1176" y2="359.1176"/><text fill="#4E5D6C" font-family="Verdana" font-size="12.5" font-weight="bold" lengthAdjust="spacing" textLength="7.2917" x="835.9375" y="348.1634">5</text><text fill="#4E5D6C" font-family="Verdana" font-size="12.5" lengthAdjust="spacing" textLength="3.125" x="857.8125" y="348.1634">&#160;</text><polygon fill="#EC7211" points="650.5208,396.9761,640.1042,401.1427,650.5208,405.3094,646.3542,401.1427" style="stroke:#EC7211;stroke-width:1.0416666666666667;"/><line style="stroke:#EC7211;stroke-width:3.125;stroke-dasharray:2.0,2.0;" x1="644.2708" x2="811.9792" y1="401.1427" y2="401.1427"/><text fill="#4E5D6C" font-family="Verdana" font-size="12.5" font-weight="bold" lengthAdjust="spacing" textLength="7.2917" x="661.9792" y="390.1885">6</text><text fill="#4E5D6C" font-family="Verdana" font-size="12.5" lengthAdjust="spacing" textLength="71.875" x="683.8542" y="390.1885">Return error</text><polygon fill="#EC7211" points="388.0208,439.0012,377.6042,443.1679,388.0208,447.3345,383.8542,443.1679" style="stroke:#EC7211;stroke-width:1.0416666666666667;"/><line style="stroke:#EC7211;stroke-width:3.125;stroke-dasharray:2.0,2.0;" x1="381.7708" x2="638.0208" y1="443.1679" y2="443.1679"/><text fill="#4E5D6C" font-family="Verdana" font-size="12.5" font-weight="bold" lengthAdjust="spacing" textLength="7.2917" x="399.4792" y="432.2137">7</text><text fill="#4E5D6C" font-family="Verdana" font-size="12.5" lengthAdjust="spacing" textLength="205.2083" x="421.3542" y="432.2137">Report error looking up the booking</text><polygon fill="#EC7211" points="166.1458,481.0263,155.7292,485.193,166.1458,489.3596,161.9792,485.193" style="stroke:#EC7211;stroke-width:1.0416666666666667;"/><line style="stroke:#EC7211;stroke-width:3.125;stroke-dasharray:2.0,2.0;" x1="159.8958" x2="375.5208" y1="485.193" y2="485.193"/><text fill="#4E5D6C" font-family="Verdana" font-size="12.5" font-weight="bold" lengthAdjust="spacing" textLength="7.2917" x="177.6042" y="474.2388">8</text><text fill="#4E5D6C" font-family="Verdana" font-size="12.5" lengthAdjust="spacing" textLength="71.875" x="199.4792" y="474.2388">Report error</text><path d="M19.7917,502.9013 L19.7917,566.443 A4.1667,4.1667 0 0 0 23.9583,570.6096 L284.375,570.6096 A4.1667,4.1667 0 0 0 288.5417,566.443 L288.5417,509.1513 L278.125,498.7346 L23.9583,498.7346 A4.1667,4.1667 0 0 0 19.7917,502.9013 " fill="#0073BB" style="stroke:#005C96;stroke-width:1.0416666666666667;"/><path d="M278.125,498.7346 L278.125,507.068 A2.0833,2.0833 0 0 0 280.2083,509.1513 L288.5417,509.1513 L278.125,498.7346 " fill="#0073BB" style="stroke:#005C96;stroke-width:1.0416666666666667;"/><text fill="#FFFFFF" font-family="Verdana" font-size="12.5" lengthAdjust="spacing" textLength="236.4583" x="31.25" y="522.5139">App shows suggestion on how to recover</text><text fill="#FFFFFF" font-family="Verdana" font-size="12.5" lengthAdjust="spacing" textLength="198.9583" x="31.25" y="539.539">from error if related with non valid</text><text fill="#FFFFFF" font-family="Verdana" font-size="12.5" lengthAdjust="spacing" textLength="72.9167" x="31.25" y="556.5641">booking PNR</text><line style="stroke:#4E5D6C;stroke-width:1.0416666666666667;stroke-dasharray:2.0,2.0;" x1="9.375" x2="1353.6458" y1="576.8933" y2="576.8933"/><text fill="#4E5D6C" font-family="Verdana" font-size="12.5" font-weight="bold" lengthAdjust="spacing" textLength="89.5833" x="19.7917" y="595.4643">[Response OK]</text><polygon fill="#EC7211" points="824.4792,634.9019,814.0625,639.0686,824.4792,643.2352,820.3125,639.0686" style="stroke:#EC7211;stroke-width:1.0416666666666667;"/><line style="stroke:#EC7211;stroke-width:3.125;stroke-dasharray:2.0,2.0;" x1="818.2292" x2="1212.5" y1="639.0686" y2="639.0686"/><text fill="#4E5D6C" font-family="Verdana" font-size="12.5" font-weight="bold" lengthAdjust="spacing" textLength="7.2917" x="835.9375" y="628.1144">9</text><text fill="#4E5D6C" font-family="Verdana" font-size="12.5" lengthAdjust="spacing" textLength="3.125" x="857.8125" y="628.1144">&#160;</text><polygon fill="#EC7211" points="650.5208,676.927,640.1042,681.0937,650.5208,685.2604,646.3542,681.0937" style="stroke:#EC7211;stroke-width:1.0416666666666667;"/><line style="stroke:#EC7211;stroke-width:3.125;stroke-dasharray:2.0,2.0;" x1="644.2708" x2="811.9792" y1="681.0937" y2="681.0937"/><text fill="#4E5D6C" font-family="Verdana" font-size="12.5" font-weight="bold" lengthAdjust="spacing" textLength="14.5833" x="661.9792" y="670.1395">10</text><text fill="#4E5D6C" font-family="Verdana" font-size="12.5" lengthAdjust="spacing" textLength="3.125" x="691.1458" y="670.1395">&#160;</text><polygon fill="#EC7211" points="1418.75,726.2438,1429.1667,730.4105,1418.75,734.5771,1422.9167,730.4105" style="stroke:#EC7211;stroke-width:1.0416666666666667;"/><line style="stroke:#EC7211;stroke-width:3.125;" x1="639.0625" x2="1425" y1="730.4105" y2="730.4105"/><text fill="#4E5D6C" font-family="Verdana" font-size="12.5" font-weight="bold" lengthAdjust="spacing" textLength="14.5833" x="651.5625" y="719.4563">11</text><text fill="#4E5D6C" font-family="Verdana" font-size="12.5" lengthAdjust="spacing" textLength="3.125" x="680.7292" y="719.4563">&#160;</text><polygon fill="#EC7211" points="650.5208,768.2689,640.1042,772.4356,650.5208,776.6023,646.3542,772.4356" style="stroke:#EC7211;stroke-width:1.0416666666666667;"/><line style="stroke:#EC7211;stroke-width:3.125;stroke-dasharray:2.0,2.0;" x1="644.2708" x2="1430.2083" y1="772.4356" y2="772.4356"/><text fill="#4E5D6C" font-family="Verdana" font-size="12.5" font-weight="bold" lengthAdjust="spacing" textLength="14.5833" x="661.9792" y="761.4814">12</text><text fill="#4E5D6C" font-family="Verdana" font-size="12.5" lengthAdjust="spacing" textLength="106.25" x="691.1458" y="761.4814">Confirm operation</text><polygon fill="#EC7211" points="388.0208,810.294,377.6042,814.4607,388.0208,818.6274,383.8542,814.4607" style="stroke:#EC7211;stroke-width:1.0416666666666667;"/><line style="stroke:#EC7211;stroke-width:3.125;stroke-dasharray:2.0,2.0;" x1="381.7708" x2="638.0208" y1="814.4607" y2="814.4607"/><text fill="#4E5D6C" font-family="Verdana" font-size="12.5" font-weight="bold" lengthAdjust="spacing" textLength="14.5833" x="399.4792" y="803.5065">13</text><text fill="#4E5D6C" font-family="Verdana" font-size="12.5" lengthAdjust="spacing" textLength="106.25" x="428.6458" y="803.5065">Confirm operation</text><polygon fill="#EC7211" points="166.1458,852.3192,155.7292,856.4858,166.1458,860.6525,161.9792,856.4858" style="stroke:#EC7211;stroke-width:1.0416666666666667;"/><line style="stroke:#EC7211;stroke-width:3.125;stroke-dasharray:2.0,2.0;" x1="159.8958" x2="375.5208" y1="856.4858" y2="856.4858"/><text fill="#4E5D6C" font-family="Verdana" font-size="12.5" font-weight="bold" lengthAdjust="spacing" textLength="14.5833" x="177.6042" y="845.5316">14</text><text fill="#4E5D6C" font-family="Verdana" font-size="12.5" lengthAdjust="spacing" textLength="157.2917" x="206.7708" y="845.5316">Show trip and booking data</text><path d="M50,874.1942 L50,920.0275 A4.1667,4.1667 0 0 0 54.1667,924.1942 L255.2083,924.1942 A4.1667,4.1667 0 0 0 259.375,920.0275 L259.375,880.4442 L248.9583,870.0275 L54.1667,870.0275 A4.1667,4.1667 0 0 0 50,874.1942 " fill="#0073BB" style="stroke:#005C96;stroke-width:1.0416666666666667;"/><path d="M248.9583,870.0275 L248.9583,878.3608 A2.0833,2.0833 0 0 0 251.0417,880.4442 L259.375,880.4442 L248.9583,870.0275 " fill="#0073BB" style="stroke:#005C96;stroke-width:1.0416666666666667;"/><text fill="#FFFFFF" font-family="Verdana" font-size="12.5" lengthAdjust="spacing" textLength="177.0833" x="61.4583" y="893.8068">Rich information regarding the</text><text fill="#FFFFFF" font-family="Verdana" font-size="12.5" lengthAdjust="spacing" textLength="98.9583" x="61.4583" y="910.8319">booking is shown</text><!--SRC=[hPDDQ-Cm48Rl-XMpkOUmrnuMqYuioq8Rd2wz189YZsrHUqP8Sat_VKUoOsextTCQ7ymxxtpeqVXRgB55qBtVijDKeLB-rP3LJhTmh_FNod57nGCtxA2lJS1FSPq7TZwyDx40UcvHwIumTUq57NnNAXbWyzUZsu3sqCc7ajnWScCr1TZihTszu2L5jRNpu3spzAfEP2YWAtMEoNSPvFEaBafMIFdxYN8cmZZ0K3ofvqcSv_pwULmcL8N_oZrqs4dIxhashe0KHN-YOz1KQ57sXz-fIeZnynZ_udHU6iXuixEDcb8H6Mn_H3Xti2yA8EolBYLYZAs0tC7XwVWCRD7fO9ZKof5ABf4iXMYQ7q3f9a26tZ9vXCUdFmfWRe7jhShYMXU_FNc6eNC4wDoGTsFqAuuCBRimMA4PVD1P6GWdHB5pf2Gv4UKyAKQ90mA_2UMqdP0UMKlmDVSUV5TLw2D4a5Sa20mEyvWncal7xJY4AINMw805z2RKKfpWJJUc6AtZL71upAA2LAJ-2Xl1EN7z_rYLT5Atjs2vSMxW_y1K6jV-UuUk5x4spvaV4pTdBCZlCK4eTD1gZJypUGs6IdPjgYL4A_cbOePSxAUL0EFJ9P6wSlm0]--></g></svg>