<?xml version="1.0" encoding="us-ascii" standalone="no"?><svg xmlns="http://www.w3.org/2000/svg" xmlns:xlink="http://www.w3.org/1999/xlink" contentStyleType="text/css" height="740.625px" preserveAspectRatio="none" style="width:1088px;height:740px;background:#FFFFFF;" version="1.1" viewBox="0 0 1088 740" width="1088.5417px" zoomAndPan="magnify"><defs><linearGradient id="gtxu8e24n3yrb0" x1="50%" x2="50%" y1="0%" y2="100%"><stop offset="0%" stop-color="#F18E3E"/><stop offset="100%" stop-color="#EC7211"/></linearGradient></defs><g><rect fill="none" height="49.2083" id="_title" rx="4.1667" ry="4.1667" style="stroke:#EEEEEE;stroke-width:1.0416666666666667;" width="501.0417" x="313.5417" y="10.4167"/><text fill="#EC7211" font-family="Verdana" font-size="20.8333" font-weight="bold" lengthAdjust="spacing" textLength="480.2083" x="323.9583" y="43.1041">User adds manually a booking into the system</text><rect fill="none" height="238.9675" rx="4.1667" ry="4.1667" style="stroke:#4E5D6C;stroke-width:1.5625;" width="741.6667" x="206.25" y="344.7506"/><line style="stroke:#ABB6C2;stroke-width:0.5208333333333334;stroke-dasharray:5.0,5.0;" x1="34.375" x2="34.375" y1="158.9418" y2="643.4515"/><line style="stroke:#ABB6C2;stroke-width:0.5208333333333334;stroke-dasharray:5.0,5.0;" x1="140.625" x2="140.625" y1="158.9418" y2="643.4515"/><line style="stroke:#ABB6C2;stroke-width:0.5208333333333334;stroke-dasharray:5.0,5.0;" x1="312.5" x2="312.5" y1="158.9418" y2="643.4515"/><line style="stroke:#ABB6C2;stroke-width:0.5208333333333334;stroke-dasharray:5.0,5.0;" x1="543.75" x2="543.75" y1="158.9418" y2="643.4515"/><line style="stroke:#ABB6C2;stroke-width:0.5208333333333334;stroke-dasharray:5.0,5.0;" x1="807.2917" x2="807.2917" y1="158.9418" y2="643.4515"/><line style="stroke:#ABB6C2;stroke-width:0.5208333333333334;stroke-dasharray:5.0,5.0;" x1="1035.4167" x2="1035.4167" y1="158.9418" y2="643.4515"/><text fill="#4E5D6C" font-family="Verdana" font-size="12.5" lengthAdjust="spacing" textLength="28.125" x="17.7083" y="150.0709">User</text><ellipse cx="34.8958" cy="84.1041" fill="url(#gtxu8e24n3yrb0)" rx="16.6667" ry="16.6667" style="stroke:#EC7211;stroke-width:1.5625;"/><path d="M34.8958,104.9375 C39.0625,104.9375 42.1875,104.9375 46.3542,100.7708 C54.6875,100.7708 63.0208,109.1041 63.0208,117.4375 L63.0208,121.6041 C63.0208,125.7708 58.8542,129.9375 54.6875,129.9375 L15.1042,129.9375 C10.9375,129.9375 6.7708,125.7708 6.7708,121.6041 L6.7708,117.4375 C6.7708,109.1041 15.1042,100.7708 23.4375,100.7708 C27.6042,104.9375 30.7292,104.9375 34.8958,104.9375 " fill="url(#gtxu8e24n3yrb0)" style="stroke:#EC7211;stroke-width:1.5625;"/><text fill="#4E5D6C" font-family="Verdana" font-size="12.5" lengthAdjust="spacing" textLength="28.125" x="17.7083" y="660.9808">User</text><ellipse cx="34.8958" cy="688.0808" fill="url(#gtxu8e24n3yrb0)" rx="16.6667" ry="16.6667" style="stroke:#EC7211;stroke-width:1.5625;"/><path d="M34.8958,708.9141 C39.0625,708.9141 42.1875,708.9141 46.3542,704.7475 C54.6875,704.7475 63.0208,713.0808 63.0208,721.4141 L63.0208,725.5808 C63.0208,729.7475 58.8542,733.9141 54.6875,733.9141 L15.1042,733.9141 C10.9375,733.9141 6.7708,729.7475 6.7708,725.5808 L6.7708,721.4141 C6.7708,713.0808 15.1042,704.7475 23.4375,704.7475 C27.6042,708.9141 30.7292,708.9141 34.8958,708.9141 " fill="url(#gtxu8e24n3yrb0)" style="stroke:#EC7211;stroke-width:1.5625;"/><rect fill="url(#gtxu8e24n3yrb0)" height="42.0251" rx="4.1667" ry="4.1667" style="stroke:#EC7211;stroke-width:0.5208333333333334;" width="47.9167" x="116.6667" y="115.875"/><text fill="#FFFFFF" font-family="Verdana" font-size="12.5" lengthAdjust="spacing" textLength="22.9167" x="129.1667" y="141.7376">App</text><rect fill="url(#gtxu8e24n3yrb0)" height="42.0251" rx="4.1667" ry="4.1667" style="stroke:#EC7211;stroke-width:0.5208333333333334;" width="47.9167" x="116.6667" y="642.4099"/><text fill="#FFFFFF" font-family="Verdana" font-size="12.5" lengthAdjust="spacing" textLength="22.9167" x="129.1667" y="668.2724">App</text><rect fill="url(#gtxu8e24n3yrb0)" height="42.0251" rx="4.1667" ry="4.1667" style="stroke:#EC7211;stroke-width:0.5208333333333334;" width="109.375" x="258.3333" y="115.875"/><text fill="#FFFFFF" font-family="Verdana" font-size="12.5" lengthAdjust="spacing" textLength="84.375" x="270.8333" y="141.7376">Booking CRUD</text><rect fill="url(#gtxu8e24n3yrb0)" height="42.0251" rx="4.1667" ry="4.1667" style="stroke:#EC7211;stroke-width:0.5208333333333334;" width="109.375" x="258.3333" y="642.4099"/><text fill="#FFFFFF" font-family="Verdana" font-size="12.5" lengthAdjust="spacing" textLength="84.375" x="270.8333" y="668.2724">Booking CRUD</text><rect fill="url(#gtxu8e24n3yrb0)" height="42.0251" rx="4.1667" ry="4.1667" style="stroke:#EC7211;stroke-width:0.5208333333333334;" width="164.5833" x="461.4583" y="115.875"/><text fill="#FFFFFF" font-family="Verdana" font-size="12.5" lengthAdjust="spacing" textLength="139.5833" x="473.9583" y="141.7376">Agency/GDS integration</text><rect fill="url(#gtxu8e24n3yrb0)" height="42.0251" rx="4.1667" ry="4.1667" style="stroke:#EC7211;stroke-width:0.5208333333333334;" width="164.5833" x="461.4583" y="642.4099"/><text fill="#FFFFFF" font-family="Verdana" font-size="12.5" lengthAdjust="spacing" textLength="139.5833" x="473.9583" y="668.2724">Agency/GDS integration</text><rect fill="url(#gtxu8e24n3yrb0)" height="42.0251" rx="4.1667" ry="4.1667" style="stroke:#EC7211;stroke-width:0.5208333333333334;" width="176.0417" x="719.7917" y="115.875"/><text fill="#FFFFFF" font-family="Verdana" font-size="12.5" lengthAdjust="spacing" textLength="151.0417" x="732.2917" y="141.7376">Agency/GDS/Third parties</text><rect fill="url(#gtxu8e24n3yrb0)" height="42.0251" rx="4.1667" ry="4.1667" style="stroke:#EC7211;stroke-width:0.5208333333333334;" width="176.0417" x="719.7917" y="642.4099"/><text fill="#FFFFFF" font-family="Verdana" font-size="12.5" lengthAdjust="spacing" textLength="151.0417" x="732.2917" y="668.2724">Agency/GDS/Third parties</text><rect fill="url(#gtxu8e24n3yrb0)" height="42.0251" rx="4.1667" ry="4.1667" style="stroke:#EC7211;stroke-width:0.5208333333333334;" width="92.7083" x="989.5833" y="115.875"/><text fill="#FFFFFF" font-family="Verdana" font-size="12.5" lengthAdjust="spacing" textLength="67.7083" x="1002.0833" y="141.7376">Booking DB</text><rect fill="url(#gtxu8e24n3yrb0)" height="42.0251" rx="4.1667" ry="4.1667" style="stroke:#EC7211;stroke-width:0.5208333333333334;" width="92.7083" x="989.5833" y="642.4099"/><text fill="#FFFFFF" font-family="Verdana" font-size="12.5" lengthAdjust="spacing" textLength="67.7083" x="1002.0833" y="668.2724">Booking DB</text><polygon fill="#EC7211" points="128.125,198.8835,138.5417,203.0502,128.125,207.2169,132.2917,203.0502" style="stroke:#EC7211;stroke-width:1.0416666666666667;"/><line style="stroke:#EC7211;stroke-width:3.125;" x1="34.8958" x2="134.375" y1="203.0502" y2="203.0502"/><text fill="#4E5D6C" font-family="Verdana" font-size="12.5" font-weight="bold" lengthAdjust="spacing" textLength="7.2917" x="47.3958" y="192.096">1</text><text fill="#4E5D6C" font-family="Verdana" font-size="12.5" lengthAdjust="spacing" textLength="3.125" x="69.2708" y="192.096">&#160;</text><polygon fill="#EC7211" points="300.5208,240.9087,310.9375,245.0753,300.5208,249.242,304.6875,245.0753" style="stroke:#EC7211;stroke-width:1.0416666666666667;"/><line style="stroke:#EC7211;stroke-width:3.125;" x1="140.625" x2="306.7708" y1="245.0753" y2="245.0753"/><text fill="#4E5D6C" font-family="Verdana" font-size="12.5" font-weight="bold" lengthAdjust="spacing" textLength="7.2917" x="153.125" y="234.1211">2</text><text fill="#4E5D6C" font-family="Verdana" font-size="12.5" lengthAdjust="spacing" textLength="3.125" x="175" y="234.1211">&#160;</text><polygon fill="#EC7211" points="531.25,282.9338,541.6667,287.1005,531.25,291.2671,535.4167,287.1005" style="stroke:#EC7211;stroke-width:1.0416666666666667;"/><line style="stroke:#EC7211;stroke-width:3.125;" x1="313.0208" x2="537.5" y1="287.1005" y2="287.1005"/><text fill="#4E5D6C" font-family="Verdana" font-size="12.5" font-weight="bold" lengthAdjust="spacing" textLength="7.2917" x="325.5208" y="276.1463">3</text><text fill="#4E5D6C" font-family="Verdana" font-size="12.5" lengthAdjust="spacing" textLength="3.125" x="347.3958" y="276.1463">&#160;</text><polygon fill="#EC7211" points="795.3125,324.9589,805.7292,329.1256,795.3125,333.2922,799.4792,329.1256" style="stroke:#EC7211;stroke-width:1.0416666666666667;"/><line style="stroke:#EC7211;stroke-width:3.125;" x1="543.75" x2="801.5625" y1="329.1256" y2="329.1256"/><text fill="#4E5D6C" font-family="Verdana" font-size="12.5" font-weight="bold" lengthAdjust="spacing" textLength="7.2917" x="556.25" y="318.1714">4</text><text fill="#4E5D6C" font-family="Verdana" font-size="12.5" lengthAdjust="spacing" textLength="3.125" x="578.125" y="318.1714">&#160;</text><path d="M210.4167,344.7506 L280.2083,344.7506 L280.2083,363.859 L269.7917,374.2757 L206.25,374.2757 L206.25,348.9172 A4.1667,4.1667 0 0 1 210.4167,344.7506 " fill="#EEEEEE" style="stroke:#4E5D6C;stroke-width:1.5625;"/><rect fill="none" height="238.9675" rx="4.1667" ry="4.1667" style="stroke:#4E5D6C;stroke-width:1.5625;" width="741.6667" x="206.25" y="344.7506"/><text fill="#0073BB" font-family="Verdana" font-size="12.5" font-weight="bold" lengthAdjust="spacing" textLength="16.6667" x="227.0833" y="364.3632">alt</text><text fill="#4E5D6C" font-family="Verdana" font-size="12.5" font-weight="bold" lengthAdjust="spacing" textLength="100" x="301.0417" y="365.4048">[Response NOK]</text><polygon fill="#EC7211" points="555.2083,415.6176,544.7917,419.7843,555.2083,423.9509,551.0417,419.7843" style="stroke:#EC7211;stroke-width:1.0416666666666667;"/><line style="stroke:#EC7211;stroke-width:3.125;stroke-dasharray:2.0,2.0;" x1="548.9583" x2="806.7708" y1="419.7843" y2="419.7843"/><text fill="#4E5D6C" font-family="Verdana" font-size="12.5" font-weight="bold" lengthAdjust="spacing" textLength="7.2917" x="566.6667" y="408.8301">5</text><text fill="#4E5D6C" font-family="Verdana" font-size="12.5" lengthAdjust="spacing" textLength="3.125" x="588.5417" y="408.8301">&#160;</text><polygon fill="#EC7211" points="324.4792,457.6427,314.0625,461.8094,324.4792,465.976,320.3125,461.8094" style="stroke:#EC7211;stroke-width:1.0416666666666667;"/><line style="stroke:#EC7211;stroke-width:3.125;stroke-dasharray:2.0,2.0;" x1="318.2292" x2="542.7083" y1="461.8094" y2="461.8094"/><text fill="#4E5D6C" font-family="Verdana" font-size="12.5" font-weight="bold" lengthAdjust="spacing" textLength="7.2917" x="335.9375" y="450.8552">6</text><text fill="#4E5D6C" font-family="Verdana" font-size="12.5" lengthAdjust="spacing" textLength="3.125" x="357.8125" y="450.8552">&#160;</text><line style="stroke:#4E5D6C;stroke-width:1.0416666666666667;stroke-dasharray:2.0,2.0;" x1="206.25" x2="947.9167" y1="471.1844" y2="471.1844"/><text fill="#4E5D6C" font-family="Verdana" font-size="12.5" font-weight="bold" lengthAdjust="spacing" textLength="89.5833" x="216.6667" y="489.7553">[Response OK]</text><polygon fill="#EC7211" points="555.2083,529.193,544.7917,533.3596,555.2083,537.5263,551.0417,533.3596" style="stroke:#EC7211;stroke-width:1.0416666666666667;"/><line style="stroke:#EC7211;stroke-width:3.125;stroke-dasharray:2.0,2.0;" x1="548.9583" x2="806.7708" y1="533.3596" y2="533.3596"/><text fill="#4E5D6C" font-family="Verdana" font-size="12.5" font-weight="bold" lengthAdjust="spacing" textLength="7.2917" x="566.6667" y="522.4054">7</text><text fill="#4E5D6C" font-family="Verdana" font-size="12.5" lengthAdjust="spacing" textLength="3.125" x="588.5417" y="522.4054">&#160;</text><polygon fill="#EC7211" points="324.4792,571.2181,314.0625,575.3847,324.4792,579.5514,320.3125,575.3847" style="stroke:#EC7211;stroke-width:1.0416666666666667;"/><line style="stroke:#EC7211;stroke-width:3.125;stroke-dasharray:2.0,2.0;" x1="318.2292" x2="542.7083" y1="575.3847" y2="575.3847"/><text fill="#4E5D6C" font-family="Verdana" font-size="12.5" font-weight="bold" lengthAdjust="spacing" textLength="7.2917" x="335.9375" y="564.4305">8</text><text fill="#4E5D6C" font-family="Verdana" font-size="12.5" lengthAdjust="spacing" textLength="3.125" x="357.8125" y="564.4305">&#160;</text><polygon fill="#EC7211" points="1023.4375,620.5349,1033.8542,624.7015,1023.4375,628.8682,1027.6042,624.7015" style="stroke:#EC7211;stroke-width:1.0416666666666667;"/><line style="stroke:#EC7211;stroke-width:3.125;" x1="313.0208" x2="1029.6875" y1="624.7015" y2="624.7015"/><text fill="#4E5D6C" font-family="Verdana" font-size="12.5" font-weight="bold" lengthAdjust="spacing" textLength="7.2917" x="325.5208" y="613.7473">9</text><text fill="#4E5D6C" font-family="Verdana" font-size="12.5" lengthAdjust="spacing" textLength="3.125" x="347.3958" y="613.7473">&#160;</text><!--SRC=[hL11QiCm4Bph5LlVJUW72dKCFHGQI9kpMLkBBI9BGbeJ_FjAggdjjBtr81Zjp8vcn8ermIMG1vGom8XcGgrdG6YjlIhJWp9iWGU2C0UcKJn4F1BWBPJMe-b9XAXpw7642hjhx-ravD5gw-4sADxosB7rWMUTzYdOaGHERCqqjZ71en1P04KAL006c28GSPTLfnmQXkBPkSoWStkYMl8UpvSwAvO2JUSdUUVHa-dcmqlzdjfHxv6LDL-scMhY-A-LmyUWl8JCKiXBd2RDClazLLtjCibMYDGDogVS99u4Tv6tbwnRewqm4VldKJESAJXh0i7RwLK0x1LGxiqYl_MxZq4w-dmR_eEVaU97j_LVFW40]--></g></svg>