<?xml version="1.0" encoding="us-ascii" standalone="no"?><svg xmlns="http://www.w3.org/2000/svg" xmlns:xlink="http://www.w3.org/1999/xlink" contentStyleType="text/css" height="468.75px" preserveAspectRatio="none" style="width:636px;height:468px;background:#FFFFFF;" version="1.1" viewBox="0 0 636 468" width="636.4583px" zoomAndPan="magnify"><defs><linearGradient id="g18lrahxhl0w4b0" x1="50%" x2="50%" y1="0%" y2="100%"><stop offset="0%" stop-color="#F18E3E"/><stop offset="100%" stop-color="#EC7211"/></linearGradient></defs><g><line style="stroke:#ABB6C2;stroke-width:0.5208333333333334;stroke-dasharray:5.0,5.0;" x1="34.375" x2="34.375" y1="98.2751" y2="371.2592"/><line style="stroke:#ABB6C2;stroke-width:0.5208333333333334;stroke-dasharray:5.0,5.0;" x1="216.6667" x2="216.6667" y1="98.2751" y2="371.2592"/><line style="stroke:#ABB6C2;stroke-width:0.5208333333333334;stroke-dasharray:5.0,5.0;" x1="404.6875" x2="404.6875" y1="98.2751" y2="371.2592"/><line style="stroke:#ABB6C2;stroke-width:0.5208333333333334;stroke-dasharray:5.0,5.0;" x1="592.1875" x2="592.1875" y1="98.2751" y2="371.2592"/><text fill="#4E5D6C" font-family="Verdana" font-size="12.5" lengthAdjust="spacing" textLength="28.125" x="17.7083" y="89.4043">User</text><ellipse cx="34.8958" cy="23.4375" fill="url(#g18lrahxhl0w4b0)" rx="16.6667" ry="16.6667" style="stroke:#EC7211;stroke-width:1.5625;"/><path d="M34.8958,44.2708 C39.0625,44.2708 42.1875,44.2708 46.3542,40.1042 C54.6875,40.1042 63.0208,48.4375 63.0208,56.7708 L63.0208,60.9375 C63.0208,65.1042 58.8542,69.2708 54.6875,69.2708 L15.1042,69.2708 C10.9375,69.2708 6.7708,65.1042 6.7708,60.9375 L6.7708,56.7708 C6.7708,48.4375 15.1042,40.1042 23.4375,40.1042 C27.6042,44.2708 30.7292,44.2708 34.8958,44.2708 " fill="url(#g18lrahxhl0w4b0)" style="stroke:#EC7211;stroke-width:1.5625;"/><text fill="#4E5D6C" font-family="Verdana" font-size="12.5" lengthAdjust="spacing" textLength="28.125" x="17.7083" y="388.7884">User</text><ellipse cx="34.8958" cy="415.8885" fill="url(#g18lrahxhl0w4b0)" rx="16.6667" ry="16.6667" style="stroke:#EC7211;stroke-width:1.5625;"/><path d="M34.8958,436.7218 C39.0625,436.7218 42.1875,436.7218 46.3542,432.5551 C54.6875,432.5551 63.0208,440.8885 63.0208,449.2218 L63.0208,453.3885 C63.0208,457.5551 58.8542,461.7218 54.6875,461.7218 L15.1042,461.7218 C10.9375,461.7218 6.7708,457.5551 6.7708,453.3885 L6.7708,449.2218 C6.7708,440.8885 15.1042,432.5551 23.4375,432.5551 C27.6042,436.7218 30.7292,436.7218 34.8958,436.7218 " fill="url(#g18lrahxhl0w4b0)" style="stroke:#EC7211;stroke-width:1.5625;"/><rect fill="url(#g18lrahxhl0w4b0)" height="42.0251" rx="4.1667" ry="4.1667" style="stroke:#EC7211;stroke-width:0.5208333333333334;" width="78.125" x="178.125" y="55.2083"/><text fill="#FFFFFF" font-family="Verdana" font-size="12.5" lengthAdjust="spacing" textLength="53.125" x="190.625" y="81.0709">App/Web</text><rect fill="url(#g18lrahxhl0w4b0)" height="42.0251" rx="4.1667" ry="4.1667" style="stroke:#EC7211;stroke-width:0.5208333333333334;" width="78.125" x="178.125" y="370.2175"/><text fill="#FFFFFF" font-family="Verdana" font-size="12.5" lengthAdjust="spacing" textLength="53.125" x="190.625" y="396.0801">App/Web</text><rect fill="url(#g18lrahxhl0w4b0)" height="59.0502" rx="4.1667" ry="4.1667" style="stroke:#EC7211;stroke-width:0.5208333333333334;" width="77.0833" x="366.1458" y="38.1832"/><text fill="#FFFFFF" font-family="Verdana" font-size="12.5" lengthAdjust="spacing" textLength="52.0833" x="378.6458" y="64.0458">Analytics</text><text fill="#FFFFFF" font-family="Verdana" font-size="12.5" lengthAdjust="spacing" textLength="50" x="379.6875" y="81.0709">Exporter</text><rect fill="url(#g18lrahxhl0w4b0)" height="59.0502" rx="4.1667" ry="4.1667" style="stroke:#EC7211;stroke-width:0.5208333333333334;" width="77.0833" x="366.1458" y="370.2175"/><text fill="#FFFFFF" font-family="Verdana" font-size="12.5" lengthAdjust="spacing" textLength="52.0833" x="378.6458" y="396.0801">Analytics</text><text fill="#FFFFFF" font-family="Verdana" font-size="12.5" lengthAdjust="spacing" textLength="50" x="379.6875" y="413.1052">Exporter</text><rect fill="url(#g18lrahxhl0w4b0)" height="59.0502" rx="4.1667" ry="4.1667" style="stroke:#EC7211;stroke-width:0.5208333333333334;" width="77.0833" x="553.6458" y="38.1832"/><text fill="#FFFFFF" font-family="Verdana" font-size="12.5" lengthAdjust="spacing" textLength="52.0833" x="566.1458" y="64.0458">Analytics</text><text fill="#FFFFFF" font-family="Verdana" font-size="12.5" lengthAdjust="spacing" textLength="45.8333" x="569.2708" y="81.0709">Storage</text><rect fill="url(#g18lrahxhl0w4b0)" height="59.0502" rx="4.1667" ry="4.1667" style="stroke:#EC7211;stroke-width:0.5208333333333334;" width="77.0833" x="553.6458" y="370.2175"/><text fill="#FFFFFF" font-family="Verdana" font-size="12.5" lengthAdjust="spacing" textLength="52.0833" x="566.1458" y="396.0801">Analytics</text><text fill="#FFFFFF" font-family="Verdana" font-size="12.5" lengthAdjust="spacing" textLength="45.8333" x="569.2708" y="413.1052">Storage</text><polygon fill="#EC7211" points="204.6875,138.2169,215.1042,142.3836,204.6875,146.5502,208.8542,142.3836" style="stroke:#EC7211;stroke-width:1.0416666666666667;"/><line style="stroke:#EC7211;stroke-width:3.125;" x1="34.8958" x2="210.9375" y1="142.3836" y2="142.3836"/><text fill="#4E5D6C" font-family="Verdana" font-size="12.5" font-weight="bold" lengthAdjust="spacing" textLength="7.2917" x="47.3958" y="131.4294">1</text><text fill="#4E5D6C" font-family="Verdana" font-size="12.5" lengthAdjust="spacing" textLength="125" x="69.2708" y="131.4294">User access report(s)</text><polygon fill="#EC7211" points="392.1875,180.242,402.6042,184.4087,392.1875,188.5754,396.3542,184.4087" style="stroke:#EC7211;stroke-width:1.0416666666666667;"/><line style="stroke:#EC7211;stroke-width:3.125;" x1="217.1875" x2="398.4375" y1="184.4087" y2="184.4087"/><text fill="#4E5D6C" font-family="Verdana" font-size="12.5" font-weight="bold" lengthAdjust="spacing" textLength="7.2917" x="229.6875" y="173.4545">2</text><text fill="#4E5D6C" font-family="Verdana" font-size="12.5" lengthAdjust="spacing" textLength="130.2083" x="251.5625" y="173.4545">Request user report(s)</text><polygon fill="#EC7211" points="579.6875,222.2671,590.1042,226.4338,579.6875,230.6005,583.8542,226.4338" style="stroke:#EC7211;stroke-width:1.0416666666666667;"/><line style="stroke:#EC7211;stroke-width:3.125;" x1="404.6875" x2="585.9375" y1="226.4338" y2="226.4338"/><text fill="#4E5D6C" font-family="Verdana" font-size="12.5" font-weight="bold" lengthAdjust="spacing" textLength="7.2917" x="417.1875" y="215.4796">3</text><text fill="#4E5D6C" font-family="Verdana" font-size="12.5" lengthAdjust="spacing" textLength="130.2083" x="439.0625" y="215.4796">Recover user report(s)</text><polygon fill="#EC7211" points="416.1458,264.2923,405.7292,268.4589,416.1458,272.6256,411.9792,268.4589" style="stroke:#EC7211;stroke-width:1.0416666666666667;"/><line style="stroke:#EC7211;stroke-width:3.125;stroke-dasharray:2.0,2.0;" x1="409.8958" x2="591.1458" y1="268.4589" y2="268.4589"/><text fill="#4E5D6C" font-family="Verdana" font-size="12.5" font-weight="bold" lengthAdjust="spacing" textLength="7.2917" x="427.6042" y="257.5047">4</text><text fill="#4E5D6C" font-family="Verdana" font-size="12.5" lengthAdjust="spacing" textLength="53.125" x="449.4792" y="257.5047">Report(s)</text><polygon fill="#EC7211" points="228.6458,306.3174,218.2292,310.484,228.6458,314.6507,224.4792,310.484" style="stroke:#EC7211;stroke-width:1.0416666666666667;"/><line style="stroke:#EC7211;stroke-width:3.125;stroke-dasharray:2.0,2.0;" x1="222.3958" x2="403.6458" y1="310.484" y2="310.484"/><text fill="#4E5D6C" font-family="Verdana" font-size="12.5" font-weight="bold" lengthAdjust="spacing" textLength="7.2917" x="240.1042" y="299.5299">5</text><text fill="#4E5D6C" font-family="Verdana" font-size="12.5" lengthAdjust="spacing" textLength="67.7083" x="261.9792" y="299.5299">Report data</text><polygon fill="#EC7211" points="46.3542,348.3425,35.9375,352.5092,46.3542,356.6758,42.1875,352.5092" style="stroke:#EC7211;stroke-width:1.0416666666666667;"/><line style="stroke:#EC7211;stroke-width:3.125;stroke-dasharray:2.0,2.0;" x1="40.1042" x2="216.1458" y1="352.5092" y2="352.5092"/><text fill="#4E5D6C" font-family="Verdana" font-size="12.5" font-weight="bold" lengthAdjust="spacing" textLength="7.2917" x="57.8125" y="341.555">6</text><text fill="#4E5D6C" font-family="Verdana" font-size="12.5" lengthAdjust="spacing" textLength="119.7917" x="79.6875" y="341.555">Render yearly report</text><!--SRC=[VP8_Rzim4CLtVWh6IviXABfcAD3yGReaGusWYm7XB5ra8jIHuL5rzErxfAZ6Pk9iudk_ztWaTHPtEA26FL-u0DIZKlnio4E0GLz1-zm7Dr9txQmBUhyp4GzyQACB72UR2f3TW0h6w6WSjXZqTwM-21TDQpnGrAjxC7P3tbcBOQM1zI12Cwy_HAtXY7G8Byg7-9En4SCXlYWLVkMSdA7VK0nomXBOpc9Jj2houA9vCWMbigYOdprIEsseTKIOhaRWB3N_bIfnTxC-nbdt7P_4rpjOZiVvi_PTQy3gU-mCrBsSlPFLlz3w3Tr1n3rCER0JfUbdeO9l84h_xQjt8PPvEf4QB4g5_y5jPlQuLIh_Cthro2KuoeSwlaRlloqHyBuo2UmaIwxsXqL_6-9KRYq3oBjKCPvLfT90-k97slfIfp7bDs-HMGTCnL_vN8cLYNTxNkhV-38YntoimyGxzBYWx9xohVihRfKF6CT0udvMk0mzK_b9vb75I7t9eKx82I7OgTIhVm00]--></g></svg>