<?xml version="1.0" encoding="us-ascii" standalone="no"?><svg xmlns="http://www.w3.org/2000/svg" xmlns:xlink="http://www.w3.org/1999/xlink" contentStyleType="text/css" height="665.625px" preserveAspectRatio="none" style="width:933px;height:665px;background:#FFFFFF;" version="1.1" viewBox="0 0 933 665" width="933.3333px" zoomAndPan="magnify"><defs><linearGradient id="g1ayyux22bz0nk0" x1="50%" x2="50%" y1="0%" y2="100%"><stop offset="0%" stop-color="#F18E3E"/><stop offset="100%" stop-color="#EC7211"/></linearGradient></defs><g><line style="stroke:#ABB6C2;stroke-width:0.5208333333333334;stroke-dasharray:5.0,5.0;" x1="101.0417" x2="101.0417" y1="98.2751" y2="568.2015"/><line style="stroke:#ABB6C2;stroke-width:0.5208333333333334;stroke-dasharray:5.0,5.0;" x1="310.4167" x2="310.4167" y1="98.2751" y2="568.2015"/><line style="stroke:#ABB6C2;stroke-width:0.5208333333333334;stroke-dasharray:5.0,5.0;" x1="477.0833" x2="477.0833" y1="98.2751" y2="568.2015"/><line style="stroke:#ABB6C2;stroke-width:0.5208333333333334;stroke-dasharray:5.0,5.0;" x1="682.8125" x2="682.8125" y1="98.2751" y2="568.2015"/><line style="stroke:#ABB6C2;stroke-width:0.5208333333333334;stroke-dasharray:5.0,5.0;" x1="806.7708" x2="806.7708" y1="98.2751" y2="568.2015"/><rect fill="url(#g1ayyux22bz0nk0)" height="59.0502" rx="4.1667" ry="4.1667" style="stroke:#EC7211;stroke-width:0.5208333333333334;" width="108.3333" x="46.875" y="38.1832"/><text fill="#FFFFFF" font-family="Verdana" font-size="12.5" lengthAdjust="spacing" textLength="83.3333" x="59.375" y="64.0458">Data Analytics</text><text fill="#FFFFFF" font-family="Verdana" font-size="12.5" lengthAdjust="spacing" textLength="58.3333" x="71.875" y="81.0709">generator</text><rect fill="url(#g1ayyux22bz0nk0)" height="59.0502" rx="4.1667" ry="4.1667" style="stroke:#EC7211;stroke-width:0.5208333333333334;" width="108.3333" x="46.875" y="567.1599"/><text fill="#FFFFFF" font-family="Verdana" font-size="12.5" lengthAdjust="spacing" textLength="83.3333" x="59.375" y="593.0225">Data Analytics</text><text fill="#FFFFFF" font-family="Verdana" font-size="12.5" lengthAdjust="spacing" textLength="58.3333" x="71.875" y="610.0476">generator</text><rect fill="url(#g1ayyux22bz0nk0)" height="59.0502" rx="4.1667" ry="4.1667" style="stroke:#EC7211;stroke-width:0.5208333333333334;" width="77.0833" x="271.875" y="38.1832"/><text fill="#FFFFFF" font-family="Verdana" font-size="12.5" lengthAdjust="spacing" textLength="52.0833" x="284.375" y="64.0458">Analytics</text><text fill="#FFFFFF" font-family="Verdana" font-size="12.5" lengthAdjust="spacing" textLength="45.8333" x="287.5" y="81.0709">Storage</text><rect fill="url(#g1ayyux22bz0nk0)" height="59.0502" rx="4.1667" ry="4.1667" style="stroke:#EC7211;stroke-width:0.5208333333333334;" width="77.0833" x="271.875" y="567.1599"/><text fill="#FFFFFF" font-family="Verdana" font-size="12.5" lengthAdjust="spacing" textLength="52.0833" x="284.375" y="593.0225">Analytics</text><text fill="#FFFFFF" font-family="Verdana" font-size="12.5" lengthAdjust="spacing" textLength="45.8333" x="287.5" y="610.0476">Storage</text><rect fill="url(#g1ayyux22bz0nk0)" height="42.0251" rx="4.1667" ry="4.1667" style="stroke:#EC7211;stroke-width:0.5208333333333334;" width="68.75" x="442.7083" y="55.2083"/><text fill="#FFFFFF" font-family="Verdana" font-size="12.5" lengthAdjust="spacing" textLength="43.75" x="455.2083" y="81.0709">Notifier</text><rect fill="url(#g1ayyux22bz0nk0)" height="42.0251" rx="4.1667" ry="4.1667" style="stroke:#EC7211;stroke-width:0.5208333333333334;" width="68.75" x="442.7083" y="567.1599"/><text fill="#FFFFFF" font-family="Verdana" font-size="12.5" lengthAdjust="spacing" textLength="43.75" x="455.2083" y="593.0225">Notifier</text><rect fill="url(#g1ayyux22bz0nk0)" height="42.0251" rx="4.1667" ry="4.1667" style="stroke:#EC7211;stroke-width:0.5208333333333334;" width="78.125" x="644.2708" y="55.2083"/><text fill="#FFFFFF" font-family="Verdana" font-size="12.5" lengthAdjust="spacing" textLength="53.125" x="656.7708" y="81.0709">App/Web</text><rect fill="url(#g1ayyux22bz0nk0)" height="42.0251" rx="4.1667" ry="4.1667" style="stroke:#EC7211;stroke-width:0.5208333333333334;" width="78.125" x="644.2708" y="567.1599"/><text fill="#FFFFFF" font-family="Verdana" font-size="12.5" lengthAdjust="spacing" textLength="53.125" x="656.7708" y="593.0225">App/Web</text><text fill="#4E5D6C" font-family="Verdana" font-size="12.5" lengthAdjust="spacing" textLength="28.125" x="790.1042" y="89.4043">User</text><ellipse cx="807.2917" cy="23.4375" fill="url(#g1ayyux22bz0nk0)" rx="16.6667" ry="16.6667" style="stroke:#EC7211;stroke-width:1.5625;"/><path d="M807.2917,44.2708 C811.4583,44.2708 814.5833,44.2708 818.75,40.1042 C827.0833,40.1042 835.4167,48.4375 835.4167,56.7708 L835.4167,60.9375 C835.4167,65.1042 831.25,69.2708 827.0833,69.2708 L787.5,69.2708 C783.3333,69.2708 779.1667,65.1042 779.1667,60.9375 L779.1667,56.7708 C779.1667,48.4375 787.5,40.1042 795.8333,40.1042 C800,44.2708 803.125,44.2708 807.2917,44.2708 " fill="url(#g1ayyux22bz0nk0)" style="stroke:#EC7211;stroke-width:1.5625;"/><text fill="#4E5D6C" font-family="Verdana" font-size="12.5" lengthAdjust="spacing" textLength="28.125" x="790.1042" y="585.7308">User</text><ellipse cx="807.2917" cy="612.8308" fill="url(#g1ayyux22bz0nk0)" rx="16.6667" ry="16.6667" style="stroke:#EC7211;stroke-width:1.5625;"/><path d="M807.2917,633.6642 C811.4583,633.6642 814.5833,633.6642 818.75,629.4975 C827.0833,629.4975 835.4167,637.8308 835.4167,646.1642 L835.4167,650.3308 C835.4167,654.4975 831.25,658.6642 827.0833,658.6642 L787.5,658.6642 C783.3333,658.6642 779.1667,654.4975 779.1667,650.3308 L779.1667,646.1642 C779.1667,637.8308 787.5,629.4975 795.8333,629.4975 C800,633.6642 803.125,633.6642 807.2917,633.6642 " fill="url(#g1ayyux22bz0nk0)" style="stroke:#EC7211;stroke-width:1.5625;"/><polygon fill="#EC7211" points="297.9167,138.2169,308.3333,142.3836,297.9167,146.5502,302.0833,142.3836" style="stroke:#EC7211;stroke-width:1.0416666666666667;"/><line style="stroke:#EC7211;stroke-width:3.125;" x1="101.0417" x2="304.1667" y1="142.3836" y2="142.3836"/><text fill="#4E5D6C" font-family="Verdana" font-size="12.5" font-weight="bold" lengthAdjust="spacing" textLength="7.2917" x="113.5417" y="131.4294">1</text><text fill="#4E5D6C" font-family="Verdana" font-size="12.5" lengthAdjust="spacing" textLength="130.2083" x="135.4167" y="131.4294">Request analytics data</text><polygon fill="#EC7211" points="112.5,180.242,102.0833,184.4087,112.5,188.5754,108.3333,184.4087" style="stroke:#EC7211;stroke-width:1.0416666666666667;"/><line style="stroke:#EC7211;stroke-width:3.125;stroke-dasharray:2.0,2.0;" x1="106.25" x2="309.375" y1="184.4087" y2="184.4087"/><text fill="#4E5D6C" font-family="Verdana" font-size="12.5" font-weight="bold" lengthAdjust="spacing" textLength="7.2917" x="123.9583" y="173.4545">2</text><text fill="#4E5D6C" font-family="Verdana" font-size="12.5" lengthAdjust="spacing" textLength="81.25" x="145.8333" y="173.4545">Analytics data</text><line style="stroke:#EC7211;stroke-width:3.125;" x1="101.0417" x2="144.7917" y1="226.4338" y2="226.4338"/><line style="stroke:#EC7211;stroke-width:3.125;" x1="144.7917" x2="144.7917" y1="226.4338" y2="239.9755"/><line style="stroke:#EC7211;stroke-width:3.125;" x1="102.0833" x2="144.7917" y1="239.9755" y2="239.9755"/><polygon fill="#EC7211" points="112.5,235.8088,102.0833,239.9755,112.5,244.1421,108.3333,239.9755" style="stroke:#EC7211;stroke-width:1.0416666666666667;"/><text fill="#4E5D6C" font-family="Verdana" font-size="12.5" font-weight="bold" lengthAdjust="spacing" textLength="7.2917" x="113.5417" y="215.4796">3</text><text fill="#4E5D6C" font-family="Verdana" font-size="12.5" lengthAdjust="spacing" textLength="162.5" x="135.4167" y="215.4796">Generate user yearly report</text><polygon fill="#EC7211" points="297.9167,277.8339,308.3333,282.0006,297.9167,286.1673,302.0833,282.0006" style="stroke:#EC7211;stroke-width:1.0416666666666667;"/><line style="stroke:#EC7211;stroke-width:3.125;" x1="101.0417" x2="304.1667" y1="282.0006" y2="282.0006"/><text fill="#4E5D6C" font-family="Verdana" font-size="12.5" font-weight="bold" lengthAdjust="spacing" textLength="7.2917" x="113.5417" y="271.0464">4</text><text fill="#4E5D6C" font-family="Verdana" font-size="12.5" lengthAdjust="spacing" textLength="109.375" x="135.4167" y="271.0464">Store yearly report</text><polygon fill="#EC7211" points="464.5833,319.859,475,324.0257,464.5833,328.1924,468.75,324.0257" style="stroke:#EC7211;stroke-width:1.0416666666666667;"/><line style="stroke:#EC7211;stroke-width:3.125;" x1="101.0417" x2="470.8333" y1="324.0257" y2="324.0257"/><text fill="#4E5D6C" font-family="Verdana" font-size="12.5" font-weight="bold" lengthAdjust="spacing" textLength="7.2917" x="113.5417" y="313.0715">5</text><text fill="#4E5D6C" font-family="Verdana" font-size="12.5" lengthAdjust="spacing" textLength="180.2083" x="135.4167" y="313.0715">Notify yearly report is available</text><polygon fill="#EC7211" points="670.8333,361.8842,681.25,366.0508,670.8333,370.2175,675,366.0508" style="stroke:#EC7211;stroke-width:1.0416666666666667;"/><line style="stroke:#EC7211;stroke-width:3.125;" x1="477.0833" x2="677.0833" y1="366.0508" y2="366.0508"/><text fill="#4E5D6C" font-family="Verdana" font-size="12.5" font-weight="bold" lengthAdjust="spacing" textLength="7.2917" x="489.5833" y="355.0966">6</text><text fill="#4E5D6C" font-family="Verdana" font-size="12.5" lengthAdjust="spacing" textLength="148.9583" x="511.4583" y="355.0966">Notify report is avaialable</text><polygon fill="#EC7211" points="794.7917,403.9093,805.2083,408.076,794.7917,412.2426,798.9583,408.076" style="stroke:#EC7211;stroke-width:1.0416666666666667;"/><line style="stroke:#EC7211;stroke-width:3.125;" x1="683.3333" x2="801.0417" y1="408.076" y2="408.076"/><text fill="#4E5D6C" font-family="Verdana" font-size="12.5" font-weight="bold" lengthAdjust="spacing" textLength="7.2917" x="695.8333" y="397.1218">7</text><text fill="#4E5D6C" font-family="Verdana" font-size="12.5" lengthAdjust="spacing" textLength="66.6667" x="717.7083" y="397.1218">Notification</text><polygon fill="#EC7211" points="794.7917,445.9344,805.2083,450.1011,794.7917,454.2677,798.9583,450.1011" style="stroke:#EC7211;stroke-width:1.0416666666666667;"/><line style="stroke:#EC7211;stroke-width:3.125;" x1="477.0833" x2="801.0417" y1="450.1011" y2="450.1011"/><text fill="#4E5D6C" font-family="Verdana" font-size="12.5" font-weight="bold" lengthAdjust="spacing" textLength="7.2917" x="489.5833" y="439.1469">8</text><text fill="#4E5D6C" font-family="Verdana" font-size="12.5" lengthAdjust="spacing" textLength="214.5833" x="511.4583" y="439.1469">Email report summary and highlights</text><path d="M687.5,467.8094 L687.5,548.0177 A4.1667,4.1667 0 0 0 691.6667,552.1844 L921.875,552.1844 A4.1667,4.1667 0 0 0 926.0417,548.0177 L926.0417,474.0594 L915.625,463.6427 L691.6667,463.6427 A4.1667,4.1667 0 0 0 687.5,467.8094 " fill="#0073BB" style="stroke:#005C96;stroke-width:1.0416666666666667;"/><path d="M915.625,463.6427 L915.625,471.9761 A2.0833,2.0833 0 0 0 917.7083,474.0594 L926.0417,474.0594 L915.625,463.6427 " fill="#0073BB" style="stroke:#005C96;stroke-width:1.0416666666666667;"/><text fill="#FFFFFF" font-family="Verdana" font-size="12.5" lengthAdjust="spacing" textLength="177.0833" x="698.9583" y="487.422">Email contain a brief summary</text><text fill="#FFFFFF" font-family="Verdana" font-size="12.5" lengthAdjust="spacing" textLength="206.25" x="698.9583" y="504.4471">and some highlights. Provides a link</text><text fill="#FFFFFF" font-family="Verdana" font-size="12.5" lengthAdjust="spacing" textLength="188.5417" x="698.9583" y="521.4722">to explore the report in detail via</text><text fill="#FFFFFF" font-family="Verdana" font-size="12.5" lengthAdjust="spacing" textLength="117.7083" x="698.9583" y="538.4974">the Web/Mobile App</text><!--SRC=[bLH1Rjim4Bpp5LjVUag3N7qea3I1Ut5Gr2Xw4I2ifBL4c29PahAhttT9IRQbn0LYm00rEpEQNPBw51fg2V3axun3NPCG_Y2rHOSjF65vg9tfTFNDAEFWrCX0LtKiWt4-z2eQa3Sj2Uo2qLrRa8C78JupByXIMjG1LbkKAjFMA4Lk1UYXPI0Vdj-bAka3wMloXBnBtqiLo5tJ9sH1VpA6UwWp7HntE0gA0Sn7R25vh4cNVQPBepN5jbcJeFoCB1IRvzsSxg6k_4twhi4fka_BPTsK4XLigPAuzFMfTjFwEocRwGq6Ec6V10qZUJq02_8p1lP_-MkD2sEUYg6SHcH1_qr5ufoe4EAD4JngL3rZFkEZnVk6K-JaYLCrFnVd7bVo7HTvuabyqVa1dQjUJP1xEORNuyF2sDhxAJfQAz99XjKlFwewNWXnAoJSVNsROGq_wKz7FbnAgKlXA7HEmsKM0_m_yrkrDMo69QM4q1CwrOEZk3SVZHidIX-mc2QvXZJWVYu5oPCyygN3Gf6OkEdLrfubSouEP2P4Nkne9CeIWpHwPZEKN-AzdcnyrxReUcwkWaRMZU9_y555O8uiIzi8_1jaV442IWq8XPEqd_I94JtY5-pAw0lySEOeA-AqeAG-968mm7T1nTdnj_FSaOQAGdp9KUB0uo8ViVkjAIH_8Fd42U9tn712_0C0]--></g></svg>