<svg version="1.1" xmlns="http://www.w3.org/2000/svg" viewBox="0 0 1960.4544890721636 1162.3332977294924" width="1960.4544890721636" height="1162.3332977294924">
  <!-- svg-source:excalidraw -->
  
  <defs>
    <style class="style-fonts">
      @font-face {
        font-family: "Virgil";
        src: url("https://excalidraw.com/Virgil.woff2");
      }
      @font-face {
        font-family: "Cascadia";
        src: url("https://excalidraw.com/Cascadia.woff2");
      }
    </style>
    
  </defs>
  <rect x="0" y="0" width="1960.4544890721636" height="1162.3332977294924" fill="#ffffff"></rect><g stroke-linecap="round" transform="translate(300.1777939572705 137.694005784342) rotate(0 780.5 452.5)"><path d="M32 0 M32 0 C433.55 4.67, 835.53 4.6, 1529 0 M32 0 C341.75 -4.85, 650.99 -4.95, 1529 0 M1529 0 C1548.67 -0.62, 1559.91 12.05, 1561 32 M1529 0 C1549.11 -2.04, 1563.2 10.41, 1561 32 M1561 32 C1564.01 201.47, 1562.6 372.31, 1561 873 M1561 32 C1558.2 279.18, 1557.49 525.96, 1561 873 M1561 873 C1562.44 892.53, 1548.81 905.98, 1529 905 M1561 873 C1559.17 895.64, 1548.75 905, 1529 905 M1529 905 C1195.89 907.21, 862.67 907.37, 32 905 M1529 905 C986.33 908.18, 442.81 907.86, 32 905 M32 905 C10.59 906.98, -0.21 894.7, 0 873 M32 905 C12.5 902.85, 0.45 894.76, 0 873 M0 873 C1.33 604.09, 0.8 334.29, 0 32 M0 873 C-2.26 562.96, -2.31 252.24, 0 32 M0 32 C-1.9 9.67, 12 -0.05, 32 0 M0 32 C-1.78 11.31, 12.85 2.15, 32 0" stroke="#1e1e1e" stroke-width="1" fill="none"></path></g><g transform="translate(1788.877867199458 142.694005784342) rotate(0 33.64996337890625 25)"><text x="67.2999267578125" y="0" font-family="Virgil, Segoe UI Emoji" font-size="20px" fill="#1e1e1e" text-anchor="end" style="white-space: pre;" direction="ltr" dominant-baseline="text-before-edge">System</text><text x="67.2999267578125" y="25" font-family="Virgil, Segoe UI Emoji" font-size="20px" fill="#1e1e1e" text-anchor="end" style="white-space: pre;" direction="ltr" dominant-baseline="text-before-edge"></text></g><g stroke-linecap="round"><g transform="translate(461.38627717923646 624.2858035581451) rotate(0 -94.59508678011275 -121.72631794298121)"><path d="M0.51 0.52 C-31.12 -39.81, -157.13 -201.66, -188.67 -242.24 M-0.69 -0.25 C-32.59 -40.91, -158.22 -203.75, -189.7 -243.98" stroke="#1e1e1e" stroke-width="1" fill="none"></path></g><g transform="translate(461.38627717923646 624.2858035581451) rotate(0 -94.59508678011275 -121.72631794298121)"><path d="M-163.43 -228.26 C-173.04 -234.46, -184.16 -242.11, -191.4 -244.07 M-164.41 -227.94 C-171.81 -233.23, -179.18 -237.5, -189.63 -243.36" stroke="#1e1e1e" stroke-width="1" fill="none"></path></g><g transform="translate(461.38627717923646 624.2858035581451) rotate(0 -94.59508678011275 -121.72631794298121)"><path d="M-179.64 -215.68 C-182.86 -226.89, -187.61 -239.48, -191.4 -244.07 M-180.62 -215.36 C-183.31 -224.54, -185.88 -232.54, -189.63 -243.36" stroke="#1e1e1e" stroke-width="1" fill="none"></path></g></g><mask></mask><g stroke-linecap="round"><g transform="translate(405.51675554489 761.2082672627631) rotate(0 -64.49461057819377 3.2232333676379312)"><path d="M1 -0.7 C-20.84 0.14, -108.38 4.62, -129.99 6.09 M0.07 1.55 C-21.48 3.03, -106.12 6.34, -127.64 7.15" stroke="#1e1e1e" stroke-width="1" fill="none"></path></g><g transform="translate(405.51675554489 761.2082672627631) rotate(0 -64.49461057819377 3.2232333676379312)"><path d="M-101.03 -5.34 C-112.12 1.57, -119.54 6.73, -129.2 5.59 M-99.02 -3.88 C-108.1 -0.63, -114.3 2.77, -127.17 7.96" stroke="#1e1e1e" stroke-width="1" fill="none"></path></g><g transform="translate(405.51675554489 761.2082672627631) rotate(0 -64.49461057819377 3.2232333676379312)"><path d="M-100.24 15.16 C-111.81 14.09, -119.55 11.26, -129.2 5.59 M-98.22 16.63 C-107.35 14.25, -113.78 12.02, -127.17 7.96" stroke="#1e1e1e" stroke-width="1" fill="none"></path></g></g><mask></mask><g stroke-linecap="round" transform="translate(407.2429932802013 626.2675301807683) rotate(0 146 120.5)"><path d="M32 0 M32 0 C98.03 0.74, 164.96 -2.43, 260 0 M32 0 C79.5 0.48, 126.6 1.28, 260 0 M260 0 C280.45 -0.03, 290 8.98, 292 32 M260 0 C282.55 1.08, 293.42 11.46, 292 32 M292 32 C289.32 91.42, 291.86 153.88, 292 209 M292 32 C292.96 68.58, 292.12 104.39, 292 209 M292 209 C291.63 230.79, 281.19 241.03, 260 241 M292 209 C290.15 229.96, 280.56 239.98, 260 241 M260 241 C189.76 242.3, 119.56 241.32, 32 241 M260 241 C200.43 240.11, 140.15 241.36, 32 241 M32 241 C11.46 242.06, 1.9 231.97, 0 209 M32 241 C12.79 242.94, -0.18 230.11, 0 209 M0 209 C0.51 150.56, -1.24 95.06, 0 32 M0 209 C-1.1 164.45, -0.27 118.53, 0 32 M0 32 C0.29 9.22, 10.62 -0.24, 32 0 M0 32 C1.56 10.06, 9.33 -0.95, 32 0" stroke="#2f9e44" stroke-width="1" fill="none"></path></g><g transform="translate(436.32313244035754 721.7675301807684) rotate(0 116.91986083984375 25)"><text x="116.91986083984375" y="0" font-family="Virgil, Segoe UI Emoji" font-size="20px" fill="#e03131" text-anchor="middle" style="white-space: pre;" direction="ltr" dominant-baseline="text-before-edge">Collector agency</text><text x="116.91986083984375" y="25" font-family="Virgil, Segoe UI Emoji" font-size="20px" fill="#e03131" text-anchor="middle" style="white-space: pre;" direction="ltr" dominant-baseline="text-before-edge">(travel details fetcher)</text></g><g stroke-linecap="round" transform="translate(10 216.01052045822175) rotate(0 128.66667429606116 164.66662089029955)"><path d="M32 0 M32 0 C92.46 -1.47, 152.74 -0.9, 225.33 0 M32 0 C78.25 -2.28, 123.79 -1.98, 225.33 0 M225.33 0 C245.67 1.66, 258.68 12.43, 257.33 32 M225.33 0 C244.87 -2.14, 256.49 10.98, 257.33 32 M257.33 32 C255.39 103.3, 255.73 171.09, 257.33 297.33 M257.33 32 C257 89.47, 257.4 146.96, 257.33 297.33 M257.33 297.33 C257.74 320.42, 247.66 327.94, 225.33 329.33 M257.33 297.33 C255.72 318.44, 248.21 330.54, 225.33 329.33 M225.33 329.33 C177.06 332.39, 127.08 329.42, 32 329.33 M225.33 329.33 C155.01 327.69, 83.35 328.4, 32 329.33 M32 329.33 C9.57 330.2, 0.03 320.12, 0 297.33 M32 329.33 C12.74 329.56, -0.83 317.85, 0 297.33 M0 297.33 C1.04 212.74, 1.32 127.24, 0 32 M0 297.33 C-0.98 196.63, -0.74 96.45, 0 32 M0 32 C-1.57 11.63, 10.51 1.21, 32 0 M0 32 C0.2 12.86, 11.96 -0.03, 32 0" stroke="#1e1e1e" stroke-width="1" fill="none"></path></g><g transform="translate(15 221.01052045822175) rotate(0 21.769981384277344 12.5)"><text x="0" y="0" font-family="Virgil, Segoe UI Emoji" font-size="20px" fill="#1e1e1e" text-anchor="start" style="white-space: pre;" direction="ltr" dominant-baseline="text-before-edge">GDS</text></g><g stroke-linecap="round" transform="translate(209.73701190550582 25.98516184590173) rotate(0 86.46406205748411 30)"><path d="M15 0 M15 0 C54.84 0.42, 90.39 -0.25, 157.93 0 M15 0 C45.36 0.79, 75.22 -0.21, 157.93 0 M157.93 0 C168.4 1.69, 171.57 4.43, 172.93 15 M157.93 0 C167.08 0.82, 173.96 3.22, 172.93 15 M172.93 15 C172.81 20.48, 173.58 29.76, 172.93 45 M172.93 15 C172.83 26.06, 172.02 35.98, 172.93 45 M172.93 45 C174.34 53.69, 166.42 60.19, 157.93 60 M172.93 45 C172.31 56.26, 167.97 58.37, 157.93 60 M157.93 60 C118.05 57.8, 75.56 58.08, 15 60 M157.93 60 C117.6 58.5, 77 59.27, 15 60 M15 60 C4.92 59.45, -0.75 54.63, 0 45 M15 60 C4.19 58.68, 0.78 53.56, 0 45 M0 45 C-0.46 39.2, -1.68 29.76, 0 15 M0 45 C-0.75 38.51, -0.87 32.5, 0 15 M0 15 C1.62 4.27, 3 -0.02, 15 0 M0 15 C0.66 7.12, 3.38 -0.88, 15 0" stroke="#1971c2" stroke-width="1" fill="none"></path></g><g transform="translate(244.6211179083025 30.98516184590173) rotate(0 51.5799560546875 25)"><text x="51.5799560546875" y="0" font-family="Virgil, Segoe UI Emoji" font-size="20px" fill="#f08c00" text-anchor="middle" style="white-space: pre;" direction="ltr" dominant-baseline="text-before-edge">User</text><text x="51.5799560546875" y="25" font-family="Virgil, Segoe UI Emoji" font-size="20px" fill="#f08c00" text-anchor="middle" style="white-space: pre;" direction="ltr" dominant-baseline="text-before-edge">Constantin</text></g><g stroke-linecap="round" transform="translate(55.231511089721835 679.5460552620403) rotate(0 86.46406205748417 29.850680238078553)"><path d="M14.93 0 M14.93 0 C50.22 1.96, 89.43 1.98, 158 0 M14.93 0 C72.16 0.86, 128.25 -0.27, 158 0 M158 0 C167.22 0.71, 173.82 3.42, 172.93 14.93 M158 0 C166.28 1.45, 174.56 4.63, 172.93 14.93 M172.93 14.93 C173.72 20.98, 171.3 28.9, 172.93 44.78 M172.93 14.93 C173.41 26.14, 171.94 38.76, 172.93 44.78 M172.93 44.78 C172.39 55.82, 167.99 58.29, 158 59.7 M172.93 44.78 C172.5 52.7, 166.9 60.06, 158 59.7 M158 59.7 C125.88 58.41, 93.54 60.03, 14.93 59.7 M158 59.7 C128.84 59.14, 99.38 59.23, 14.93 59.7 M14.93 59.7 C4.27 58.55, 0.68 53.48, 0 44.78 M14.93 59.7 C3.77 57.56, -1.87 53.88, 0 44.78 M0 44.78 C-1.37 34.57, -1.52 20.84, 0 14.93 M0 44.78 C1.02 35.4, -0.79 26.74, 0 14.93 M0 14.93 C0.57 6.82, 3.56 -0.77, 14.93 0 M0 14.93 C-0.57 5.47, 3.52 2.2, 14.93 0" stroke="#1971c2" stroke-width="1" fill="none"></path></g><g transform="translate(124.28559237328 696.8967355001188) rotate(0 17.40998077392578 12.5)"><text x="17.40998077392578" y="0" font-family="Virgil, Segoe UI Emoji" font-size="20px" fill="#f08c00" text-anchor="middle" style="white-space: pre;" direction="ltr" dominant-baseline="text-before-edge">Car</text></g><g stroke-linecap="round" transform="translate(60.67731270062791 854.6732945702157) rotate(0 86.46406205748417 29.850680238078553)"><path d="M14.93 0 M14.93 0 C66.25 0.21, 113.62 -0.19, 158 0 M14.93 0 C69.57 0.76, 125.39 -0.37, 158 0 M158 0 C166.5 1.26, 174.34 4.67, 172.93 14.93 M158 0 C166.41 0.54, 174.22 5.81, 172.93 14.93 M172.93 14.93 C174.63 21, 174.3 31.56, 172.93 44.78 M172.93 14.93 C172.43 22.47, 172.72 28.21, 172.93 44.78 M172.93 44.78 C172.55 52.96, 167.03 60.01, 158 59.7 M172.93 44.78 C171.15 52.45, 166.5 59.39, 158 59.7 M158 59.7 C115.9 62.49, 77.26 60.5, 14.93 59.7 M158 59.7 C118.66 58.86, 80.37 58.81, 14.93 59.7 M14.93 59.7 C3.93 57.84, -1.62 53.99, 0 44.78 M14.93 59.7 C6.86 57.45, -0.42 52.82, 0 44.78 M0 44.78 C0.31 32.65, 1.31 24.92, 0 14.93 M0 44.78 C0.58 37.83, -0.41 28.65, 0 14.93 M0 14.93 C-0.49 5.41, 3.71 1.92, 14.93 0 M0 14.93 C1.56 3.34, 4.88 -2.29, 14.93 0" stroke="#1971c2" stroke-width="1" fill="none"></path></g><g transform="translate(81.13145654522145 872.0239748082944) rotate(0 66.00991821289062 12.5)"><text x="66.00991821289062" y="0" font-family="Virgil, Segoe UI Emoji" font-size="20px" fill="#f08c00" text-anchor="middle" style="white-space: pre;" direction="ltr" dominant-baseline="text-before-edge">Hotel Supplier</text></g><g stroke-linecap="round" transform="translate(56.907365937142686 766.9549822079902) rotate(0 86.46406205748417 29.850680238078553)"><path d="M14.93 0 M14.93 0 C65.77 -1.69, 112.66 -1.07, 158 0 M14.93 0 C62.2 1.74, 111.63 0.96, 158 0 M158 0 C166.61 0.47, 174.05 5.7, 172.93 14.93 M158 0 C166.92 -1.96, 173.01 7.22, 172.93 14.93 M172.93 14.93 C171.86 20.08, 173.36 27.71, 172.93 44.78 M172.93 14.93 C172.75 24.64, 172.47 36.27, 172.93 44.78 M172.93 44.78 C171.38 52.74, 166.69 59.43, 158 59.7 M172.93 44.78 C172.49 53.86, 169.37 57.48, 158 59.7 M158 59.7 C100.89 58.89, 44.51 58.94, 14.93 59.7 M158 59.7 C122.77 57.88, 87.78 58.44, 14.93 59.7 M14.93 59.7 C6.61 57.75, -0.37 53.07, 0 44.78 M14.93 59.7 C6.35 57.61, -1.31 54.77, 0 44.78 M0 44.78 C-0.88 35.89, -0.18 31.57, 0 14.93 M0 44.78 C-0.03 33.28, -0.42 22.31, 0 14.93 M0 14.93 C1.35 3.56, 4.89 -1.99, 14.93 0 M0 14.93 C0.18 3.5, 3.53 0.44, 14.93 0" stroke="#1971c2" stroke-width="1" fill="none"></path></g><g transform="translate(76.00150917138467 784.3056624460686) rotate(0 67.36991882324219 12.5)"><text x="67.36991882324219" y="0" font-family="Virgil, Segoe UI Emoji" font-size="20px" fill="#f08c00" text-anchor="middle" style="white-space: pre;" direction="ltr" dominant-baseline="text-before-edge">Flight Supplier</text></g><g stroke-linecap="round" transform="translate(423.1964338349753 489.6410734448524) rotate(0 64 23.5)"><path d="M11.75 0 M11.75 0 C36.03 0, 60.3 0, 116.25 0 M11.75 0 C49.71 0, 87.67 0, 116.25 0 M116.25 0 C124.08 0, 128 3.92, 128 11.75 M116.25 0 C124.08 0, 128 3.92, 128 11.75 M128 11.75 C128 17.03, 128 22.3, 128 35.25 M128 11.75 C128 16.72, 128 21.7, 128 35.25 M128 35.25 C128 43.08, 124.08 47, 116.25 47 M128 35.25 C128 43.08, 124.08 47, 116.25 47 M116.25 47 C88.84 47, 61.43 47, 11.75 47 M116.25 47 C94.63 47, 73.01 47, 11.75 47 M11.75 47 C3.92 47, 0 43.08, 0 35.25 M11.75 47 C3.92 47, 0 43.08, 0 35.25 M0 35.25 C0 30.55, 0 25.85, 0 11.75 M0 35.25 C0 27.69, 0 20.13, 0 11.75 M0 11.75 C0 3.92, 3.92 0, 11.75 0 M0 11.75 C0 3.92, 3.92 0, 11.75 0" stroke="#1e1e1e" stroke-width="4" fill="none"></path></g><g transform="translate(438.87649517530735 500.6410734448524) rotate(0 48.31993865966797 12.5)"><text x="48.31993865966797" y="0" font-family="Virgil, Segoe UI Emoji" font-size="20px" fill="#1e1e1e" text-anchor="middle" style="white-space: pre;" direction="ltr" dominant-baseline="text-before-edge">mail poller</text></g><g stroke-linecap="round" transform="translate(316.06982313924925 356.1665189014958) rotate(0 86.46406205748411 29.850680238078553)"><path d="M14.93 0 M14.93 0 C64.19 0.71, 118.81 -0.89, 158 0 M14.93 0 C68.74 1.03, 123.79 1.49, 158 0 M158 0 C167.99 -1.42, 172.55 3.21, 172.93 14.93 M158 0 C166.9 0.36, 171.15 2.7, 172.93 14.93 M172.93 14.93 C172.14 23.22, 170.96 30.97, 172.93 44.78 M172.93 14.93 C172.54 23.11, 172.56 31.08, 172.93 44.78 M172.93 44.78 C173.61 53.48, 166.91 57.84, 158 59.7 M172.93 44.78 C171.06 53.88, 169.84 57.45, 158 59.7 M158 59.7 C115.9 59.42, 77.47 59.17, 14.93 59.7 M158 59.7 C106.62 59.17, 57.52 60.1, 14.93 59.7 M14.93 59.7 C3.56 58.94, -0.49 55.16, 0 44.78 M14.93 59.7 C3.52 61.9, 1.56 53.09, 0 44.78 M0 44.78 C-0.99 34.69, 0.68 28.19, 0 14.93 M0 44.78 C0.36 39.11, -0.14 33.33, 0 14.93 M0 14.93 C1.59 3.36, 3.05 0.88, 14.93 0 M0 14.93 C-0.98 5.2, 5.05 -1.77, 14.93 0" stroke="#1971c2" stroke-width="1" fill="none"></path></g><g transform="translate(333.6439697304247 373.51719913957425) rotate(0 68.8899154663086 12.5)"><text x="68.8899154663086" y="0" font-family="Virgil, Segoe UI Emoji" font-size="20px" fill="#f08c00" text-anchor="middle" style="white-space: pre;" direction="ltr" dominant-baseline="text-before-edge">Email Provider</text></g><g stroke-linecap="round" transform="translate(567.7465122499906 456.4579901782546) rotate(0 98 30)"><path d="M15 0 M15 0 C66.98 2.69, 114.4 -0.23, 181 0 M15 0 C66.36 -1.62, 117.49 -1.79, 181 0 M181 0 C190.08 0.31, 194.45 3.02, 196 15 M181 0 C189.55 -0.31, 195.56 4.14, 196 15 M196 15 C195.32 25.77, 195.16 35.93, 196 45 M196 15 C196.23 22.82, 195.37 30.96, 196 45 M196 45 C194.38 54.26, 192.64 58.05, 181 60 M196 45 C195.58 53.09, 192.38 57.91, 181 60 M181 60 C141.67 60.47, 99.52 56.85, 15 60 M181 60 C130.66 61.15, 81.48 61.75, 15 60 M15 60 C3.73 61.92, 1.35 53.58, 0 45 M15 60 C4.9 57.71, 0.18 53.52, 0 45 M0 45 C-1.93 36.84, 0.71 31.17, 0 15 M0 45 C0.88 33.69, -0.87 24.42, 0 15 M0 15 C-0.85 5.2, 5.07 -1.54, 15 0 M0 15 C-1.42 4.12, 6.86 2.02, 15 0" stroke="#1e1e1e" stroke-width="1" fill="none"></path></g><g transform="translate(606.726584271475 473.95799017825414) rotate(0 59.019927978515625 12.5)"><text x="59.019927978515625" y="0" font-family="Virgil, Segoe UI Emoji" font-size="20px" fill="#1e1e1e" text-anchor="middle" style="white-space: pre;" direction="ltr" dominant-baseline="text-before-edge">Mail filterer</text></g><g stroke-linecap="round"><g transform="translate(385.43904968957327 421.46146541303017) rotate(0 39.35539877850226 26.089804015911113)"><path d="M0 0 C13.12 8.7, 65.59 43.48, 78.71 52.18 M0 0 C13.12 8.7, 65.59 43.48, 78.71 52.18" stroke="#1e1e1e" stroke-width="4" fill="none"></path></g><g transform="translate(385.43904968957327 421.46146541303017) rotate(0 39.35539877850226 26.089804015911113)"><path d="M49.54 45.16 C60.36 47.76, 71.17 50.36, 78.71 52.18 M49.54 45.16 C58.75 47.37, 67.96 49.59, 78.71 52.18" stroke="#1e1e1e" stroke-width="4" fill="none"></path></g><g transform="translate(385.43904968957327 421.46146541303017) rotate(0 39.35539877850226 26.089804015911113)"><path d="M60.88 28.05 C67.49 37, 74.1 45.94, 78.71 52.18 M60.88 28.05 C66.51 35.67, 72.14 43.28, 78.71 52.18" stroke="#1e1e1e" stroke-width="4" fill="none"></path></g></g><mask></mask><g stroke-linecap="round" transform="translate(1639.3932699275924 237.19614123684008) rotate(0 98 30)"><path d="M15 0 M15 0 C63.33 -0.61, 115.5 -1.24, 181 0 M15 0 C48.16 -0.15, 82.32 -0.74, 181 0 M181 0 C192.91 -0.39, 195.92 4.45, 196 15 M181 0 C190.13 -0.43, 195.19 3.68, 196 15 M196 15 C193.95 23.4, 195.07 36.68, 196 45 M196 15 C196.54 20.16, 195.38 27.15, 196 45 M196 45 C194.62 56.04, 192.62 59.27, 181 60 M196 45 C193.7 54.98, 191.66 62.12, 181 60 M181 60 C143.35 58.32, 106.75 60.95, 15 60 M181 60 C143.05 57.71, 104.32 58.54, 15 60 M15 60 C6.07 58.13, -1.04 55.76, 0 45 M15 60 C5.48 61.16, -0.68 57.03, 0 45 M0 45 C1.12 32.76, 0.44 22.29, 0 15 M0 45 C1 39.18, 0.8 31.2, 0 15 M0 15 C-1.91 5.86, 3.45 -1.42, 15 0 M0 15 C-0.04 5.89, 6.71 -1.32, 15 0" stroke="#1e1e1e" stroke-width="1" fill="none"></path></g><g transform="translate(1665.6433538509323 254.69614123684013) rotate(0 71.74991607666016 12.5)"><text x="71.74991607666016" y="0" font-family="Virgil, Segoe UI Emoji" font-size="20px" fill="#1e1e1e" text-anchor="middle" style="white-space: pre;" direction="ltr" dominant-baseline="text-before-edge">Data reporter</text></g><g stroke-linecap="round"><g transform="translate(558.6839920416769 498.0724065609479) rotate(0 3.3617653731604946 -0.5666537567701653)"><path d="M1.14 -0.24 C2.09 -0.23, 5.62 -0.97, 6.44 -1.09 M0.29 -1.41 C1.01 -1.12, 4.67 0, 5.47 0.27" stroke="#1e1e1e" stroke-width="1" fill="none"></path></g><g transform="translate(558.6839920416769 498.0724065609479) rotate(0 3.3617653731604946 -0.5666537567701653)"><path d="M2.14 0.38 C3.29 0.2, 4.5 0.16, 5.28 0.38 M2.07 0.34 C3.11 0.24, 3.72 0.23, 5.56 0.13" stroke="#1e1e1e" stroke-width="1" fill="none"></path></g><g transform="translate(558.6839920416769 498.0724065609479) rotate(0 3.3617653731604946 -0.5666537567701653)"><path d="M2.82 -1.74 C3.71 -1.15, 4.67 -0.42, 5.28 0.38 M2.75 -1.79 C3.62 -1.39, 4.07 -0.89, 5.56 0.13" stroke="#1e1e1e" stroke-width="1" fill="none"></path></g></g><mask></mask><g stroke-linecap="round"><g transform="translate(772.4490107223604 494.6808128709779) rotate(0 21.557396621015386 -38.7559097602537)"><path d="M-0.45 -0.22 C6.82 -13.05, 36.09 -64.43, 43.57 -77.29 M1.51 -1.38 C8.59 -14.04, 35.34 -63.61, 42.4 -76.11" stroke="#2f9e44" stroke-width="4" fill="none"></path></g><g transform="translate(772.4490107223604 494.6808128709779) rotate(0 21.557396621015386 -38.7559097602537)"><path d="M37.42 -47.17 C38.09 -54.55, 39.35 -65.05, 40.54 -77.74 M37.61 -47.3 C39.36 -55.13, 39.4 -62, 41.7 -75.59" stroke="#2f9e44" stroke-width="4" fill="none"></path></g><g transform="translate(772.4490107223604 494.6808128709779) rotate(0 21.557396621015386 -38.7559097602537)"><path d="M19.44 -57.07 C25.41 -61.45, 31.99 -69.02, 40.54 -77.74 M19.63 -57.19 C26.19 -62.25, 30.97 -66.52, 41.7 -75.59" stroke="#2f9e44" stroke-width="4" fill="none"></path></g></g><mask></mask><g stroke-linecap="round" transform="translate(810.5180517562226 311.5737853175251) rotate(0 93.15470211343495 55.00000000000003)"><path d="M27.5 0 M27.5 0 C69.49 -0.94, 114.47 2.32, 158.81 0 M27.5 0 C54.66 0.18, 80.05 1.11, 158.81 0 M158.81 0 C175.76 1.04, 187.93 8.44, 186.31 27.5 M158.81 0 C174.84 -0.02, 186.97 11.29, 186.31 27.5 M186.31 27.5 C186.53 38.85, 188.01 54.09, 186.31 82.5 M186.31 27.5 C186.36 39.46, 185.66 52.89, 186.31 82.5 M186.31 82.5 C187.38 98.96, 176.1 110.76, 158.81 110 M186.31 82.5 C186.79 101.99, 176.46 112.03, 158.81 110 M158.81 110 C109.85 107.89, 59.33 108.8, 27.5 110 M158.81 110 C130.31 110.38, 100.8 109.09, 27.5 110 M27.5 110 C7.26 110.86, -1.55 99.41, 0 82.5 M27.5 110 C9.12 110.89, 1.71 99.51, 0 82.5 M0 82.5 C-0.08 65.15, 0.96 45.7, 0 27.5 M0 82.5 C-1.06 70.4, -0.23 60.43, 0 27.5 M0 27.5 C-1.96 10.96, 9.1 0.18, 27.5 0 M0 27.5 C1.37 9.65, 10.69 -1.57, 27.5 0" stroke="#2f9e44" stroke-width="1" fill="none"></path></g><g transform="translate(835.4228225342083 354.0737853175251) rotate(0 68.24993133544922 12.5)"><text x="68.24993133544922" y="0" font-family="Virgil, Segoe UI Emoji" font-size="20px" fill="#2f9e44" text-anchor="middle" style="white-space: pre;" direction="ltr" dominant-baseline="text-before-edge">Booking CRUD</text></g><g mask="url(#mask-iD_-U3qlGIiECuCs0Rq7G)" stroke-linecap="round"><g transform="translate(308.12226558491216 92.99521551107435) rotate(0 247.93594640926938 139.44498066239774)"><path d="M0.98 -1.17 C83.78 45.41, 413.2 232.36, 495.83 279.05 M0.04 0.83 C82.75 47.56, 412.04 233.58, 494.77 280.06" stroke="#1e1e1e" stroke-width="1" fill="none"></path></g><g transform="translate(308.12226558491216 92.99521551107435) rotate(0 247.93594640926938 139.44498066239774)"><path d="M463.22 274.79 C469.97 277.19, 476.29 275.93, 494.81 278.68 M464.17 275.15 C475.92 277.92, 485.35 278.34, 494.52 280.28" stroke="#1e1e1e" stroke-width="1" fill="none"></path></g><g transform="translate(308.12226558491216 92.99521551107435) rotate(0 247.93594640926938 139.44498066239774)"><path d="M473.29 256.91 C477.78 263.3, 481.89 265.96, 494.81 278.68 M474.25 257.27 C482.59 266.3, 488.47 273.01, 494.52 280.28" stroke="#1e1e1e" stroke-width="1" fill="none"></path></g></g><mask id="mask-iD_-U3qlGIiECuCs0Rq7G"><rect x="0" y="0" fill="#fff" width="904.1767174765248" height="473.0377846690635"></rect><rect x="425.7495891869685" y="220.51650009006886" fill="#000" width="260.7998046875" height="25" opacity="1"></rect></mask><g stroke-linecap="round" transform="translate(1295.3264894158392 349.48406056271824) rotate(0 133.5 81)"><path d="M32 0 M32 0 C105.04 0, 178.08 0, 235 0 M32 0 C85.52 0, 139.04 0, 235 0 M235 0 C256.33 0, 267 10.67, 267 32 M235 0 C256.33 0, 267 10.67, 267 32 M267 32 C267 62.15, 267 92.3, 267 130 M267 32 C267 65.14, 267 98.27, 267 130 M267 130 C267 151.33, 256.33 162, 235 162 M267 130 C267 151.33, 256.33 162, 235 162 M235 162 C157.65 162, 80.3 162, 32 162 M235 162 C188.54 162, 142.08 162, 32 162 M32 162 C10.67 162, 0 151.33, 0 130 M32 162 C10.67 162, 0 151.33, 0 130 M0 130 C0 106.46, 0 82.92, 0 32 M0 130 C0 99.71, 0 69.43, 0 32 M0 32 C0 10.67, 10.67 0, 32 0 M0 32 C0 10.67, 10.67 0, 32 0" stroke="#1e1e1e" stroke-width="4" fill="none"></path></g><g transform="translate(1367.4565477044134 405.4840605627181) rotate(0 61.36994171142578 25)"><text x="61.36994171142578" y="0" font-family="Virgil, Segoe UI Emoji" font-size="20px" fill="#1e1e1e" text-anchor="middle" style="white-space: pre;" direction="ltr" dominant-baseline="text-before-edge">Booking</text><text x="61.36994171142578" y="25" font-family="Virgil, Segoe UI Emoji" font-size="20px" fill="#1e1e1e" text-anchor="middle" style="white-space: pre;" direction="ltr" dominant-baseline="text-before-edge">db (storage)</text></g><g stroke-linecap="round" transform="translate(904.1142388391438 207.1971168037352) rotate(0 90 17.5)"><path d="M8.75 0 M8.75 0 C70.65 2.19, 134.44 0.21, 171.25 0 M8.75 0 C50.64 0.61, 94.48 -1.06, 171.25 0 M171.25 0 C177 -1.99, 180.15 1.63, 180 8.75 M171.25 0 C175.64 0.44, 181.24 0.77, 180 8.75 M180 8.75 C180.95 12.57, 181.61 18.82, 180 26.25 M180 8.75 C179.46 12.67, 179.86 15.75, 180 26.25 M180 26.25 C178.76 31.32, 178.7 36.76, 171.25 35 M180 26.25 C181.41 31.14, 174.89 35.99, 171.25 35 M171.25 35 C135.88 36.46, 97.8 35.81, 8.75 35 M171.25 35 C112.21 35.91, 52.11 34.28, 8.75 35 M8.75 35 C4.58 33.33, -1.2 30.36, 0 26.25 M8.75 35 C3.44 35.95, -2.25 34.14, 0 26.25 M0 26.25 C0.36 22.22, -1.21 14.16, 0 8.75 M0 26.25 C0.58 20.53, -0.77 14.33, 0 8.75 M0 8.75 C-0.32 3.07, 3.14 -1.94, 8.75 0 M0 8.75 C-0.37 1.48, 3.06 0.88, 8.75 0" stroke="#2f9e44" stroke-width="1" fill="none"></path></g><g transform="translate(962.354274849886 212.1971168037352) rotate(0 31.759963989257812 12.5)"><text x="31.759963989257812" y="0" font-family="Virgil, Segoe UI Emoji" font-size="20px" fill="#2f9e44" text-anchor="middle" style="white-space: pre;" direction="ltr" dominant-baseline="text-before-edge">Sharer</text></g><g stroke-linecap="round" transform="translate(767.3698158066385 206.94332164132786) rotate(0 46 25)"><path d="M12.5 0 M12.5 0 C34.51 0, 56.52 0, 79.5 0 M12.5 0 C39.02 0, 65.53 0, 79.5 0 M79.5 0 C87.83 0, 92 4.17, 92 12.5 M79.5 0 C87.83 0, 92 4.17, 92 12.5 M92 12.5 C92 19.26, 92 26.01, 92 37.5 M92 12.5 C92 20.25, 92 27.99, 92 37.5 M92 37.5 C92 45.83, 87.83 50, 79.5 50 M92 37.5 C92 45.83, 87.83 50, 79.5 50 M79.5 50 C54.41 50, 29.33 50, 12.5 50 M79.5 50 C54.92 50, 30.34 50, 12.5 50 M12.5 50 C4.17 50, 0 45.83, 0 37.5 M12.5 50 C4.17 50, 0 45.83, 0 37.5 M0 37.5 C0 28.34, 0 19.18, 0 12.5 M0 37.5 C0 29.23, 0 20.95, 0 12.5 M0 12.5 C0 4.17, 4.17 0, 12.5 0 M0 12.5 C0 4.17, 4.17 0, 12.5 0" stroke="#1e1e1e" stroke-width="4" fill="none"></path></g><g transform="translate(785.5598411362283 219.44332164132786) rotate(0 27.809974670410156 12.5)"><text x="27.809974670410156" y="0" font-family="Virgil, Segoe UI Emoji" font-size="20px" fill="#1e1e1e" text-anchor="middle" style="white-space: pre;" direction="ltr" dominant-baseline="text-before-edge">HELP!</text></g><g stroke-linecap="round"><g transform="translate(303.1834317904795 89.14015041259952) rotate(0 231.61917342686797 72.90026154391693)"><path d="M-0.76 1.15 C76.62 25.11, 386.68 120.25, 464 144 M1.04 0.71 C78.36 24.77, 386.59 121.15, 463.48 145.09" stroke="#1e1e1e" stroke-width="1" fill="none"></path></g><g transform="translate(303.1834317904795 89.14015041259952) rotate(0 231.61917342686797 72.90026154391693)"><path d="M435.43 147.84 C440.34 146.21, 448.03 146.06, 462.19 143.84 M432.99 146.87 C443.27 146.83, 452.33 146.76, 464.27 144.29" stroke="#1e1e1e" stroke-width="1" fill="none"></path></g><g transform="translate(303.1834317904795 89.14015041259952) rotate(0 231.61917342686797 72.90026154391693)"><path d="M441.54 128.25 C444.81 131.98, 450.81 137.23, 462.19 143.84 M439.1 127.28 C447.54 133.43, 454.65 139.62, 464.27 144.29" stroke="#1e1e1e" stroke-width="1" fill="none"></path></g></g><mask></mask><g stroke-linecap="round"><g transform="translate(390.4907584500829 91.24094740466847) rotate(0 269.76061891669184 53.80844787508411)"><path d="M0.81 -0.85 C90.9 16.88, 449.9 89.42, 539.74 107.56 M-0.22 1.32 C89.77 19.66, 448.87 90.54, 538.77 108.47" stroke="#1e1e1e" stroke-width="1" fill="none"></path></g><g transform="translate(390.4907584500829 91.24094740466847) rotate(0 269.76061891669184 53.80844787508411)"><path d="M507.7 112.96 C514.1 111.92, 521.82 109.43, 539.15 109.54 M509.33 113.55 C514.97 112.87, 522.18 110.24, 537.8 108.91" stroke="#1e1e1e" stroke-width="1" fill="none"></path></g><g transform="translate(390.4907584500829 91.24094740466847) rotate(0 269.76061891669184 53.80844787508411)"><path d="M511.69 92.83 C517.34 96.58, 524.11 98.85, 539.15 109.54 M513.32 93.42 C518.03 96.92, 524.42 98.44, 537.8 108.91" stroke="#1e1e1e" stroke-width="1" fill="none"></path></g></g><mask></mask><g stroke-linecap="round"><g transform="translate(984.4911295955666 252.79047074513753) rotate(0 -19.23067246883693 25.979381459379454)"><path d="M0.64 -1.12 C-5.75 7.69, -32.63 44.02, -39.11 53.08 M-0.48 0.9 C-6.41 9.33, -30.32 42.82, -36.72 51.2" stroke="#2f9e44" stroke-width="1" fill="none"></path></g><g transform="translate(984.4911295955666 252.79047074513753) rotate(0 -19.23067246883693 25.979381459379454)"><path d="M-30.17 21.36 C-29.48 29.7, -31.24 35.52, -34.96 52.79 M-28.72 22.5 C-30.39 27.99, -32.89 34.69, -35.91 52.08" stroke="#2f9e44" stroke-width="1" fill="none"></path></g><g transform="translate(984.4911295955666 252.79047074513753) rotate(0 -19.23067246883693 25.979381459379454)"><path d="M-13.63 33.52 C-16.89 39.06, -22.57 42, -34.96 52.79 M-12.19 34.66 C-17.36 37.55, -23.49 41.59, -35.91 52.08" stroke="#2f9e44" stroke-width="1" fill="none"></path></g></g><mask></mask><g stroke-linecap="round" transform="translate(15.050952514013034 629.9122504393259) rotate(0 128.66667429606116 164.66662089029955)"><path d="M32 0 M32 0 C83.66 -0.09, 130.33 1.12, 225.33 0 M32 0 C94.77 -1.04, 159.59 -1.04, 225.33 0 M225.33 0 C246.32 0.55, 257.2 11.42, 257.33 32 M225.33 0 C247.83 -0.88, 255.4 10.04, 257.33 32 M257.33 32 C257.29 128.63, 257.22 223.61, 257.33 297.33 M257.33 32 C256.21 126.16, 255.98 219.9, 257.33 297.33 M257.33 297.33 C258 317.94, 245.5 327.52, 225.33 329.33 M257.33 297.33 C258 320.35, 247.65 331, 225.33 329.33 M225.33 329.33 C153.88 330.88, 79.44 331.19, 32 329.33 M225.33 329.33 C171.63 330.44, 116.17 329.96, 32 329.33 M32 329.33 C9.87 328.35, 1.17 319.86, 0 297.33 M32 329.33 C10.21 327.55, 1.65 318.42, 0 297.33 M0 297.33 C-0.85 201.76, 1 105.2, 0 32 M0 297.33 C-0.13 221.33, 0 145.3, 0 32 M0 32 C0.19 10.13, 8.89 -1.32, 32 0 M0 32 C-1.6 12.47, 11.24 1.76, 32 0" stroke="#1e1e1e" stroke-width="1" fill="none"></path></g><g transform="translate(20.050952514013034 634.9122504393259) rotate(0 39.81996154785156 12.5)"><text x="0" y="0" font-family="Virgil, Segoe UI Emoji" font-size="20px" fill="#1e1e1e" text-anchor="start" style="white-space: pre;" direction="ltr" dominant-baseline="text-before-edge">Agencies</text></g><g stroke-linecap="round" transform="translate(50.1805585757088 265.6443252809363) rotate(0 86.46406205748406 29.850680238078525)"><path d="M14.93 0 M14.93 0 C59.05 1.68, 98.72 0.34, 158 0 M14.93 0 C49.36 -1.58, 84.16 -1.21, 158 0 M158 0 C169.54 -0.48, 172.99 3.83, 172.93 14.93 M158 0 C168.67 -1.41, 171.04 7.18, 172.93 14.93 M172.93 14.93 C172.55 23.29, 174.46 35, 172.93 44.78 M172.93 14.93 C172.33 26.65, 172.34 37.77, 172.93 44.78 M172.93 44.78 C171.08 53.16, 169.38 58.56, 158 59.7 M172.93 44.78 C171.1 52.78, 167.76 61.07, 158 59.7 M158 59.7 C119.57 60.54, 79.51 61.13, 14.93 59.7 M158 59.7 C125.7 60.08, 91.59 59.81, 14.93 59.7 M14.93 59.7 C6.11 60.69, 1.96 55.01, 0 44.78 M14.93 59.7 C3.81 61.2, -1.9 52.93, 0 44.78 M0 44.78 C1.19 33.79, 0.9 25.04, 0 14.93 M0 44.78 C-0.63 33.29, -0.05 22.57, 0 14.93 M0 14.93 C-0.02 6.42, 6.02 1.81, 14.93 0 M0 14.93 C1.08 6.82, 6.09 1.64, 14.93 0" stroke="#1971c2" stroke-width="1" fill="none"></path></g><g transform="translate(109.04465267665 282.99500551901485) rotate(0 27.59996795654297 12.5)"><text x="27.59996795654297" y="0" font-family="Virgil, Segoe UI Emoji" font-size="20px" fill="#f08c00" text-anchor="middle" style="white-space: pre;" direction="ltr" dominant-baseline="text-before-edge">Sabre</text></g><g stroke-linecap="round" transform="translate(55.626360186614875 440.7715645891119) rotate(0 86.46406205748406 29.850680238078496)"><path d="M14.93 0 M14.93 0 C59.1 -1, 107.33 0.5, 158 0 M14.93 0 C53.5 -0.25, 90.51 -0.58, 158 0 M158 0 C168.58 -1.23, 171.28 6.9, 172.93 14.93 M158 0 C168.27 -0.97, 171.9 4.69, 172.93 14.93 M172.93 14.93 C174.94 20.83, 171.31 29.14, 172.93 44.78 M172.93 14.93 C171.9 23.5, 173.54 33.07, 172.93 44.78 M172.93 44.78 C171.34 53.03, 167.79 60.89, 158 59.7 M172.93 44.78 C172.48 55.66, 168.66 61.65, 158 59.7 M158 59.7 C110.8 59.01, 66.18 61.76, 14.93 59.7 M158 59.7 C108.15 60.56, 58.15 60.2, 14.93 59.7 M14.93 59.7 C3.96 61.01, -1.65 53.17, 0 44.78 M14.93 59.7 C5.69 59.39, -1.65 56.05, 0 44.78 M0 44.78 C1.33 39.27, 0.07 29.43, 0 14.93 M0 44.78 C-0.07 37.6, 0.45 29.89, 0 14.93 M0 14.93 C0.94 6.58, 5.94 1.42, 14.93 0 M0 14.93 C0.09 5.32, 5.78 2.23, 14.93 0" stroke="#1971c2" stroke-width="1" fill="none"></path></g><g transform="translate(100.26046618941155 458.12224482719046) rotate(0 41.8299560546875 12.5)"><text x="41.8299560546875" y="0" font-family="Virgil, Segoe UI Emoji" font-size="20px" fill="#f08c00" text-anchor="middle" style="white-space: pre;" direction="ltr" dominant-baseline="text-before-edge">Amadeus</text></g><g stroke-linecap="round" transform="translate(51.85641342312965 353.0532522268859) rotate(0 86.46406205748406 29.850680238078525)"><path d="M14.93 0 M14.93 0 C44.87 0.46, 76.27 1.74, 158 0 M14.93 0 C54.7 0.2, 93.03 1.78, 158 0 M158 0 C168.23 -0.84, 172.03 4.72, 172.93 14.93 M158 0 C166.81 1.91, 174.48 7.01, 172.93 14.93 M172.93 14.93 C172.92 20.83, 171.98 26.31, 172.93 44.78 M172.93 14.93 C172.35 20.7, 173.06 28.75, 172.93 44.78 M172.93 44.78 C172.54 55.54, 168.56 61.39, 158 59.7 M172.93 44.78 C173.39 56.74, 169.1 58.1, 158 59.7 M158 59.7 C126.19 59.76, 92.79 61.8, 14.93 59.7 M158 59.7 C107.47 60.56, 57.13 59.12, 14.93 59.7 M14.93 59.7 C5.6 59.43, -1.43 55.87, 0 44.78 M14.93 59.7 C3.71 60.69, 0.03 56.4, 0 44.78 M0 44.78 C-0.74 33.57, 0.07 21.47, 0 14.93 M0 44.78 C0.32 34.46, 0.33 23.26, 0 14.93 M0 14.93 C0.08 5.27, 5.67 1.94, 14.93 0 M0 14.93 C-1.8 6.09, 4.79 1.39, 14.93 0" stroke="#1971c2" stroke-width="1" fill="none"></path></g><g transform="translate(85.5605343795396 370.40393246496444) rotate(0 52.75994110107422 12.5)"><text x="52.75994110107422" y="0" font-family="Virgil, Segoe UI Emoji" font-size="20px" fill="#f08c00" text-anchor="middle" style="white-space: pre;" direction="ltr" dominant-baseline="text-before-edge">Travelport</text></g><g stroke-linecap="round"><g transform="translate(1712.4873116366487 303.4683832327528) rotate(0 -75.78312744570206 73.12395650380574)"><path d="M1.02 0.12 C-24.49 24.48, -127.19 121.6, -152.58 145.79 M0.09 -0.87 C-25.09 23.7, -125.06 122.62, -150.41 147.12" stroke="#1e1e1e" stroke-width="1" fill="none"></path></g><g transform="translate(1712.4873116366487 303.4683832327528) rotate(0 -75.78312744570206 73.12395650380574)"><path d="M-137.25 118.36 C-142.57 129.67, -147.79 138.63, -151.63 145.96 M-137 119.46 C-139.47 127.06, -142.78 132.67, -149.86 147.91" stroke="#1e1e1e" stroke-width="1" fill="none"></path></g><g transform="translate(1712.4873116366487 303.4683832327528) rotate(0 -75.78312744570206 73.12395650380574)"><path d="M-122.89 133.02 C-132.99 139.52, -143.04 143.55, -151.63 145.96 M-122.64 134.12 C-128.43 138.29, -135.05 140.51, -149.86 147.91" stroke="#1e1e1e" stroke-width="1" fill="none"></path></g></g><mask></mask><g stroke-linecap="round" transform="translate(1654.8347777525582 734.4017023245491) rotate(0 98 30)"><path d="M15 0 M15 0 C64.81 -1.89, 115.54 1.65, 181 0 M15 0 C78.07 -2.25, 141.3 -1.09, 181 0 M181 0 C189.95 -1.71, 195.37 4.45, 196 15 M181 0 C191.68 1.58, 195.54 5.49, 196 15 M196 15 C196.58 24.3, 194.83 33.66, 196 45 M196 15 C195.26 24.74, 196.38 35.43, 196 45 M196 45 C197.1 53.05, 190.12 58.64, 181 60 M196 45 C198.13 52.72, 191.22 60.03, 181 60 M181 60 C140.18 60.43, 96.92 59.29, 15 60 M181 60 C139.74 59.99, 95.93 59.48, 15 60 M15 60 C3.35 60.34, 1.8 56.66, 0 45 M15 60 C6.75 59.18, -2.24 55.93, 0 45 M0 45 C-1.38 32.67, 1.84 25.32, 0 15 M0 45 C-0.35 37.61, -1.21 29.15, 0 15 M0 15 C-0.51 5.9, 3.42 0.43, 15 0 M0 15 C-2.24 5.04, 5.4 -0.83, 15 0" stroke="#1e1e1e" stroke-width="1" fill="none"></path></g><g transform="translate(1660.9448775450387 751.9017023245493) rotate(0 91.88990020751953 12.5)"><text x="91.88990020751953" y="0" font-family="Virgil, Segoe UI Emoji" font-size="20px" fill="#1e1e1e" text-anchor="middle" style="white-space: pre;" direction="ltr" dominant-baseline="text-before-edge">Analytics exporting</text></g><g stroke-linecap="round"><g transform="translate(1793.2268778911787 298.19614123684016) rotate(0 20.36011422682364 215.60549255124468)"><path d="M0.33 0.39 C7.2 72.49, 34.85 359.96, 41.67 431.67 M-0.95 -0.46 C5.77 71.4, 34.07 357.92, 40.99 429.96" stroke="#1e1e1e" stroke-width="1" fill="none"></path></g><g transform="translate(1793.2268778911787 298.19614123684016) rotate(0 20.36011422682364 215.60549255124468)"><path d="M28.68 403.75 C33.52 412.18, 36.16 422.23, 39.82 429.79 M27.31 403.68 C32.02 412.25, 36.05 420.37, 40.66 429.46" stroke="#1e1e1e" stroke-width="1" fill="none"></path></g><g transform="translate(1793.2268778911787 298.19614123684016) rotate(0 20.36011422682364 215.60549255124468)"><path d="M49.11 401.75 C47.03 410.92, 42.79 421.64, 39.82 429.79 M47.73 401.69 C45.53 410.92, 42.64 419.72, 40.66 429.46" stroke="#1e1e1e" stroke-width="1" fill="none"></path></g></g><mask></mask><g stroke-linecap="round"><g transform="translate(138.2609556281925 624.2298026879629) rotate(0 -2.0300338978107675 -36.01412994163542)"><path d="M0.1 -0.91 C-0.48 -13.24, -2.71 -61.43, -3.1 -73.26 M-1.31 1.23 C-2.1 -11.05, -3.93 -60.35, -4.16 -72.28" stroke="#1e1e1e" stroke-width="1" fill="none"></path></g><g transform="translate(138.2609556281925 624.2298026879629) rotate(0 -2.0300338978107675 -36.01412994163542)"><path d="M5.43 -44.75 C1.31 -52.58, -0.03 -63.41, -3.5 -71.33 M6.22 -45.4 C4.86 -50.28, 1.41 -57.03, -3.69 -71.39" stroke="#1e1e1e" stroke-width="1" fill="none"></path></g><g transform="translate(138.2609556281925 624.2298026879629) rotate(0 -2.0300338978107675 -36.01412994163542)"><path d="M-15.08 -44.13 C-12.4 -52.18, -6.94 -63.22, -3.5 -71.33 M-14.29 -44.79 C-10.7 -49.69, -9.21 -56.59, -3.69 -71.39" stroke="#1e1e1e" stroke-width="1" fill="none"></path></g></g><mask></mask><g stroke-linecap="round" transform="translate(734.7877308527626 10) rotate(0 268.0000305175781 40)"><path d="M20 0 M20 0 C175.82 -1.09, 331.03 -1.24, 516 0 M20 0 C208.3 1.89, 396.76 1.31, 516 0 M516 0 C527.97 -1.13, 535.16 5.11, 536 20 M516 0 C527.2 -1.35, 535.98 8.13, 536 20 M536 20 C537.37 32.36, 535.94 42.09, 536 60 M536 20 C536.96 29.77, 535.69 40.56, 536 60 M536 60 C536.39 72.86, 530.24 81.02, 516 80 M536 60 C537.86 71.4, 528.53 81.87, 516 80 M516 80 C362.25 80.96, 209.27 81.18, 20 80 M516 80 C358.31 79.69, 200.64 79.69, 20 80 M20 80 C5.77 78.14, 0.73 73.18, 0 60 M20 80 C5.98 80.39, 0.06 72.25, 0 60 M0 60 C0.53 47.48, 0.1 32.9, 0 20 M0 60 C0.79 46.71, 0.51 35.38, 0 20 M0 20 C2 7.46, 5.21 -1.31, 20 0 M0 20 C1.59 7.91, 5.88 1.02, 20 0" stroke="#1e1e1e" stroke-width="1" fill="none"></path></g><g transform="translate(941.9778324762977 37.5) rotate(0 60.80992889404297 12.5)"><text x="60.80992889404297" y="0" font-family="Virgil, Segoe UI Emoji" font-size="20px" fill="#1e1e1e" text-anchor="middle" style="white-space: pre;" direction="ltr" dominant-baseline="text-before-edge">Social Media</text></g><g stroke-linecap="round"><g transform="translate(989.58408225075 203.59996032714847) rotate(0 -0.3149071800205263 -55.999426524341104)"><path d="M-0.62 0.61 C-0.76 -18.22, -0.97 -93.89, -1.33 -112.61 M1.26 -0.11 C1.06 -18.77, -1.63 -92.16, -1.89 -111.08" stroke="#1e1e1e" stroke-width="1" fill="none"></path></g><g transform="translate(989.58408225075 203.59996032714847) rotate(0 -0.3149071800205263 -55.999426524341104)"><path d="M10.13 -81.92 C6.14 -91.67, 4.74 -99.36, -2.29 -112.64 M8.28 -83.39 C6.07 -92.84, 0.7 -102.77, -1.75 -110.59" stroke="#1e1e1e" stroke-width="1" fill="none"></path></g><g transform="translate(989.58408225075 203.59996032714847) rotate(0 -0.3149071800205263 -55.999426524341104)"><path d="M-10.39 -81.38 C-9.02 -91.17, -5.07 -99, -2.29 -112.64 M-12.24 -82.85 C-7.27 -92.38, -5.47 -102.5, -1.75 -110.59" stroke="#1e1e1e" stroke-width="1" fill="none"></path></g></g><mask></mask><g stroke-linecap="round" transform="translate(1414.4544280370073 1072.3332977294924) rotate(0 268.0000305175781 40)"><path d="M20 0 M20 0 C211.62 -1.49, 404.98 -1.57, 516 0 M20 0 C190.59 -0.75, 361.74 -0.28, 516 0 M516 0 C530.47 1.69, 537.43 8.1, 536 20 M516 0 C530.86 2.01, 537.22 4.61, 536 20 M536 20 C535.05 29.68, 537.64 41.07, 536 60 M536 20 C535.69 31.08, 535.1 43.88, 536 60 M536 60 C537.74 72.65, 528.89 78.7, 516 80 M536 60 C537.09 73.06, 528.35 82, 516 80 M516 80 C415.62 78.56, 315.93 78.92, 20 80 M516 80 C366.79 80.25, 218.42 80.19, 20 80 M20 80 C5.5 80.99, -0.54 74.57, 0 60 M20 80 C6.26 79.04, 2.11 74.97, 0 60 M0 60 C-0.84 49.97, -0.66 35.11, 0 20 M0 60 C0.99 47.67, 1.04 34.63, 0 20 M0 20 C-0.5 8.29, 8.57 1.93, 20 0 M0 20 C-1.63 6.74, 8.34 2.08, 20 0" stroke="#1e1e1e" stroke-width="1" fill="none"></path></g><g transform="translate(1617.6545394261675 1099.8332977294924) rotate(0 64.79991912841797 12.5)"><text x="64.79991912841797" y="0" font-family="Virgil, Segoe UI Emoji" font-size="20px" fill="#1e1e1e" text-anchor="middle" style="white-space: pre;" direction="ltr" dominant-baseline="text-before-edge">Third parties</text></g><g stroke-linecap="round"><g transform="translate(1740.2699204234902 798.9473826090494) rotate(0 -6.2657434414904 135.51379600141354)"><path d="M-1.07 -0.88 C-2.99 44.09, -10.6 224.95, -12.56 270.29 M0.56 1.27 C-1.35 46.41, -10.77 227.23, -13.09 271.91" stroke="#1e1e1e" stroke-width="1" fill="none"></path></g><g transform="translate(1740.2699204234902 798.9473826090494) rotate(0 -6.2657434414904 135.51379600141354)"><path d="M-23.35 244.55 C-19.64 250.22, -16.36 255.12, -14.41 272.57 M-21.02 244.1 C-18.94 254.04, -16.05 263.52, -12.78 271.6" stroke="#1e1e1e" stroke-width="1" fill="none"></path></g><g transform="translate(1740.2699204234902 798.9473826090494) rotate(0 -6.2657434414904 135.51379600141354)"><path d="M-2.86 245.62 C-3.5 250.88, -4.56 255.55, -14.41 272.57 M-0.53 245.16 C-5.73 254.57, -10.11 263.67, -12.78 271.6" stroke="#1e1e1e" stroke-width="1" fill="none"></path></g></g><mask></mask><g mask="url(#mask-yynP2NeydIM20IrCbSF4Y)" stroke-linecap="round"><g transform="translate(1637.1526800791419 252.71154386666606) rotate(0 -624.5704103474814 -91.58488378375395)"><path d="M0.74 0.01 C-207.57 -30.68, -1041.65 -152.57, -1249.88 -183.18 M-0.32 -1.02 C-208.26 -31.6, -1039.45 -151.39, -1247.6 -181.66" stroke="#1e1e1e" stroke-width="1" fill="none"></path></g><g transform="translate(1637.1526800791419 252.71154386666606) rotate(0 -624.5704103474814 -91.58488378375395)"><path d="M-1218.21 -189.13 C-1227.08 -185.04, -1236.75 -184.86, -1249.54 -182.95 M-1218.77 -188.5 C-1228.81 -185.47, -1240.43 -182.74, -1246.78 -182.47" stroke="#1e1e1e" stroke-width="1" fill="none"></path></g><g transform="translate(1637.1526800791419 252.71154386666606) rotate(0 -624.5704103474814 -91.58488378375395)"><path d="M-1221.15 -168.82 C-1229.3 -170.88, -1238.07 -176.83, -1249.54 -182.95 M-1221.71 -168.2 C-1230.68 -172.83, -1241.2 -177.78, -1246.78 -182.47" stroke="#1e1e1e" stroke-width="1" fill="none"></path></g></g><mask id="mask-yynP2NeydIM20IrCbSF4Y"><rect x="0" y="0" fill="#fff" width="2986.22458966573" height="535.8731990840678"></rect><rect x="948.5067857106524" y="148.63071625796516" fill="#000" width="128.21987915039062" height="25" opacity="1"></rect></mask><g transform="translate(948.5067857106525 148.63071625796522) rotate(0 64.07548402100804 12.49594382494692)"><text x="64.10993957519531" y="0" font-family="Virgil, Segoe UI Emoji" font-size="20px" fill="#1e1e1e" text-anchor="middle" style="white-space: pre;" direction="ltr" dominant-baseline="text-before-edge">Yearly report</text></g><g stroke-linecap="round"><g transform="translate(853.1193423280577 258.14418021546567) rotate(0 15.715557833407388 26.040228927767345)"><path d="M-0.77 0.43 C4.43 9.35, 27.03 43.92, 32.2 52.48 M1.03 -0.4 C6.09 8.27, 26.6 41.79, 31.88 50.69" stroke="#1e1e1e" stroke-width="1" fill="none"></path></g><g transform="translate(853.1193423280577 258.14418021546567) rotate(0 15.715557833407388 26.040228927767345)"><path d="M9.24 33.83 C18.37 37.88, 26.1 46.34, 33.65 49.24 M7.74 31.66 C13.89 35.43, 18.51 39.35, 32.7 51.45" stroke="#1e1e1e" stroke-width="1" fill="none"></path></g><g transform="translate(853.1193423280577 258.14418021546567) rotate(0 15.715557833407388 26.040228927767345)"><path d="M26.82 23.24 C29.12 31.24, 30.11 43.76, 33.65 49.24 M25.32 21.06 C27.88 26.99, 28.98 33.03, 32.7 51.45" stroke="#1e1e1e" stroke-width="1" fill="none"></path></g></g><mask></mask><g stroke-linecap="round" transform="translate(448.0965479214984 793.2717201709748) rotate(0 98 30)"><path d="M15 0 M15 0 C56.49 3.03, 100.82 2.65, 181 0 M15 0 C79.5 -0.79, 142.61 -2.33, 181 0 M181 0 C191.85 0.59, 194.61 5.06, 196 15 M181 0 C189.34 0.01, 193.72 5.42, 196 15 M196 15 C196.32 21.88, 196.66 29.31, 196 45 M196 15 C196.52 23.44, 196.64 31.83, 196 45 M196 45 C196 55.74, 189.88 61.64, 181 60 M196 45 C194.85 55.64, 191.33 60.2, 181 60 M181 60 C138.48 60.87, 98.15 60.49, 15 60 M181 60 C131.43 59.99, 82.9 60.47, 15 60 M15 60 C4.56 59.45, -1.22 55.59, 0 45 M15 60 C2.87 60.63, -0.01 56.12, 0 45 M0 45 C-0.53 36.9, 1.27 33.13, 0 15 M0 45 C0.64 36.32, 0.04 29.39, 0 15 M0 15 C-0.89 4.3, 3.84 0.91, 15 0 M0 15 C-1.44 5.15, 4.24 2.12, 15 0" stroke="#1e1e1e" stroke-width="1" fill="none"></path></g><g transform="translate(457.666639169057 810.7717201709748) rotate(0 88.4299087524414 12.5)"><text x="88.4299087524414" y="0" font-family="Virgil, Segoe UI Emoji" font-size="20px" fill="#1e1e1e" text-anchor="middle" style="white-space: pre;" direction="ltr" dominant-baseline="text-before-edge">Agency integration</text></g><g stroke-linecap="round" transform="translate(437.07703701655066 645.4649930795034) rotate(0 98 30)"><path d="M15 0 M15 0 C53.36 -2.32, 91.39 0.5, 181 0 M15 0 C67 -0.5, 119.07 -0.38, 181 0 M181 0 C192.1 1.2, 194.18 6.2, 196 15 M181 0 C192.69 1.65, 197.58 7.12, 196 15 M196 15 C197.23 25.96, 195.89 35.41, 196 45 M196 15 C196.3 25.8, 196.7 36.69, 196 45 M196 45 C196.13 53.49, 192.13 58.46, 181 60 M196 45 C197.22 53.37, 191.32 61.63, 181 60 M181 60 C124.49 60.69, 68.85 60.12, 15 60 M181 60 C139.82 58.78, 98.95 58.18, 15 60 M15 60 C3.74 59.63, -0.13 55.42, 0 45 M15 60 C4.57 61.3, 0.69 53.56, 0 45 M0 45 C-0.7 35, 0.65 28.41, 0 15 M0 45 C-0.3 37.69, 0.59 30.71, 0 15 M0 15 C0.99 3.1, 6.12 1.48, 15 0 M0 15 C1.52 6.98, 3.44 2.22, 15 0" stroke="#1e1e1e" stroke-width="1" fill="none"></path></g><g transform="translate(456.29712216059363 662.9649930795034) rotate(0 78.77991485595703 12.5)"><text x="78.77991485595703" y="0" font-family="Virgil, Segoe UI Emoji" font-size="20px" fill="#1e1e1e" text-anchor="middle" style="white-space: pre;" direction="ltr" dominant-baseline="text-before-edge">GDS integration</text></g><g stroke-linecap="round" transform="translate(1011.5892864005112 660.4174936567969) rotate(0 86 17.5)"><path d="M8.75 0 M8.75 0 C54.83 2.25, 102.51 0.6, 163.25 0 M8.75 0 C43.17 -1.85, 78.03 -0.54, 163.25 0 M163.25 0 C168.34 1.91, 170.85 4.88, 172 8.75 M163.25 0 C169.48 -0.71, 170.87 3.8, 172 8.75 M172 8.75 C172.12 12.83, 172.48 18.22, 172 26.25 M172 8.75 C172.75 12.15, 171.68 16.44, 172 26.25 M172 26.25 C171.96 31.55, 170.96 35.77, 163.25 35 M172 26.25 C171.69 33.09, 168.71 36, 163.25 35 M163.25 35 C109.32 34.34, 57.57 37.58, 8.75 35 M163.25 35 C120.12 35.15, 76.31 35.05, 8.75 35 M8.75 35 C3.04 33.02, -1.75 32.44, 0 26.25 M8.75 35 C4.02 34.34, 1.23 30.98, 0 26.25 M0 26.25 C0.94 20.86, -0.31 16.04, 0 8.75 M0 26.25 C-0.69 21.05, 0.11 15.84, 0 8.75 M0 8.75 C-0.11 2.41, 2.23 1.8, 8.75 0 M0 8.75 C-0.18 0.65, 3.73 -1.22, 8.75 0" stroke="#2f9e44" stroke-width="1" fill="none"></path></g><g transform="translate(1035.0211482779528 667.9174936567969) rotate(0 62.568138122558594 10)"><text x="62.568138122558594" y="0" font-family="Virgil, Segoe UI Emoji" font-size="16px" fill="#2f9e44" text-anchor="middle" style="white-space: pre;" direction="ltr" dominant-baseline="text-before-edge">Booking archiver</text></g><g transform="translate(425.7495891869685 220.51650009006886) rotate(0 130.30862280721306 11.9236960834032)"><text x="130.39990234375" y="0" font-family="Virgil, Segoe UI Emoji" font-size="20px" fill="#1e1e1e" text-anchor="middle" style="white-space: pre;" direction="ltr" dominant-baseline="text-before-edge">1uc 1. User add booking ID</text></g><g stroke-linecap="round" transform="translate(1007.0736427292661 589.1317930795313) rotate(0 127.71456909179688 54.469154357910156)"><path d="M27.23 0 M27.23 0 C77.75 -5.23, 119.58 -3.3, 228.19 0 M27.23 0 C104.6 -4.29, 180.07 -1.51, 228.19 0 M228.19 0 C244.18 3.18, 258.59 7.61, 255.43 27.23 M228.19 0 C247.46 -0.19, 259.68 5.63, 255.43 27.23 M255.43 27.23 C255.45 45.89, 255.22 59.76, 255.43 81.7 M255.43 27.23 C256.63 43.62, 254.21 56.94, 255.43 81.7 M255.43 81.7 C254.33 102.76, 243.35 111.73, 228.19 108.94 M255.43 81.7 C257.04 100.94, 244.39 110.67, 228.19 108.94 M228.19 108.94 C172.46 110.32, 113.13 108.53, 27.23 108.94 M228.19 108.94 C169.86 113.21, 111.45 111.92, 27.23 108.94 M27.23 108.94 C6.4 105.48, 0.47 95.93, 0 81.7 M27.23 108.94 C7.9 107.68, 0.93 99.26, 0 81.7 M0 81.7 C0.41 63.08, -3.85 47.59, 0 27.23 M0 81.7 C-2.09 58.94, -1.6 39.35, 0 27.23 M0 27.23 C-1.15 8.55, 12.15 -2.01, 27.23 0 M0 27.23 C-1.19 10.95, 9.37 3.5, 27.23 0" stroke="#f08c00" stroke-width="4" fill="none"></path></g><g transform="translate(1098.5082435593442 618.6009474374415) rotate(0 36.27996826171875 25)"><text x="36.27996826171875" y="0" font-family="Virgil, Segoe UI Emoji" font-size="20px" fill="#f08c00" text-anchor="middle" style="white-space: pre;" direction="ltr" dominant-baseline="text-before-edge">booking</text><text x="36.27996826171875" y="25" font-family="Virgil, Segoe UI Emoji" font-size="20px" fill="#f08c00" text-anchor="middle" style="white-space: pre;" direction="ltr" dominant-baseline="text-before-edge">tracker</text></g><g stroke-linecap="round"><g transform="translate(996.1417808518245 370.97420397568317) rotate(0 149.06921503469334 29.323498878786353)"><path d="M-1.08 0.33 C48.75 10.04, 249.22 48.53, 299.22 58.19 M0.56 -0.55 C50.21 9.29, 248.71 49.26, 298.28 59.19" stroke="#1e1e1e" stroke-width="1" fill="none"></path></g><g transform="translate(996.1417808518245 370.97420397568317) rotate(0 149.06921503469334 29.323498878786353)"><path d="M269.16 63.73 C276.4 61.99, 285.96 61.86, 298.52 57.42 M269.14 64.62 C277.25 62.1, 285.82 61.34, 297.3 59.69" stroke="#1e1e1e" stroke-width="1" fill="none"></path></g><g transform="translate(996.1417808518245 370.97420397568317) rotate(0 149.06921503469334 29.323498878786353)"><path d="M273.2 43.61 C279.14 48.26, 287.41 54.55, 298.52 57.42 M273.18 44.5 C280.03 48.04, 287.39 53.33, 297.3 59.69" stroke="#1e1e1e" stroke-width="1" fill="none"></path></g></g><mask></mask><g stroke-linecap="round"><g transform="translate(993.3998279323522 670.8314163152073) rotate(0 -145.18957749519836 22.333619918316572)"><path d="M-2.74 0.12 C-51.45 8.32, -243.98 39.69, -291.34 46.95 M0.96 -2.28 C-46.93 5.4, -237.93 35.21, -285.99 43.32" stroke="#e03131" stroke-width="4" fill="none"></path></g><g transform="translate(993.3998279323522 670.8314163152073) rotate(0 -145.18957749519836 22.333619918316572)"><path d="M-259.62 25.92 C-265.05 36.56, -278.42 37.24, -288.09 44.75 M-261.41 29.88 C-267.21 32.26, -271.73 36.27, -286.49 43.24" stroke="#e03131" stroke-width="4" fill="none"></path></g><g transform="translate(993.3998279323522 670.8314163152073) rotate(0 -145.18957749519836 22.333619918316572)"><path d="M-256.35 46.18 C-262.54 50.04, -276.99 44.02, -288.09 44.75 M-258.14 50.13 C-264.87 47.66, -270.18 46.78, -286.49 43.24" stroke="#e03131" stroke-width="4" fill="none"></path></g></g><mask></mask><g stroke-linecap="round"><g transform="translate(971.8831771213404 428.5742405967769) rotate(0 -133.7407490865824 142.431633989482)"><path d="M-0.23 1.2 C-44.84 48.34, -221.97 235.59, -266.52 282.6 M-1.82 0.78 C-46.64 48.15, -222.78 237.34, -267.25 284.08" stroke="#2f9e44" stroke-width="4" fill="none"></path></g><g transform="translate(971.8831771213404 428.5742405967769) rotate(0 -133.7407490865824 142.431633989482)"><path d="M-253.42 257.21 C-260.3 266.28, -263.81 276.95, -266.23 285.89 M-254.91 256.66 C-257.06 262.37, -260.62 269, -267.79 283.16" stroke="#2f9e44" stroke-width="4" fill="none"></path></g><g transform="translate(971.8831771213404 428.5742405967769) rotate(0 -133.7407490865824 142.431633989482)"><path d="M-238.46 271.27 C-251.19 274.79, -260.56 279.94, -266.23 285.89 M-239.96 270.72 C-245.66 273.08, -252.68 276.46, -267.79 283.16" stroke="#2f9e44" stroke-width="4" fill="none"></path></g></g><mask></mask><g mask="url(#mask-xcQtvajqDBAQEHlbme_Fm)" stroke-linecap="round"><g transform="translate(1087.5466329632359 585.8392508096149) rotate(0 -106.60478809826542 -80.41656001731747)"><path d="M0.65 -0.45 C-34.74 -27.12, -177.12 -133.75, -212.87 -160.38 M-0.47 -1.74 C-35.98 -28.21, -178.68 -132.83, -213.86 -159.04" stroke="#2f9e44" stroke-width="4" fill="none"></path></g><g transform="translate(1087.5466329632359 585.8392508096149) rotate(0 -106.60478809826542 -80.41656001731747)"><path d="M-185.84 -150.67 C-193 -154.33, -200.03 -152.75, -212.2 -159.56 M-185.94 -149.78 C-192.97 -153.06, -199.95 -155.33, -213.34 -159.1" stroke="#2f9e44" stroke-width="4" fill="none"></path></g><g transform="translate(1087.5466329632359 585.8392508096149) rotate(0 -106.60478809826542 -80.41656001731747)"><path d="M-198.03 -134.16 C-202.05 -142.08, -205.97 -144.7, -212.2 -159.56 M-198.13 -133.27 C-202.07 -140.92, -205.87 -147.49, -213.34 -159.1" stroke="#2f9e44" stroke-width="4" fill="none"></path></g></g><mask id="mask-xcQtvajqDBAQEHlbme_Fm"><rect x="0" y="0" fill="#fff" width="1400.3466817913609" height="845.8392508096148"></rect><rect x="903.7267019329624" y="493.339250809615" fill="#000" width="154.83981323242188" height="25" opacity="1"></rect></mask><g transform="translate(903.7267019329624 493.3392508096151) rotate(0 77.21514293200802 12.083439982682421)"><text x="77.41990661621094" y="0" font-family="Virgil, Segoe UI Emoji" font-size="20px" fill="#2f9e44" text-anchor="middle" style="white-space: pre;" direction="ltr" dominant-baseline="text-before-edge">booking updates</text></g><g stroke-linecap="round" transform="translate(881.1466085491734 782.6391775674274) rotate(0 151.20001220703125 38.4000244140625)"><path d="M19.2 0 M19.2 0 C83.47 2.69, 148.09 1.95, 283.2 0 M19.2 0 C94.49 2, 168.55 2.21, 283.2 0 M283.2 0 C295.3 -1.13, 303.19 7.47, 302.4 19.2 M283.2 0 C296.09 1.4, 304 5.77, 302.4 19.2 M302.4 19.2 C301.68 29.31, 301.58 39.07, 302.4 57.6 M302.4 19.2 C302.15 32.73, 302.03 45.22, 302.4 57.6 M302.4 57.6 C301.36 70.83, 294.02 78.26, 283.2 76.8 M302.4 57.6 C301.84 70.61, 294.44 78.9, 283.2 76.8 M283.2 76.8 C179.56 77.73, 75.1 80.03, 19.2 76.8 M283.2 76.8 C226.54 77.11, 169.46 77.46, 19.2 76.8 M19.2 76.8 C8.39 78.72, 1.47 70.89, 0 57.6 M19.2 76.8 C7.35 74.9, -0.14 68.32, 0 57.6 M0 57.6 C-1.68 48.21, 1.35 41.94, 0 19.2 M0 57.6 C0.49 49.05, 0.54 39.78, 0 19.2 M0 19.2 C1.11 7.79, 4.67 1.31, 19.2 0 M0 19.2 C-0.59 6.54, 4.99 -1.91, 19.2 0" stroke="#2f9e44" stroke-width="4" fill="none"></path></g><g transform="translate(958.3867132244663 808.5392019814899) rotate(0 73.95990753173828 12.5)"><text x="73.95990753173828" y="0" font-family="Virgil, Segoe UI Emoji" font-size="20px" fill="#2f9e44" text-anchor="middle" style="white-space: pre;" direction="ltr" dominant-baseline="text-before-edge">update notifier</text></g><g stroke-linecap="round"><g transform="translate(1114.7465841351109 701.0392630166461) rotate(0 -14.266120588034383 36.514622091501906)"><path d="M-0.17 -0.78 C-4.98 11.49, -23.93 61.48, -28.36 73.81 M-1.72 1.42 C-6.22 13.29, -21.99 59.66, -26.25 71.8" stroke="#2f9e44" stroke-width="4" fill="none"></path></g><g transform="translate(1114.7465841351109 701.0392630166461) rotate(0 -14.266120588034383 36.514622091501906)"><path d="M-28.05 39.88 C-26.18 52.72, -27.06 61.01, -24.71 72.26 M-27.3 42.19 C-26.39 51.08, -26.93 60.79, -26.86 71.23" stroke="#2f9e44" stroke-width="4" fill="none"></path></g><g transform="translate(1114.7465841351109 701.0392630166461) rotate(0 -14.266120588034383 36.514622091501906)"><path d="M-8.66 46.58 C-13.38 57.12, -20.84 63.13, -24.71 72.26 M-7.91 48.9 C-13.12 55.62, -19.73 63.23, -26.86 71.23" stroke="#2f9e44" stroke-width="4" fill="none"></path></g></g><mask></mask><g stroke-linecap="round"><g transform="translate(874.7465841351108 829.7596979670285) rotate(0 -325.6505287081633 -371.53091303884634)"><path d="M0.29 -1.11 C-108.28 -124.94, -541.91 -618.66, -650.51 -742.18 M-1.01 0.92 C-109.85 -123.33, -543.61 -619.79, -651.59 -743.98" stroke="#2f9e44" stroke-width="4" fill="none"></path></g><g transform="translate(874.7465841351108 829.7596979670285) rotate(0 -325.6505287081633 -371.53091303884634)"><path d="M-627.18 -729.92 C-634.34 -736.61, -644.3 -739.15, -653.46 -743.41 M-625.51 -729.9 C-633.93 -734.79, -645.15 -740.82, -651.74 -743.67" stroke="#2f9e44" stroke-width="4" fill="none"></path></g><g transform="translate(874.7465841351108 829.7596979670285) rotate(0 -325.6505287081633 -371.53091303884634)"><path d="M-642.65 -716.43 C-644.06 -728.24, -648.2 -735.87, -653.46 -743.41 M-640.97 -716.42 C-643.68 -726.14, -649.26 -737.09, -651.74 -743.67" stroke="#2f9e44" stroke-width="4" fill="none"></path></g></g><mask></mask><g stroke-linecap="round" transform="translate(1588.079917468444 173.83924063708898) rotate(0 135.33333333333337 330.40002441406244)"><path d="M32 0 M32 0 C84.29 -3.22, 133.42 -1.18, 238.67 0 M32 0 C105.66 -0.45, 178.76 0.79, 238.67 0 M238.67 0 C261.73 -0.44, 269.16 9.32, 270.67 32 M238.67 0 C259.48 -1.09, 271.41 8.84, 270.67 32 M270.67 32 C270.05 177.46, 270.08 322.58, 270.67 628.8 M270.67 32 C271.06 241.83, 270.7 451.46, 270.67 628.8 M270.67 628.8 C269.13 648.68, 261.01 661.77, 238.67 660.8 M270.67 628.8 C272.38 651.4, 258.01 660.89, 238.67 660.8 M238.67 660.8 C178.56 658.88, 117.39 659.15, 32 660.8 M238.67 660.8 C170.61 660.82, 101.02 659.7, 32 660.8 M32 660.8 C9.33 660.67, 0.34 648.5, 0 628.8 M32 660.8 C8.7 659.64, -1.03 648.63, 0 628.8 M0 628.8 C-2.57 438.54, -1.32 246.83, 0 32 M0 628.8 C-0.87 427.27, -0.95 224.99, 0 32 M0 32 C-0.31 11.75, 9.57 0.92, 32 0 M0 32 C-0.79 9.97, 12.22 1.93, 32 0" stroke="#1971c2" stroke-width="4" fill="none"></path></g><g transform="translate(1616.7465841351107 197.83925080961498) rotate(0 75.40995025634766 12.5)"><text x="0" y="0" font-family="Virgil, Segoe UI Emoji" font-size="20px" fill="#1971c2" text-anchor="start" style="white-space: pre;" direction="ltr" dominant-baseline="text-before-edge">Data analytics</text></g></svg>