<svg version="1.1" xmlns="http://www.w3.org/2000/svg" viewBox="0 0 1844.5257320875255 726.2416756176157" width="1844.5257320875255" height="726.2416756176157">
  <!-- svg-source:excalidraw -->
  
  <defs>
    <style class="style-fonts">
      @font-face {
        font-family: "Virgil";
        src: url("https://excalidraw.com/Virgil.woff2");
      }
      @font-face {
        font-family: "Cascadia";
        src: url("https://excalidraw.com/Cascadia.woff2");
      }
    </style>
    
  </defs>
  <rect x="0" y="0" width="1844.5257320875255" height="726.2416756176157" fill="#ffffff"></rect><g stroke-linecap="round" transform="translate(49.865048909417794 18.583243823845343) rotate(0 90.61976369495167 37.15789473684211)"><path d="M18.58 0 M18.58 0 C58.17 -2.28, 97.24 -0.04, 162.66 0 M18.58 0 C62.79 0.63, 105.13 0.84, 162.66 0 M162.66 0 C173.09 0.39, 180.85 7.13, 181.24 18.58 M162.66 0 C173.2 -0.29, 181.28 4.43, 181.24 18.58 M181.24 18.58 C179.96 27.78, 181.56 36.85, 181.24 55.74 M181.24 18.58 C181.66 27.1, 181.15 35.48, 181.24 55.74 M181.24 55.74 C181.88 66.44, 176.16 74.46, 162.66 74.32 M181.24 55.74 C180.7 67.9, 173.68 72.18, 162.66 74.32 M162.66 74.32 C109.06 72.78, 53.42 75.96, 18.58 74.32 M162.66 74.32 C127.21 75.65, 93.6 76.05, 18.58 74.32 M18.58 74.32 C4.36 73.42, -0.48 66.42, 0 55.74 M18.58 74.32 C7.01 76.49, 0.17 66.61, 0 55.74 M0 55.74 C-1.99 43.66, 1.26 32.54, 0 18.58 M0 55.74 C-0.03 45.04, 0.41 35.29, 0 18.58 M0 18.58 C-1.81 7.61, 7.89 1.48, 18.58 0 M0 18.58 C-2.09 4.36, 8.2 -0.23, 18.58 0" stroke="#2f9e44" stroke-width="1" fill="none"></path></g><g transform="translate(116.77091489929134 42.470461868958125) rotate(0 23.713897705078125 13.270676691729324)"><text x="23.713897705078125" y="0" font-family="Virgil, Segoe UI Emoji" font-size="21.23308270676692px" fill="#2f9e44" text-anchor="middle" style="white-space: pre;" direction="ltr" dominant-baseline="text-before-edge">User</text></g><g stroke-linecap="round" transform="translate(383.90693934980453 14.033297529538187) rotate(0 90.61976369495167 37.15789473684211)"><path d="M18.58 0 M18.58 0 C52.17 1.44, 84.98 -0.46, 162.66 0 M18.58 0 C63.12 0.22, 108.23 0.11, 162.66 0 M162.66 0 C175.51 1.79, 180.34 6.45, 181.24 18.58 M162.66 0 C175.3 -2.06, 182.82 6.02, 181.24 18.58 M181.24 18.58 C183.06 29.4, 180.55 40.15, 181.24 55.74 M181.24 18.58 C182 28.98, 181.91 37.99, 181.24 55.74 M181.24 55.74 C182.01 69.1, 173.67 74.85, 162.66 74.32 M181.24 55.74 C183.25 67.27, 174.08 75.83, 162.66 74.32 M162.66 74.32 C117.59 75.16, 72.48 76.51, 18.58 74.32 M162.66 74.32 C116.62 75.54, 71.6 75.62, 18.58 74.32 M18.58 74.32 C7.71 74.75, 1.5 69.08, 0 55.74 M18.58 74.32 C7.08 72.27, 0.02 67.23, 0 55.74 M0 55.74 C1.47 45.97, -0.07 37.01, 0 18.58 M0 55.74 C-0.88 42.2, -0.71 29.47, 0 18.58 M0 18.58 C0.01 6.19, 7.21 -0.93, 18.58 0 M0 18.58 C-1.57 5.43, 5.53 -0.72, 18.58 0" stroke="#1971c2" stroke-width="1" fill="none"></path></g><g transform="translate(438.8072435110648 37.92051557465097) rotate(0 35.719459533691406 13.270676691729324)"><text x="35.719459533691406" y="0" font-family="Virgil, Segoe UI Emoji" font-size="21.23308270676692px" fill="#1971c2" text-anchor="middle" style="white-space: pre;" direction="ltr" dominant-baseline="text-before-edge">System</text></g><g stroke-linecap="round" transform="translate(808.5685934851429 10.241675617615513) rotate(0 90.61976369495164 37.15789473684211)"><path d="M18.58 0 M18.58 0 C51.84 -0.96, 82.44 -1.54, 162.66 0 M18.58 0 C50.35 -1.9, 84.48 -0.84, 162.66 0 M162.66 0 C173.25 0.82, 181.3 6.25, 181.24 18.58 M162.66 0 C176.63 1.82, 183.1 8.11, 181.24 18.58 M181.24 18.58 C179.98 27.44, 180.29 37.43, 181.24 55.74 M181.24 18.58 C181.57 26.42, 181.95 34.07, 181.24 55.74 M181.24 55.74 C182.74 66.52, 175.82 74.74, 162.66 74.32 M181.24 55.74 C182.99 66.7, 175.61 75.95, 162.66 74.32 M162.66 74.32 C123.35 73.78, 81.78 74.45, 18.58 74.32 M162.66 74.32 C133.88 74.85, 104.68 74.05, 18.58 74.32 M18.58 74.32 C7.81 73.59, -1.96 68.53, 0 55.74 M18.58 74.32 C6.53 76.47, -0.86 67.64, 0 55.74 M0 55.74 C-1.2 47.46, -1.04 36.05, 0 18.58 M0 55.74 C0.19 41.91, 0.65 26.32, 0 18.58 M0 18.58 C-1.07 5.72, 6.96 -1.66, 18.58 0 M0 18.58 C-2.19 5.67, 4.68 1.36, 18.58 0" stroke="#f08c00" stroke-width="1" fill="none"></path></g><g transform="translate(856.9194515404461 34.1288936627283) rotate(0 42.26890563964844 13.270676691729323)"><text x="42.26890563964844" y="0" font-family="Virgil, Segoe UI Emoji" font-size="21.23308270676692px" fill="#f08c00" text-anchor="middle" style="white-space: pre;" direction="ltr" dominant-baseline="text-before-edge">Agencies</text></g><g transform="translate(362.2946944518453 132.3319011815253) rotate(0 216.08941650390625 291.95488721804514)"><text x="0" y="0" font-family="Virgil, Segoe UI Emoji" font-size="21.23308270676692px" fill="#1e1e1e" text-anchor="start" style="white-space: pre;" direction="ltr" dominant-baseline="text-before-edge">Interface with agencies to</text><text x="0" y="26.54135338345865" font-family="Virgil, Segoe UI Emoji" font-size="21.23308270676692px" fill="#1e1e1e" text-anchor="start" style="white-space: pre;" direction="ltr" dominant-baseline="text-before-edge">update travel details</text><text x="0" y="53.0827067669173" font-family="Virgil, Segoe UI Emoji" font-size="21.23308270676692px" fill="#1e1e1e" text-anchor="start" style="white-space: pre;" direction="ltr" dominant-baseline="text-before-edge"></text><text x="0" y="79.62406015037595" font-family="Virgil, Segoe UI Emoji" font-size="21.23308270676692px" fill="#1e1e1e" text-anchor="start" style="white-space: pre;" direction="ltr" dominant-baseline="text-before-edge">Poll email looking for travel related</text><text x="0" y="106.1654135338346" font-family="Virgil, Segoe UI Emoji" font-size="21.23308270676692px" fill="#1e1e1e" text-anchor="start" style="white-space: pre;" direction="ltr" dominant-baseline="text-before-edge">emails</text><text x="0" y="132.70676691729324" font-family="Virgil, Segoe UI Emoji" font-size="21.23308270676692px" fill="#1e1e1e" text-anchor="start" style="white-space: pre;" direction="ltr" dominant-baseline="text-before-edge"></text><text x="0" y="159.2481203007519" font-family="Virgil, Segoe UI Emoji" font-size="21.23308270676692px" fill="#1e1e1e" text-anchor="start" style="white-space: pre;" direction="ltr" dominant-baseline="text-before-edge">Filter and whitelist certain </text><text x="0" y="185.78947368421055" font-family="Virgil, Segoe UI Emoji" font-size="21.23308270676692px" fill="#1e1e1e" text-anchor="start" style="white-space: pre;" direction="ltr" dominant-baseline="text-before-edge">emails</text><text x="0" y="212.3308270676692" font-family="Virgil, Segoe UI Emoji" font-size="21.23308270676692px" fill="#1e1e1e" text-anchor="start" style="white-space: pre;" direction="ltr" dominant-baseline="text-before-edge"></text><text x="0" y="238.87218045112783" font-family="Virgil, Segoe UI Emoji" font-size="21.23308270676692px" fill="#1e1e1e" text-anchor="start" style="white-space: pre;" direction="ltr" dominant-baseline="text-before-edge">Group items in dashboard by trip</text><text x="0" y="265.4135338345865" font-family="Virgil, Segoe UI Emoji" font-size="21.23308270676692px" fill="#1e1e1e" text-anchor="start" style="white-space: pre;" direction="ltr" dominant-baseline="text-before-edge"></text><text x="0" y="291.95488721804514" font-family="Virgil, Segoe UI Emoji" font-size="21.23308270676692px" fill="#1e1e1e" text-anchor="start" style="white-space: pre;" direction="ltr" dominant-baseline="text-before-edge">Provide end of year summary reports</text><text x="0" y="318.4962406015038" font-family="Virgil, Segoe UI Emoji" font-size="21.23308270676692px" fill="#1e1e1e" text-anchor="start" style="white-space: pre;" direction="ltr" dominant-baseline="text-before-edge">with wide range of metrics on travel</text><text x="0" y="345.0375939849624" font-family="Virgil, Segoe UI Emoji" font-size="21.23308270676692px" fill="#1e1e1e" text-anchor="start" style="white-space: pre;" direction="ltr" dominant-baseline="text-before-edge">usage</text><text x="0" y="371.5789473684211" font-family="Virgil, Segoe UI Emoji" font-size="21.23308270676692px" fill="#1e1e1e" text-anchor="start" style="white-space: pre;" direction="ltr" dominant-baseline="text-before-edge"></text><text x="0" y="398.1203007518797" font-family="Virgil, Segoe UI Emoji" font-size="21.23308270676692px" fill="#1e1e1e" text-anchor="start" style="white-space: pre;" direction="ltr" dominant-baseline="text-before-edge">Gather analytical information from</text><text x="0" y="424.6616541353384" font-family="Virgil, Segoe UI Emoji" font-size="21.23308270676692px" fill="#1e1e1e" text-anchor="start" style="white-space: pre;" direction="ltr" dominant-baseline="text-before-edge">users for various purposes (travel</text><text x="0" y="451.20300751879705" font-family="Virgil, Segoe UI Emoji" font-size="21.23308270676692px" fill="#1e1e1e" text-anchor="start" style="white-space: pre;" direction="ltr" dominant-baseline="text-before-edge">trends, locations, agencies preferences,</text><text x="0" y="477.74436090225566" font-family="Virgil, Segoe UI Emoji" font-size="21.23308270676692px" fill="#1e1e1e" text-anchor="start" style="white-space: pre;" direction="ltr" dominant-baseline="text-before-edge">cancellation...)</text><text x="0" y="504.28571428571433" font-family="Virgil, Segoe UI Emoji" font-size="21.23308270676692px" fill="#1e1e1e" text-anchor="start" style="white-space: pre;" direction="ltr" dominant-baseline="text-before-edge"></text><text x="0" y="530.827067669173" font-family="Virgil, Segoe UI Emoji" font-size="21.23308270676692px" fill="#1e1e1e" text-anchor="start" style="white-space: pre;" direction="ltr" dominant-baseline="text-before-edge">Integrate seamlessly with existing travel</text><text x="0" y="557.3684210526317" font-family="Virgil, Segoe UI Emoji" font-size="21.23308270676692px" fill="#1e1e1e" text-anchor="start" style="white-space: pre;" direction="ltr" dominant-baseline="text-before-edge">systems (SABRE, APOLLO)</text></g><g transform="translate(10 132.3319011815253) rotate(0 160.79591369628906 79.62406015037595)"><text x="0" y="0" font-family="Virgil, Segoe UI Emoji" font-size="21.23308270676692px" fill="#1e1e1e" text-anchor="start" style="white-space: pre;" direction="ltr" dominant-baseline="text-before-edge">Add, update or delete existing</text><text x="0" y="26.54135338345865" font-family="Virgil, Segoe UI Emoji" font-size="21.23308270676692px" fill="#1e1e1e" text-anchor="start" style="white-space: pre;" direction="ltr" dominant-baseline="text-before-edge">reservations</text><text x="0" y="53.0827067669173" font-family="Virgil, Segoe UI Emoji" font-size="21.23308270676692px" fill="#1e1e1e" text-anchor="start" style="white-space: pre;" direction="ltr" dominant-baseline="text-before-edge"></text><text x="0" y="79.62406015037595" font-family="Virgil, Segoe UI Emoji" font-size="21.23308270676692px" fill="#1e1e1e" text-anchor="start" style="white-space: pre;" direction="ltr" dominant-baseline="text-before-edge">Share trip information in social</text><text x="0" y="106.1654135338346" font-family="Virgil, Segoe UI Emoji" font-size="21.23308270676692px" fill="#1e1e1e" text-anchor="start" style="white-space: pre;" direction="ltr" dominant-baseline="text-before-edge">media sites or with people to</text><text x="0" y="132.70676691729324" font-family="Virgil, Segoe UI Emoji" font-size="21.23308270676692px" fill="#1e1e1e" text-anchor="start" style="white-space: pre;" direction="ltr" dominant-baseline="text-before-edge">view their trips</text></g><g transform="translate(774.0664540422974 120.95703544575727) rotate(0 176.94131469726562 26.54135338345865)"><text x="0" y="0" font-family="Virgil, Segoe UI Emoji" font-size="21.23308270676692px" fill="#1e1e1e" text-anchor="start" style="white-space: pre;" direction="ltr" dominant-baseline="text-before-edge">Provide standard REST API</text><text x="0" y="26.54135338345865" font-family="Virgil, Segoe UI Emoji" font-size="21.23308270676692px" fill="#1e1e1e" text-anchor="start" style="white-space: pre;" direction="ltr" dominant-baseline="text-before-edge">for CRUD operation over bookings</text></g><g stroke-linecap="round" transform="translate(1213.234730033178 9.999999999999996) rotate(0 90.61976369495164 37.15789473684211)"><path d="M18.58 0 M18.58 0 C62.31 0.99, 106.39 -1.07, 162.66 0 M18.58 0 C56.09 0.48, 93.5 -1.3, 162.66 0 M162.66 0 C174.98 0.31, 180.57 5.22, 181.24 18.58 M162.66 0 C174.56 1.99, 181.98 8.24, 181.24 18.58 M181.24 18.58 C182.44 29.05, 182.09 41.89, 181.24 55.74 M181.24 18.58 C181.87 29.16, 182.41 38.64, 181.24 55.74 M181.24 55.74 C181.48 69.44, 174.61 73.82, 162.66 74.32 M181.24 55.74 C180 68.58, 177.17 72.97, 162.66 74.32 M162.66 74.32 C120.24 73.77, 82.28 74.65, 18.58 74.32 M162.66 74.32 C124.25 72.24, 84.66 73.85, 18.58 74.32 M18.58 74.32 C7.3 74.42, 0.83 70.1, 0 55.74 M18.58 74.32 C4.88 72.61, -1.02 66.09, 0 55.74 M0 55.74 C-0.68 39.4, 2.28 28.18, 0 18.58 M0 55.74 C0.7 42.24, 1.19 29.7, 0 18.58 M0 18.58 C0.17 4.59, 7.7 -1.83, 18.58 0 M0 18.58 C1.73 8.36, 5.3 2.17, 18.58 0" stroke="#f08c00" stroke-width="1" fill="none"></path></g><g transform="translate(1226.7471862940477 33.88721804511278) rotate(0 77.10730743408203 13.270676691729324)"><text x="77.10730743408203" y="0" font-family="Virgil, Segoe UI Emoji" font-size="21.23308270676692px" fill="#f08c00" text-anchor="middle" style="white-space: pre;" direction="ltr" dominant-baseline="text-before-edge">Email providers</text></g><g transform="translate(1178.7325905903324 121.71535982814176) rotate(0 149.73509216308594 39.81203007518798)"><text x="0" y="0" font-family="Virgil, Segoe UI Emoji" font-size="21.23308270676692px" fill="#1e1e1e" text-anchor="start" style="white-space: pre;" direction="ltr" dominant-baseline="text-before-edge">Provide standard REST API</text><text x="0" y="26.54135338345865" font-family="Virgil, Segoe UI Emoji" font-size="21.23308270676692px" fill="#1e1e1e" text-anchor="start" style="white-space: pre;" direction="ltr" dominant-baseline="text-before-edge">for read operation over end</text><text x="0" y="53.0827067669173" font-family="Virgil, Segoe UI Emoji" font-size="21.23308270676692px" fill="#1e1e1e" text-anchor="start" style="white-space: pre;" direction="ltr" dominant-baseline="text-before-edge">user emails</text></g><g stroke-linecap="round" transform="translate(1569.5576872041993 10.620837808807755) rotate(0 90.61976369495164 30.332975295381306)"><path d="M15.17 0 M15.17 0 C67.68 -0.73, 119.33 -0.63, 166.07 0 M15.17 0 C71.11 -1.47, 129.45 -0.16, 166.07 0 M166.07 0 C174.95 -1.88, 183.02 4.52, 181.24 15.17 M166.07 0 C177.65 -1.37, 179.11 4.54, 181.24 15.17 M181.24 15.17 C180.56 24.68, 182.58 38.78, 181.24 45.5 M181.24 15.17 C181.56 22.71, 180.29 31.54, 181.24 45.5 M181.24 45.5 C180.08 57.54, 175.75 59.51, 166.07 60.67 M181.24 45.5 C180.95 56.46, 177.57 61.35, 166.07 60.67 M166.07 60.67 C118.68 60.36, 69.19 62.01, 15.17 60.67 M166.07 60.67 C115.16 61.3, 63.36 61.38, 15.17 60.67 M15.17 60.67 C4.19 62.61, -0.21 54.42, 0 45.5 M15.17 60.67 C4.97 61.54, 0.58 54.62, 0 45.5 M0 45.5 C1.22 35.33, -1.87 21.51, 0 15.17 M0 45.5 C0.44 38.79, -0.67 31.27, 0 15.17 M0 15.17 C-0.87 6.12, 4.91 1.07, 15.17 0 M0 15.17 C-0.88 3.11, 6.78 1.46, 15.17 0" stroke="#f08c00" stroke-width="1" fill="none"></path></g><g transform="translate(1595.6276690998345 27.68313641245974) rotate(0 64.5497817993164 13.270676691729324)"><text x="64.5497817993164" y="0" font-family="Virgil, Segoe UI Emoji" font-size="21.23308270676692px" fill="#f08c00" text-anchor="middle" style="white-space: pre;" direction="ltr" dominant-baseline="text-before-edge">Social Media</text></g><g transform="translate(1535.0555477613536 121.33619763694952) rotate(0 149.73509216308594 53.08270676691729)"><text x="0" y="0" font-family="Virgil, Segoe UI Emoji" font-size="21.23308270676692px" fill="#1e1e1e" text-anchor="start" style="white-space: pre;" direction="ltr" dominant-baseline="text-before-edge">Provide standard REST API</text><text x="0" y="26.54135338345865" font-family="Virgil, Segoe UI Emoji" font-size="21.23308270676692px" fill="#1e1e1e" text-anchor="start" style="white-space: pre;" direction="ltr" dominant-baseline="text-before-edge">for creating and sharing</text><text x="0" y="53.0827067669173" font-family="Virgil, Segoe UI Emoji" font-size="21.23308270676692px" fill="#1e1e1e" text-anchor="start" style="white-space: pre;" direction="ltr" dominant-baseline="text-before-edge">messages on end user</text><text x="0" y="79.62406015037595" font-family="Virgil, Segoe UI Emoji" font-size="21.23308270676692px" fill="#1e1e1e" text-anchor="start" style="white-space: pre;" direction="ltr" dominant-baseline="text-before-edge">account</text></g></svg>