<?xml version="1.0" encoding="UTF-8" standalone="no"?><svg xmlns="http://www.w3.org/2000/svg" xmlns:xlink="http://www.w3.org/1999/xlink" contentScriptType="application/ecmascript" contentStyleType="text/css" height="1120px" preserveAspectRatio="none" style="width:1548px;height:1120px;background:#FFFFFF;" version="1.1" viewBox="0 0 1548 1120" width="1548px" zoomAndPan="magnify"><defs><filter height="300%" id="fp3pt9e2xykco" width="300%" x="-1" y="-1"><feGaussianBlur result="blurOut" stdDeviation="2.0"/><feColorMatrix in="blurOut" result="blurOut2" type="matrix" values="0 0 0 0 0 0 0 0 0 0 0 0 0 0 0 0 0 0 .4 0"/><feOffset dx="4.0" dy="4.0" in="blurOut2" result="blurOut3"/><feBlend in="SourceGraphic" in2="blurOut3" mode="normal"/></filter></defs><g><!--MD5=[779caef9ee631e2f10e78339f1922527]
cluster Actors--><polygon fill="#F5F5F5" filter="url(#fp3pt9e2xykco)" points="7,330.5,7,330.7102,16.8929,330.0857,26.7857,330.6933,36.6786,330.8997,46.5714,329.7866,56.4643,330.4223,66.3571,330.0735,76.25,330.1165,86.1429,330.4318,96.0357,329.8086,105.9286,331.0536,115.8214,329.8697,125.7143,330.3022,135.6071,330.9319,145.5,330.4142,155.3929,330.5682,165.2857,330.4681,175.1786,330.6785,185.0714,330.7391,194.9643,331.0857,204.8571,331.1711,214.75,331.1793,224.6429,330.7546,234.5357,330.9636,244.4286,331.2022,254.3214,329.7788,264.2143,331.1785,274.1071,330.2035,284,330.5,284.5338,330.5,283.505,340.5,283.9315,350.5,284.7416,360.5,283.9513,370.5,284.1053,380.5,284.3386,390.5,284.4162,400.5,283.9961,410.5,284.2872,420.5,283.4276,430.5,284.2844,440.5,284.5482,450.5,284.4445,460.5,284.613,470.5,283.5169,480.5,283.3478,490.5,283.3786,500.5,283.9411,510.5,283.8035,520.5,284.6814,530.5,283.8253,540.5,283.6569,550.5,284.2283,560.5,283.3332,570.5,283.4809,580.5,284.649,590.5,284.4357,600.5,284.7345,610.5,283.6782,620.5,284.3192,630.5,284.5904,640.5,283.5276,650.5,283.9041,660.5,284,670.5,284,670.626,274.1071,671.1518,264.2143,670.4958,254.3214,670.9626,244.4286,669.9462,234.5357,669.8227,224.6429,671.0036,214.75,669.7831,204.8571,671.009,194.9643,670.7066,185.0714,670.2321,175.1786,670.1462,165.2857,670.9588,155.3929,670.2007,145.5,671.0919,135.6071,669.9473,125.7143,671.1174,115.8214,670.9843,105.9286,670.745,96.0357,670.5472,86.1429,671.2266,76.25,671.1136,66.3571,670.6693,56.4643,670.7682,46.5714,670.3697,36.6786,671.2165,26.7857,670.6549,16.8929,670.6726,7,670.5,6.3916,670.5,6.5948,660.5,7.5307,650.5,7.4298,640.5,6.9571,630.5,6.6778,620.5,6.7811,610.5,6.3138,600.5,7.4147,590.5,7.7396,580.5,7.5264,570.5,7.6949,560.5,6.8633,550.5,7.0872,540.5,6.6124,530.5,7.284,520.5,7.2468,510.5,7.5524,500.5,6.7703,490.5,6.8656,480.5,7.4435,470.5,7.5673,460.5,6.4875,450.5,6.8061,440.5,7.1493,430.5,6.3892,420.5,7.3534,410.5,7.258,400.5,6.8992,390.5,7.1422,380.5,7.7287,370.5,6.6871,360.5,7.315,350.5,7.2856,340.5,7,330.5" style="stroke:#000000;stroke-width:1.5;"/><text fill="#000000" font-family="sans-serif" font-size="14" font-weight="bold" lengthAdjust="spacing" textLength="46" x="122.5" y="346.0352">Actors</text><!--MD5=[691a1726be306d84324876b17512fe90]
entity system--><polygon fill="#D6E8D5" filter="url(#fp3pt9e2xykco)" points="62.5,366,62.5,366.2102,72.2647,365.5857,82.0294,366.1933,91.7941,366.3997,101.5588,365.2866,111.3235,365.9223,121.0882,365.5735,130.8529,365.6165,140.6176,365.9318,150.3824,365.3086,160.1471,366.5536,169.9118,365.3697,179.6765,365.8022,189.4412,366.4319,199.2059,365.9142,208.9706,366.0682,218.7353,365.9681,228.5,366,228.5228,366.055,229.5912,366.513,230.696,367.059,231.7676,367.5247,232.8293,367.9665,233.8033,368.1967,233.8817,368.2292,234.3854,369.3165,234.8982,370.4076,234.8992,371.2867,235.7696,372.5259,236,373.5,235.7035,373.5,236.5338,383.3783,235.505,393.2566,235.9315,403.1349,236.7416,413.0132,235.9513,422.8915,236.1053,432.7698,236.3386,442.6481,236.4162,452.5264,235.9961,462.4047,236.2872,472.2831,235.4276,482.1614,236.2844,492.0397,236,501.918,236.1688,501.9879,235.6976,503.0353,235.3101,504.1175,234.5332,505.0383,234.0418,506.0774,233.8033,507.2213,233.724,507.0299,232.7351,507.6425,231.6569,508.0394,230.7082,508.7491,229.5384,508.9248,228.5,509.418,228.5,509.0749,218.7353,509.6462,208.9706,508.7511,199.2059,508.8988,189.4412,510.0669,179.6765,509.8536,169.9118,510.1525,160.1471,509.0962,150.3824,509.7372,140.6176,510.0084,130.8529,508.9456,121.0882,509.3221,111.3235,509.544,101.5588,510.0697,91.7941,509.4138,82.0294,509.8805,72.2647,508.8642,62.5,509.418,62.4136,509.2094,61.5036,509.1337,60.2872,508.3185,59.3829,508.2567,58.2837,507.7242,57.1967,507.2213,57.1142,507.1871,56.6484,506.1155,56.4593,505.1585,55.7865,504.0011,55.6216,503.0541,55,501.918,54.4473,501.918,55.6174,492.0397,55.4843,482.1614,55.245,472.2831,55.0472,462.4047,55.7266,452.5264,55.6136,442.6481,55.1693,432.7698,55.2682,422.8915,54.8697,413.0132,55.7165,403.1349,55.1549,393.2566,55.1726,383.3783,55,373.5,54.8127,373.4224,55.3145,372.3876,56.0421,371.4464,56.4504,370.3728,56.7441,369.2519,57.1967,368.1967,57.1556,368.0975,58.2294,367.6899,59.2305,367.1067,60.4316,367.0064,61.5337,366.6671,62.5,366" style="stroke:#86B56B;stroke-width:1.5;"/><text fill="#000000" font-family="sans-serif" font-size="14" lengthAdjust="spacing" textLength="48" x="65" y="389.5352">System</text><text fill="#000000" font-family="sans-serif" font-size="14" lengthAdjust="spacing" textLength="0" x="69" y="406.0234"/><path d="M56,408.9766 L56,409.2568 L65.9444,408.4241 L75.8889,409.2343 L85.8333,409.5095 L95.7778,408.0254 L105.7222,408.8729 L115.6667,408.4079 L125.6111,408.4652 L135.5556,408.8857 L145.5,408.0547 L155.4444,409.7148 L165.3889,408.1362 L175.3333,408.7129 L185.2778,409.5525 L195.2222,408.8622 L205.1667,409.0675 L215.1111,408.934 L225.0556,409.2146 L235,408.9766 " fill="#D6E8D5" style="stroke:#86B56B;stroke-width:1.0;"/><text fill="#000000" font-family="sans-serif" font-size="14" lengthAdjust="spacing" textLength="0" x="69" y="426.5117"/><polygon fill="#000000" points="73.0138,439.0612,72.6474,439.5619,72.2139,440.2953,71.594,440.7896,70.9426,441.0599,70.4232,441.0833,69.7556,440.7453,69.1257,440.5245,68.6476,440.0761,68.3968,439.5628,68.2481,439.1542,68.1024,438.6203,67.8659,438.161,68.0476,437.7124,68.2069,437.2211,68.8044,436.8326,69.2248,436.3284,69.7451,436.161,70.3637,436.0168,71.1569,436.1024,71.5914,436.3073,72.0965,436.4002,72.7107,437.0295,72.9248,437.6938,73.0179,438.1471,72.9125,438.894" style="stroke:#000000;stroke-width:0.0;"/><text fill="#000000" font-family="sans-serif" font-size="14" lengthAdjust="spacing" textLength="133" x="77" y="443">poll email for travel</text><polygon fill="#000000" points="73.0138,455.5495,72.6474,456.0502,72.2139,456.7836,71.594,457.2779,70.9426,457.5481,70.4232,457.5716,69.7556,457.2336,69.1257,457.0128,68.6476,456.5644,68.3968,456.0511,68.2481,455.6424,68.1024,455.1086,67.8659,454.6492,68.0476,454.2007,68.2069,453.7094,68.8044,453.3208,69.2248,452.8167,69.7451,452.6492,70.3637,452.5051,71.1569,452.5907,71.5914,452.7956,72.0965,452.8885,72.7107,453.5178,72.9248,454.1821,73.0179,454.6353,72.9125,455.3823" style="stroke:#000000;stroke-width:0.0;"/><text fill="#000000" font-family="sans-serif" font-size="14" lengthAdjust="spacing" textLength="149" x="77" y="459.4883">interact with agencies</text><polygon fill="#000000" points="73.0138,472.0378,72.6474,472.5385,72.2139,473.2719,71.594,473.7661,70.9426,474.0364,70.4232,474.0599,69.7556,473.7219,69.1257,473.501,68.6476,473.0527,68.3968,472.5394,68.2481,472.1307,68.1024,471.5969,67.8659,471.1375,68.0476,470.689,68.2069,470.1977,68.8044,469.8091,69.2248,469.3049,69.7451,469.1375,70.3637,468.9933,71.1569,469.079,71.5914,469.2839,72.0965,469.3768,72.7107,470.006,72.9248,470.6704,73.0179,471.1236,72.9125,471.8706" style="stroke:#000000;stroke-width:0.0;"/><text fill="#000000" font-family="sans-serif" font-size="14" lengthAdjust="spacing" textLength="142" x="77" y="475.9766">gather analytics data</text><polygon fill="#000000" points="73.0138,488.5261,72.6474,489.0268,72.2139,489.7602,71.594,490.2544,70.9426,490.5247,70.4232,490.5482,69.7556,490.2101,69.1257,489.9893,68.6476,489.541,68.3968,489.0277,68.2481,488.619,68.1024,488.0852,67.8659,487.6258,68.0476,487.1773,68.2069,486.686,68.8044,486.2974,69.2248,485.7932,69.7451,485.6258,70.3637,485.4816,71.1569,485.5673,71.5914,485.7722,72.0965,485.8651,72.7107,486.4943,72.9248,487.1586,73.0179,487.6119,72.9125,488.3588" style="stroke:#000000;stroke-width:0.0;"/><text fill="#000000" font-family="sans-serif" font-size="14" lengthAdjust="spacing" textLength="124" x="77" y="492.4648">end of year report</text><!--MD5=[8fc3522a43f8c7199df5e09e5bb0188e]
entity user--><polygon fill="#D6E8D5" filter="url(#fp3pt9e2xykco)" points="30.5,544.5,30.5,544.7102,40.5,544.0857,50.5,544.6933,60.5,544.8997,70.5,543.7866,80.5,544.4223,90.5,544.0735,100.5,544.1165,110.5,544.4318,120.5,543.8086,130.5,545.0536,140.5,543.8697,150.5,544.3022,160.5,544.9319,170.5,544.4142,180.5,544.5682,190.5,544.4681,200.5,544.6785,210.5,544.7391,220.5,545.0857,230.5,545.1711,240.5,545.1793,250.5,544.7546,260.5,544.5,260.5591,544.6428,261.6502,545.1556,262.5293,545.1566,263.7685,546.027,264.7048,546.166,265.8033,546.6967,265.9677,546.7648,266.0902,547.6942,266.6609,548.8093,267.3497,549.9733,267.5457,550.9331,268,552,268.1053,552,268.3386,561.5441,268.4162,571.0883,267.9961,580.6324,268.2872,590.1766,267.4276,599.7207,268.2844,609.2648,268.5482,618.809,268.4445,628.3531,268.613,637.8973,268,647.4414,267.8512,647.3798,267.3598,648.4189,266.93,649.4835,266.6638,650.6159,266.1821,651.659,265.8033,652.7447,265.8902,652.9546,264.7204,653.1303,263.6382,653.5177,262.6504,654.133,261.4756,654.2967,260.5,654.9414,260.5,654.4223,250.5,655.5904,240.5,655.3771,230.5,655.6759,220.5,654.6196,210.5,655.2606,200.5,655.5318,190.5,654.469,180.5,654.8455,170.5,655.0674,160.5,655.5932,150.5,654.9372,140.5,655.404,130.5,654.3876,120.5,654.2641,110.5,655.445,100.5,654.2245,90.5,655.4504,80.5,655.148,70.5,654.6735,60.5,654.5876,50.5,655.4002,40.5,654.6421,30.5,654.9414,30.5755,655.1237,29.3688,654.3318,28.4574,654.2529,27.3798,653.7725,26.2886,653.2595,25.1967,652.7447,25.2112,652.7507,24.9811,651.7767,24.507,650.7017,23.9308,649.5843,23.5219,648.5363,23,647.4414,22.8697,647.4414,23.7165,637.8973,23.1549,628.3531,23.1726,618.809,22.3916,609.2648,22.5948,599.7207,23.5307,590.1766,23.4298,580.6324,22.9571,571.0883,22.6778,561.5441,23,552,22.9326,551.9721,23.228,550.8518,24.0064,549.9316,24.5458,548.9124,24.9195,547.8245,25.1967,546.6967,25.2853,546.9107,26.2399,546.2153,27.3291,545.8449,28.3292,545.2593,29.4756,545.0268,30.5,544.5" style="stroke:#86B56B;stroke-width:1.5;"/><text fill="#000000" font-family="sans-serif" font-size="14" lengthAdjust="spacing" textLength="31" x="33" y="568.0352">User</text><text fill="#000000" font-family="sans-serif" font-size="14" lengthAdjust="spacing" textLength="0" x="37" y="584.5234"/><path d="M24,587.4766 L24,587.7568 L34.125,586.9241 L44.25,587.7343 L54.375,588.0095 L64.5,586.5254 L74.625,587.3729 L84.75,586.9079 L94.875,586.9652 L105,587.3857 L115.125,586.5547 L125.25,588.2148 L135.375,586.6362 L145.5,587.2129 L155.625,588.0525 L165.75,587.3622 L175.875,587.5675 L186,587.434 L196.125,587.7146 L206.25,587.7954 L216.375,588.2575 L226.5,588.3713 L236.625,588.3822 L246.75,587.8161 L256.875,588.0947 L267,587.4766 " fill="#D6E8D5" style="stroke:#86B56B;stroke-width:1.0;"/><text fill="#000000" font-family="sans-serif" font-size="14" lengthAdjust="spacing" textLength="0" x="37" y="605.0117"/><polygon fill="#000000" points="41.0138,617.5612,40.6474,618.0619,40.2139,618.7953,39.594,619.2896,38.9426,619.5599,38.4232,619.5833,37.7556,619.2453,37.1257,619.0245,36.6476,618.5761,36.3968,618.0628,36.2481,617.6542,36.1024,617.1203,35.8659,616.661,36.0476,616.2124,36.2069,615.7211,36.8044,615.3326,37.2248,614.8284,37.7451,614.661,38.3637,614.5168,39.1569,614.6024,39.5914,614.8073,40.0965,614.9002,40.7107,615.5295,40.9248,616.1938,41.0179,616.6471,40.9125,617.394" style="stroke:#000000;stroke-width:0.0;"/><text fill="#000000" font-family="sans-serif" font-size="14" lengthAdjust="spacing" textLength="213" x="45" y="621.5">add, update, delete reservation</text><polygon fill="#000000" points="41.0138,634.0495,40.6474,634.5502,40.2139,635.2836,39.594,635.7779,38.9426,636.0481,38.4232,636.0716,37.7556,635.7336,37.1257,635.5128,36.6476,635.0644,36.3968,634.5511,36.2481,634.1424,36.1024,633.6086,35.8659,633.1492,36.0476,632.7007,36.2069,632.2094,36.8044,631.8208,37.2248,631.3167,37.7451,631.1492,38.3637,631.0051,39.1569,631.0907,39.5914,631.2956,40.0965,631.3885,40.7107,632.0178,40.9248,632.6821,41.0179,633.1353,40.9125,633.8823" style="stroke:#000000;stroke-width:0.0;"/><text fill="#000000" font-family="sans-serif" font-size="14" lengthAdjust="spacing" textLength="207" x="45" y="637.9883">share trip info (social/directly)</text><!--MD5=[df10686f0d1a6b29efa210295a18d79f]
entity mail_poller--><polygon fill="#F5F5F5" filter="url(#fp3pt9e2xykco)" points="553,119.5,553,119.7102,562.8333,119.0857,572.6667,119.6933,582.5,119.8997,592.3333,118.7866,602.1667,119.4223,612,119.0735,621.8333,119.1165,631.6667,119.4318,641.5,118.8086,651.3333,120.0536,661.1667,118.8697,671,119.5,670.8022,119.5,671.4319,129.7441,670.9142,139.9883,671.0682,150.2324,670.9681,160.4766,671.1785,170.7207,671.2391,180.9648,671.5857,191.209,671.6711,201.4531,671.6793,211.6973,671,221.9414,671,222.196,661.1667,222.405,651.3333,222.6436,641.5,221.2202,631.6667,222.6199,621.8333,221.6449,612,222.4752,602.1667,221.4464,592.3333,221.8729,582.5,222.683,572.6667,221.8927,562.8333,222.0467,553,221.9414,553.3386,221.9414,553.4162,211.6973,552.9961,201.4531,553.2872,191.209,552.4276,180.9648,553.2844,170.7207,553.5482,160.4766,553.4445,150.2324,553.613,139.9883,552.5169,129.7441,553,119.5" style="stroke:#000000;stroke-width:1.5;"/><text fill="#000000" font-family="sans-serif" font-size="14" font-weight="bold" lengthAdjust="spacing" textLength="78" x="563" y="143.0352">Mail Poller</text><text fill="#000000" font-family="sans-serif" font-size="14" lengthAdjust="spacing" textLength="36" x="563" y="159.5234">——-</text><text fill="#000000" font-family="sans-serif" font-size="14" lengthAdjust="spacing" textLength="0" x="567" y="176.0117"/><text fill="#000000" font-family="sans-serif" font-size="14" lengthAdjust="spacing" textLength="56" x="563" y="192.5">Get mail</text><text fill="#000000" font-family="sans-serif" font-size="14" lengthAdjust="spacing" textLength="98" x="563" y="208.9883">From provider</text><!--MD5=[5cbc88fc5d947318514ad0fcfa37afa0]
entity mail_filter--><polygon fill="#F5F5F5" filter="url(#fp3pt9e2xykco)" points="800,183,800,183.2102,809.1667,182.5857,818.3333,183.1933,827.5,183.3997,836.6667,182.2866,845.8333,182.9223,855,183,854.5735,183,854.6165,193.5953,854.9318,204.1906,854.3086,214.7859,855.5536,225.3813,855,235.9766,855,235.3463,845.8333,235.7788,836.6667,236.4085,827.5,235.8908,818.3333,236.0448,809.1667,235.9446,800,235.9766,800.1785,235.9766,800.2391,225.3813,800.5857,214.7859,800.6711,204.1906,800.6793,193.5953,800,183" style="stroke:#000000;stroke-width:1.5;"/><text fill="#000000" font-family="sans-serif" font-size="14" lengthAdjust="spacing" textLength="28" x="810" y="206.5352">Mail</text><text fill="#000000" font-family="sans-serif" font-size="14" lengthAdjust="spacing" textLength="35" x="810" y="223.0234">Filter</text><!--MD5=[5677b814c9bc4b49328628533d5af67c]
entity booking_logger--><polygon fill="#F5F5F5" filter="url(#fp3pt9e2xykco)" points="1162,356.5,1162,356.7102,1171.7222,356.0857,1181.4444,356.6933,1191.1667,356.8997,1200.8889,355.7866,1210.6111,356.4223,1220.3333,356.0735,1230.0556,356.1165,1239.7778,356.4318,1249.5,355.8086,1259.2222,357.0536,1268.9444,355.8697,1278.6667,356.3022,1288.3889,356.9319,1298.1111,356.4142,1307.8333,356.5682,1317.5556,356.4681,1327.2778,356.6785,1337,356.5,1337.2391,356.5,1337.5857,366.9392,1337.6711,377.3785,1337.6793,387.8177,1337.2546,398.2569,1337.4636,408.6962,1337.7022,419.1354,1336.2788,429.5747,1337.6785,440.0139,1337,450.4531,1337,450.1566,1327.2778,450.9869,1317.5556,449.9581,1307.8333,450.3846,1298.1111,451.1947,1288.3889,450.4044,1278.6667,450.5584,1268.9444,450.7918,1259.2222,450.8694,1249.5,450.4492,1239.7778,450.7403,1230.0556,449.8807,1220.3333,450.7375,1210.6111,451.0013,1200.8889,450.8977,1191.1667,451.0661,1181.4444,449.97,1171.7222,449.8009,1162,450.4531,1161.3786,450.4531,1161.9411,440.0139,1161.8035,429.5747,1162.6814,419.1354,1161.8253,408.6962,1161.6569,398.2569,1162.2283,387.8177,1161.3332,377.3785,1161.4809,366.9392,1162,356.5" style="stroke:#000000;stroke-width:1.5;"/><text fill="#000000" font-family="sans-serif" font-size="14" font-weight="bold" lengthAdjust="spacing" textLength="113" x="1172" y="380.0352">Booking Logger</text><text fill="#000000" font-family="sans-serif" font-size="14" lengthAdjust="spacing" textLength="0" x="1176" y="396.5234"/><path d="M1163,399.4766 L1163,399.7568 L1173.1765,398.9241 L1183.3529,399.7343 L1193.5294,400.0095 L1203.7059,398.5254 L1213.8824,399.3729 L1224.0588,398.9079 L1234.2353,398.9652 L1244.4118,399.3857 L1254.5882,398.5547 L1264.7647,400.2148 L1274.9412,398.6362 L1285.1176,399.2129 L1295.2941,400.0525 L1305.4706,399.3622 L1315.6471,399.5675 L1325.8235,399.434 L1336,399.4766 " fill="#F5F5F5" style="stroke:#000000;stroke-width:1.0;"/><text fill="#000000" font-family="sans-serif" font-size="14" lengthAdjust="spacing" textLength="155" x="1172" y="417.0117">receive all the possible</text><text fill="#000000" font-family="sans-serif" font-size="14" lengthAdjust="spacing" textLength="44" x="1172" y="433.5">events</text><text fill="#000000" font-family="sans-serif" font-size="14" font-weight="bold" lengthAdjust="spacing" textLength="21" x="1216" y="433.5">???</text><!--MD5=[35e76c4457bea09eb21c3e1ef421f44d]
entity travel_updates--><polygon fill="#F5F5F5" filter="url(#fp3pt9e2xykco)" points="954,669.5,954,669.7102,963.8667,669.0857,973.7333,669.6933,983.6,669.8997,993.4667,668.7866,1003.3333,669.4223,1013.2,669.0735,1023.0667,669.1165,1032.9333,669.4318,1042.8,668.8086,1052.6667,670.0536,1062.5333,668.8697,1072.4,669.3022,1082.2667,669.9319,1092.1333,669.4142,1102,669.5,1102.0682,669.5,1101.9681,679.9392,1102.1785,690.3785,1102.2391,700.8177,1102.5857,711.2569,1102.6711,721.6962,1102.6793,732.1354,1102.2546,742.5747,1102.4636,753.0139,1102,763.4531,1102,764.1554,1092.1333,762.7319,1082.2667,764.1316,1072.4,763.1566,1062.5333,763.9869,1052.6667,762.9581,1042.8,763.3846,1032.9333,764.1947,1023.0667,763.4044,1013.2,763.5584,1003.3333,763.7918,993.4667,763.8694,983.6,763.4492,973.7333,763.7403,963.8667,762.8807,954,763.4531,954.2844,763.4531,954.5482,753.0139,954.4445,742.5747,954.613,732.1354,953.5169,721.6962,953.3478,711.2569,953.3786,700.8177,953.9411,690.3785,953.8035,679.9392,954,669.5" style="stroke:#000000;stroke-width:1.5;"/><text fill="#000000" font-family="sans-serif" font-size="14" font-weight="bold" lengthAdjust="spacing" textLength="128" x="964" y="693.0352">Agency integrator</text><text fill="#000000" font-family="sans-serif" font-size="14" lengthAdjust="spacing" textLength="0" x="968" y="709.5234"/><path d="M955,712.4766 L955,712.7568 L964.7333,711.9241 L974.4667,712.7343 L984.2,713.0095 L993.9333,711.5254 L1003.6667,712.3729 L1013.4,711.9079 L1023.1333,711.9652 L1032.8667,712.3857 L1042.6,711.5547 L1052.3333,713.2148 L1062.0667,711.6362 L1071.8,712.2129 L1081.5333,713.0525 L1091.2667,712.3622 L1101,712.4766 " fill="#F5F5F5" style="stroke:#000000;stroke-width:1.0;"/><text fill="#000000" font-family="sans-serif" font-size="14" lengthAdjust="spacing" textLength="0" x="968" y="730.0117"/><text fill="#000000" font-family="sans-serif" font-size="14" lengthAdjust="spacing" textLength="90" x="964" y="746.5">travel update</text><!--MD5=[79d51450b35f6bd286fee665e929107e]
entity booking_manual--><polygon fill="#F5F5F5" filter="url(#fp3pt9e2xykco)" points="523,808.5,523,808.7102,532.8889,808.0857,542.7778,808.6933,552.6667,808.8997,562.5556,807.7866,572.4444,808.4223,582.3333,808.0735,592.2222,808.1165,602.1111,808.4318,612,807.8086,621.8889,809.0536,631.7778,807.8697,641.6667,808.3022,651.5556,808.9319,661.4444,808.4142,671.3333,808.5682,681.2222,808.4681,691.1111,808.6785,701,808.5,701.2391,808.5,701.5857,818.4938,701.6711,828.4875,701.6793,838.4813,701.2546,848.475,701.4636,858.4688,701.7022,868.4625,700.2788,878.4563,701.6785,888.45,700.7035,898.4438,701.5338,908.4375,700.505,918.4313,700.9315,928.425,701.7416,938.4188,700.9513,948.4125,701.1053,958.4063,701.3386,968.4,701.4162,978.3938,700.9961,988.3875,701.2872,998.3813,700.4276,1008.375,701.2844,1018.3688,701.5482,1028.3625,701.4445,1038.3563,701.613,1048.35,700.5169,1058.3438,700.3478,1068.3375,700.3786,1078.3313,700.9411,1088.325,700.8035,1098.3188,701,1108.3125,701,1108.9939,691.1111,1108.1378,681.2222,1107.9694,671.3333,1108.5408,661.4444,1107.6457,651.5556,1107.7934,641.6667,1108.9615,631.7778,1108.7482,621.8889,1109.047,612,1107.9907,602.1111,1108.6317,592.2222,1108.9029,582.3333,1107.8401,572.4444,1108.2166,562.5556,1108.4385,552.6667,1108.9643,542.7778,1108.3083,532.8889,1108.7751,523,1108.3125,522.4462,1108.3125,522.3227,1098.3188,523.5036,1088.325,522.2831,1078.3313,523.509,1068.3375,523.2066,1058.3438,522.7321,1048.35,522.6462,1038.3563,523.4588,1028.3625,522.7007,1018.3688,523.5919,1008.375,522.4473,998.3813,523.6174,988.3875,523.4843,978.3938,523.245,968.4,523.0472,958.4063,523.7266,948.4125,523.6136,938.4188,523.1693,928.425,523.2682,918.4313,522.8697,908.4375,523.7165,898.4438,523.1549,888.45,523.1726,878.4563,522.3916,868.4625,522.5948,858.4688,523.5307,848.475,523.4298,838.4813,522.9571,828.4875,522.6778,818.4938,523,808.5" style="stroke:#000000;stroke-width:1.5;"/><text fill="#000000" font-family="sans-serif" font-size="14" font-weight="bold" lengthAdjust="spacing" textLength="59" x="533" y="832.0352">Booking</text><text fill="#000000" font-family="sans-serif" font-size="14" lengthAdjust="spacing" textLength="0" x="537" y="848.5234"/><path d="M524,851.4766 L524,851.7568 L533.7778,850.9241 L543.5556,851.7343 L553.3333,852.0095 L563.1111,850.5254 L572.8889,851.3729 L582.6667,850.9079 L592.4444,850.9652 L602.2222,851.3857 L612,850.5547 L621.7778,852.2148 L631.5556,850.6362 L641.3333,851.2129 L651.1111,852.0525 L660.8889,851.3622 L670.6667,851.5675 L680.4444,851.434 L690.2222,851.7146 L700,851.4766 " fill="#F5F5F5" style="stroke:#000000;stroke-width:1.0;"/><text fill="#000000" font-family="sans-serif" font-size="14" lengthAdjust="spacing" textLength="0" x="537" y="869.0117"/><polygon fill="#000000" points="541.0138,881.5612,540.6474,882.0619,540.2139,882.7953,539.594,883.2896,538.9426,883.5599,538.4232,883.5833,537.7556,883.2453,537.1257,883.0245,536.6476,882.5761,536.3968,882.0628,536.2481,881.6542,536.1024,881.1203,535.8659,880.661,536.0476,880.2124,536.2069,879.7211,536.8044,879.3326,537.2248,878.8284,537.7451,878.661,538.3637,878.5168,539.1569,878.6024,539.5914,878.8073,540.0965,878.9002,540.7107,879.5295,540.9248,880.1938,541.0179,880.6471,540.9125,881.394" style="stroke:#000000;stroke-width:0.0;"/><text fill="#000000" font-family="sans-serif" font-size="14" lengthAdjust="spacing" textLength="26" x="545" y="885.5">add</text><polygon fill="#000000" points="541.0138,898.0495,540.6474,898.5502,540.2139,899.2836,539.594,899.7779,538.9426,900.0481,538.4232,900.0716,537.7556,899.7336,537.1257,899.5128,536.6476,899.0644,536.3968,898.5511,536.2481,898.1424,536.1024,897.6086,535.8659,897.1492,536.0476,896.7007,536.2069,896.2094,536.8044,895.8208,537.2248,895.3167,537.7451,895.1492,538.3637,895.0051,539.1569,895.0907,539.5914,895.2956,540.0965,895.3885,540.7107,896.0178,540.9248,896.6821,541.0179,897.1353,540.9125,897.8823" style="stroke:#000000;stroke-width:0.0;"/><text fill="#000000" font-family="sans-serif" font-size="14" lengthAdjust="spacing" textLength="48" x="545" y="901.9883">update</text><polygon fill="#000000" points="541.0138,914.5378,540.6474,915.0385,540.2139,915.7719,539.594,916.2661,538.9426,916.5364,538.4232,916.5599,537.7556,916.2219,537.1257,916.001,536.6476,915.5527,536.3968,915.0394,536.2481,914.6307,536.1024,914.0969,535.8659,913.6375,536.0476,913.189,536.2069,912.6977,536.8044,912.3091,537.2248,911.8049,537.7451,911.6375,538.3637,911.4933,539.1569,911.579,539.5914,911.7839,540.0965,911.8768,540.7107,912.506,540.9248,913.1704,541.0179,913.6236,540.9125,914.3706" style="stroke:#000000;stroke-width:0.0;"/><text fill="#000000" font-family="sans-serif" font-size="14" lengthAdjust="spacing" textLength="43" x="545" y="918.4766">Delete</text><text fill="#000000" font-family="sans-serif" font-size="14" lengthAdjust="spacing" textLength="0" x="537" y="934.9648"/><path d="M524,941.918 L524,942.1982 L533.7778,941.3655 L543.5556,942.1757 L553.3333,942.4509 L563.1111,940.9668 L572.8889,941.8144 L582.6667,941.3493 L592.4444,941.4066 L602.2222,941.8271 L612,940.9961 L621.7778,942.6562 L631.5556,941.0776 L641.3333,941.6543 L651.1111,942.4939 L660.8889,941.8036 L670.6667,942.009 L680.4444,941.8754 L690.2222,942.156 L700,941.918 " fill="#F5F5F5" style="stroke:#000000;stroke-width:1.0;"/><text fill="#000000" font-family="sans-serif" font-size="14" lengthAdjust="spacing" textLength="158" x="533" y="959.4531">should we allow to add</text><text fill="#000000" font-family="sans-serif" font-size="14" lengthAdjust="spacing" textLength="151" x="533" y="975.9414">booking that hase not</text><text fill="#000000" font-family="sans-serif" font-size="14" lengthAdjust="spacing" textLength="103" x="533" y="992.4297">found via mail?</text><text fill="#000000" font-family="sans-serif" font-size="14" lengthAdjust="spacing" textLength="0" x="537" y="1008.918"/><text fill="#000000" font-family="sans-serif" font-size="14" lengthAdjust="spacing" textLength="147" x="533" y="1025.4063">onlyto the dashboard</text><text fill="#000000" font-family="sans-serif" font-size="14" lengthAdjust="spacing" textLength="0" x="537" y="1041.8945"/><text fill="#000000" font-family="sans-serif" font-size="14" lengthAdjust="spacing" textLength="134" x="533" y="1058.3828">or we need to allow</text><text fill="#000000" font-family="sans-serif" font-size="14" lengthAdjust="spacing" textLength="106" x="533" y="1074.8711">to book a ticket</text><text fill="#000000" font-family="sans-serif" font-size="14" lengthAdjust="spacing" textLength="75" x="533" y="1091.3594">via the app</text><text fill="#000000" font-family="sans-serif" font-size="14" font-weight="bold" lengthAdjust="spacing" textLength="14" x="608" y="1091.3594">??</text><!--MD5=[11f5e140980b07c621be63413f0d24bf]
entity sharer--><polygon fill="#F5F5F5" filter="url(#fp3pt9e2xykco)" points="579.5,737.5,579.5,737.7102,588.7857,737.0857,598.0714,737.6933,607.3571,737.8997,616.6429,736.7866,625.9286,737.4223,635.2143,737.0735,644.5,737.5,644.3722,737.5,644.4773,744.7977,644.2695,752.0953,644.6845,759.393,644.2899,766.6906,644.5,773.9883,644.5,773.7905,635.2143,774.4202,625.9286,773.9025,616.6429,774.0565,607.3571,773.9563,598.0714,774.1668,588.7857,774.2274,579.5,773.9883,579.6952,773.9883,579.7237,766.6906,579.7264,759.393,579.5849,752.0953,579.6545,744.7977,579.5,737.5" style="stroke:#000000;stroke-width:1.5;"/><text fill="#000000" font-family="sans-serif" font-size="14" lengthAdjust="spacing" textLength="45" x="589.5" y="761.0352">Sharer</text><!--MD5=[642baf01d76bebec5126e2765ce40ca6]
entity help--><polygon fill="#F5F5F5" filter="url(#fp3pt9e2xykco)" points="802.5,669.5,802.5,669.7102,812.5,669.0857,822.5,669.6933,832.5,669.8997,842.5,668.7866,852.5,669.5,852.4741,669.5,852.3578,676.7977,852.3722,684.0953,852.4773,691.393,852.2695,698.6906,852.5,705.9883,852.5,706.5419,842.5,705.358,832.5,705.7905,822.5,706.4202,812.5,705.9025,802.5,705.9883,802.5227,705.9883,802.4894,698.6906,802.5595,691.393,802.5797,684.0953,802.6952,676.7977,802.5,669.5" style="stroke:#000000;stroke-width:1.5;"/><text fill="#000000" font-family="sans-serif" font-size="14" lengthAdjust="spacing" textLength="30" x="812.5" y="693.0352">help</text><!--MD5=[28efe1509128d4c30cf5f8303cf262cf]
entity booking_viewer--><polygon fill="#F5F5F5" filter="url(#fp3pt9e2xykco)" points="549,562,549,562.2102,558.6923,561.5857,568.3846,562.1933,578.0769,562.3997,587.7692,561.2866,597.4615,561.9223,607.1538,561.5735,616.8462,561.6165,626.5385,561.9318,636.2308,561.3086,645.9231,562.5536,655.6154,561.3697,665.3077,561.8022,675,562,675.4319,562,674.9142,571.9235,675.0682,581.8471,674.9681,591.7706,675.1785,601.6942,675.2391,611.6177,675.5857,621.5413,675,631.4648,675,632.1359,665.3077,632.1441,655.6154,631.7195,645.9231,631.9284,636.2308,632.1671,626.5385,630.7437,616.8462,632.1434,607.1538,631.1683,597.4615,631.9987,587.7692,630.9698,578.0769,631.3963,568.3846,632.2064,558.6923,631.4161,549,631.4648,549.1053,631.4648,549.3386,621.5413,549.4162,611.6177,548.9961,601.6942,549.2872,591.7706,548.4276,581.8471,549.2844,571.9235,549,562" style="stroke:#000000;stroke-width:1.5;"/><text fill="#000000" font-family="sans-serif" font-size="14" lengthAdjust="spacing" textLength="106" x="559" y="585.5352">Booking Viewer</text><text fill="#000000" font-family="sans-serif" font-size="14" lengthAdjust="spacing" textLength="0" x="563" y="602.0234"/><text fill="#000000" font-family="sans-serif" font-size="14" lengthAdjust="spacing" textLength="64" x="559" y="618.5117">Trip View</text><!--MD5=[227b02b4c6e9fa7d2c02ec9935abfb52]
entity booking_keeping--><polygon fill="#F5F5F5" filter="url(#fp3pt9e2xykco)" points="1397,544.5,1397,544.7102,1406.9286,544.0857,1416.8571,544.6933,1426.7857,544.8997,1436.7143,543.7866,1446.6429,544.4223,1456.5714,544.0735,1466.5,544.1165,1476.4286,544.4318,1486.3571,543.8086,1496.2857,545.0536,1506.2143,543.8697,1516.1429,544.3022,1526.0714,544.9319,1536,544.5,1535.9714,544.5,1536.0227,551.7977,1535.9894,559.0953,1536.0595,566.393,1536.0797,573.6906,1536,580.9883,1536,581.574,1526.0714,581.6593,1516.1429,581.6675,1506.2143,581.2429,1496.2857,581.4519,1486.3571,581.6905,1476.4286,580.2671,1466.5,581.6668,1456.5714,580.6918,1446.6429,581.5221,1436.7143,580.4933,1426.7857,580.9198,1416.8571,581.7299,1406.9286,580.9395,1397,580.9883,1397.0351,580.9883,1397.1129,573.6906,1397.1387,566.393,1396.9987,559.0953,1397.0957,551.7977,1397,544.5" style="stroke:#000000;stroke-width:1.5;"/><text fill="#000000" font-family="sans-serif" font-size="14" lengthAdjust="spacing" textLength="119" x="1407" y="568.0352">booking_keeping</text><!--MD5=[6e2de0750c4ab95cf205f603e1bf4a1d]
entity data_reporter--><polygon fill="#F5F5F5" filter="url(#fp3pt9e2xykco)" points="762,453.5,762,453.7102,772.0769,453.0857,782.1538,453.6933,792.2308,453.8997,802.3077,452.7866,812.3846,453.4223,822.4615,453.0735,832.5385,453.1165,842.6154,453.4318,852.6923,452.8086,862.7692,454.0536,872.8462,452.8697,882.9231,453.3022,893,453.5,893.4319,453.5,892.9142,463.5401,893.0682,473.5803,892.9681,483.6204,893.1785,493.6605,893.2391,503.7006,893.5857,513.7408,893.6711,523.7809,893.6793,533.821,893.2546,543.8612,893.4636,553.9013,893,563.9414,893,564.6436,882.9231,563.2202,872.8462,564.6199,862.7692,563.6449,852.6923,564.4752,842.6154,563.4464,832.5385,563.8729,822.4615,564.683,812.3846,563.8927,802.3077,564.0467,792.2308,564.28,782.1538,564.3576,772.0769,563.9375,762,563.9414,762.2872,563.9414,761.4276,553.9013,762.2844,543.8612,762.5482,533.821,762.4445,523.7809,762.613,513.7408,761.5169,503.7006,761.3478,493.6605,761.3786,483.6204,761.9411,473.5803,761.8035,463.5401,762,453.5" style="stroke:#000000;stroke-width:1.5;"/><text fill="#000000" font-family="sans-serif" font-size="14" lengthAdjust="spacing" textLength="95" x="772" y="477.0352">Data Reporter</text><text fill="#000000" font-family="sans-serif" font-size="14" lengthAdjust="spacing" textLength="0" x="776" y="493.5234"/><path d="M763,496.4766 L763,496.7568 L772.9231,495.9241 L782.8462,496.7343 L792.7692,497.0095 L802.6923,495.5254 L812.6154,496.3729 L822.5385,495.9079 L832.4615,495.9652 L842.3846,496.3857 L852.3077,495.5547 L862.2308,497.2148 L872.1538,495.6362 L882.0769,496.2129 L892,496.4766 " fill="#F5F5F5" style="stroke:#000000;stroke-width:1.0;"/><text fill="#000000" font-family="sans-serif" font-size="14" lengthAdjust="spacing" textLength="0" x="776" y="514.0117"/><text fill="#000000" font-family="sans-serif" font-size="14" lengthAdjust="spacing" textLength="77" x="772" y="530.5">end of year</text><text fill="#000000" font-family="sans-serif" font-size="14" lengthAdjust="spacing" textLength="111" x="772" y="546.9883">statistical report</text><!--MD5=[1d19ff7c67010c6c9fbd62fc488d8bec]
entity group_trip--><polygon fill="#F3D22B" filter="url(#fp3pt9e2xykco)" points="328,257,328,257.2102,337.6429,256.5857,347.2857,257.1933,356.9286,257.3997,366.5714,256.2866,376.2143,256.9223,385.8571,256.5735,395.5,256.6165,405.1429,256.9318,414.7857,256.3086,424.4286,257.5536,434.0714,256.3697,443.7143,256.8022,453.3571,257.4319,463,257,462.9142,257,463.0682,266.7638,462.9681,276.5276,463.1785,286.2915,463.2391,296.0553,463.5857,305.8191,463.6711,315.5829,463.6793,325.3468,463.2546,335.1106,463.4636,344.8744,463.7022,354.6382,462.2788,364.402,463.6785,374.1659,463,383.9297,463,383.6332,453.3571,384.4635,443.7143,383.4347,434.0714,383.8612,424.4286,384.6713,414.7857,383.881,405.1429,384.035,395.5,384.2683,385.8571,384.3459,376.2143,383.9258,366.5714,384.2169,356.9286,383.3573,347.2857,384.2141,337.6429,384.4779,328,383.9297,328.4445,383.9297,328.613,374.1659,327.5169,364.402,327.3478,354.6382,327.3786,344.8744,327.9411,335.1106,327.8035,325.3468,328.6814,315.5829,327.8253,305.8191,327.6569,296.0553,328.2283,286.2915,327.3332,276.5276,327.4809,266.7638,328,257" style="stroke:#000000;stroke-width:1.5;"/><text fill="#000000" font-family="sans-serif" font-size="14" font-weight="bold" lengthAdjust="spacing" textLength="115" x="338" y="280.5352">Trip Aggregator</text><text fill="#000000" font-family="sans-serif" font-size="14" lengthAdjust="spacing" textLength="0" x="342" y="297.0234"/><path d="M329,299.9766 L329,300.2568 L339.2308,299.4241 L349.4615,300.2343 L359.6923,300.5095 L369.9231,299.0254 L380.1538,299.8729 L390.3846,299.4079 L400.6154,299.4652 L410.8462,299.8857 L421.0769,299.0547 L431.3077,300.7148 L441.5385,299.1362 L451.7692,299.7129 L462,299.9766 " fill="#F3D22B" style="stroke:#000000;stroke-width:1.0;"/><text fill="#000000" font-family="sans-serif" font-size="14" lengthAdjust="spacing" textLength="0" x="342" y="317.5117"/><text fill="#000000" font-family="sans-serif" font-size="14" lengthAdjust="spacing" textLength="86" x="338" y="334">Capability to</text><text fill="#000000" font-family="sans-serif" font-size="14" lengthAdjust="spacing" textLength="103" x="338" y="350.4883">group booking</text><text fill="#000000" font-family="sans-serif" font-size="14" lengthAdjust="spacing" textLength="67" x="338" y="366.9766">into a trip</text><!--MD5=[5bf3aa8b1d9073eab73b21812bd693cf]
entity trip_archive--><polygon fill="#F3D22B" filter="url(#fp3pt9e2xykco)" points="535.5,257,535.5,257.2102,545.7,256.5857,555.9,257.1933,566.1,257.3997,576.3,256.2866,586.5,256.9223,596.7,256.5735,606.9,256.6165,617.1,256.9318,627.3,256.3086,637.5,257.5536,647.7,256.3697,657.9,256.8022,668.1,257.4319,678.3,256.9142,688.5,257,688.5682,257,688.4681,266.7638,688.6785,276.5276,688.7391,286.2915,689.0857,296.0553,689.1711,305.8191,689.1793,315.5829,688.7546,325.3468,688.9636,335.1106,689.2022,344.8744,687.7788,354.6382,689.1785,364.402,688.2035,374.1659,688.5,383.9297,688.5,384.4635,678.3,383.4347,668.1,383.8612,657.9,384.6713,647.7,383.881,637.5,384.035,627.3,384.2683,617.1,384.3459,606.9,383.9258,596.7,384.2169,586.5,383.3573,576.3,384.2141,566.1,384.4779,555.9,384.3742,545.7,384.5427,535.5,383.9297,535.0169,383.9297,534.8478,374.1659,534.8786,364.402,535.4411,354.6382,535.3035,344.8744,536.1814,335.1106,535.3253,325.3468,535.1569,315.5829,535.7283,305.8191,534.8332,296.0553,534.9809,286.2915,536.149,276.5276,535.9357,266.7638,535.5,257" style="stroke:#000000;stroke-width:1.5;"/><text fill="#000000" font-family="sans-serif" font-size="14" font-weight="bold" lengthAdjust="spacing" textLength="92" x="545.5" y="280.5352">Auto remove</text><text fill="#000000" font-family="sans-serif" font-size="14" lengthAdjust="spacing" textLength="0" x="549.5" y="297.0234"/><path d="M536.5,299.9766 L536.5,300.2568 L546.5667,299.4241 L556.6333,300.2343 L566.7,300.5095 L576.7667,299.0254 L586.8333,299.8729 L596.9,299.4079 L606.9667,299.4652 L617.0333,299.8857 L627.1,299.0547 L637.1667,300.7148 L647.2333,299.1362 L657.3,299.7129 L667.3667,300.5525 L677.4333,299.8622 L687.5,299.9766 " fill="#F3D22B" style="stroke:#000000;stroke-width:1.0;"/><text fill="#000000" font-family="sans-serif" font-size="14" lengthAdjust="spacing" textLength="0" x="549.5" y="317.5117"/><text fill="#000000" font-family="sans-serif" font-size="14" lengthAdjust="spacing" textLength="54" x="545.5" y="334">Remove</text><text fill="#000000" font-family="sans-serif" font-size="14" font-weight="bold" lengthAdjust="spacing" textLength="75" x="603.5" y="334">completed</text><text fill="#000000" font-family="sans-serif" font-size="14" lengthAdjust="spacing" textLength="31" x="545.5" y="350.4883">trips</text><text fill="#000000" font-family="sans-serif" font-size="14" lengthAdjust="spacing" textLength="0" x="549.5" y="366.9766"/><!--MD5=[1e0e2dbac2f3cca3269c18ad1edf5798]
entity q1--><polygon fill="#F5F5F5" filter="url(#fp3pt9e2xykco)" points="761,740.5,761,740.7102,771.2308,740.0857,781.4615,740.6933,791.6923,740.8997,801.9231,739.7866,812.1538,740.4223,822.3846,740.0735,832.6154,740.1165,842.8462,740.4318,853.0769,739.8086,863.3077,741.0536,873.5385,739.8697,883.7692,740.3022,894,740.5,894.4319,740.5,893.9142,750.4056,894.0682,760.3111,893.9681,770.2167,894.1785,780.1222,894.2391,790.0278,894.5857,799.9334,894.6711,809.8389,894.6793,819.7445,894.2546,829.65,894.4636,839.5556,894.7022,849.4612,893.2788,859.3667,894.6785,869.2723,893.7035,879.1778,894.5338,889.0834,893.505,898.989,894,908.8945,894,908.826,883.7692,909.6361,873.5385,908.8458,863.3077,908.9998,853.0769,909.2332,842.8462,909.3108,832.6154,908.8906,822.3846,909.1817,812.1538,908.3221,801.9231,909.1789,791.6923,909.4427,781.4615,909.3391,771.2308,909.5076,761,908.8945,760.5169,908.8945,760.3478,898.989,760.3786,889.0834,760.9411,879.1778,760.8035,869.2723,761.6814,859.3667,760.8253,849.4612,760.6569,839.5556,761.2283,829.65,760.3332,819.7445,760.4809,809.8389,761.649,799.9334,761.4357,790.0278,761.7345,780.1222,760.6782,770.2167,761.3192,760.3111,761.5904,750.4056,761,740.5" style="stroke:#3F75BB;stroke-width:1.0;stroke-dasharray:1.0,3.0;"/><text fill="#3F75BB" font-family="sans-serif" font-size="14" lengthAdjust="spacing" textLength="73" x="771" y="764.0352">should the</text><text fill="#3F75BB" font-family="sans-serif" font-size="14" lengthAdjust="spacing" textLength="112" x="771" y="780.5234">manual booking</text><text fill="#3F75BB" font-family="sans-serif" font-size="14" lengthAdjust="spacing" textLength="106" x="771" y="797.0117">interact directly</text><text fill="#3F75BB" font-family="sans-serif" font-size="14" lengthAdjust="spacing" textLength="113" x="771" y="813.5">with the agency?</text><text fill="#3F75BB" font-family="sans-serif" font-size="14" lengthAdjust="spacing" textLength="0" x="775" y="829.9883"/><text fill="#3F75BB" font-family="sans-serif" font-size="14" lengthAdjust="spacing" textLength="24" x="771" y="846.4766">---</text><text fill="#3F75BB" font-family="sans-serif" font-size="14" lengthAdjust="spacing" textLength="0" x="775" y="862.9648"/><text fill="#3F75BB" font-family="sans-serif" font-size="14" lengthAdjust="spacing" textLength="101" x="771" y="879.4531">or use the GDS</text><text fill="#3F75BB" font-family="sans-serif" font-size="14" lengthAdjust="spacing" textLength="91" x="771" y="895.9414">Sabre/Apollo</text><!--MD5=[5aa9fe14e2b4221da937042b0842c101]
entity q2--><polygon fill="#F5F5F5" filter="url(#fp3pt9e2xykco)" points="761.5,306.5,761.5,306.7102,771.6538,306.0857,781.8077,306.6933,791.9615,306.8997,802.1154,305.7866,812.2692,306.4223,822.4231,306.0735,832.5769,306.1165,842.7308,306.4318,852.8846,305.8086,863.0385,307.0536,873.1923,305.8697,883.3462,306.3022,893.5,306.5,893.644,306.5,893.4714,313.7977,893.5227,321.0953,893.4894,328.393,893.5595,335.6906,893.5,342.9883,893.5,343.2274,883.3462,343.574,873.1923,343.6593,863.0385,343.6675,852.8846,343.2429,842.7308,343.4519,832.5769,343.6905,822.4231,342.2671,812.2692,343.6668,802.1154,342.6918,791.9615,343.5221,781.8077,342.4933,771.6538,342.9198,761.5,342.9883,761.7472,342.9883,761.4838,335.6906,761.5351,328.393,761.6129,321.0953,761.6387,313.7977,761.5,306.5" style="stroke:#3F75BB;stroke-width:1.0;stroke-dasharray:1.0,3.0;"/><text fill="#3F75BB" font-family="sans-serif" font-size="14" lengthAdjust="spacing" textLength="112" x="771.5" y="330.0352">trip completed??</text><!--MD5=[9c85ebaf4d2067b590e75ff69793c33c]
entity bi--><polygon fill="#F5F5F5" filter="url(#fp3pt9e2xykco)" points="525.5,7,525.5,7.2102,535.6765,6.5857,545.8529,7.1933,556.0294,7.3997,566.2059,6.2866,576.3824,6.9223,586.5588,6.5735,596.7353,6.6165,606.9118,6.9318,617.0882,6.3086,627.2647,7.5536,637.4412,6.3697,647.6176,6.8022,657.7941,7.4319,667.9706,6.9142,678.1471,7.0682,688.3235,6.9681,698.5,7,698.6785,7,698.7391,16.6831,699.0857,26.3662,699.1711,36.0493,699.1793,45.7324,698.7546,55.4155,698.9636,65.0986,699.2022,74.7817,698.5,84.4648,698.5,83.7437,688.3235,85.1434,678.1471,84.1683,667.9706,84.9987,657.7941,83.9698,647.6176,84.3963,637.4412,85.2064,627.2647,84.4161,617.0882,84.5701,606.9118,84.8035,596.7353,84.8811,586.5588,84.4609,576.3824,84.7521,566.2059,83.8924,556.0294,84.7492,545.8529,85.013,535.6765,84.9094,525.5,84.4648,526.113,84.4648,525.0169,74.7817,524.8478,65.0986,524.8786,55.4155,525.4411,45.7324,525.3035,36.0493,526.1814,26.3662,525.3253,16.6831,525.5,7" style="stroke:#000000;stroke-width:1.5;"/><text fill="#000000" font-family="sans-serif" font-size="14" font-weight="bold" lengthAdjust="spacing" textLength="153" x="535.5" y="30.5352">Business Intelligence</text><text fill="#000000" font-family="sans-serif" font-size="14" lengthAdjust="spacing" textLength="0" x="539.5" y="47.0234"/><path d="M526.5,49.9766 L526.5,50.2568 L536.5588,49.4241 L546.6176,50.2343 L556.6765,50.5095 L566.7353,49.0254 L576.7941,49.8729 L586.8529,49.4079 L596.9118,49.4652 L606.9706,49.8857 L617.0294,49.0547 L627.0882,50.7148 L637.1471,49.1362 L647.2059,49.7129 L657.2647,50.5525 L667.3235,49.8622 L677.3824,50.0675 L687.4412,49.934 L697.5,49.9766 " fill="#F5F5F5" style="stroke:#000000;stroke-width:1.0;"/><text fill="#000000" font-family="sans-serif" font-size="14" lengthAdjust="spacing" textLength="0" x="539.5" y="67.5117"/><!--MD5=[4f651ae1385f6fac5f7b26addae19213]
link user to system--><!--MD5=[ff9f4cbc28b08930182d18d358388556]
link system to bi--><path d="M186.11,365.71 L186.1894,365.7591 L188.5596,361.3996 L191.3954,357.3281 L194.0796,353.1629 L196.2651,348.6891 L199.1409,344.6424 L199.1119,344.6237 L200.4026,342.33 L201.8399,340.1305 L203.3789,337.9965 L204.567,335.6368 L206.2466,333.5931 L206.4519,333.7289 L207.5093,331.1764 L209.1659,329.0203 L210.8956,326.9125 L212.2,324.5233 L213.7281,322.2822 L213.7532,322.2993 L215.2852,319.9719 L216.9313,317.7224 L218.5224,315.4353 L220.2185,313.2198 L221.5722,310.771 L221.8162,310.9425 L223.4578,308.6146 L224.9421,306.176 L226.6568,303.8995 L228.3822,301.6305 L229.7656,299.1209 L229.5064,298.9324 L231.7154,296.9528 L233.0709,294.3524 L235.0752,292.224 L236.4113,289.6095 L238.2951,287.3934 L238.2708,287.3751 L240.3288,285.2431 L241.8188,282.683 L243.6439,280.3755 L245.4972,278.0893 L247.1475,275.65 L247.2931,275.7641 L248.9785,273.3093 L250.9128,271.0495 L252.4444,268.4744 L254.5766,266.3696 L256.3095,263.952 L256.4982,264.1061 L258.3542,261.7587 L260.3039,259.4879 L261.8181,256.8617 L263.6516,254.4959 L265.7678,252.361 L265.5577,252.1818 L267.6962,250.0595 L269.5979,247.7352 L271.8431,245.7039 L273.5019,243.1724 L275.5093,240.9383 L275.3956,240.8366 L277.5872,238.7673 L279.2929,236.2635 L281.3441,234.0687 L283.7333,232.1762 L285.5206,229.7453 L285.6616,229.8781 L287.8119,227.7888 L289.5237,225.2866 L291.7847,223.3015 L293.926,221.2038 L295.7886,218.8436 L295.6399,218.6954 L297.8607,216.7037 L300.0328,214.6635 L302.3006,212.7186 L304.1964,210.403 L306.3,208.2945 L306.4411,208.444 L308.2794,206.0885 L310.39,204.0216 L312.8985,202.3763 L314.6746,199.9547 L317.0415,198.1595 L317.1911,198.3292 L319.294,196.2965 L321.3462,194.2064 L323.5126,192.2458 L325.9431,190.5849 L328,188.5 L327.9156,188.3971 L330.4108,186.8628 L332.3321,184.629 L334.9059,183.1905 L337.1124,181.3042 L339.2198,179.2973 L339.2861,179.3837 L341.5602,177.5292 L344.0716,175.9841 L346.3687,174.1595 L348.5761,172.218 L350.858,170.3736 L350.9277,170.4703 L353.2239,168.5982 L355.8435,167.1752 L358.0973,165.2443 L360.5016,163.5223 L362.8565,161.7317 L362.7046,161.5081 L365.2154,159.9113 L367.9093,158.584 L370.3443,156.8755 L372.6863,155.0303 L375.1572,153.3747 L375.0797,153.2543 L377.6135,151.679 L380.0101,149.8905 L382.7838,148.6881 L385.3708,147.1957 L387.702,145.3053 L387.824,145.505 L390.4092,144.0132 L392.7626,142.142 L395.3607,140.6712 L397.7968,138.9354 L400.4328,137.5266 L400.4963,137.6357 L403.0597,136.1243 L405.6998,134.7447 L408.0966,132.9472 L410.6897,131.4868 L413.2915,130.0414 L413.3873,130.2136 L415.9997,128.824 L418.3522,126.9667 L421.0067,125.6527 L423.6665,124.3482 L426.22,122.8525 L426.0924,122.6129 L428.8819,121.6132 L431.45,120.1979 L433.9631,118.6792 L436.6019,117.3967 L439.1602,115.9629 L439.3076,116.2513 L441.6757,114.5216 L444.3815,113.4527 L446.9543,112.1236 L449.4987,110.7389 L452.0541,109.3756 L452.0817,109.4318 L454.6342,108.1644 L457.0476,106.6137 L459.6492,105.4463 L462.1952,104.1657 L464.8435,103.0933 L464.8556,103.119 L467.3856,101.9339 L469.925,100.7686 L472.3643,99.3919 L474.9321,98.2868 L477.4703,97.1191 L477.4481,97.0705 L480.058,96.2196 L482.5115,95.0262 L484.8244,93.5247 L487.3818,92.5589 L489.8765,91.4557 L489.7729,91.221 L492.3537,90.5031 L494.8366,89.5633 L497.2506,88.4674 L499.5003,86.9989 L502.0039,86.1061 L502.0838,86.2962 L506.5132,83.8526 L511.3128,82.2897 L515.864,80.1358 L520.5694,78.3489 L525.19,76.36 " fill="none" style="stroke:#000000;stroke-width:1.0;"/><!--MD5=[b2659dc723c3a3300844eb4f541b6d05]
link bi to booking_keeping--><path d="M699,61.36 L699.0199,61.4513 L704.7905,62.4512 L710.6777,63.9863 L716.527,65.347 L722.2513,66.1349 L728.1486,67.7158 L728.1407,67.6822 L734.5785,69.0444 L741.056,70.5762 L747.561,72.2259 L753.971,73.4693 L760.514,75.2817 L760.5729,75.5206 L763.9009,75.8606 L767.4008,76.898 L770.9216,78.0206 L774.3205,78.648 L777.7835,79.5359 L777.791,79.5653 L781.366,80.4376 L784.9751,81.4438 L788.5678,82.3854 L792.1919,83.4502 L795.7135,84.1135 L795.7899,84.4018 L799.4994,85.3869 L803.1597,86.1861 L806.892,87.2575 L810.6277,88.3416 L814.2564,89.0215 L814.1716,88.7124 L818.1578,90.3614 L821.8647,90.9926 L825.7839,92.3975 L829.4844,93.0056 L833.3642,94.2669 L833.3559,94.2376 L837.3795,95.7018 L841.2082,96.4819 L845.152,97.6657 L849.1053,98.8834 L852.9891,99.8566 L853.0415,100.034 L857.0074,101.0432 L861.0629,102.3555 L864.9734,103.1773 L869.1002,104.7307 L873.0832,105.7977 L873.1547,106.0306 L877.2443,107.2464 L881.3693,108.5779 L885.3294,109.3721 L889.4105,110.5601 L893.5986,112.0971 L893.5147,111.834 L897.7685,113.4051 L901.9277,114.6797 L906.2241,116.3844 L910.2862,117.3548 L914.4876,118.7617 L914.4396,118.617 L918.7625,120.2654 L922.8801,121.2952 L927.1437,122.7649 L931.5501,124.665 L935.7022,125.7986 L935.7654,125.9817 L940.1071,127.5904 L944.2525,128.6299 L948.6439,130.3824 L952.9817,131.9796 L957.1946,133.2147 L957.1236,133.0171 L961.5246,134.7351 L965.9024,136.3883 L970.3259,138.1687 L974.5718,139.4548 L978.9169,141.017 L978.9889,141.2096 L983.2115,142.4256 L987.5731,144.0133 L992.1379,146.1439 L996.3287,147.275 L1000.8213,149.2125 L1000.9034,149.4232 L1005.2623,151.0172 L1009.5934,152.5398 L1013.9873,154.2234 L1018.5262,156.2789 L1022.8598,157.8081 L1022.8097,157.6849 L1027.384,159.8523 L1031.6172,161.1816 L1036.2382,163.4639 L1040.6409,165.2096 L1044.9848,166.8108 L1045.0273,166.911 L1049.4257,168.7135 L1053.9764,170.8748 L1058.3895,172.7119 L1062.7449,174.4135 L1067.1482,176.2276 L1067.1966,176.3366 L1071.5555,178.1423 L1076.139,180.4538 L1080.4686,182.1932 L1084.9026,184.168 L1089.3022,186.0655 L1089.1883,185.8203 L1093.6457,187.9553 L1098.2404,190.3857 L1102.6408,192.3982 L1106.9717,194.2609 L1111.3991,196.3313 L1111.3364,196.2026 L1115.7549,198.384 L1120.0623,200.3375 L1124.6748,202.9176 L1129.1363,205.1876 L1133.3908,207.0322 L1133.4972,207.2406 L1137.899,209.5359 L1142.0987,211.4352 L1146.5117,213.7525 L1150.7836,215.7931 L1155.2296,218.1751 L1155.2893,218.2864 L1159.609,220.5901 L1164.0008,223.0282 L1168.1643,225.0402 L1172.5118,227.3959 L1176.8677,229.7669 L1176.9644,229.9386 L1181.2693,232.3961 L1185.3116,234.3875 L1189.659,236.9204 L1194.0117,239.4628 L1198.257,241.8146 L1198.1185,241.5811 L1202.5557,244.4518 L1206.7526,246.9175 L1210.8899,249.2824 L1215.1635,251.8775 L1219.3499,254.3252 L1219.5199,254.6008 L1221.3609,255.4931 L1223.5915,257.0168 L1225.6687,258.2919 L1227.7131,259.5138 L1229.7701,260.7563 L1229.8037,260.8092 L1231.8628,262.1087 L1233.7528,263.1418 L1235.8716,264.5355 L1237.9228,265.8226 L1240.0983,267.3057 L1240.1138,267.3294 L1242.1657,268.6722 L1244.2296,270.0333 L1246.1658,271.1985 L1248.266,272.6154 L1250.3285,273.9743 L1250.2987,273.9299 L1252.4964,275.545 L1254.4845,276.8472 L1256.2839,277.8683 L1258.4113,279.3783 L1260.4546,280.763 L1260.3089,280.5518 L1262.5305,282.2504 L1264.6145,283.7494 L1266.6016,285.108 L1268.3575,286.1313 L1270.4706,287.6726 L1270.59,287.8407 L1272.2595,288.8098 L1274.4822,290.5577 L1276.3336,291.783 L1278.4156,293.3328 L1280.3707,294.7041 L1280.4338,294.7903 L1282.4502,296.3043 L1284.093,297.3075 L1286.3623,299.1671 L1288.2399,300.4913 L1290.1488,301.8582 L1290.2439,301.9843 L1292.2789,303.5791 L1294.0103,304.7713 L1295.9857,306.2871 L1297.926,307.7562 L1299.7989,309.136 L1299.8527,309.2052 L1301.7019,310.6161 L1303.7993,312.3462 L1305.3422,313.3634 L1307.5661,315.256 L1309.3151,316.5381 L1309.1414,316.3219 L1311.04,317.8564 L1313.0767,319.563 L1314.9487,321.0644 L1316.6789,322.3893 L1318.6913,324.0656 L1318.8086,324.2072 L1320.5682,325.6336 L1322.5895,327.3757 L1324.4187,328.8861 L1325.9484,330.0352 L1327.9216,331.7193 L1327.8065,331.585 L1329.6999,333.2318 L1331.6558,334.9515 L1333.4852,336.5237 L1335.2714,338.0455 L1337,339.5 L1336.8963,339.3889 L1339.6687,342.0194 L1342.1435,344.3312 L1344.4125,346.4227 L1346.83,348.6731 L1349.3781,351.0634 L1349.2483,350.9411 L1351.6575,353.4895 L1354.1202,356.0882 L1356.4024,358.517 L1358.6382,360.9019 L1361.1221,363.5207 L1361.2878,363.6602 L1363.1883,366.0283 L1365.7373,368.9425 L1367.9339,371.5599 L1370.1373,374.183 L1372.2331,376.7155 L1372.478,376.9018 L1374.242,379.4045 L1376.3184,382.145 L1378.7042,385.1207 L1380.4054,387.5756 L1382.7123,390.4914 L1382.6269,390.4321 L1384.7243,393.3608 L1386.6769,396.1891 L1388.4907,398.921 L1390.5756,401.841 L1392.5611,404.6921 L1392.8402,404.8699 L1394.648,407.7407 L1396.0253,410.3373 L1398.1222,413.3922 L1399.744,416.1445 L1401.7805,419.1611 L1401.7704,419.1551 L1403.6109,422.1434 L1405.3778,425.0882 L1406.6807,427.7597 L1408.8069,430.9163 L1410.3718,433.7421 L1410.3751,433.7439 L1411.7482,436.5308 L1413.374,439.4562 L1415.2778,442.5338 L1416.8407,445.4248 L1418.3362,448.2788 L1418.3297,448.2754 L1419.5381,451.0098 L1421.5321,454.1464 L1422.6161,456.8171 L1423.9984,459.6405 L1425.675,462.6147 L1425.6481,462.6017 L1427.2541,465.5239 L1428.6073,468.3246 L1429.7177,471.0087 L1430.9859,473.7686 L1432.3894,476.5935 L1432.4581,476.6246 L1433.683,479.3206 L1434.6202,481.8866 L1436.2116,484.7485 L1437.4885,487.4681 L1438.4805,490.0588 L1438.3923,490.0211 L1439.3989,492.5429 L1440.9438,495.2948 L1441.7705,497.7397 L1442.8557,500.2951 L1443.9495,502.8542 L1444.0727,502.9041 L1444.6532,505.1403 L1446.1072,507.7303 L1446.8521,510.0332 L1448.1037,512.5412 L1448.7978,514.8234 L1448.7083,514.789 L1449.8132,517.0861 L1450.3051,519.1472 L1451.4367,521.4545 L1452.3381,523.6733 L1453.0265,525.8101 L1452.8896,525.7609 L1454.4991,529.5445 L1455.4289,533.0842 L1456.7918,536.7794 L1458.5949,540.6325 L1459.63,544.21 " fill="none" style="stroke:#000000;stroke-width:1.0;"/><!--MD5=[f63ce125ee8625824e93f558ec828b37]
link data_reporter to booking_keeping--><path d="M893.38,514 L893.4037,514.2792 L903.2078,514.2866 L913.1508,515.9309 L923.0485,517.0422 L932.7977,516.4004 L942.7438,518.082 L952.579,518.4557 L962.4584,519.3499 L972.3684,520.6059 L982.1727,520.615 L992.1875,523.1061 L1001.9286,522.3703 L1011.8518,523.782 L1021.7973,525.4556 L1031.6135,525.6049 L1041.5053,526.6465 L1051.3686,527.3505 L1061.2668,528.4672 L1071.1481,529.3848 L1081.0616,530.6822 L1090.9458,531.6327 L1100.8212,532.4807 L1110.6479,532.7536 L1120.5459,533.8683 L1130.4473,535.0224 L1140.1615,533.9683 L1150.1937,536.665 L1159.9584,536.2067 L1169.9264,538.1469 L1179.685,537.617 L1189.6076,539.0208 L1199.5733,540.9341 L1209.3588,540.7211 L1219.2507,541.7628 L1229.1515,542.9099 L1239.0347,543.8501 L1248.8619,544.1289 L1258.7692,545.3528 L1268.5469,545.0477 L1278.5179,547.0231 L1288.4221,548.2107 L1298.285,548.91 L1308.1785,549.9709 L1317.9295,549.3517 L1327.785,549.9641 L1337.663,550.8421 L1347.6008,552.4265 L1357.4598,553.0807 L1367.4332,555.0841 L1377.2113,554.7838 L1387.0669,555.3972 L1396.98,556.69 " fill="none" style="stroke:#000000;stroke-width:1.0;"/><!--MD5=[8dd71e252b3a2ec677f8e452cbb406bd]
link booking_manual to q1--><path d="M701.38,903.03 L701.529,903.2674 L709.5577,897.245 L718.4599,892.614 L727.0776,887.5299 L734.76,880.9558 L743.6821,876.3565 L751.9063,870.6455 L760.68,865.81 " fill="none" style="stroke:#A80036;stroke-width:1.0;stroke-dasharray:7.0,7.0;"/><!--MD5=[5207268d088a8740a28cdbf5e8328110]
link q1 to travel_updates--><path d="M894.32,788.69 L894.454,788.9362 L902.5559,783.5791 L911.4432,779.6649 L920.0747,775.2809 L927.8653,769.3517 L936.7705,765.4704 L945.0482,760.4362 L953.82,756.31 " fill="none" style="stroke:#A80036;stroke-width:1.0;stroke-dasharray:7.0,7.0;"/><!--MD5=[09b5223eaef19cd235def05465e4de91]
link booking_viewer to sharer--><!--MD5=[9a9f955ee61da1bc3bb7d64d7a270123]
link sharer to booking_manual--><!--MD5=[76864cdafebb01dde3c8d261d16657c6]
link booking_manual to help--><!--MD5=[e9180cbccf9f2dd025953d8bef3aa5d4]
link trip_archive to q2--><path d="M688.87,321.92 L688.8753,322.2002 L699.1825,321.562 L709.5206,322.5662 L719.8486,323.0357 L730.1435,321.7461 L740.4823,322.7878 L750.7964,322.5172 L761.13,323.28 " fill="none" style="stroke:#A80036;stroke-width:1.0;stroke-dasharray:7.0,7.0;"/><!--MD5=[bc55dd13a51007e6a62631f0ca7cdb60]
link q2 to booking_logger--><path d="M893.66,336.76 L893.7118,337.0354 L903.4838,338.0841 L913.5595,340.7473 L923.5363,342.8848 L933.1879,343.2933 L943.2705,345.9934 L953.1104,347.4034 L963.047,349.3267 L973.0506,351.607 L982.8229,352.6574 L993.0557,356.1558 L1002.6898,356.4715 L1012.7224,358.9053 L1022.8035,361.5975 L1032.6018,362.7861 L1042.5657,364.855 L1052.4669,366.5907 L1062.4447,368.7336 L1072.3856,370.68 L1082.3969,373.0012 L1092.3439,374.9801 L1102.2719,376.8578 L1112.0931,378.1685 L1122.0706,380.3093 L1132.0553,382.4891 L1141.6304,382.4909 L1151.9013,386.1921 L1161.66,387.17 " fill="none" style="stroke:#A80036;stroke-width:1.0;stroke-dasharray:7.0,7.0;"/><!--MD5=[1f1999c583dc85282033d62259efb893]
link system to group_trip--><path d="M236.38,395.09 L236.4996,395.3435 L245.2923,390.2754 L254.7859,386.6931 L264.0513,382.627 L272.5662,376.9697 L282.0758,373.4213 L291.0254,368.6857 L300.1979,364.4225 L309.5252,360.4878 L318.3187,355.4213 L327.86,351.94 " fill="none" style="stroke:#000000;stroke-width:1.0;"/><!--MD5=[a74e8e632cbad1a60f17c893227dffa7]
link group_trip to trip_archive--><path d="M463.49,320.5 L463.49,320.7802 L473.73,319.9476 L483.97,320.7577 L494.21,321.0329 L504.45,319.5488 L514.69,320.3964 L524.93,319.9313 L535.17,320.5 " fill="none" style="stroke:#000000;stroke-width:1.0;"/><!--MD5=[aac6790791cd02a4df0ce7bd3c340b66]
link user to sharer--><path d="M222.14,654.93 L222.1904,655.0087 L224.4473,656.3157 L226.9994,658.0839 L229.4555,659.7019 L231.5953,660.826 L234.1728,662.6338 L234.1547,662.6044 L236.5814,664.0116 L239.0992,665.5672 L241.6803,667.226 L244.0432,668.5293 L246.7117,670.3305 L246.836,670.5428 L249.1629,671.6057 L251.8527,673.2885 L254.5867,675.0471 L257.0632,676.3655 L259.6751,677.9153 L259.6898,677.9419 L262.3294,679.3766 L265.036,680.9321 L267.7103,682.4294 L270.4461,684.0378 L272.9813,685.2838 L273.1187,685.5484 L275.8339,686.9611 L278.4603,688.2031 L281.2166,689.695 L283.9789,691.1986 L286.5485,692.3311 L286.4094,692.0423 L289.4287,693.9271 L291.99,694.861 L294.8995,696.5178 L297.4503,697.4301 L300.2952,698.9527 L300.2829,698.9248 L303.1968,700.4726 L305.8242,701.3693 L308.6206,702.6502 L311.4313,703.9634 L314.1396,705.0438 L314.2073,705.216 L316.911,706.1335 L319.7305,707.3451 L322.3626,708.0808 L325.2742,709.5264 L328,710.5 L328.0799,710.7302 L331.3892,711.8406 L334.7383,713.0653 L337.903,713.7591 L341.2028,714.8421 L344.6223,716.2699 L344.541,716.0059 L348.0254,717.2958 L351.4182,718.2882 L354.9439,719.712 L358.2427,720.3993 L361.6764,721.5243 L361.6361,721.3773 L365.1767,722.5748 L368.545,723.1438 L372.0359,724.1597 L375.6467,725.613 L379.0439,726.2875 L379.0899,726.4756 L382.6339,727.4638 L386.0348,727.8669 L389.615,729.0029 L393.1561,729.9791 L396.6062,730.5834 L396.5614,730.3783 L400.1249,731.3124 L403.6737,732.1793 L407.2513,733.1782 L410.7169,733.6639 L414.245,734.4363 L414.2844,734.6381 L417.7172,734.8815 L421.226,735.5144 L424.8459,736.7163 L428.2613,736.8707 L431.8417,737.8702 L431.8806,738.093 L435.3447,738.5685 L438.7957,738.9685 L442.2764,739.5387 L445.8257,740.5023 L449.2779,740.9092 L449.2574,740.7778 L452.7497,741.7028 L456.103,741.7338 L459.6143,742.7813 L463.0367,743.2565 L466.435,743.5775 L466.4499,743.6853 L469.7898,744.0626 L473.1832,744.826 L476.5282,745.2406 L479.853,745.5093 L483.1946,745.8991 L483.2092,746.0174 L486.4363,746.2415 L489.731,747.0148 L492.9492,747.1669 L496.1989,747.5745 L499.4383,747.8982 L499.409,747.6295 L502.5406,748.0593 L505.7075,748.813 L508.8245,749.1085 L511.9236,749.2398 L515.0475,749.5989 L515.0338,749.4564 L518.0094,749.7874 L520.9608,749.8659 L523.9789,750.6382 L526.9639,751.0672 L529.9038,751.0253 L529.9234,751.2584 L532.7266,751.5683 L535.4926,751.4352 L538.2979,751.7697 L541.0772,751.7946 L543.8886,752.2015 L543.8978,752.3274 L546.4956,752.5009 L549.1045,752.8264 L551.6782,752.6698 L554.2802,752.902 L556.8836,753.1516 L556.8951,753.3484 L561.4076,753.667 L565.8889,753.4516 L570.4064,753.8566 L574.9246,754.2725 L579.43,754.47 " fill="none" style="stroke:#000000;stroke-width:1.0;"/><!--MD5=[47e55e7f165287d2f6d95e7ba55a5740]
link user to booking_viewer--><path d="M268.24,598.71 L268.2418,598.9902 L278.2536,598.0929 L288.2759,598.8384 L298.2949,599.049 L308.3024,597.5003 L318.325,598.2832 L328.3392,597.7535 L338.3567,597.7462 L348.3766,598.102 L358.3883,597.2064 L368.4162,598.8017 L378.4231,597.1586 L388.444,597.6706 L398.4666,598.4456 L408.4793,597.6906 L418.4977,597.8313 L428.514,597.6331 L438.533,597.8491 L448.5506,597.8653 L458.5708,598.2627 L468.5886,598.3119 L478.6058,598.2582 L488.6193,597.6274 L498.6383,597.8413 L508.6575,598.0949 L518.6624,596.1324 L528.6916,597.9339 L538.7003,596.5693 L548.72,596.9 " fill="none" style="stroke:#000000;stroke-width:1.0;"/><!--MD5=[737214b8c710f1e05fb5c6a58ede962d]
link user to booking_manual--><path d="M211.75,654.88 L211.8098,654.9518 L217.0543,659.2561 L222.6492,663.9811 L228.1301,668.5691 L233.2355,672.7065 L238.8606,677.4677 L238.8387,677.441 L244.5771,682.124 L250.4261,686.9415 L256.352,691.8524 L262.0129,696.4413 L268.045,701.4812 L268.1998,701.6725 L273.8886,706.1371 L280.0294,711.1601 L286.2254,716.2512 L292.1005,720.946 L298.1444,725.8492 L298.1632,725.873 L304.1067,730.5682 L310.1359,735.3717 L316.1237,740.123 L322.1905,744.9739 L328,749.5 L328.1828,749.7357 L333.0861,753.5391 L337.8717,757.1904 L342.8297,761.0643 L347.7959,764.9486 L352.5058,768.5025 L352.311,768.2479 L357.7114,772.5834 L362.4706,776.0806 L367.7172,780.2151 L372.4619,783.6932 L377.618,787.7094 L377.5996,787.6851 L382.8952,791.8116 L387.7618,795.3707 L392.8816,799.2646 L398.0226,803.1867 L403.0103,806.9059 L403.1211,807.054 L408.0784,810.6989 L413.2251,814.5968 L418.0654,818.0852 L423.3628,822.1844 L428.3563,825.8775 L428.7908,826.4652 L436.9166,832.4223 L445.258,838.6712 L452.5972,843.5643 L460.6711,849.4512 L468.9034,855.5524 L477.6039,862.2869 L477.5576,862.2234 L484.9738,867.564 L493.188,873.9986 L500.0397,878.5653 L507.4317,883.8728 L515.405,889.977 L522.75,895.22 " fill="none" style="stroke:#000000;stroke-width:1.0;"/><!--MD5=[8d1c232dd45f3bcc746fde392acbf479]
link user to help--><path d="M268.15,615.38 L268.1861,615.6579 L277.8807,616.106 L287.7871,618.1833 L297.6244,619.73 L307.2351,619.5321 L317.1463,621.6465 L326.8883,622.4592 L336.6976,623.7899 L346.5537,625.4807 L356.2485,625.9305 L366.2644,628.8505 L375.8629,628.5589 L385.7391,630.4047 L395.6492,632.5111 L405.3622,633.1004 L415.1906,634.5779 L424.9753,635.7193 L434.8134,637.2714 L444.6257,638.6254 L454.4872,640.3575 L464.3038,641.7442 L474.1071,643.0289 L483.8361,643.7413 L493.6739,645.2914 L503.5168,646.8808 L513.0742,646.2726 L523,648.5 L523.1153,649.3973 L532.9178,649.3893 L543.0272,651.7688 L552.8205,651.6896 L562.8612,653.5351 L572.9671,655.8879 L582.801,656.1241 L592.7954,657.6093 L602.8033,659.1992 L612.7847,660.5833 L622.6815,661.3091 L632.6992,662.9755 L642.5213,663.1201 L652.6351,665.5347 L662.6482,667.165 L672.5988,668.3093 L682.5956,669.8136 L692.3775,669.6454 L702.317,670.7032 L712.2904,672.0254 L722.3543,674.0507 L732.2991,675.1501 L742.4166,677.5926 L752.2392,677.7419 L762.1788,678.8006 L772.2442,680.8376 L782.0602,680.9353 L792.0535,682.4121 L802.11,684.38 " fill="none" style="stroke:#000000;stroke-width:1.0;"/><!--MD5=[3de0ff637c82b3fefbe75505140b2724]
link system to travel_updates--><path d="M236.21,432.06 L236.2249,432.3398 L246.1304,430.9781 L256.1234,431.2568 L266.0879,431.0013 L275.9588,428.9891 L285.9537,429.3052 L295.8788,428.3105 L305.8317,427.8375 L315.8088,427.8178 L315.8044,427.727 L324.91,426.4568 L334.1354,427.6746 L343.2051,425.6577 L352.3785,425.7934 L361.5368,425.6166 L361.562,426.1919 L371.2361,425.0757 L380.9496,424.8543 L390.6481,424.2943 L400.3648,424.1481 L410.0588,423.4838 L410.0712,423.8024 L420.1787,423.8695 L430.2726,423.5886 L440.3624,423.205 L450.4297,422.2446 L460.5059,421.5108 L460.5265,422.1285 L470.8379,422.1022 L481.0752,419.861 L491.4382,421.3819 L501.6955,419.7383 L512.0094,419.7891 L512.0284,420.5006 L522.33,418.8535 L532.6833,419.1461 L543.0503,419.9501 L553.3604,418.6209 L563.7004,418.41 L563.703,418.5504 L573.9106,418.6724 L584.1145,418.5869 L594.306,417.8378 L604.5152,418.0369 L614.71,417.465 L614.7035,416.7018 L624.6051,417.7603 L634.5,418.0281 L644.3907,417.806 L654.2845,417.9467 L664.1695,417.0455 L664.1693,416.8308 L668.9447,416.7588 L673.7201,416.7756 L678.4956,417.0288 L683.271,416.9708 L688.0464,417.0613 L688.0488,417.3642 L692.6785,417.02 L697.3107,416.9815 L701.9454,417.2717 L706.575,416.9101 L711.21,417.2428 L711.2063,417.0121 L715.683,417.6029 L720.1498,417.5798 L724.6202,417.7843 L729.081,417.3867 L733.5516,417.6014 L733.5552,417.7432 L737.8405,417.9731 L742.1107,417.6103 L746.3972,417.887 L750.6819,418.095 L754.9627,418.1484 L754.9733,418.4379 L759.037,418.296 L763.119,418.6527 L767.1768,418.3507 L771.2492,418.4452 L775.3346,418.8954 L775.3457,419.119 L779.1636,418.7688 L783.0355,419.5047 L786.8737,419.5621 L790.708,419.5432 L794.5588,419.8538 L794.5484,419.6969 L798.1657,420.2934 L801.7371,420.1934 L805.3567,420.8249 L808.9169,420.5535 L812.5265,421.0349 L812.5498,421.3083 L815.8654,421.5324 L819.1769,421.7095 L822.49,421.9049 L825.8362,422.4889 L829.1293,422.4502 L829.1591,422.7212 L832.1634,422.8571 L835.194,423.233 L838.2006,423.3892 L841.2675,424.0954 L844.2586,424.1111 L844.2682,424.1792 L846.9787,424.5706 L849.6395,424.6106 L852.3616,425.0836 L855.1293,425.879 L857.8056,426.0291 L857.8403,426.2169 L860.1734,426.4476 L862.5222,426.7628 L864.9017,427.2452 L867.2353,427.4783 L869.6619,428.2155 L869.7058,428.3945 L871.7516,429.028 L873.7404,429.4293 L875.7696,429.9953 L877.6929,430.1296 L879.7188,430.6819 L879.7334,430.7178 L882.51,431.686 L885.4789,433.126 L888.3289,434.2743 L891.2364,435.5637 L894,436.5 L893.9411,436.4166 L896.8981,438.5218 L899.9788,440.8021 L902.9431,442.9176 L905.5988,444.5961 L908.6627,446.8527 L908.6064,446.7875 L911.4192,449.2424 L913.9117,451.326 L916.9047,453.99 L919.5902,456.2974 L922.2285,458.55 L922.1963,458.5188 L924.7758,461.1687 L927.4648,463.925 L929.6348,466.177 L932.337,468.9461 L934.7386,471.4232 L934.8364,471.5042 L937.0774,474.2322 L939.3852,477.0155 L941.675,479.7839 L943.7217,482.351 L946.2345,485.3041 L946.0896,485.2005 L948.1723,488.1288 L950.4668,491.2086 L952.5803,494.1589 L954.7115,497.1219 L956.7576,500.0241 L956.6479,499.9557 L958.6505,503.0864 L960.5489,506.1522 L962.7302,509.3942 L964.5918,512.437 L966.3493,515.4149 L966.16,515.3113 L968.0612,518.5779 L969.6049,521.6489 L971.6826,525.0123 L973.5478,528.2592 L975.0509,531.308 L975.2687,531.4134 L976.4472,534.4691 L978.3776,537.8886 L979.4654,540.9004 L981.4132,544.3283 L982.9038,547.535 L982.7815,547.4825 L984.3524,550.8305 L985.8201,554.1342 L987.3239,557.4533 L988.2463,560.5226 L989.9493,563.9275 L990.1467,564.0031 L991.2792,567.2337 L992.6087,570.5398 L994.0275,573.8801 L994.9753,577.04 L996.229,580.317 L996.3027,580.3422 L997.4298,583.5914 L998.534,586.8326 L999.5617,590.0478 L1000.9719,593.3939 L1001.7841,596.5351 L1001.5251,596.4556 L1002.9987,599.7845 L1003.4678,602.8051 L1004.4777,605.9917 L1005.6987,609.243 L1006.6561,612.4134 L1006.6682,612.4168 L1007.2909,615.4293 L1008.5255,618.6103 L1009.2409,621.6483 L1010.3516,624.7952 L1010.8863,627.7835 L1011.1741,627.8546 L1011.4188,630.6744 L1012.1665,633.6185 L1013.0084,636.5858 L1013.9435,639.5761 L1014.5161,642.4769 L1014.6909,642.5157 L1015.2609,645.2756 L1015.596,647.9833 L1016.6347,650.8471 L1017.2477,653.6165 L1017.5869,656.3252 L1017.5662,656.3211 L1017.9933,658.8714 L1018.4331,661.4243 L1019.0252,664.0075 L1019.6893,666.605 L1020.14,669.16 " fill="none" style="stroke:#000000;stroke-width:1.0;"/><!--MD5=[dd5f699301ae139c956be84bbfe69a18]
link system to mail_poller--><path d="M195.33,365.68 L195.4038,365.7372 L196.4443,363.9422 L197.9176,362.4827 L199.25,360.914 L200.1189,358.9859 L201.6293,357.5552 L201.6023,357.5337 L202.8045,355.778 L204.1428,354.1308 L205.5757,352.5591 L206.6826,350.7273 L208.2461,349.2599 L208.4362,349.4161 L209.4144,347.3975 L210.9475,345.835 L212.5484,344.3282 L213.7552,342.4976 L215.1693,340.8373 L215.1925,340.8569 L216.6022,339.1268 L218.1172,337.486 L219.5815,335.8021 L221.1426,334.2005 L222.3878,332.3308 L222.612,332.5275 L224.1152,330.8205 L225.4739,328.9867 L227.0443,327.3385 L228.6245,325.6991 L229.8905,323.7838 L229.6534,323.5681 L231.6686,322.278 L232.9033,320.2775 L234.7314,318.8171 L235.9483,316.8005 L237.6662,315.2397 L237.6441,315.2188 L239.5132,313.7667 L240.8656,311.8257 L242.5228,310.1732 L244.2057,308.5449 L245.7039,306.7419 L245.8357,306.8718 L247.3604,305.0591 L249.1103,303.4683 L250.4959,301.5184 L252.4248,300.1041 L253.9925,298.3338 L254.1622,298.5086 L255.8358,296.8205 L257.5936,295.2192 L258.96,293.2146 L260.6133,291.5056 L262.5208,290.0586 L262.3333,289.8558 L264.2545,288.4196 L265.9643,286.7549 L267.9807,285.4216 L269.4737,283.5225 L271.2779,281.9598 L271.1773,281.8452 L273.1397,280.4602 L274.6721,278.5855 L276.5104,277.059 L278.6478,275.8733 L280.2524,274.0807 L280.376,274.2298 L282.297,272.8088 L283.8335,270.9243 L285.8516,269.6204 L287.7648,268.19 L289.4334,266.4648 L289.3044,266.2993 L291.2825,264.9694 L293.2184,263.5852 L295.2374,262.3077 L296.9334,260.6159 L298.8098,259.1554 L298.9308,259.3217 L300.5771,257.5645 L302.4569,256.1283 L304.6779,255.1607 L306.2708,253.3302 L308.3704,252.1959 L308.4969,252.3834 L310.3685,250.9588 L312.1973,249.4707 L314.1228,248.1258 L316.2715,247.1119 L318.1042,245.6296 L318.0341,245.5165 L320.2219,244.6273 L321.9332,242.9689 L324.1862,242.1851 L326.1342,240.9089 L328,239.5 L328.0531,239.5951 L330.6997,238.0173 L333.5364,236.7799 L336.2014,235.235 L338.7946,233.5615 L341.4475,231.9948 L341.5007,232.1015 L344.2063,230.5547 L347.1588,229.5032 L349.8321,227.8916 L352.6202,226.5103 L355.3706,225.0534 L355.2602,224.8065 L358.1598,223.609 L361.1923,222.7089 L364.0367,221.388 L366.8137,219.9162 L369.6842,218.6537 L369.6307,218.5209 L372.5716,217.3875 L375.4179,216.0189 L378.5242,215.2968 L381.5019,214.2548 L384.303,212.7739 L384.3827,212.9938 L387.376,211.9879 L390.2178,210.564 L393.2195,209.5812 L396.1153,208.3064 L399.1418,207.392 L399.1811,207.5119 L402.1707,206.515 L405.2077,205.6628 L408.0942,204.3513 L411.1021,203.4104 L414.1154,202.4859 L414.1714,202.6749 L417.1917,201.8373 L420.06,200.4867 L423.1049,199.7321 L426.1528,198.9879 L429.1386,198.0338 L429.0683,197.7716 L432.1768,197.3815 L435.1634,196.5365 L438.1196,195.5785 L441.1451,194.8788 L444.1262,194.0138 L444.2027,194.3285 L447.0668,193.1566 L450.106,192.7058 L453.0763,191.9711 L456.0318,191.1757 L458.993,190.4037 L459.0065,190.4649 L461.936,189.8086 L464.7978,188.844 L467.7513,188.2965 L470.6776,187.6258 L473.6538,187.1817 L473.6593,187.2096 L476.5353,186.649 L479.4156,186.1099 L482.2503,185.3414 L485.1436,184.8676 L488.0233,184.3259 L488.0139,184.2733 L490.8672,184.0759 L493.6541,183.5078 L496.3811,182.6065 L499.2121,182.2847 L502.0164,181.8142 L501.9754,181.561 L504.7432,181.5028 L507.4722,181.2054 L510.1739,180.7395 L512.8106,179.8715 L515.5478,179.6247 L515.5775,179.8288 L518.0972,178.9202 L520.7544,178.9571 L523.3194,178.3596 L525.9416,178.1559 L528.5324,177.7355 L528.5462,177.8414 L531.03,177.6214 L533.432,176.7739 L535.9712,176.9785 L538.4246,176.5253 L540.8848,176.1246 L540.9031,176.2815 L543.2503,176.1838 L545.5392,175.5852 L547.8749,175.3892 L550.2039,175.1351 L552.52,174.77 " fill="none" style="stroke:#000000;stroke-width:1.0;"/><!--MD5=[5ac602cf5c1052feee20bcabd863e9f6]
link system to data_reporter--><path d="M236.39,451.32 L236.4288,451.5975 L245.422,452.0472 L254.6427,454.1237 L263.7893,455.6705 L272.6922,455.475 L281.9325,457.6912 L281.928,457.657 L286.5583,458.1092 L291.211,458.734 L295.8793,459.4789 L300.4938,459.8102 L305.1838,460.7208 L305.2135,460.965 L309.7131,460.9986 L314.2996,461.7452 L318.8967,462.5789 L323.4321,462.9063 L328,463.5 L328.0101,463.5904 L337.886,464.564 L347.808,465.9492 L357.7078,467.1358 L367.6499,468.7013 L377.5534,469.9207 L387.3447,470.1378 L387.4381,471.0387 L397.4808,471.5225 L407.6106,472.8466 L417.7445,474.21 L427.6499,473.3692 L437.9434,476.2724 L447.9513,476.4195 L447.913,476.026 L458.1046,478.107 L468.0565,477.7206 L478.196,479.2657 L488.3849,481.3198 L498.3676,481.25 L508.4584,482.2937 L508.4713,482.4335 L518.3408,483.6458 L528.1913,484.6513 L537.9812,484.996 L547.8578,486.2851 L557.5942,486.0462 L567.505,487.7088 L567.538,488.0865 L576.9393,489.2543 L586.2981,489.9341 L595.6884,490.9753 L604.9322,490.3368 L614.2833,490.9297 L623.7297,492.6134 L623.6608,491.7877 L634.1315,493.4037 L644.5245,494.0893 L655.0302,496.1244 L665.3436,495.8555 L675.7713,496.9561 L675.7353,496.5001 L685.3606,498.0144 L694.8321,497.5795 L704.413,498.5307 L714.101,500.8382 L723.644,501.3096 L733.2408,502.4616 L742.6954,501.8125 L752.3281,503.4194 L761.86,503.75 " fill="none" style="stroke:#000000;stroke-width:1.0;"/><!--MD5=[c5e35fbf9a050e64073bfb75537006e9]
reverse link booking_viewer to data_reporter--><path d="M681.13,568.42 L681.2368,568.6791 L689.8906,564.2115 L699.1704,561.2627 L708.2464,557.8194 L716.652,552.7495 L725.9461,549.8353 L734.74,545.7076 L743.7329,542.0628 L752.8643,538.7538 L761.87,535.14 " fill="none" style="stroke:#000000;stroke-width:1.0;"/><polygon fill="#000000" points="676.73,570.23,676.7318,570.3,678.6955,570.1433,680.6699,570.3971,682.6408,570.5172,684.6002,570.1976,686.5755,570.4867,686.5656,570.4628,685.476,569.9219,684.4365,569.5016,683.4318,569.1651,682.3071,568.5397,681.3504,568.3191,681.5209,568.3898,681.5899,567.1936,682.1566,566.2038,682.784,565.2392,683.0581,564.1281,683.518,563.094,683.5345,563.1097,682.1527,564.5139,680.8459,565.9894,679.503,567.4305,678.2291,568.9374,676.73,570.23" style="stroke:#000000;stroke-width:1.0;"/><!--MD5=[a00201a463e7c8211ffff35570cdef49]
link help to travel_updates--><path d="M852.84,691.06 L852.8805,691.3373 L862.8452,691.9864 L873.0472,694.261 L883.172,696.0063 L893.0425,696.0108 L903.25,698.3225 L913.2678,699.3353 L923.3611,700.865 L933.5069,702.7541 L943.4718,703.4049 L953.69,705.79 " fill="none" style="stroke:#A80036;stroke-width:1.0;stroke-dasharray:7.0,7.0;"/><!--MD5=[6864dc98c002b1e8821a3f1067fa99fe]
link booking_viewer to booking_keeping--><path d="M675.34,594.01 L675.3512,594.29 L685.3377,593.0584 L695.3897,593.4683 L705.4204,593.3437 L715.381,591.4612 L725.4345,591.9085 L735.4357,591.0443 L745.4577,590.702 L755.4942,590.7225 L765.4808,589.4927 L775.5666,590.7518 L785.5235,588.7749 L795.5662,588.9515 L805.6193,589.3909 L815.6116,588.3016 L825.6395,588.1072 L835.6539,587.5741 L845.6848,587.4549 L855.7077,587.1361 L865.7458,587.1982 L875.7701,586.9124 L885.7903,586.5237 L895.7874,585.5584 L905.8182,585.4372 L915.8506,585.3556 L925.7947,583.0596 L935.8888,584.5248 L945.8567,582.8262 L955.9206,583.5329 L965.8856,581.7626 L975.928,581.9312 L985.9908,582.6109 L995.9685,581.1584 L1005.9964,580.964 L1016.0285,580.8753 L1026.0524,580.5791 L1036.0498,579.6198 L1046.085,579.6081 L1056.059,578.0632 L1066.1243,578.8051 L1076.158,578.757 L1086.1722,578.2193 L1096.2009,578.0442 L1106.1624,576.1843 L1116.1731,575.5594 L1126.1945,575.2009 L1136.2441,575.5507 L1146.2565,574.9678 L1156.3229,575.7378 L1166.2971,574.1977 L1176.3079,573.5738 L1186.358,573.9354 L1196.3301,572.3433 L1206.3577,572.1405 L1216.4395,573.2971 L1226.4479,572.6133 L1236.4835,572.6119 L1246.4471,570.805 L1256.5008,571.2594 L1266.535,571.2212 L1276.4982,569.4056 L1286.538,569.5077 L1296.5695,569.4037 L1306.6171,569.7046 L1316.602,568.4311 L1326.6465,568.6534 L1336.6122,566.8997 L1346.6254,566.3356 L1356.7079,567.5093 L1366.6627,565.4836 L1376.7476,566.7172 L1386.7513,565.9149 L1396.76,565.24 " fill="none" style="stroke:#000000;stroke-width:1.0;"/><!--MD5=[c0f47e0922f03e2a76eaf76842ff3034]
link booking_manual to booking_keeping--><path d="M701.2,967.07 L701.2054,967.1633 L704.1089,967.0553 L707.0441,967.4941 L709.9689,967.7549 L712.8598,967.4302 L715.7977,967.9159 L715.7961,967.8814 L718.8822,967.8746 L721.9767,968.0418 L725.0769,968.3299 L728.1573,968.2013 L731.2655,968.6563 L731.2747,968.9021 L734.512,968.4979 L737.7762,968.8115 L741.0436,969.2127 L744.292,969.1043 L747.5504,969.2639 L747.5512,969.2942 L750.9598,969.3393 L754.372,969.5224 L757.7825,969.6389 L761.1964,969.8825 L764.5993,969.7119 L764.6037,970.0101 L768.1558,970.066 L771.705,969.9295 L775.2584,970.0746 L778.812,970.2329 L782.3594,969.973 L782.3585,969.6525 L786.0438,970.284 L789.7263,969.8602 L793.4108,970.2386 L797.0933,969.7908 L800.7775,970.0203 L800.7772,969.9899 L804.5855,970.3112 L808.3865,969.9212 L812.1919,969.9509 L815.9976,970.0159 L819.8007,969.8267 L819.805,970.0116 L823.7157,969.7326 L827.6338,969.7696 L831.5398,969.2953 L835.4639,969.5837 L839.3759,969.365 L839.3851,969.6085 L843.3982,969.4111 L847.4159,969.3346 L851.4125,968.6964 L855.4245,968.47 L859.4503,968.6083 L859.4358,968.3325 L863.553,968.3664 L867.6538,968.0895 L871.7784,968.2634 L875.8625,967.6676 L879.9707,967.5294 L879.9603,967.3773 L884.1603,967.345 L888.3159,966.6624 L892.503,966.4423 L896.7211,966.6746 L900.8842,966.1013 L900.9005,966.2942 L905.1625,966.0657 L909.3735,965.237 L913.6483,965.16 L917.9092,964.9192 L922.1377,964.2969 L922.1163,964.088 L926.4415,963.8129 L930.7596,963.4695 L935.0916,963.2604 L939.37,962.5288 L943.6783,962.0891 L943.703,962.2932 L948.0036,961.3171 L952.352,960.735 L956.77,960.7284 L961.0597,959.6622 L965.453,959.4509 L965.4846,959.6749 L969.8569,958.9227 L974.2186,958.0948 L978.6045,957.4378 L983.046,957.1763 L987.4087,956.3553 L987.3874,956.2239 L991.8676,955.8989 L996.2029,954.6807 L1000.7029,954.478 L1005.1102,953.7035 L1009.4925,952.775 L1009.5123,952.8821 L1013.9281,951.9773 L1018.4147,951.4558 L1022.8373,950.588 L1027.2332,949.5755 L1031.6514,948.6831 L1031.6757,948.7998 L1036.0757,947.7003 L1040.5888,947.1426 L1044.974,945.9721 L1049.4118,945.0537 L1053.8323,944.0525 L1053.7705,943.7893 L1058.2211,942.8379 L1062.7461,942.2036 L1067.1659,941.1206 L1071.5479,939.8768 L1075.9822,938.8561 L1075.9468,938.7174 L1078.1675,938.1981 L1080.3255,937.4331 L1082.6559,937.3434 L1084.9009,936.9195 L1087.029,936.0373 L1087.0899,936.2632 L1089.3133,935.7414 L1091.4209,934.7905 L1093.6507,934.2925 L1095.7996,933.4946 L1098.0482,933.0669 L1098.0828,933.1883 L1100.2752,932.5473 L1102.5094,932.0529 L1104.6113,931.0935 L1106.8199,930.5091 L1109.0332,929.9415 L1109.0899,930.1303 L1111.2945,929.5262 L1113.3454,928.4098 L1115.5749,927.8887 L1117.8076,927.378 L1119.9773,926.6577 L1119.8955,926.3989 L1122.204,926.1184 L1124.3705,925.3888 L1126.5018,924.5477 L1128.7137,923.9616 L1130.8739,923.2122 L1130.9762,923.5195 L1132.9985,922.3581 L1135.2552,921.9008 L1137.4195,921.1663 L1139.5642,920.3725 L1141.7164,919.6016 L1141.7371,919.6607 L1143.8895,918.8933 L1145.9374,917.8281 L1148.1266,917.166 L1150.274,916.3847 L1152.4982,915.8224 L1152.508,915.849 L1154.6546,915.0689 L1156.8088,914.3094 L1158.8821,913.3304 L1161.0593,912.6334 L1163.2126,911.8713 L1163.1933,911.8215 L1165.4334,911.2851 L1167.5373,910.3976 L1169.5188,909.1943 L1171.7132,908.5401 L1173.853,907.745 L1173.7562,907.5074 L1176.0134,907.0027 L1178.179,906.2734 L1180.2803,905.3861 L1182.2278,904.1217 L1184.4128,903.44 L1184.494,903.6295 L1186.3773,902.2391 L1188.6369,901.7269 L1190.644,900.6255 L1192.8078,899.8899 L1194.8854,898.9529 L1194.9292,899.0503 L1197.0472,898.2098 L1198.9055,896.7922 L1201.1993,896.3421 L1203.2208,895.2872 L1205.2641,894.2804 L1205.3316,894.4232 L1207.4618,893.6086 L1209.3764,892.3381 L1211.4643,891.4341 L1213.5272,890.4772 L1215.5423,889.4191 L1215.5813,889.4976 L1217.5763,888.4081 L1219.7513,887.6806 L1221.5244,886.1443 L1223.7909,885.6013 L1225.7134,884.3656 L1225.5851,884.1198 L1227.6137,883.1029 L1229.7445,882.2818 L1231.7536,881.2273 L1233.6579,879.9722 L1235.7707,879.1165 L1235.8591,879.2778 L1237.7814,878.0693 L1239.9008,877.2205 L1241.8755,876.1077 L1243.6245,874.5834 L1245.7077,873.6685 L1245.6194,873.5152 L1247.6411,872.4886 L1249.7106,871.5452 L1251.6831,870.4334 L1253.6225,869.2641 L1255.5177,868.018 L1255.439,867.888 L1257.5994,867.0888 L1259.5341,865.9166 L1261.3127,864.4864 L1263.2038,863.2422 L1265.1941,862.1619 L1265.0984,862.0113 L1267.0501,860.8683 L1269.0413,859.7873 L1270.8995,858.4971 L1272.7234,857.153 L1274.7302,856.0966 L1274.8506,856.2767 L1276.4947,854.6715 L1278.6101,853.7711 L1280.4694,852.4878 L1282.3335,851.2118 L1284.1195,849.8188 L1284.2965,850.0706 L1285.9038,848.4307 L1287.737,847.112 L1289.7936,846.1113 L1291.3556,844.4069 L1293.3553,843.3251 L1293.2935,843.2415 L1295.201,842.0238 L1297.0037,840.6645 L1298.706,839.1693 L1300.6045,837.9394 L1302.431,836.6122 L1302.6343,836.8733 L1304.3898,835.4525 L1305.8318,833.6288 L1307.7978,832.4784 L1309.4178,830.8835 L1311.3399,829.6766 L1311.3325,829.6675 L1313.1696,828.345 L1314.9524,826.9562 L1316.3939,825.1511 L1318.4412,824.0849 L1320.0755,822.5149 L1320.0779,822.5178 L1321.6252,820.85 L1323.3608,819.4001 L1325.3037,818.1901 L1326.9925,816.6861 L1328.631,815.1239 L1328.6261,815.1185 L1330.1037,813.3783 L1332.1756,812.2906 L1333.5591,810.4471 L1335.1682,808.8513 L1337,807.5 L1336.9788,807.4789 L1339.6777,805.1892 L1342.1781,802.7014 L1344.4878,800.0232 L1346.9215,797.4687 L1349.4613,795.0203 L1349.5179,795.0701 L1351.8787,792.4009 L1354.0026,789.5229 L1356.6653,787.1195 L1359.069,784.4879 L1361.2379,781.6497 L1361.1626,781.5904 L1363.308,778.7101 L1365.9136,776.1919 L1367.9053,773.1907 L1370.1179,770.3632 L1372.3379,767.5417 L1372.4463,767.6186 L1374.1902,764.4372 L1376.7025,761.8013 L1378.5911,758.7226 L1380.9253,755.9603 L1382.7692,752.8498 L1382.6886,752.7978 L1384.876,749.924 L1386.5117,746.6939 L1388.723,743.8356 L1390.7272,740.8436 L1392.5397,737.7276 L1392.4145,737.6535 L1394.5021,734.73 L1395.9683,731.4386 L1397.8304,728.3816 L1400.095,725.563 L1401.6574,722.3285 L1401.9244,722.4743 L1403.5738,719.3451 L1404.906,716.0428 L1406.891,713.0969 L1408.2516,709.81 L1410.1303,706.8061 L1410.1534,706.8177 L1411.697,703.7074 L1413.1606,700.5565 L1415.0761,697.6342 L1416.5749,694.5011 L1417.9663,691.3138 L1417.8373,691.253 L1419.6194,688.3517 L1420.886,685.2077 L1422.0558,682.0181 L1423.638,679.0226 L1425.1733,676.0051 L1424.9596,675.9111 L1426.4339,672.9859 L1427.5518,669.9039 L1428.8807,666.9147 L1430.4707,664.0404 L1431.7593,661.0335 L1431.7098,661.0131 L1432.9298,658.1274 L1434.0896,655.2169 L1435.4118,652.3733 L1436.3096,649.3547 L1437.7323,646.5526 L1437.7986,646.5783 L1438.4979,643.6658 L1440.0021,641.0654 L1441.1986,638.3458 L1442.2429,635.5671 L1443.1002,632.7158 L1443.251,632.771 L1444.1345,630.1373 L1445.0526,627.5163 L1445.6955,624.7945 L1447.1031,622.3527 L1447.8709,619.6766 L1448.0094,619.7245 L1448.6428,617.2367 L1449.5411,614.8406 L1450.2923,612.3935 L1451.3076,610.0378 L1452.0525,607.5886 L1452.3399,607.6828 L1452.6231,605.3429 L1453.6907,603.2602 L1454.1751,600.9862 L1454.7726,598.7494 L1455.6529,596.6052 L1455.4696,596.5482 L1455.9847,594.575 L1456.6766,592.6569 L1457.4846,590.7749 L1458.1904,588.8611 L1458.68,586.88 " fill="none" style="stroke:#000000;stroke-width:1.0;"/><polygon fill="#000000" points="1460.08,582.21,1460.1332,582.2556,1458.6937,583.6161,1457.5661,585.2438,1456.3369,586.7846,1454.7736,588.0392,1453.6728,589.6898,1453.6605,589.667,1454.6006,589.027,1455.6029,588.5019,1456.6482,588.0566,1457.5449,587.3361,1458.6498,587.0011,1458.8122,587.0888,1459.0027,587.8966,1459.6673,588.9606,1460.3897,590.0557,1460.7757,590.9691,1461.3386,591.9781,1461.3611,591.981,1461.0763,590.0231,1460.8942,588.0785,1460.6625,586.1274,1460.5253,584.1886,1460.08,582.21" style="stroke:#000000;stroke-width:1.0;"/><!--MD5=[2e2fb7cfa6a7ab00ddba0f5537e657ab]
link sharer to booking_keeping--><path d="M644.78,762.22 L644.809,762.3088 L647.5965,762.985 L650.5541,764.1817 L653.4564,765.2089 L656.1763,765.6788 L659.1486,766.9202 L659.1351,766.8884 L662.0455,768.0084 L665.024,769.2887 L668.0498,770.6804 L670.9125,771.6882 L674.0038,773.2338 L674.1253,773.4477 L676.725,774.6156 L679.6796,776.408 L682.6776,778.2767 L685.4235,779.702 L688.302,781.3605 L688.321,781.3842 L690.8328,783.3773 L693.4307,785.4783 L695.9871,787.5272 L698.6228,789.6755 L701,791.5 L701.2212,791.7001 L702.7907,793.4344 L704.2176,795.0396 L705.8533,796.8337 L707.4988,798.6367 L708.8342,800.1591 L708.5695,799.9783 L710.2861,802.0899 L711.1312,803.6062 L712.6388,805.5751 L713.4642,807.0779 L714.8488,808.9628 L714.8208,808.9508 L716.6845,812.6709 L717.8943,816.1109 L719.49,819.7162 L721.118,823.3354 L722.5123,826.8545 L722.6936,826.8914 L723.2434,830.4587 L724.103,834.0889 L724.4614,837.6172 L725.5673,841.2976 L726.1763,844.8769 L726.4186,844.902 L726.7428,848.4681 L727.1873,852.0467 L727.0727,855.5674 L727.3679,859.1305 L728.0263,862.7313 L727.7523,862.6962 L728.4446,866.2055 L728.8283,869.6754 L729.6597,873.2024 L729.7266,876.6318 L730.2479,880.1192 L730.1014,880.0771 L731.3013,883.4719 L731.8747,886.6866 L732.8937,890.0294 L734.3484,893.4974 L735.027,896.7423 L735.1922,896.8434 L737.2099,900.0247 L738.7139,902.8916 L740.8613,906.1522 L742.8686,909.3271 L744.5492,912.3021 L744.4,912.1543 L745.9634,913.7297 L747.478,915.2566 L749.0885,916.8787 L750.326,918.1311 L751.7719,919.5899 L751.8951,919.7545 L753.47,920.7749 L755.2827,922.113 L757.4429,923.9151 L758.9634,924.8629 L761,926.5 L761.1174,926.6933 L762.8552,927.6764 L764.5531,928.5941 L766.3408,929.6595 L768.3358,931.0661 L770.0374,931.9898 L769.9763,931.8716 L771.874,933.1107 L773.3561,933.5461 L775.3108,934.8954 L776.9994,935.7301 L778.6163,936.4262 L778.6543,936.5282 L781.8422,937.6435 L785.166,939.1242 L788.367,940.2748 L791.5166,941.2874 L794.7089,942.4145 L794.729,942.532 L797.7369,942.8777 L800.8383,943.7689 L803.834,944.0432 L806.8731,944.5712 L809.8979,945.0159 L809.8937,944.7456 L812.8763,944.7889 L815.864,945.1579 L818.8444,945.0661 L821.8223,944.8091 L824.8038,944.7813 L824.7804,944.64 L827.8364,944.1813 L830.8511,943.4724 L833.9795,943.4512 L837.0516,943.0897 L840.0466,942.2614 L840.106,942.4877 L843.3651,941.7093 L846.5112,940.501 L849.7765,939.7465 L852.9629,938.6915 L856.2467,938.0073 L856.2836,938.1281 L859.8343,937.0247 L863.4296,936.0671 L866.8835,934.6473 L870.4514,933.6003 L874.0244,932.5699 L874.0817,932.7585 L878.0929,931.5972 L881.9484,929.924 L885.9847,928.8455 L890.0242,927.7775 L894,926.5 L893.9219,926.24 L896.3366,925.9622 L898.6159,925.2334 L900.8615,924.3924 L903.184,923.8076 L905.4572,923.0588 L905.5554,923.3675 L907.7044,922.1984 L910.0782,921.7365 L912.3635,920.9962 L914.6299,920.1963 L916.9036,919.4194 L916.9235,919.4788 L919.206,918.701 L921.3881,917.624 L923.706,916.9519 L925.9838,916.1601 L928.3353,915.5883 L928.3447,915.6151 L930.6309,914.8221 L932.9244,914.0497 L935.1402,913.0567 L937.4558,912.3471 L939.7484,911.5722 L939.73,911.522 L942.1152,910.9738 L944.3703,910.0722 L946.5084,908.8529 L948.8499,908.186 L951.1393,907.3775 L951.0473,907.138 L953.4582,906.6238 L955.7821,905.8833 L958.0449,904.9835 L960.1616,903.7035 L962.504,903.0109 L962.5805,903.2024 L964.6483,901.7979 L967.0709,901.2807 L969.2554,900.1682 L971.5877,899.4252 L973.8387,898.4789 L973.8797,898.5776 L976.1793,897.7346 L978.2364,896.3071 L980.7003,895.8597 L982.9098,894.7995 L985.1397,893.7882 L985.202,893.9333 L987.5236,893.1249 L989.646,891.8533 L991.9285,890.954 L994.1878,890.001 L996.403,888.9453 L996.4386,889.0254 L998.6473,887.9472 L1001.0201,887.2385 L1003.0261,885.7045 L1005.4827,885.184 L1007.625,883.9567 L1007.5079,883.7053 L1011.9845,881.6615 L1016.5543,879.8178 L1021.013,877.7356 L1025.3761,875.4481 L1029.9295,873.5691 L1030.0108,873.734 L1034.3695,871.4343 L1038.9095,869.5024 L1043.3164,867.3004 L1047.5158,864.6776 L1052.0225,862.678 L1051.941,862.5211 L1056.3663,860.3587 L1060.8357,858.2815 L1065.2157,856.0318 L1069.565,853.7233 L1073.8736,851.3361 L1073.801,851.2026 L1078.3245,849.2365 L1082.6397,846.8875 L1086.8107,844.2735 L1091.0857,841.8506 L1095.4522,839.5959 L1095.3641,839.4408 L1099.6602,837.0959 L1103.9926,834.8147 L1108.2026,832.3181 L1112.381,829.7659 L1116.7278,827.5102 L1116.838,827.6967 L1120.8124,824.8589 L1125.2183,822.7509 L1129.3897,820.2464 L1133.5656,817.7495 L1137.6699,815.1315 L1137.8308,815.3939 L1141.7284,812.5146 L1145.8313,809.97 L1150.1373,807.7567 L1153.9936,804.8102 L1158.2479,802.5125 L1158.1922,802.4247 L1162.3121,799.9945 L1166.3376,797.4156 L1170.2726,794.694 L1174.3844,792.2511 L1178.4313,789.7059 L1178.6127,789.9827 L1182.5409,787.3586 L1186.1894,784.3075 L1190.3054,781.97 L1194.1128,779.1614 L1198.1896,776.7642 L1198.1831,776.7545 L1202.123,774.2673 L1206.0151,771.7092 L1209.606,768.7048 L1213.7313,766.4925 L1217.4923,763.7401 L1217.4944,763.7432 L1221.1149,760.9265 L1224.8995,758.3465 L1228.8649,756.0271 L1232.6088,753.3883 L1236.3088,750.6863 L1236.3045,750.6803 L1239.7954,747.8367 L1243.7983,745.7121 L1247.2082,742.7548 L1250.8124,740.0703 L1254.6085,737.6553 L1254.5909,737.6311 L1258.3135,735.2759 L1261.8708,732.6941 L1265.2692,729.8946 L1268.7709,727.2367 L1272.361,724.6999 L1272.4062,724.7603 L1275.8455,722.2007 L1279.0959,719.3881 L1282.776,717.1509 L1286.2495,714.637 L1289.5358,711.8726 L1289.4776,711.7963 L1292.7333,709.1916 L1296.3443,707.0523 L1299.4813,704.2921 L1302.7889,701.7553 L1306.1022,699.2261 L1306.1839,699.3309 L1309.1114,696.5171 L1312.6181,694.4466 L1315.6546,691.7728 L1319.0271,689.5301 L1322.0299,686.813 L1321.9702,686.7379 L1325.1946,684.5299 L1328.0104,681.8077 L1331.2526,679.6221 L1334.3414,677.2434 L1337.2882,674.686 L1337.1966,674.5729 L1340.3014,672.4537 L1342.9517,669.7733 L1345.8916,667.4505 L1349.1259,665.4912 L1351.8466,662.8977 L1352.04,663.1324 L1354.7728,660.8133 L1357.2759,658.2154 L1360.2519,656.1913 L1362.7755,653.6183 L1365.6745,651.5008 L1365.6912,651.5205 L1370.7427,647.2185 L1375.7363,642.848 L1381.0567,638.8643 L1386.0758,634.5238 L1391.0171,630.0915 L1390.9235,629.984 L1395.5818,626.4255 L1399.8658,622.4373 L1404.0795,618.3685 L1408.5927,614.6434 L1413.0717,610.8792 L1412.916,610.7053 L1416.735,607.5143 L1420.2942,604.0333 L1424.0072,600.724 L1427.9105,597.6271 L1431.5941,594.285 L1431.5579,594.2456 L1434.5257,591.5548 L1437.4494,588.8161 L1440.492,586.2067 L1443.2239,583.2594 L1446.34,580.73 " fill="none" style="stroke:#000000;stroke-width:1.0;"/><!--MD5=[0c2deea4371e62f7fc1ada13b6f1c6dc]
reverse link mail_poller to mail_filter--><path d="M677.56,182.29 L677.6104,182.5657 L687.6357,183.6057 L697.9563,186.2619 L708.1808,188.3917 L718.089,188.791 L728.4164,191.4839 L738.5078,192.8856 L748.6931,194.8012 L758.9437,197.0739 L768.9693,198.1157 L779.4427,201.6078 L789.3339,201.9141 L799.66,204.6 " fill="none" style="stroke:#000000;stroke-width:1.0;"/><polygon fill="#000000" points="672.83,181.43,672.8695,181.4878,674.3785,182.4271,676.1192,183.7055,677.7845,184.8735,679.2016,185.6783,680.9622,186.9859,680.9409,186.9711,680.2024,185.9741,679.5714,185.0512,679.0151,184.1799,678.2014,183.1308,677.7482,182.3307,677.8531,182.4826,678.5599,181.515,679.5728,180.9909,680.6231,180.5208,681.4561,179.736,682.4033,179.1167,682.4087,179.1388,680.4862,179.569,678.588,180.0999,676.6781,180.5822,674.7905,181.1571,672.83,181.43" style="stroke:#000000;stroke-width:1.0;"/><!--MD5=[9ac6e5d253f144aec6c51c0ca744a3f1]
link booking_logger to booking_keeping--><path d="M1314.72,450.99 L1314.8866,451.2153 L1322.4402,456.4985 L1330.9706,463.1025 L1339.1829,469.2765 L1346.3491,474.0359 L1354.9017,480.67 L1362.6739,486.2488 L1370.7566,492.2476 L1379.0553,498.5383 L1386.6099,503.8229 L1395.6456,511.1102 L1402.7556,515.7937 L1411.1472,522.21 L1419.6951,528.8377 L1427.3333,534.2354 L1435.45,540.28 " fill="none" style="stroke:#000000;stroke-width:1.0;"/><polygon fill="#000000" points="1439.45,543.23,1439.5109,543.2646,1438.3562,541.4495,1437.5586,539.8373,1436.6447,538.159,1435.3484,536.2634,1434.5814,534.6686,1434.5558,534.6648,1434.6098,535.7661,1434.7929,536.8869,1435.0658,538.0213,1435.0293,539.109,1435.4262,540.2621,1435.4537,540.4445,1434.2761,540.2233,1433.1789,540.5348,1432.0916,540.9113,1430.9471,540.9096,1429.8327,541.1068,1429.8376,541.129,1431.7539,541.521,1433.6925,542.0142,1435.6203,542.4585,1437.5686,542.996,1439.45,543.23" style="stroke:#000000;stroke-width:1.0;"/><!--MD5=[445d4ffbf82863b2ad8aaceb666c1376]
link mail_filter to booking_logger--><path d="M855.41,221.93 L855.5275,222.1844 L864.1895,225.5908 L873.5404,230.4887 L882.667,234.9008 L891.0558,237.7159 L900.4224,242.6477 L909.2386,246.3879 L918.2738,250.6023 L927.4613,255.1463 L936.124,258.5543 L945.8313,264.2237 L954.1805,266.953 L963.4335,271.6389 L972.7968,276.5634 L981.5185,280.0991 L990.6158,284.4479 L999.571,288.489 L1008.6998,292.9061 L1017.7449,297.1418 L1026.9498,301.7236 L1036.0087,305.9893 L1045.0245,310.1616 L1053.7982,313.81 L1062.9263,318.2253 L1072.0709,322.6765 L1080.2862,325.1159 L1090.08,330.9725 L1098.546,333.9546 L1108.0214,339.122 L1116.4573,342.039 L1125.707,346.7177 L1135.1711,351.8606 L1143.7404,355.0663 L1152.8377,359.4151 L1161.79,363.45 " fill="none" style="stroke:#000000;stroke-width:1.0;"/><!--MD5=[a7ac094a92efe00d00904713beaf7f94]
link travel_updates to booking_logger--><path d="M1062.1,669.3 L1062.3294,669.4609 L1067.3977,660.7836 L1073.811,653.0495 L1079.7863,645.0083 L1084.3212,635.9569 L1090.7652,628.2444 L1096.1344,619.7781 L1101.9314,611.6118 L1108.0256,603.654 L1113.0953,594.9776 L1120.2044,587.7315 L1124.662,578.6259 L1130.8841,570.7578 L1137.3215,563.0407 L1142.5064,554.4451 L1148.4245,546.3638 L1154.0651,538.0879 L1160.0449,530.0497 L1165.8611,521.8969 L1171.9894,513.963 L1177.8326,505.8291 L1183.5915,497.6362 L1188.878,489.1119 L1194.8561,481.0726 L1200.8666,473.0561 L1205.0627,463.7671 L1211.6,456.12 " fill="none" style="stroke:#000000;stroke-width:1.0;"/><polygon fill="#000000" points="1214.44,452.07,1214.476,452.1301,1212.6795,452.9642,1211.0941,454.1506,1209.4399,455.2223,1207.5597,455.9168,1205.9924,457.1334,1205.9879,457.1079,1207.0825,456.7988,1208.1995,456.6184,1209.3321,456.5274,1210.4109,456.1283,1211.565,456.1608,1211.7468,456.1925,1211.5526,457.2392,1211.8891,458.3785,1212.2904,459.5291,1212.315,460.6139,1212.5376,461.7334,1212.56,461.7378,1212.9077,459.7987,1213.357,457.8795,1213.7573,455.9508,1214.2511,454.0404,1214.44,452.07" style="stroke:#000000;stroke-width:1.0;"/><!--MD5=[279cbbc954aaecabb3a912ad7d7448f1]
@startuml
skinparam handwritten true
hide stereotype

left to right direction

'skinparam linetype ortho

skinparam rectangle{
    BackgroundColor WhiteSmoke
    borderColor black
    LineColor<<actor>> #86B56B
    borderColor<<actor>> #86B56B
    BackgroundColor<<actor>> #D6E8D5
    LineColor<<actor>> #D6E8D5
    RoundCorner<<actor>> 15

    borderColor<<action>> #3F75BB
    FontColor<<action>> #3F75BB
    'BackgroundColor<<action>> #FFE5CC
'    RoundCorner<<action>> 30
    BackgroundColor<<sticky>> #F3D22B
    borderColor<<sticky>> black
 }


rectangle Actors {

    rectangle system  <<actor>> [
    System

    - - -

    * poll email for travel
    * interact with agencies
    * gather analytics data
    * end of year report
    ]
    rectangle user <<actor>> [
    User

    - - -

    * add, update, delete reservation
    * share trip info (social/directly)
    ]
'    rectangle supplier <<actor>>[
'    Supplier
'    ]

    'rectangle email_prvider <<actor>> [
    'Email Provider
    ']
}

' position actors
'
user                 .[hidden]                      system       
'supplier             .[hidden]                      user         
'email_prvider        .[hidden]                      supplier     


' action

rectangle mail_poller [
**Mail Poller**
——-

Get mail 
From provider
]

rectangle mail_filter [
Mail
Filter
]

rectangle booking_logger [
**Booking Logger**

- - -
receive all the possible
events**???**
]

rectangle travel_updates [
**Agency integrator**

- - -

travel update
]

rectangle booking_manual [
**Booking**

- - -

* add
* update
* Delete

- - -
should we allow to add
booking that hase not
found via mail?

onlyto the dashboard

or we need to allow
to book a ticket
via the app**??**
]

rectangle sharer  [
Sharer
]

rectangle help 

rectangle booking_viewer  [
Booking Viewer

Trip View
]

rectangle booking_keeping 

rectangle data_reporter  [
Data Reporter

- - -

end of year
statistical report
]


rectangle group_trip <<sticky>>[
**Trip Aggregator**

- - -

Capability to
group booking
into a trip
]

rectangle trip_archive <<sticky>>[
**Auto remove**

- - -

Remove **completed**
trips

]

rectangle q1 <<action>>#line.dotted[
should the
manual booking
interact directly
with the agency?

- - - 

or use the GDS
Sabre/Apollo
]

rectangle q2 <<action>>#line.dotted[
trip completed??
]

rectangle bi [
**Business Intelligence**

- - -

]

system -[#black]- - bi

bi -[#black]- - booking_keeping

data_reporter -[#black]- - booking_keeping

booking_manual             ..               q1
q1 .. travel_updates
booking_viewer            .[hidden]               sharer
sharer                    .[hidden]               booking_manual
booking_manual            .[hidden].               help


trip_archive .. q2
q2 .. booking_logger


system -[#black]- group_trip

group_trip -[#black]- trip_archive

'
' Links 
user -[#black]- - sharer
user -[#black]- - booking_viewer
user -[#black]- - booking_manual
user -[#black]- - help


'supplier <... travel_updates
system -[#black]- travel_updates

'email_prvider <- - - mail_poller
system -[#black]- - mail_poller
system -[#black]- - data_reporter

'
' connectivty intermediate
booking_viewer   <-[#black]-    data_reporter
'
help             .      travel_updates
booking_viewer   -[#black]- -    booking_keeping
booking_manual   -[#black]- ->   booking_keeping
sharer           -[#black]- -    booking_keeping
'
mail_poller      <-[#black]-    mail_filter

booking_logger   -[#black]->    booking_keeping
'
'
mail_filter      -[#black]-    booking_logger
travel_updates   -[#black]->   booking_logger
'
@enduml

@startuml
skinparam handwritten true
hide stereotype

left to right direction


skinparam rectangle{
    BackgroundColor WhiteSmoke
    borderColor black
    LineColor<<actor>> #86B56B
    borderColor<<actor>> #86B56B
    BackgroundColor<<actor>> #D6E8D5
    LineColor<<actor>> #D6E8D5
    RoundCorner<<actor>> 15

    borderColor<<action>> #3F75BB
    FontColor<<action>> #3F75BB
    BackgroundColor<<sticky>> #F3D22B
    borderColor<<sticky>> black
 }


rectangle Actors {

    rectangle system  <<actor>> [
    System

    - - -

    * poll email for travel
    * interact with agencies
    * gather analytics data
    * end of year report
    ]
    rectangle user <<actor>> [
    User

    - - -

    * add, update, delete reservation
    * share trip info (social/directly)
    ]

}

user                 .[hidden]                      system       



rectangle mail_poller [
**Mail Poller**
——-

Get mail 
From provider
]

rectangle mail_filter [
Mail
Filter
]

rectangle booking_logger [
**Booking Logger**

- - -
receive all the possible
events**???**
]

rectangle travel_updates [
**Agency integrator**

- - -

travel update
]

rectangle booking_manual [
**Booking**

- - -

* add
* update
* Delete

- - -
should we allow to add
booking that hase not
found via mail?

onlyto the dashboard

or we need to allow
to book a ticket
via the app**??**
]

rectangle sharer  [
Sharer
]

rectangle help 

rectangle booking_viewer  [
Booking Viewer

Trip View
]

rectangle booking_keeping 

rectangle data_reporter  [
Data Reporter

- - -

end of year
statistical report
]


rectangle group_trip <<sticky>>[
**Trip Aggregator**

- - -

Capability to
group booking
into a trip
]

rectangle trip_archive <<sticky>>[
**Auto remove**

- - -

Remove **completed**
trips

]

rectangle q1 <<action>>#line.dotted[
should the
manual booking
interact directly
with the agency?

- - - 

or use the GDS
Sabre/Apollo
]

rectangle q2 <<action>>#line.dotted[
trip completed??
]

rectangle bi [
**Business Intelligence**

- - -

]

system -[#black]- - bi

bi -[#black]- - booking_keeping

data_reporter -[#black]- - booking_keeping

booking_manual             ..               q1
q1 .. travel_updates
booking_viewer            .[hidden]               sharer
sharer                    .[hidden]               booking_manual
booking_manual            .[hidden].               help


trip_archive .. q2
q2 .. booking_logger


system -[#black]- group_trip

group_trip -[#black]- trip_archive

user -[#black]- - sharer
user -[#black]- - booking_viewer
user -[#black]- - booking_manual
user -[#black]- - help


system -[#black]- travel_updates

system -[#black]- - mail_poller
system -[#black]- - data_reporter

booking_viewer   <-[#black]-    data_reporter
help             .      travel_updates
booking_viewer   -[#black]- -    booking_keeping
booking_manual   -[#black]- ->   booking_keeping
sharer           -[#black]- -    booking_keeping
mail_poller      <-[#black]-    mail_filter

booking_logger   -[#black]->    booking_keeping
mail_filter      -[#black]-    booking_logger
travel_updates   -[#black]->   booking_logger
@enduml

PlantUML version 1.2021.9(Sun Jul 25 12:13:56 CEST 2021)
(GPL source distribution)
Java Runtime: Java(TM) SE Runtime Environment
JVM: Java HotSpot(TM) 64-Bit Server VM
Default Encoding: UTF-8
Language: en
Country: US
--></g></svg>