<?xml version="1.0" encoding="UTF-8" standalone="no"?><svg xmlns="http://www.w3.org/2000/svg" xmlns:xlink="http://www.w3.org/1999/xlink" contentScriptType="application/ecmascript" contentStyleType="text/css" height="909px" preserveAspectRatio="none" style="width:1341px;height:909px;background:#FFFFFF;" version="1.1" viewBox="0 0 1341 909" width="1341px" zoomAndPan="magnify"><defs><filter height="300%" id="ftgdvzugvt7fc" width="300%" x="-1" y="-1"><feGaussianBlur result="blurOut" stdDeviation="2.0"/><feColorMatrix in="blurOut" result="blurOut2" type="matrix" values="0 0 0 0 0 0 0 0 0 0 0 0 0 0 0 0 0 0 .4 0"/><feOffset dx="4.0" dy="4.0" in="blurOut2" result="blurOut3"/><feBlend in="SourceGraphic" in2="blurOut3" mode="normal"/></filter></defs><g><!--MD5=[72c91b01a9b7ec886469bf4d31371e1b]
cluster GDS--><rect fill="#FFFFFF" filter="url(#ftgdvzugvt7fc)" height="264" rx="10" ry="10" style="stroke:#000000;stroke-width:1.5;" width="139" x="21.5" y="7"/><text fill="#000000" font-family="sans-serif" font-size="14" font-weight="bold" lengthAdjust="spacing" textLength="29" x="76.5" y="22.5352">GDS</text><!--MD5=[d2976fe190faae9984b38ddb32157773]
cluster Agencies--><rect fill="#FFFFFF" filter="url(#ftgdvzugvt7fc)" height="264" rx="10" ry="10" style="stroke:#000000;stroke-width:1.5;" width="168" x="7" y="311"/><text fill="#000000" font-family="sans-serif" font-size="14" font-weight="bold" lengthAdjust="spacing" textLength="64" x="59" y="326.5352">Agencies</text><!--MD5=[99b31deea5d7419a569cd5090bf83263]
cluster System--><rect fill="#FFFFFF" filter="url(#ftgdvzugvt7fc)" height="394" rx="10" ry="10" style="stroke:#000000;stroke-width:1.5;" width="1085.5" x="243.5" y="258"/><text fill="#000000" font-family="sans-serif" font-size="14" font-weight="bold" lengthAdjust="spacing" textLength="0" x="788.75" y="273.5352"/><!--MD5=[bd40275e30dd82526995c88b16172569]
cluster collector_agency--><rect fill="#FFFFFF" filter="url(#ftgdvzugvt7fc)" height="193" rx="10" ry="10" style="stroke:#000000;stroke-width:1.5;" width="198" x="413" y="309"/><text fill="#000000" font-family="sans-serif" font-size="14" font-weight="bold" lengthAdjust="spacing" textLength="121" x="451.5" y="324.5352">Collector Agency</text><!--MD5=[77b3b6c0a1cd2d62f147d0d3380345a6]
cluster data_analytics--><rect fill="#F5F5F5" filter="url(#ftgdvzugvt7fc)" height="158" style="stroke:#000000;stroke-width:1.0;stroke-dasharray:1.0,3.0;" width="174" x="1131" y="406"/><text fill="#000000" font-family="sans-serif" font-size="14" font-weight="bold" lengthAdjust="spacing" textLength="102" x="1167" y="421.5352">Data analytics</text><!--MD5=[8fc3522a43f8c7199df5e09e5bb0188e]
entity user--><rect fill="#FFFFFF" filter="url(#ftgdvzugvt7fc)" height="36.4883" rx="7.5" ry="7.5" style="stroke:#3C84CA;stroke-width:1.5;" width="51" x="280.5" y="834"/><text fill="#F08C02" font-family="sans-serif" font-size="14" lengthAdjust="spacing" textLength="31" x="290.5" y="857.5352">User</text><!--MD5=[015a95d5dcf28b4e793f4df94f1877ed]
entity email_provider--><rect fill="#FFFFFF" filter="url(#ftgdvzugvt7fc)" height="36.4883" rx="7.5" ry="7.5" style="stroke:#3C84CA;stroke-width:1.5;" width="118" x="247" y="692"/><text fill="#F08C02" font-family="sans-serif" font-size="14" lengthAdjust="spacing" textLength="98" x="257" y="715.5352">Email Provider</text><!--MD5=[e6d823551306761819679578fddca1dd]
entity social_media--><rect fill="#FFFFFF" filter="url(#ftgdvzugvt7fc)" height="36.4883" rx="7.5" ry="7.5" style="stroke:#3C84CA;stroke-width:1.5;" width="106" x="253" y="763"/><text fill="#F08C02" font-family="sans-serif" font-size="14" lengthAdjust="spacing" textLength="86" x="263" y="786.5352">Social media</text><!--MD5=[1ae032b7a69ac685e0e729eb6ca6ea12]
entity Sabre--><rect fill="#FFFFFF" filter="url(#ftgdvzugvt7fc)" height="36.4883" rx="7.5" ry="7.5" style="stroke:#3C84CA;stroke-width:1.5;" width="59" x="61.5" y="192"/><text fill="#F08C02" font-family="sans-serif" font-size="14" lengthAdjust="spacing" textLength="39" x="71.5" y="215.5352">Sabre</text><!--MD5=[5f461a1be342101953dbc937c9edce70]
entity Travelport--><rect fill="#FFFFFF" filter="url(#ftgdvzugvt7fc)" height="36.4883" rx="7.5" ry="7.5" style="stroke:#3C84CA;stroke-width:1.5;" width="91" x="45.5" y="121"/><text fill="#F08C02" font-family="sans-serif" font-size="14" lengthAdjust="spacing" textLength="71" x="55.5" y="144.5352">Travelport</text><!--MD5=[a42ba757ae7dfaf250552031a2186623]
entity Amadeus--><rect fill="#FFFFFF" filter="url(#ftgdvzugvt7fc)" height="36.4883" rx="7.5" ry="7.5" style="stroke:#3C84CA;stroke-width:1.5;" width="84" x="49" y="50"/><text fill="#F08C02" font-family="sans-serif" font-size="14" lengthAdjust="spacing" textLength="64" x="59" y="73.5352">Amadeus</text><!--MD5=[ccb2b75c31fa335fc10d43c117cba2f7]
entity Car--><rect fill="#FFFFFF" filter="url(#ftgdvzugvt7fc)" height="36.4883" rx="7.5" ry="7.5" style="stroke:#3C84CA;stroke-width:1.5;" width="44" x="69" y="496"/><text fill="#F08C02" font-family="sans-serif" font-size="14" lengthAdjust="spacing" textLength="24" x="79" y="519.5352">Car</text><!--MD5=[9739acf6b2593f088925b2fe549ddbe4]
entity flight_supplier--><rect fill="#FFFFFF" filter="url(#ftgdvzugvt7fc)" height="36.4883" rx="7.5" ry="7.5" style="stroke:#3C84CA;stroke-width:1.5;" width="120" x="31" y="425"/><text fill="#F08C02" font-family="sans-serif" font-size="14" lengthAdjust="spacing" textLength="100" x="41" y="448.5352">Flight Supplier</text><!--MD5=[b428a841b304acc47d3e1388bce3e4de]
entity hotel_supplier--><rect fill="#FFFFFF" filter="url(#ftgdvzugvt7fc)" height="36.4883" rx="7.5" ry="7.5" style="stroke:#3C84CA;stroke-width:1.5;" width="117" x="32.5" y="354"/><text fill="#F08C02" font-family="sans-serif" font-size="14" lengthAdjust="spacing" textLength="97" x="42.5" y="377.5352">Hotel Supplier</text><!--MD5=[b33549c2307d267346b98ede9b7ec4ee]
entity booking_db--><rect fill="#FFFFFF" filter="url(#ftgdvzugvt7fc)" height="85.9531" rx="5" ry="5" style="stroke:#000000;stroke-width:1.5;" width="138" x="949" y="487"/><text fill="#000000" font-family="sans-serif" font-size="14" lengthAdjust="spacing" textLength="0" x="963" y="510.5352"/><text fill="#000000" font-family="sans-serif" font-size="14" lengthAdjust="spacing" textLength="56" x="991" y="527.0234">Booking</text><text fill="#000000" font-family="sans-serif" font-size="14" lengthAdjust="spacing" textLength="18" x="975" y="543.5117">db</text><text fill="#000000" font-family="sans-serif" font-size="14" font-weight="bold" lengthAdjust="spacing" textLength="64" x="997" y="543.5117">(Storage)</text><text fill="#000000" font-family="sans-serif" font-size="14" lengthAdjust="spacing" textLength="0" x="1077" y="543.5117"/><text fill="#000000" font-family="sans-serif" font-size="14" lengthAdjust="spacing" textLength="0" x="963" y="560"/><!--MD5=[df10686f0d1a6b29efa210295a18d79f]
entity mail_poller--><rect fill="#FFFFFF" filter="url(#ftgdvzugvt7fc)" height="36.4883" rx="5" ry="5" style="stroke:#000000;stroke-width:1.5;" width="93" x="259.5" y="574"/><text fill="#000000" font-family="sans-serif" font-size="14" lengthAdjust="spacing" textLength="73" x="269.5" y="597.5352">mail poller</text><!--MD5=[5cbc88fc5d947318514ad0fcfa37afa0]
entity mail_filter--><rect fill="#FFFFFF" filter="url(#ftgdvzugvt7fc)" height="36.4883" rx="5" ry="5" style="stroke:#000000;stroke-width:1.5;" width="85" x="469.5" y="529"/><text fill="#000000" font-family="sans-serif" font-size="14" lengthAdjust="spacing" textLength="65" x="479.5" y="552.5352">mail filter</text><!--MD5=[62cdc7a7806b530e6a58ebbd6843f98e]
entity booking_crud--><rect fill="#FFFFFF" filter="url(#ftgdvzugvt7fc)" height="69.4648" rx="5" ry="5" style="stroke:#000000;stroke-width:1.5;" width="131" x="758" y="495.5"/><text fill="#000000" font-family="sans-serif" font-size="14" lengthAdjust="spacing" textLength="0" x="772" y="519.0352"/><text fill="#000000" font-family="sans-serif" font-size="14" lengthAdjust="spacing" textLength="91" x="776" y="535.5234">Booking crud</text><text fill="#000000" font-family="sans-serif" font-size="14" lengthAdjust="spacing" textLength="0" x="772" y="552.0117"/><!--MD5=[701ff27a8d66de9a6bae528afe2827af]
entity booking_tracker--><rect fill="#FFFFFF" filter="url(#ftgdvzugvt7fc)" height="36.4883" rx="5" ry="5" style="stroke:#000000;stroke-width:1.5;" width="129" x="759" y="424"/><text fill="#000000" font-family="sans-serif" font-size="14" lengthAdjust="spacing" textLength="109" x="769" y="447.5352">booking tracker</text><!--MD5=[0a1f12935c6a9d8a2d27f5a08bfbe8b7]
entity update_notifier--><rect fill="#FFFFFF" filter="url(#ftgdvzugvt7fc)" height="36.4883" rx="5" ry="5" style="stroke:#000000;stroke-width:1.5;" width="123" x="762" y="600"/><text fill="#000000" font-family="sans-serif" font-size="14" lengthAdjust="spacing" textLength="103" x="772" y="623.5352">Update notifier</text><!--MD5=[642baf01d76bebec5126e2765ce40ca6]
entity help--><rect fill="#FFFFFF" filter="url(#ftgdvzugvt7fc)" height="36.4883" rx="5" ry="5" style="stroke:#000000;stroke-width:1.5;" width="51" x="647" y="600"/><text fill="#000000" font-family="sans-serif" font-size="14" lengthAdjust="spacing" textLength="31" x="657" y="623.5352">Help</text><!--MD5=[11f5e140980b07c621be63413f0d24bf]
entity sharer--><rect fill="#FFFFFF" filter="url(#ftgdvzugvt7fc)" height="36.4883" rx="5" ry="5" style="stroke:#000000;stroke-width:1.5;" width="65" x="479.5" y="600"/><text fill="#000000" font-family="sans-serif" font-size="14" lengthAdjust="spacing" textLength="45" x="489.5" y="623.5352">Sharer</text><!--MD5=[4c5b15ba11ce9f8c97353376d79b7d3f]
entity gds_integration--><rect fill="#FFFFFF" filter="url(#ftgdvzugvt7fc)" height="36.4883" rx="5" ry="5" style="stroke:#000000;stroke-width:1.5;" width="128" x="448" y="352"/><text fill="#000000" font-family="sans-serif" font-size="14" lengthAdjust="spacing" textLength="108" x="458" y="375.5352">GDS integration</text><!--MD5=[13bf48debfa82b74da1922de87790e93]
entity agency_integration--><rect fill="#FFFFFF" filter="url(#ftgdvzugvt7fc)" height="36.4883" rx="5" ry="5" style="stroke:#000000;stroke-width:1.5;" width="150" x="437" y="423"/><text fill="#000000" font-family="sans-serif" font-size="14" lengthAdjust="spacing" textLength="130" x="447" y="446.5352">Agency integration</text><!--MD5=[6e2de0750c4ab95cf205f603e1bf4a1d]
entity data_reporter--><rect fill="#FFFFFF" filter="url(#ftgdvzugvt7fc)" height="36.4883" rx="5" ry="5" style="stroke:#000000;stroke-width:1.5;" width="115" x="1160.5" y="512"/><text fill="#000000" font-family="sans-serif" font-size="14" lengthAdjust="spacing" textLength="95" x="1170.5" y="535.5352">Data Reporter</text><!--MD5=[b9b613add30c87b3282cb6c4ecd545d6]
entity analytics_reporter--><rect fill="#FFFFFF" filter="url(#ftgdvzugvt7fc)" height="36.4883" rx="5" ry="5" style="stroke:#000000;stroke-width:1.5;" width="142" x="1147" y="441"/><text fill="#000000" font-family="sans-serif" font-size="14" lengthAdjust="spacing" textLength="122" x="1157" y="464.5352">Analytics reporter</text><!--MD5=[090a0ea3a4f9491936440fc818320f5b]
entity third_parties--><rect fill="#FFFFFF" filter="url(#ftgdvzugvt7fc)" height="36.4883" rx="7.5" ry="7.5" style="stroke:#3C84CA;stroke-width:1.5;" width="108" x="1164" y="206"/><text fill="#F08C02" font-family="sans-serif" font-size="14" lengthAdjust="spacing" textLength="88" x="1174" y="229.5352">Third parties</text><!--MD5=[1d8e18de3f8aca8de8f25e56fa1c840b]
link Sabre to Travelport--><!--MD5=[82d273238922591761abc0b92515894a]
link Travelport to Amadeus--><!--MD5=[ce18b9a2b7c9026a28528776ef5e70e3]
link Car to flight_supplier--><!--MD5=[c421707d17c36c7a86f7743137156de7]
link flight_supplier to hotel_supplier--><!--MD5=[1af5959eb2de234fa206ef719b8cbfe5]
reverse link Agencies to collector_agency--><path d="M175.3714,565.5946 C176.2097,565.3995 177.0467,565.1968 177.882,564.9864 C191.2475,561.62 204.1875,556.27 215,548 C221.95,542.68 216.12,535.42 223,530 C284.77,481.34 318.83,506.51 397,498 C400.1006,497.6625 403.2513,497.3514 406.434,497.0647 C408.0254,496.9214 409.6247,496.7842 411.2299,496.6528 C411.6312,496.62 412.0329,496.5875 412.4349,496.5554 " fill="none" id="Agencies-backto-collector_agency" style="stroke:#000000;stroke-width:1.0;"/><polygon fill="#000000" points="175.3714,565.5946,185.044,567.4499,180.2412,564.461,183.2302,559.6582,175.3714,565.5946" style="stroke:#000000;stroke-width:1.0;"/><!--MD5=[d4010882c04fb24a4f53514c850469a5]
reverse link GDS to collector_agency--><path d="M106.2752,271.0974 C106.7692,271.3804 107.2741,271.6699 107.7896,271.9657 C108.8205,272.5574 109.8935,273.1743 111.0062,273.8152 C113.2316,275.0972 115.6155,276.4753 118.1377,277.9399 C123.182,280.8691 128.7794,284.1441 134.7675,287.6863 C158.72,301.855 188.925,320.3 215,338 C298.77,394.87 303.95,435.09 397,475 C399.9044,476.2456 402.8829,477.4099 405.9154,478.4981 C407.4317,479.0422 408.9615,479.5672 410.5022,480.074 C411.2726,480.3273 412.0458,480.5761 412.8213,480.8204 " fill="none" id="GDS-backto-collector_agency" style="stroke:#000000;stroke-width:1.0;"/><polygon fill="#000000" points="106.2752,271.0974,112.0963,279.0419,110.6137,273.5828,116.0729,272.1002,106.2752,271.0974" style="stroke:#000000;stroke-width:1.0;"/><!--MD5=[bfcdf5a21eb7457c4c99ba632bffa6fc]
link email_provider to mail_poller--><path d="M306,691.56 C306,666.58 306,641.61 306,616.63 " fill="none" id="email_provider-to-mail_poller" style="stroke:#000000;stroke-width:1.0;"/><polygon fill="#000000" points="306,611.79,302,620.79,306,616.79,310,620.79,306,611.79" style="stroke:#000000;stroke-width:1.0;"/><!--MD5=[b49be5465e75889a471e41f5816aa4d9]
link mail_poller to mail_filter--><path d="M352.78,581.9 C385.63,574.66 429.78,564.92 463.1,557.57 " fill="none" id="mail_poller-to-mail_filter" style="stroke:#000000;stroke-width:1.0;"/><polygon fill="#000000" points="467.71,556.55,458.0554,554.6036,462.8297,557.6377,459.7957,562.412,467.71,556.55" style="stroke:#000000;stroke-width:1.0;"/><!--MD5=[23a6aeedda964cf213d168bdaf56eb1c]
link mail_filter to booking_crud--><path d="M554.74,544.71 C605.15,541.94 690.74,537.24 751.57,533.9 " fill="none" id="mail_filter-to-booking_crud" style="stroke:#000000;stroke-width:1.0;"/><polygon fill="#000000" points="756.24,533.64,747.0359,530.1352,751.2474,533.9118,747.4708,538.1233,756.24,533.64" style="stroke:#000000;stroke-width:1.0;"/><!--MD5=[a16c5e66f158a40fd5a7675635be3cd2]
reverse link collector_agency to booking_tracker--><path d="M611.5012,477.595 C611.9044,477.5276 612.3074,477.4602 612.71,477.3928 C614.3205,477.1234 615.9256,476.8548 617.5232,476.5874 C620.7183,476.0526 623.8831,475.5225 627,475 C670.96,467.63 720.47,459.27 758.67,452.81 " fill="none" id="collector_agency-backto-booking_tracker" style="stroke:#000000;stroke-width:1.0;"/><polygon fill="#000000" points="611.5012,477.595,621.0377,480.0556,616.4327,476.7702,619.718,472.1652,611.5012,477.595" style="stroke:#000000;stroke-width:1.0;"/><!--MD5=[b2c79bdb96089ef73b6af955900a5042]
reverse link booking_crud to booking_tracker--><path d="M823.5,489 C823.5,479.44 823.5,469.88 823.5,460.32 " fill="none" id="booking_crud-backto-booking_tracker" style="stroke:#008000;stroke-width:1.0;"/><polygon fill="#008000" points="823.5,493.77,827.5,484.77,823.5,488.77,819.5,484.77,823.5,493.77" style="stroke:#008000;stroke-width:1.0;"/><!--MD5=[5d344623c9664575631c4ebc4f0becf8]
link booking_tracker to update_notifier--><path d="M768.11,460.42 C752.3,468.56 736.94,479.93 728,495.5 C712.73,522.09 712.73,537.91 728,564.5 C735.9,578.25 748.79,588.72 762.58,596.58 " fill="none" id="booking_tracker-to-update_notifier" style="stroke:#000000;stroke-width:1.0;"/><polygon fill="#000000" points="766.78,598.86,760.7748,591.0538,762.3845,596.4767,756.9616,598.0865,766.78,598.86" style="stroke:#000000;stroke-width:1.0;"/><!--MD5=[e0d0271c7ff53ed952928836535bb23f]
reverse link collector_agency to booking_crud--><path d="M611.5528,496.6737 C611.9551,496.7035 612.357,496.7336 612.7585,496.7639 C614.3647,496.8855 615.9652,497.0121 617.5578,497.144 C620.7429,497.4077 623.8963,497.6925 627,498 C670.81,502.34 719.68,510.34 757.61,517.25 " fill="none" id="collector_agency-backto-booking_crud" style="stroke:#000000;stroke-width:1.0;"/><polygon fill="#000000" points="611.5528,496.6737,620.2332,501.3268,616.5392,497.0426,620.8234,493.3486,611.5528,496.6737" style="stroke:#000000;stroke-width:1.0;"/><!--MD5=[08b8d1963618e0608700388c18a949b3]
link help to booking_crud--><path d="M698.44,603.27 C714.71,593.66 736.76,580.64 757.76,568.24 " fill="none" id="help-to-booking_crud" style="stroke:#000000;stroke-width:1.0;"/><polygon fill="#000000" points="762.06,565.7,752.2755,566.8239,757.7525,568.2388,756.3376,573.7159,762.06,565.7" style="stroke:#000000;stroke-width:1.0;"/><!--MD5=[dad9f163ed15eebb1e10a823124e4e19]
link sharer to booking_crud--><path d="M544.96,608.91 C593.36,595.15 686.49,568.67 751.46,550.2 " fill="none" id="sharer-to-booking_crud" style="stroke:#000000;stroke-width:1.0;"/><polygon fill="#000000" points="756.2,548.85,746.4485,547.4687,751.3913,550.2198,748.6402,555.1627,756.2,548.85" style="stroke:#000000;stroke-width:1.0;"/><!--MD5=[6de75b17666555feb24febde16ddd605]
link booking_crud to booking_db--><path d="M889.4,530 C906.42,530 924.89,530 942.37,530 " fill="none" id="booking_crud-to-booking_db" style="stroke:#000000;stroke-width:1.0;"/><polygon fill="#000000" points="947.25,530,938.25,526,942.25,530,938.25,534,947.25,530" style="stroke:#000000;stroke-width:1.0;"/><!--MD5=[c98e84a0c9ea326424d73a403017fd19]
link booking_db to data_reporter--><path d="M1087.42,530 C1108.89,530 1132.5,530 1153.61,530 " fill="none" id="booking_db-to-data_reporter" style="stroke:#000000;stroke-width:1.0;"/><polygon fill="#000000" points="1158.56,530,1149.56,526,1153.56,530,1149.56,534,1158.56,530" style="stroke:#000000;stroke-width:1.0;"/><!--MD5=[c2983c11d134c271602b6e8df169ac0c]
link sharer to social_media--><path d="M479.21,621.5 C452.76,626.22 416.39,637.25 397,663 C374.71,692.6 410.89,716.09 389,746 C382.87,754.38 374.32,760.77 365.04,765.64 " fill="none" id="sharer-to-social_media" style="stroke:#000000;stroke-width:1.0;"/><polygon fill="#000000" points="360.55,767.82,370.3932,767.4859,365.0475,765.6355,366.898,760.2898,360.55,767.82" style="stroke:#000000;stroke-width:1.0;"/><!--MD5=[f9092128a378806700cd9f0a0d8daaf0]
link user to booking_crud--><path d="M331.86,842.56 C348.36,836.01 370.34,826.74 389,817 C392.72,815.06 393.2,813.77 397,812 C494.38,766.75 537.78,797.76 627,738 C702.22,687.62 693.46,645.5 758,582 C762.38,577.69 767.1,573.36 771.92,569.16 " fill="none" id="user-to-booking_crud" style="stroke:#000000;stroke-width:1.0;"/><polygon fill="#000000" points="775.62,565.98,766.195,568.8381,771.8368,569.2492,771.4257,574.8911,775.62,565.98" style="stroke:#000000;stroke-width:1.0;"/><!--MD5=[aac6790791cd02a4df0ce7bd3c340b66]
link user to sharer--><path d="M331.85,848.51 C350.87,844.43 375.97,835.65 389,817 C408.62,788.9 377,690.82 397,663 C414.48,638.69 447.19,627.51 473.1,622.37 " fill="none" id="user-to-sharer" style="stroke:#000000;stroke-width:1.0;"/><polygon fill="#000000" points="477.7,621.52,468.1267,619.2067,472.7818,622.4207,469.5678,627.0759,477.7,621.52" style="stroke:#000000;stroke-width:1.0;"/><!--MD5=[eeca1afcb49b90c74d3b1de3805f284d]
reverse link user to data_reporter--><path d="M337.73,859.1 C400.21,872.9 546.76,902 671.5,902 C671.5,902 671.5,902 824.5,902 C1032.46,902 1174.39,623.51 1208.87,548.45 " fill="none" id="user-backto-data_reporter" style="stroke:#000000;stroke-width:1.0;"/><polygon fill="#000000" points="333.07,858.06,340.988,863.9171,337.9509,859.1447,342.7234,856.1076,333.07,858.06" style="stroke:#000000;stroke-width:1.0;"/><!--MD5=[407e4bde70145d12502faf3b32d164d0]
reverse link user to update_notifier--><path d="M338.05,854.24 C407.92,857.77 580.6,858 698,786 C758.04,749.18 798.58,671.69 814.69,636.31 " fill="none" id="user-backto-update_notifier" style="stroke:#000000;stroke-width:1.0;"/><polygon fill="#000000" points="333.12,853.97,341.8899,858.452,338.1126,854.241,342.3236,850.4637,333.12,853.97" style="stroke:#000000;stroke-width:1.0;"/><!--MD5=[8d1c232dd45f3bcc746fde392acbf479]
link user to help--><path d="M331.63,848.35 C350.52,844.18 375.56,835.36 389,817 C410.89,787.09 374.1,763.14 397,734 C463.88,648.9 532.41,706.6 627,654 C633.79,650.23 640.57,645.4 646.73,640.52 " fill="none" id="user-to-help" style="stroke:#000000;stroke-width:1.0;"/><polygon fill="#000000" points="650.57,637.39,641.0673,639.978,646.6951,640.55,646.1232,646.1778,650.57,637.39" style="stroke:#000000;stroke-width:1.0;"/><!--MD5=[c6f2908febefcd88e076ec7c6f6811e4]
link analytics_reporter to third_parties--><path d="M1218,440.64 C1218,376.56 1218,312.48 1218,248.4 " fill="none" id="analytics_reporter-to-third_parties" style="stroke:#000000;stroke-width:1.0;"/><polygon fill="#000000" points="1218,243.71,1214,252.71,1218,248.71,1222,252.71,1218,243.71" style="stroke:#000000;stroke-width:1.0;"/><!--MD5=[d04a535d1e5e3da135bd0d287c66031f]
@startuml

'skinparam handwritten true
hide stereotype

left to right direction

'skinparam linetype ortho
'skinparam linetype polyline

'60
'132
'202
skinparam rectangle{
    BackgroundColor WhiteSmoke
    borderColor black
    'LineColor<<actor>> #86B56B
    LineColor<<actor>> #F08C02
    FontColor<<actor>> #F08C02
    borderColor<<actor>> #3C84CA
    BackgroundColor<<actor>> #FFFFFF
    RoundCorner<<actor>> 15

    RoundCorner<<container>> 20
    BackgroundColor<<container>> #FFFFFF


    RoundCorner<<system>> 20
    BackgroundColor<<system>> #FFFFFF


    'borderColor<<action>> #3F75BB
    borderColor<<action>> #black
    FontColor<<action>> #black
    RoundCorner<<action>> 10
    BackgroundColor<<action>> #FFFFFF


    BackgroundColor<<sticky>> #F3D22B
    borderColor<<sticky>> black

    borderColor<<answer>> #lightgray
    FontColor<<answer>> #3F75BB
    '
 }




together {
    rectangle user <<actor>> [
    User
    '- - -
    '* add, update, delete reservation
    '* share trip info (social/directly)
    ]
'    rectangle supplier <<actor>>[
'    Supplier
'    ]

    rectangle email_provider <<actor>> [
    Email Provider
    ]

rectangle "Social media" as social_media <<actor>>
}


together {
    rectangle GDS <<container>>{
        rectangle Sabre <<actor>>
        rectangle Travelport <<actor>>
        rectangle Amadeus <<actor>>
        Sabre -[hidden] Travelport
        Travelport -[hidden] Amadeus
    }

    rectangle Agencies <<container>>{
        rectangle Car <<actor>>
        rectangle "Flight Supplier" as flight_supplier <<actor>>
        rectangle "Hotel Supplier" as hotel_supplier <<actor>>
        Car -[hidden] flight_supplier
        flight_supplier -[hidden] hotel_supplier
    }
 
'    GDS <=[#black] Agencies
}

rectangle "Third parties" as third_parties <<actor>>



rectangle " " as System <<system>> {

rectangle "Collector Agency" as collector_agency <<container>>{

    rectangle "GDS integration" as gds_integration <<action>>
    rectangle "Agency integration" as agency_integration <<action>>

}


'
rectangle booking_db <<action>> [

        Booking
    db **(Storage)**    

]

rectangle mail_poller<<action>> [
mail poller
]

rectangle mail_filter<<action>>[
mail filter
]

rectangle booking_crud <<action>> [

  Booking crud   

]

rectangle booking_tracker <<action>> [
booking tracker
]


rectangle update_notifier<<action>>[
Update notifier
]

rectangle help<<action>> [
Help
]

rectangle sharer<<action>> [
Sharer
]


rectangle "Data analytics" as data_analytics #line.dotted {

    rectangle data_reporter <<action>> [
Data Reporter
]
rectangle analytics_reporter <<action>>[
Analytics reporter
]
}
}

'=============================================
'  Connection
'=============================================

Agencies        <-[#black]- -     collector_agency
GDS             <-[#black]- -     collector_agency


email_provider   -[#black]->     mail_poller
mail_poller      -[#black]->     mail_filter

mail_filter      -[#black]- ->     booking_crud

collector_agency  <-[#black]- -    booking_tracker
booking_crud      <-[#green]     booking_tracker
booking_tracker   -[#black]>     update_notifier

collector_agency  <-[#black]-    booking_crud
help              -[#black]->    booking_crud
sharer            -[#black]- ->    booking_crud
'

booking_crud      -[#black]-> booking_db
booking_db        -[#black]-> data_reporter

'=============================================


'social_media     -[#black]>    sharer
sharer     -[#black]>    social_media

user             -[#black]->         booking_crud
user             -[#black]->         sharer
user             <-[#black]- -        data_reporter
user             <-[#black]          update_notifier
user             -[#black]->         help

analytics_reporter -[#black]> third_parties

@enduml

@startuml

hide stereotype

left to right direction


skinparam rectangle{
    BackgroundColor WhiteSmoke
    borderColor black
    LineColor<<actor>> #F08C02
    FontColor<<actor>> #F08C02
    borderColor<<actor>> #3C84CA
    BackgroundColor<<actor>> #FFFFFF
    RoundCorner<<actor>> 15

    RoundCorner<<container>> 20
    BackgroundColor<<container>> #FFFFFF


    RoundCorner<<system>> 20
    BackgroundColor<<system>> #FFFFFF


    borderColor<<action>> #black
    FontColor<<action>> #black
    RoundCorner<<action>> 10
    BackgroundColor<<action>> #FFFFFF


    BackgroundColor<<sticky>> #F3D22B
    borderColor<<sticky>> black

    borderColor<<answer>> #lightgray
    FontColor<<answer>> #3F75BB
 }




together {
    rectangle user <<actor>> [
    User
    ]

    rectangle email_provider <<actor>> [
    Email Provider
    ]

rectangle "Social media" as social_media <<actor>>
}


together {
    rectangle GDS <<container>>{
        rectangle Sabre <<actor>>
        rectangle Travelport <<actor>>
        rectangle Amadeus <<actor>>
        Sabre -[hidden] Travelport
        Travelport -[hidden] Amadeus
    }

    rectangle Agencies <<container>>{
        rectangle Car <<actor>>
        rectangle "Flight Supplier" as flight_supplier <<actor>>
        rectangle "Hotel Supplier" as hotel_supplier <<actor>>
        Car -[hidden] flight_supplier
        flight_supplier -[hidden] hotel_supplier
    }
 
}

rectangle "Third parties" as third_parties <<actor>>



rectangle " " as System <<system>> {

rectangle "Collector Agency" as collector_agency <<container>>{

    rectangle "GDS integration" as gds_integration <<action>>
    rectangle "Agency integration" as agency_integration <<action>>

}


rectangle booking_db <<action>> [

        Booking
    db **(Storage)**    

]

rectangle mail_poller<<action>> [
mail poller
]

rectangle mail_filter<<action>>[
mail filter
]

rectangle booking_crud <<action>> [

  Booking crud   

]

rectangle booking_tracker <<action>> [
booking tracker
]


rectangle update_notifier<<action>>[
Update notifier
]

rectangle help<<action>> [
Help
]

rectangle sharer<<action>> [
Sharer
]


rectangle "Data analytics" as data_analytics #line.dotted {

    rectangle data_reporter <<action>> [
Data Reporter
]
rectangle analytics_reporter <<action>>[
Analytics reporter
]
}
}


Agencies        <-[#black]- -     collector_agency
GDS             <-[#black]- -     collector_agency


email_provider   -[#black]->     mail_poller
mail_poller      -[#black]->     mail_filter

mail_filter      -[#black]- ->     booking_crud

collector_agency  <-[#black]- -    booking_tracker
booking_crud      <-[#green]     booking_tracker
booking_tracker   -[#black]>     update_notifier

collector_agency  <-[#black]-    booking_crud
help              -[#black]->    booking_crud
sharer            -[#black]- ->    booking_crud

booking_crud      -[#black]-> booking_db
booking_db        -[#black]-> data_reporter



sharer     -[#black]>    social_media

user             -[#black]->         booking_crud
user             -[#black]->         sharer
user             <-[#black]- -        data_reporter
user             <-[#black]          update_notifier
user             -[#black]->         help

analytics_reporter -[#black]> third_parties

@enduml

PlantUML version 1.2021.9(Sun Jul 25 12:13:56 CEST 2021)
(GPL source distribution)
Java Runtime: Java(TM) SE Runtime Environment
JVM: Java HotSpot(TM) 64-Bit Server VM
Default Encoding: UTF-8
Language: en
Country: US
--></g></svg>