<?xml version="1.0" encoding="UTF-8" standalone="no"?><svg xmlns="http://www.w3.org/2000/svg" xmlns:xlink="http://www.w3.org/1999/xlink" contentStyleType="text/css" height="604px" preserveAspectRatio="none" style="width:1022px;height:604px;background:#FFFFFF;" version="1.1" viewBox="0 0 1022 604" width="1022px" zoomAndPan="magnify"><defs/><g><!--cluster Actors--><g id="cluster_Actors"><polygon fill="#F5F5F5" points="9.5,144,9.5,144.2102,19.1667,143.5857,28.8333,144.1933,38.5,144.3997,48.1667,143.2866,57.8333,143.9223,67.5,143.5735,77.1667,143.6165,86.8333,143.9318,96.5,143.3086,106.1667,144.5536,115.8333,143.3697,125.5,143.8022,135.1667,144.4319,144.8333,143.9142,154.5,144,154.5087,144.021,154.8495,144.1366,155.2299,144.3479,155.5912,144.513,155.9889,144.7662,156.2678,144.7322,156.4744,144.8178,156.6234,145.1724,156.6391,145.4718,156.8499,145.852,157.0698,146.236,157,146.5,156.2788,146.5,157.6785,156.3333,156.7035,166.1667,157.5338,176,156.505,185.8333,156.9315,195.6667,157.7416,205.5,156.9513,215.3333,157.1053,225.1667,157.3386,235,157.4162,244.8333,156.9961,254.6667,157.2872,264.5,156.4276,274.3333,157.2844,284.1667,157.5482,294,157.4445,303.8333,157.613,313.6667,156.5169,323.5,156.3478,333.3333,156.3786,343.1667,156.9411,353,156.8035,362.8333,157.6814,372.6667,156.8253,382.5,156.6569,392.3333,157.2283,402.1667,156.3332,412,156.4809,421.8333,157.649,431.6667,157,441.5,157.1342,441.5556,157.0797,441.9472,156.608,442.1661,156.659,442.6014,156.596,442.9895,156.2678,443.2678,156.2075,443.1223,155.902,443.3847,155.5767,443.5995,155.2902,443.9078,154.853,443.8523,154.5,444,154.5,444.4626,144.8333,443.4462,135.1667,443.3227,125.5,444.5036,115.8333,443.2831,106.1667,444.509,96.5,444.2066,86.8333,443.7321,77.1667,443.6462,67.5,444.4588,57.8333,443.7007,48.1667,444.5919,38.5,443.4473,28.8333,444.6174,19.1667,444.4843,9.5,444,9.5312,444.0754,9.1525,443.8681,8.8856,443.9309,8.5176,443.7496,8.1074,443.4663,7.7322,443.2678,7.8148,443.302,7.5457,442.8976,7.66,442.6521,7.3406,442.2269,7.1996,441.8756,7,441.5,6.3916,441.5,6.5948,431.6667,7.5307,421.8333,7.4298,412,6.9571,402.1667,6.6778,392.3333,6.7811,382.5,6.3138,372.6667,7.4147,362.8333,7.7396,353,7.5264,343.1667,7.6949,333.3333,6.8633,323.5,7.0872,313.6667,6.6124,303.8333,7.284,294,7.2468,284.1667,7.5524,274.3333,6.7703,264.5,6.8656,254.6667,7.4435,244.8333,7.5673,235,6.4875,225.1667,6.8061,215.3333,7.1493,205.5,6.3892,195.6667,7.3534,185.8333,7.258,176,6.8992,166.1667,7.1422,156.3333,7,146.5,7.2244,146.593,7.0501,146.1065,7.3899,145.8331,7.5273,145.4758,7.6214,145.1006,7.7322,144.7322,7.7502,144.7756,8.1003,144.6207,8.3597,144.2471,8.7418,144.1695,9.0876,144.0043,9.5,144" style="stroke:#000000;stroke-width:1.0;"/><text fill="#000000" font-family="sans-serif" font-size="14" font-weight="bold" lengthAdjust="spacing" textLength="46" x="59" y="159.5352">Actors</text></g><!--entity system--><g id="elem_system"><polygon fill="#D6E8D5" points="55.5,179,55.5,179.2102,66.1,178.5857,76.7,179.1933,87.3,179.3997,97.9,178.2866,108.5,179,108.4901,178.9761,109.5063,179.308,110.5724,179.7606,111.6733,180.297,112.6544,180.5444,113.8033,181.1967,113.9738,181.2673,114.0485,182.177,114.6211,183.2928,115.2543,184.4338,115.5342,185.4284,116,186.5,116.0227,186.5,115.9894,190.7977,116.0595,195.0953,116.0797,199.393,116.1952,203.6906,116,207.9883,116.2067,208.0739,115.7698,209.1356,115.1997,210.1421,114.8247,211.2294,114.4589,212.3205,113.8033,213.2916,113.7113,213.0695,112.8292,213.9399,111.6442,214.079,110.6894,214.774,109.4975,214.8965,108.5,215.4883,108.5,215.4198,97.9,216.2299,87.3,215.4395,76.7,215.5936,66.1,215.8269,55.5,215.4883,55.5531,215.6165,54.4388,215.0477,53.4153,214.6981,52.245,213.994,51.2936,213.8185,50.1967,213.2916,50.3655,213.3615,49.8943,212.2876,49.5068,211.2485,48.7299,210.048,48.2385,208.9657,48,207.9883,47.7929,207.9883,47.9804,203.6906,47.9345,199.393,48.2271,195.0953,47.9418,190.7977,48,186.5,47.8944,186.4562,48.5096,185.4685,48.6733,184.2936,49.1581,183.2518,49.9572,182.3401,50.1967,181.1967,50.2523,181.3309,51.3511,180.9836,52.277,180.2189,53.4194,179.977,54.5147,179.6212,55.5,179" style="stroke:#86B56B;stroke-width:0.5;"/><text fill="#000000" font-family="sans-serif" font-size="14" lengthAdjust="spacing" textLength="48" x="58" y="202.5352">System</text></g><!--entity user--><g id="elem_user"><polygon fill="#D6E8D5" points="64,250,64,250.0701,71.2,249.8619,78.4,250.0644,85.6,250.1332,92.8,249.7622,100,250,99.9901,249.9761,101.0063,250.308,102.0724,250.7606,103.1733,251.297,104.1544,251.5444,105.3033,252.1967,105.4738,252.2673,105.5485,253.177,106.1211,254.2928,106.7543,255.4338,107.0342,256.4284,107.5,257.5,107.5227,257.5,107.4894,261.7977,107.5595,266.0953,107.5797,270.393,107.6952,274.6906,107.5,278.9883,107.7067,279.0739,107.2698,280.1356,106.6997,281.1421,106.3247,282.2294,105.9589,283.3205,105.3033,284.2916,105.2113,284.0695,104.3292,284.9399,103.1442,285.079,102.1894,285.774,100.9975,285.8965,100,286.4883,100,286.4654,92.8,286.7355,85.6,286.472,78.4,286.5234,71.2,286.6012,64,286.4883,64.0531,286.6165,62.9388,286.0477,61.9153,285.6981,60.745,284.994,59.7936,284.8185,58.6967,284.2916,58.8655,284.3615,58.3943,283.2876,58.0068,282.2485,57.2299,281.048,56.7385,279.9657,56.5,278.9883,56.2929,278.9883,56.4804,274.6906,56.4345,270.393,56.7271,266.0953,56.4418,261.7977,56.5,257.5,56.3944,257.4562,57.0096,256.4685,57.1733,255.2936,57.6581,254.2518,58.4572,253.3401,58.6967,252.1967,58.7523,252.3309,59.8511,251.9836,60.777,251.2189,61.9194,250.977,63.0147,250.6212,64,250" style="stroke:#86B56B;stroke-width:0.5;"/><text fill="#000000" font-family="sans-serif" font-size="14" lengthAdjust="spacing" textLength="31" x="66.5" y="273.5352">User</text></g><!--entity supplier--><g id="elem_supplier"><polygon fill="#D6E8D5" points="51,321,51,321.2102,61.3333,320.5857,71.6667,321.1933,82,321.3997,92.3333,320.2866,102.6667,320.9223,113,321,112.9456,320.8687,114.0117,321.3212,115.1126,321.8577,116.0938,322.1051,117.3133,322.9279,118.3033,323.1967,118.1092,323.1163,118.6817,324.2321,119.315,325.3731,119.5949,326.3677,120.0817,327.448,120.5,328.5,120.4894,328.5,120.5595,332.7977,120.5797,337.0953,120.6952,341.393,120.7237,345.6906,120.5,349.9883,120.7092,350.0749,120.1391,351.0814,119.7641,352.1687,119.3982,353.2598,118.5205,354.1389,118.3033,355.2916,118.3899,355.5005,117.2048,355.6396,116.2501,356.3347,115.0582,356.4572,114.0519,357.0278,113,357.4883,113,358.2299,102.6667,357.4395,92.3333,357.5936,82,357.8269,71.6667,357.9045,61.3333,357.4844,51,357.4883,51.0366,357.5767,49.8663,356.8727,48.915,356.6972,47.8879,356.3391,46.8141,355.8678,45.6967,355.2916,45.8855,355.3698,45.1086,354.1693,44.6172,353.0871,44.1873,352.0303,43.9212,351.0414,43.5,349.9883,43.4345,349.9883,43.7271,345.6906,43.4418,341.393,43.3856,337.0953,43.5761,332.7977,43.5,328.5,43.2946,328.4149,43.7795,327.3731,44.5785,326.4615,44.9522,325.3736,45.4836,324.3511,45.6967,323.1967,45.6557,323.0976,46.7981,322.8557,47.8933,322.4998,48.8184,321.7332,49.9271,321.4098,51,321" style="stroke:#86B56B;stroke-width:0.5;"/><text fill="#000000" font-family="sans-serif" font-size="14" lengthAdjust="spacing" textLength="57" x="53.5" y="344.5352">Supplier</text></g><!--entity email_prvider--><g id="elem_email_prvider"><polygon fill="#D6E8D5" points="30.5,392,30.5,392.2102,40.8,391.5857,51.1,392.1933,61.4,392.3997,71.7,391.2866,82,391.9223,92.3,391.5735,102.6,391.6165,112.9,391.9318,123.2,391.3086,133.5,392,133.5706,392.1705,134.4803,392.2452,135.5961,392.8178,136.7371,393.451,137.7317,393.7309,138.8033,394.1967,138.8243,394.2054,139.2328,395.2533,139.737,396.3408,140.195,397.4092,140.741,398.5141,141,399.5,141.2237,399.5,141.2264,403.7977,141.0849,408.0953,141.1545,412.393,141.2341,416.6906,141,420.9883,140.7779,420.8963,140.7696,422.1355,140.03,423.0718,139.8464,424.2384,139.0902,425.1678,138.8033,426.2916,138.7946,426.2705,137.8372,426.9593,136.6758,427.1553,135.6348,427.642,134.6039,428.1532,133.5,428.4883,133.5,428.9045,123.2,428.4844,112.9,428.7755,102.6,427.9159,92.3,428.7727,82,429.0365,71.7,428.9328,61.4,429.1013,51.1,428.0052,40.8,427.8361,30.5,428.4883,30.4207,428.2969,29.4318,428.0308,28.3536,427.5491,27.4049,427.3801,26.2351,426.6771,25.1967,426.2916,25.0911,426.2478,24.8277,425.26,24.1127,424.0852,23.7188,423.0434,23.6392,422.1317,23,420.9883,23.1452,420.9883,23.2448,416.6906,22.8927,412.393,23.1064,408.0953,23.1968,403.7977,23,399.5,22.8545,399.4397,23.4098,398.4271,23.9175,397.3948,24.5187,396.4012,24.7561,395.2568,25.1967,394.1967,25.2557,394.3392,26.1867,393.5868,27.2316,393.1095,28.4429,393.0338,29.3479,392.2186,30.5,392" style="stroke:#86B56B;stroke-width:0.5;"/><text fill="#000000" font-family="sans-serif" font-size="14" lengthAdjust="spacing" textLength="98" x="33" y="415.5352">Email Provider</text></g><!--entity mail_poller--><g id="elem_mail_poller"><polygon fill="#F5F5F5" points="268.5,496,268.5,496.2102,278.7727,495.5857,289.0455,496.1933,299.3182,496.3997,309.5909,495.2866,319.8636,495.9223,330.1364,495.5735,340.4091,495.6165,350.6818,495.9318,360.9545,495.3086,371.2273,496.5536,381.5,496,381.4196,495.8059,381.8283,496.0855,382.2622,496.4259,382.5497,496.4129,382.9229,496.6068,383.2678,496.7322,383.2579,496.7282,383.4692,497.1086,383.6343,497.4698,383.8875,497.8676,384.0602,498.232,384,498.5,384.6793,498.5,384.2546,508.2441,384.4636,517.9883,384.7022,527.7324,383.2788,537.4766,384.6785,547.2207,383.7035,556.9648,384.5338,566.709,383.505,576.4531,383.9315,586.1973,384,595.9414,384.2284,596.036,383.8385,596.2887,383.7395,596.6619,383.6649,597.0453,383.5424,597.4087,383.2678,597.7092,383.2673,597.708,382.9509,597.9441,382.4876,597.8258,382.2434,598.2361,381.9235,598.4638,381.5,598.4414,381.5,598.8859,371.2273,599.0544,360.9545,597.9583,350.6818,597.7892,340.4091,597.82,330.1364,598.3825,319.8636,598.2449,309.5909,599.1228,299.3182,598.2667,289.0455,598.0984,278.7727,598.6697,268.5,598.4414,268.4149,598.236,268.0802,598.1351,267.8757,598.3484,267.4949,598.1362,267.1795,598.0818,266.7322,597.7092,266.6331,597.6681,266.6841,597.3963,266.6212,597.0774,266.1474,596.5883,266.1169,596.2827,266,595.9414,266.126,595.9414,266.6518,586.1973,265.9958,576.4531,266.4626,566.709,265.4462,556.9648,265.3227,547.2207,266.5036,537.4766,265.2831,527.7324,266.509,517.9883,266.2066,508.2441,266,498.5,265.9175,498.4658,266.0375,498.1013,266.4342,497.8514,266.3472,497.4012,266.7681,497.1613,266.7322,496.7322,266.6617,496.562,267.1645,496.7759,267.5011,496.5885,267.8241,496.3683,268.1525,496.161,268.5,496" style="stroke:#000000;stroke-width:0.5;"/><text fill="#000000" font-family="sans-serif" font-size="14" font-weight="bold" lengthAdjust="spacing" textLength="78" x="276" y="519.5352">Mail Poller</text><text fill="#000000" font-family="sans-serif" font-size="14" lengthAdjust="spacing" textLength="36" x="276" y="536.0234">——-</text><text fill="#000000" font-family="sans-serif" font-size="14" lengthAdjust="spacing" textLength="4" x="276" y="552.5117"> </text><text fill="#000000" font-family="sans-serif" font-size="14" lengthAdjust="spacing" textLength="56" x="276" y="569">Get mail</text><text fill="#000000" font-family="sans-serif" font-size="14" lengthAdjust="spacing" textLength="98" x="276" y="585.4883">From provider</text></g><!--entity mail_filter--><g id="elem_mail_filter"><polygon fill="#F5F5F5" points="483,508.5,483,508.7102,493,508.0857,503,508.6933,513,508.8997,523,507.7866,533,508.5,532.9901,508.4761,533.2991,508.5151,533.6582,508.6748,534.052,508.9184,534.326,508.8729,534.7678,509.2322,534.9383,509.3029,534.7201,509.5054,534.9998,509.9141,535.3401,510.348,535.3271,510.6355,535.5,511,535.5682,511,535.4681,520.5953,535.6785,530.1906,535.7391,539.7859,536.0857,549.3813,535.5,558.9766,535.7067,559.0622,535.5627,559.4168,535.2855,559.7161,535.2034,560.0964,535.1305,560.4804,534.7678,560.7443,534.6758,560.5222,534.5008,561.0997,534.0228,560.9459,533.7752,561.3481,533.2904,561.1777,533,561.4766,533,561.4081,523,562.2182,513,561.4278,503,561.5819,493,561.8152,483,561.4766,483.0531,561.6047,482.6459,561.3289,482.3295,561.2721,481.8663,560.8609,481.6221,560.9784,481.2322,560.7443,481.4011,560.8143,481.2227,560.4475,481.1281,560.1154,480.6441,559.622,480.4456,559.2469,480.5,558.9766,479.8786,558.9766,480.4411,549.3813,480.3035,539.7859,481.1814,530.1906,480.3253,520.5953,480.5,511,480.3944,510.9562,480.7167,510.6756,480.5875,510.2078,480.7795,509.8731,481.2856,509.6686,481.2322,509.2322,481.2878,509.3664,481.6795,509.312,481.8983,508.8402,482.3336,508.8912,482.7218,508.8283,483,508.5" style="stroke:#000000;stroke-width:0.5;"/><text fill="#000000" font-family="sans-serif" font-size="14" lengthAdjust="spacing" textLength="28" x="490.5" y="532.0352">Mail</text><text fill="#000000" font-family="sans-serif" font-size="14" lengthAdjust="spacing" textLength="35" x="490.5" y="548.5234">Filter</text></g><!--entity booking_logger--><g id="elem_booking_logger"><polygon fill="#F5F5F5" points="691.5,425,691.5,425.2102,701.75,424.5857,712,425.1933,722.25,425.3997,732.5,424.2866,742.75,424.9223,753,424.5735,763.25,424.6165,773.5,424.9318,783.75,424.3086,794,425.5536,804.25,424.3697,814.5,425,814.4748,424.9391,814.9087,425.2795,815.1962,425.2665,815.5694,425.4604,815.9101,425.5759,816.2678,425.7322,816.3227,425.755,816.4879,426.1163,816.741,426.5141,816.9138,426.8785,817.0627,427.2331,817,427.5,817.0849,427.5,817.1545,433.7977,817.2341,440.0953,816.7596,446.393,817.2262,452.6906,817,458.9883,816.9087,458.9505,817.0179,459.4099,816.5547,459.6322,816.5396,460.0402,816.6426,460.4971,816.2678,460.756,816.2616,460.741,815.9276,460.9349,815.6039,461.1532,815.2602,461.3236,814.8531,461.3406,814.5,461.4883,814.5,461.7755,804.25,460.9159,794,461.7727,783.75,462.0365,773.5,461.9328,763.25,462.1013,753,461.0052,742.75,460.8361,732.5,460.8669,722.25,461.4294,712,461.2918,701.75,462.1697,691.5,461.4883,691.4777,461.4345,691.1027,461.2362,690.822,461.2657,690.3543,460.8436,690.0196,460.7426,689.7322,460.756,689.9321,460.8388,689.72,460.4581,689.6655,460.1426,689.1938,459.6543,689.2447,459.3826,689,458.9883,689.1968,458.9883,688.8425,452.6906,688.968,446.393,689.042,440.0953,689.2173,433.7977,689,427.5,688.9987,427.4995,689.2889,427.2055,689.1223,426.7223,689.2308,426.3529,689.7409,426.15,689.7322,425.7322,689.6408,425.5114,690.1507,425.7425,690.4657,425.503,690.7587,425.2104,691.1013,425.0375,691.5,425" style="stroke:#000000;stroke-width:0.5;"/><text fill="#000000" font-family="sans-serif" font-size="14" lengthAdjust="spacing" textLength="108" x="699" y="448.5352">Booking Logger</text></g><!--entity travel_updates--><g id="elem_travel_updates"><polygon fill="#F5F5F5" points="450.5,425,450.5,425.2102,460.0833,424.5857,469.6667,425.1933,479.25,425.3997,488.8333,424.2866,498.4167,424.9223,508,424.5735,517.5833,424.6165,527.1667,424.9318,536.75,424.3086,546.3333,425.5536,555.9167,424.3697,565.5,425,565.4748,424.9391,565.9087,425.2795,566.1962,425.2665,566.5694,425.4604,566.9101,425.5759,567.2678,425.7322,567.3227,425.755,567.4879,426.1163,567.741,426.5141,567.9138,426.8785,568.0627,427.2331,568,427.5,568.0849,427.5,568.1545,433.7977,568.2341,440.0953,567.7596,446.393,568.2262,452.6906,568,458.9883,567.9087,458.9505,568.0179,459.4099,567.5547,459.6322,567.5396,460.0402,567.6426,460.4971,567.2678,460.756,567.2616,460.741,566.9276,460.9349,566.6039,461.1532,566.2602,461.3236,565.8531,461.3406,565.5,461.4883,565.5,461.7755,555.9167,460.9159,546.3333,461.7727,536.75,462.0365,527.1667,461.9328,517.5833,462.1013,508,461.0052,498.4167,460.8361,488.8333,460.8669,479.25,461.4294,469.6667,461.2918,460.0833,462.1697,450.5,461.4883,450.4777,461.4345,450.1027,461.2362,449.822,461.2657,449.3543,460.8436,449.0196,460.7426,448.7322,460.756,448.9321,460.8388,448.72,460.4581,448.6655,460.1426,448.1938,459.6543,448.2447,459.3826,448,458.9883,448.1968,458.9883,447.8425,452.6906,447.968,446.393,448.042,440.0953,448.2173,433.7977,448,427.5,447.9987,427.4995,448.2889,427.2055,448.1223,426.7223,448.2308,426.3529,448.7409,426.15,448.7322,425.7322,448.6408,425.5114,449.1507,425.7425,449.4657,425.503,449.7587,425.2104,450.1013,425.0375,450.5,425" style="stroke:#000000;stroke-width:0.5;"/><text fill="#000000" font-family="sans-serif" font-size="14" lengthAdjust="spacing" textLength="100" x="458" y="448.5352">travel_updates</text></g><!--entity booking_manual--><g id="elem_booking_manual"><polygon fill="#F5F5F5" points="287.5,217,287.5,217.2102,296.875,216.5857,306.25,217.1933,315.625,217.3997,325,216.2866,334.375,216.9223,343.75,216.5735,353.125,216.6165,362.5,217,362.4913,216.979,362.7654,216.9335,363.2777,217.4634,363.4803,217.2452,363.889,217.5249,364.2678,217.7322,364.4008,217.7873,364.3878,218.0748,364.5817,218.448,364.6973,218.7888,364.9085,219.1692,365,219.5,365.2391,219.5,365.5857,229.2441,365.6711,238.9883,365.6793,248.7324,365.2546,258.4766,365.4636,268.2207,365.7022,277.9648,364.2788,287.709,365.6785,297.4531,364.7035,307.1973,365,316.9414,365.1644,317.0095,364.7011,317.2318,364.686,317.6398,364.789,318.0967,364.3992,318.3494,364.2678,318.7092,364.2812,318.7416,363.9574,318.9599,363.6138,319.1302,363.2066,319.1473,362.8902,319.3834,362.5,319.4414,362.5,318.869,353.125,319.7258,343.75,319.9896,334.375,319.8859,325,320.0544,315.625,318.9583,306.25,318.7892,296.875,318.82,287.5,319.4414,287.4925,319.4233,287.1214,319.2344,286.8798,319.3584,286.4171,318.9483,286.042,318.75,285.7322,318.7092,285.8025,318.7383,285.3804,318.2706,285.2795,317.9358,285.4927,317.7313,285.2806,317.3505,285,316.9414,285.7345,316.9414,284.6782,307.1973,285.3192,297.4531,285.5904,287.709,284.5276,277.9648,284.9041,268.2207,285.126,258.4766,285.6518,248.7324,284.9958,238.9883,285.4626,229.2441,285,219.5,284.8295,219.4294,284.9379,219.0601,285.448,218.8571,285.2186,218.3479,285.7425,218.1507,285.7322,217.7322,285.7586,217.7959,286.0516,217.5033,286.3942,217.3304,286.8514,217.4342,287.1083,217.0543,287.5,217" style="stroke:#000000;stroke-width:0.5;"/><text fill="#000000" font-family="sans-serif" font-size="14" lengthAdjust="spacing" textLength="56" x="295" y="240.5352">Booking</text><text fill="#000000" font-family="sans-serif" font-size="14" lengthAdjust="spacing" textLength="22" x="295" y="257.0234">—-</text><polygon fill="#000000" points="303.0138,269.5729,302.6474,270.0737,302.2139,270.807,301.594,271.3013,300.9426,271.5716,300.4232,271.595,299.7556,271.257,299.1257,271.0362,298.6476,270.5878,298.3968,270.0746,298.2481,269.6659,298.1024,269.132,297.8659,268.6727,298.0476,268.2242,298.2069,267.7328,298.8044,267.3443,299.2248,266.8401,299.7451,266.6727,300.3637,266.5285,301.1569,266.6142,301.5914,266.8191,302.0965,266.9119,302.7107,267.5412,302.9248,268.2055,303.0179,268.6588,302.9125,269.4057" style="stroke:#000000;stroke-width:0.0;"/><text fill="#000000" font-family="sans-serif" font-size="14" lengthAdjust="spacing" textLength="26" x="307" y="273.5117">add</text><polygon fill="#000000" points="303.0138,286.0612,302.6474,286.5619,302.2139,287.2953,301.594,287.7896,300.9426,288.0599,300.4232,288.0833,299.7556,287.7453,299.1257,287.5245,298.6476,287.0761,298.3968,286.5628,298.2481,286.1542,298.1024,285.6203,297.8659,285.161,298.0476,284.7124,298.2069,284.2211,298.8044,283.8326,299.2248,283.3284,299.7451,283.161,300.3637,283.0168,301.1569,283.1024,301.5914,283.3073,302.0965,283.4002,302.7107,284.0295,302.9248,284.6938,303.0179,285.1471,302.9125,285.894" style="stroke:#000000;stroke-width:0.0;"/><text fill="#000000" font-family="sans-serif" font-size="14" lengthAdjust="spacing" textLength="48" x="307" y="290">update</text><polygon fill="#000000" points="303.0138,302.5495,302.6474,303.0502,302.2139,303.7836,301.594,304.2779,300.9426,304.5481,300.4232,304.5716,299.7556,304.2336,299.1257,304.0128,298.6476,303.5644,298.3968,303.0511,298.2481,302.6424,298.1024,302.1086,297.8659,301.6492,298.0476,301.2007,298.2069,300.7094,298.8044,300.3208,299.2248,299.8167,299.7451,299.6492,300.3637,299.5051,301.1569,299.5907,301.5914,299.7956,302.0965,299.8885,302.7107,300.5178,302.9248,301.1821,303.0179,301.6353,302.9125,302.3823" style="stroke:#000000;stroke-width:0.0;"/><text fill="#000000" font-family="sans-serif" font-size="14" lengthAdjust="spacing" textLength="43" x="307" y="306.4883">Delete</text></g><!--entity sharer--><g id="elem_sharer"><polygon fill="#F5F5F5" points="295,146,295,146.2102,305,145.5857,315,146.1933,325,146.3997,335,145.2866,345,145.9223,355,146,354.9456,145.8687,355.3046,146.0283,355.6984,146.2719,355.9725,146.2264,356.4848,146.7563,356.7678,146.7322,356.5737,146.6518,356.8533,147.0606,357.1937,147.4944,357.1807,147.782,357.3746,148.1552,357.5,148.5,357.4894,148.5,357.5595,154.7977,357.5797,161.0953,357.6952,167.393,357.7237,173.6906,357.5,179.9883,357.7092,180.0749,357.432,180.3743,357.3499,180.7545,357.2769,181.1385,356.6921,181.3105,356.7678,181.756,356.8543,181.965,356.3764,181.8112,356.1288,182.2133,355.644,182.0429,355.3448,182.3207,355,182.4883,355,183.2299,345,182.4395,335,182.5936,325,182.8269,315,182.9045,305,182.4844,295,182.4883,295.0366,182.5767,294.5734,182.1656,294.3292,182.283,294.0093,182.2178,293.6425,182.0394,293.2322,181.756,293.421,181.8342,292.937,181.3409,292.7385,180.9657,292.6015,180.6161,292.6283,180.3343,292.5,179.9883,292.4345,179.9883,292.7271,173.6906,292.4418,167.393,292.3856,161.0953,292.5761,154.7977,292.5,148.5,292.2946,148.4149,292.4866,148.0802,292.9927,147.8757,293.0735,147.4949,293.312,147.1795,293.2322,146.7322,293.1912,146.6331,293.6265,146.6841,294.0147,146.6212,294.2326,146.1474,294.6342,146.1169,295,146" style="stroke:#000000;stroke-width:0.5;"/><text fill="#000000" font-family="sans-serif" font-size="14" lengthAdjust="spacing" textLength="45" x="302.5" y="169.5352">Sharer</text></g><!--entity help--><g id="elem_help"><polygon fill="#F5F5F5" points="485.5,354,485.5,354.2102,494.5,353.5857,503.5,354.1933,512.5,354.3997,521.5,353.2866,530.5,354,530.4901,353.9761,530.7991,354.0151,531.1582,354.1748,531.552,354.4184,531.826,354.3729,532.2678,354.7322,532.4383,354.8029,532.2201,355.0054,532.4998,355.4141,532.8401,355.848,532.8271,356.1355,533,356.5,533.0227,356.5,532.9894,362.7977,533.0595,369.0953,533.0797,375.393,533.1952,381.6906,533,387.9883,533.2067,388.0739,533.0627,388.4285,532.7855,388.7279,532.7034,389.1081,532.6305,389.4921,532.2678,389.756,532.1758,389.534,532.0008,390.1114,531.5228,389.9576,531.2752,390.3598,530.7904,390.1894,530.5,390.4883,530.5,390.4198,521.5,391.2299,512.5,390.4395,503.5,390.5936,494.5,390.8269,485.5,390.4883,485.5531,390.6165,485.1459,390.3406,484.8295,390.2838,484.3663,389.8727,484.1221,389.9901,483.7322,389.756,483.9011,389.826,483.7227,389.4592,483.6281,389.1271,483.1441,388.6338,482.9456,388.2586,483,387.9883,482.7929,387.9883,482.9804,381.6906,482.9345,375.393,483.2271,369.0953,482.9418,362.7977,483,356.5,482.8944,356.4562,483.2167,356.1756,483.0875,355.7078,483.2795,355.3731,483.7856,355.1686,483.7322,354.7322,483.7878,354.8664,484.1795,354.812,484.3983,354.3402,484.8336,354.3912,485.2218,354.3283,485.5,354" style="stroke:#000000;stroke-width:0.5;"/><text fill="#000000" font-family="sans-serif" font-size="14" lengthAdjust="spacing" textLength="30" x="493" y="377.5352">help</text></g><!--entity booking_viewer--><g id="elem_booking_viewer"><polygon fill="#F5F5F5" points="264.5,75,264.5,75.2102,274.5833,74.5857,284.6667,75.1933,294.75,75.3997,304.8333,74.2866,314.9167,74.9223,325,74.5735,335.0833,74.6165,345.1667,74.9318,355.25,74.3086,365.3333,75.5536,375.4167,74.3697,385.5,75,385.4748,74.9391,385.9087,75.2795,386.1962,75.2665,386.5694,75.4604,386.9101,75.5759,387.2678,75.7322,387.3227,75.755,387.4879,76.1163,387.741,76.5141,387.9138,76.8785,388.0627,77.2331,388,77.5,388.0849,77.5,388.1545,83.7977,388.2341,90.0953,387.7596,96.393,388.2262,102.6906,388,108.9883,387.9087,108.9505,388.0179,109.4099,387.5547,109.6322,387.5396,110.0402,387.6426,110.4971,387.2678,110.756,387.2616,110.741,386.9276,110.9349,386.6039,111.1532,386.2602,111.3236,385.8531,111.3406,385.5,111.4883,385.5,111.7755,375.4167,110.9159,365.3333,111.7727,355.25,112.0365,345.1667,111.9328,335.0833,112.1013,325,111.0052,314.9167,110.8361,304.8333,110.8669,294.75,111.4294,284.6667,111.2918,274.5833,112.1697,264.5,111.4883,264.4777,111.4345,264.1027,111.2362,263.822,111.2657,263.3543,110.8436,263.0196,110.7426,262.7322,110.756,262.9321,110.8388,262.72,110.4581,262.6655,110.1426,262.1938,109.6543,262.2447,109.3826,262,108.9883,262.1968,108.9883,261.8425,102.6906,261.968,96.393,262.042,90.0953,262.2173,83.7977,262,77.5,261.9987,77.4995,262.2889,77.2055,262.1223,76.7223,262.2308,76.3529,262.7409,76.15,262.7322,75.7322,262.6408,75.5114,263.1507,75.7425,263.4657,75.503,263.7587,75.2104,264.1013,75.0375,264.5,75" style="stroke:#000000;stroke-width:0.5;"/><text fill="#000000" font-family="sans-serif" font-size="14" lengthAdjust="spacing" textLength="106" x="272" y="98.5352">Booking Viewer</text></g><!--entity booking_keeping--><g id="elem_booking_keeping"><polygon fill="#F5F5F5" points="879.5,213,879.5,213.2102,889.8077,212.5857,900.1154,213.1933,910.4231,213.3997,920.7308,212.2866,931.0385,212.9223,941.3462,212.5735,951.6538,212.6165,961.9615,212.9318,972.2692,212.3086,982.5769,213.5536,992.8846,212.3697,1003.1923,212.8022,1013.5,213,1013.5551,213.133,1013.8426,213.12,1014.2158,213.3139,1014.5566,213.4295,1014.937,213.6408,1015.2678,213.7322,1015.3414,213.7627,1015.5946,214.1605,1015.7673,214.5249,1015.9163,214.8795,1015.932,215.1789,1016,215.5,1016.1545,215.5,1016.2341,221.7977,1015.7596,228.0953,1016.2262,234.393,1015.9012,240.6906,1016,246.9883,1016.1644,247.0564,1015.7011,247.2787,1015.686,247.6867,1015.789,248.1435,1015.3992,248.3963,1015.2678,248.756,1015.2812,248.7885,1014.9574,249.0068,1014.6138,249.1771,1014.2066,249.1942,1013.8902,249.4303,1013.5,249.4883,1013.5,248.9159,1003.1923,249.7727,992.8846,250.0365,982.5769,249.9328,972.2692,250.1013,961.9615,249.0052,951.6538,248.8361,941.3462,248.8669,931.0385,249.4294,920.7308,249.2918,910.4231,250.1697,900.1154,249.3136,889.8077,249.1452,879.5,249.4883,879.5291,249.5586,879.0614,249.1365,878.7267,249.0355,878.5221,249.2488,878.1414,249.0367,877.7322,248.756,877.9584,248.8497,877.4867,248.3614,877.5376,248.0897,877.4747,247.7707,877.001,247.2816,877,246.9883,876.968,246.9883,877.042,240.6906,877.2173,234.393,876.9986,228.0953,877.1542,221.7977,877,215.5,876.8295,215.4294,876.9379,215.0601,877.448,214.8571,877.2186,214.3479,877.7425,214.1507,877.7322,213.7322,877.7586,213.7959,878.0516,213.5033,878.3942,213.3304,878.8514,213.4342,879.1083,213.0543,879.5,213" style="stroke:#000000;stroke-width:0.5;"/><text fill="#000000" font-family="sans-serif" font-size="14" lengthAdjust="spacing" textLength="119" x="887" y="236.5352">booking_keeping</text></g><!--entity data_reporter--><g id="elem_data_reporter"><polygon fill="#F5F5F5" points="453,7,453,7.2102,463,6.5857,473,7.1933,483,7.3997,493,6.2866,503,6.9223,513,6.5735,523,6.6165,533,6.9318,543,6.3086,553,7.5536,563,7,562.9196,6.8059,563.3283,7.0855,563.7622,7.4259,564.0497,7.4129,564.4229,7.6068,564.7678,7.7322,564.7579,7.7282,564.9692,8.1086,565.1343,8.4698,565.3875,8.8676,565.5602,9.232,565.5,9.5,565.7264,9.5,565.5849,15.7977,565.6545,22.0953,565.7341,28.393,565.2596,34.6906,565.5,40.9883,565.709,41.0748,565.2622,41.304,565.3715,41.7635,564.9082,41.9858,564.8931,42.3938,564.7678,42.756,564.8624,42.9844,564.408,42.8875,564.0741,43.0814,563.7503,43.2997,563.4066,43.47,563,43.4883,563,43.4844,553,43.7755,543,42.9159,533,43.7727,523,44.0365,513,43.9328,503,44.1013,493,43.0052,483,42.8361,473,42.8669,463,43.4294,453,43.4883,452.9749,43.4278,452.7334,43.5517,452.2706,43.1416,451.8956,42.9433,451.6149,42.9728,451.2322,42.756,451.0269,42.671,450.9259,42.3363,451.1392,42.1317,450.9271,41.751,450.8726,41.4355,450.5,40.9883,450.3927,40.9883,450.6064,34.6906,450.6968,28.393,450.3425,22.0953,450.468,15.7977,450.5,9.5,450.5388,9.5161,450.8472,9.2296,450.7916,8.7924,451.0818,8.4983,450.9152,8.0151,451.2322,7.7322,451.1458,7.5237,451.65,7.7409,451.8479,7.2186,452.3578,7.4496,452.6728,7.2101,453,7" style="stroke:#000000;stroke-width:0.5;"/><text fill="#000000" font-family="sans-serif" font-size="14" lengthAdjust="spacing" textLength="95" x="460.5" y="30.5352">Data Reporter</text></g><!--link user to system--><!--link supplier to user--><!--link email_prvider to supplier--><!--link booking_viewer to sharer--><!--link sharer to booking_manual--><!--link booking_manual to help--><!--link user to sharer--><g id="link_user_sharer"><path d="M107.78,257.47 L107.8902,257.7277 L117.0995,252.8837 L126.9547,249.5503 L136.5995,245.725 L145.5527,240.2821 L155.4226,236.9831 L165,233 L164.7744,232.478 L174.515,228.3298 L184.3997,224.5148 L193.7878,219.5512 L204.1643,216.874 L213.2558,211.2242 L223.2025,207.5526 L233.025,203.5938 L233.2546,204.1219 L242.8169,199.2116 L252.7363,195.1226 L262.5205,190.7228 L272.4699,186.7029 L282.3396,182.4997 L292.05,177.93 " fill="none" style="stroke:#000000;stroke-width:1.0;"/></g><!--link user to booking_viewer--><g id="link_user_booking_viewer"><path d="M107.86,260.72 L107.8919,260.8078 L110.5385,259.5516 L113.3719,258.8101 L116.1446,257.9009 L118.717,256.4406 L121.5666,255.7433 L121.5531,255.7115 L124.4471,254.3134 L127.4093,253.0756 L130.4188,251.9492 L133.2652,250.4388 L136.34,249.4663 L136.4521,249.6853 L139.1761,247.7008 L142.2273,246.3559 L145.3185,245.0891 L148.1774,243.3682 L151.1584,241.8861 L151.1748,241.9116 L153.9191,240.0969 L156.7379,238.3984 L159.5208,236.6439 L162.3723,234.9963 L165,233 L165.1959,233.2249 L167.5287,231.1977 L169.7352,229.0254 L172.1266,227.0655 L174.5267,225.1155 L176.6522,222.8502 L176.4011,222.6509 L178.398,221.1353 L179.5681,218.9637 L181.3667,217.2908 L182.5181,215.1043 L184.2,213.3388 L184.1749,213.3216 L185.8618,211.4884 L186.9612,209.2542 L188.4073,207.2567 L189.8826,205.279 L191.1478,203.158 L191.2915,203.2744 L193.1169,200.7253 L195.1879,198.3751 L196.8615,195.703 L199.1278,193.5112 L201,191 L201.1811,191.163 L202.9222,189.1589 L204.7531,187.2357 L206.1662,184.9366 L207.8856,182.913 L209.8764,181.1336 L209.668,180.9524 L211.3351,179.4163 L212.7674,177.6761 L214.5402,176.232 L215.7316,174.2823 L217.2686,172.6331 L217.1537,172.5329 L219.8621,169.8147 L222.0793,166.668 L224.6458,163.8261 L227.5541,161.2822 L229.8538,158.2075 L229.9913,158.3438 L232.7673,155.7314 L235.1155,152.6951 L237.9995,150.1897 L240.7668,147.5687 L243.262,144.6781 L243.1236,144.5202 L244.9182,143.1701 L246.6674,141.7682 L248.5056,140.4679 L249.9977,138.7726 L251.6831,137.298 L251.812,137.4582 L253.5923,135.4466 L255.6212,133.7442 L258.0135,132.4936 L259.7369,130.4113 L262,129 L262.131,129.1844 L264.6442,127.2354 L267.1131,125.2239 L269.682,123.3533 L272.482,121.8083 L274.955,119.8025 L274.8851,119.6893 L277.8042,118.3518 L280.2479,116.2445 L283.2322,115.0125 L285.9121,113.2876 L288.51,111.43 " fill="none" style="stroke:#000000;stroke-width:1.0;"/></g><!--link user to booking_manual--><g id="link_user_booking_manual"><path d="M107.88,268 L107.88,268.2802 L117.6961,267.4476 L127.5122,268.2577 L137.3283,268.5329 L147.1444,267.0488 L156.9606,267.8964 L166.7767,267.4313 L176.5928,267.4887 L186.4089,267.9091 L196.225,267.0782 L206.0411,268.7382 L215.8572,267.1596 L225.6733,267.7363 L235.4894,268.5759 L245.3056,267.8856 L255.1217,268.091 L264.9378,267.9574 L274.7539,268.238 L284.57,268 " fill="none" style="stroke:#000000;stroke-width:1.0;"/></g><!--link user to help--><g id="link_user_help"><path d="M107.77,278.35 L107.8054,278.4364 L115.1776,281.2452 L122.7576,284.5605 L130.2699,287.711 L137.5597,290.3188 L145.1575,293.6777 L145.1446,293.6456 L149.4276,295.2469 L153.7755,297.0097 L158.1685,298.8848 L162.4059,300.3729 L166.8613,302.403 L166.9516,302.6319 L171.2108,303.8981 L175.7336,305.8325 L180.2885,307.8486 L184.6563,309.3901 L189.1225,311.1813 L189.1334,311.2096 L193.4637,312.836 L197.8435,314.5913 L202.1995,316.2844 L206.601,318.0962 L210.854,319.5212 L210.9571,319.801 L214.9813,321.2866 L218.939,322.5916 L222.9941,324.1608 L227.0537,325.7425 L230.9688,326.9317 L230.8645,326.6286 L234.5491,328.4149 L237.8903,329.2031 L241.4925,330.7501 L244.826,331.5157 L248.3798,332.9217 L248.371,332.8925 L251.1984,334.0531 L253.8216,334.5323 L256.5653,335.4135 L259.3191,336.3285 L262,337 L262.0446,337.1795 L265.0082,337.746 L268.048,338.6193 L270.9645,338.9962 L274.0649,340.1134 L277.0431,340.7384 L277.0969,340.9761 L280.1581,341.6273 L283.246,342.3964 L286.2097,342.6174 L289.2644,343.2403 L292.3998,344.2191 L292.3437,343.9487 L295.508,344.8396 L298.6091,345.4259 L301.8019,346.4541 L304.8381,346.7277 L307.9673,347.4499 L307.9388,347.3001 L311.1214,348.1474 L314.1819,348.3544 L317.3292,349.0167 L320.5615,350.1244 L323.6425,350.4389 L323.676,350.6296 L326.835,351.3115 L329.8897,351.4001 L333.075,352.2317 L336.2318,352.9015 L339.3224,353.1941 L339.2887,352.9868 L342.4318,353.6579 L345.564,354.261 L348.7177,354.9976 L351.7873,355.2156 L354.9039,355.7233 L354.9345,355.9266 L357.9434,355.9422 L361.0113,356.3502 L364.1653,357.3315 L367.1607,357.2574 L370.2841,358.0347 L370.3154,358.2588 L373.312,358.546 L376.298,358.7574 L379.3079,359.1399 L382.373,359.9179 L385.36,360.1362 L385.3435,360.0042 L391.158,361.1183 L396.8602,361.3346 L402.6901,362.5717 L408.4481,363.234 L414.1867,363.7415 L414.1985,363.8497 L419.4636,364.3347 L424.7709,365.2071 L430.0401,365.7295 L435.2935,366.1055 L440.56,366.603 L440.5712,366.7216 L445.1737,366.9816 L449.8283,367.7926 L454.4239,367.9804 L459.0438,368.4246 L463.6558,368.7845 L463.6336,368.515 L467.4398,368.9181 L471.2728,369.6458 L475.068,369.9142 L478.8496,370.0179 L482.65,370.35 " fill="none" style="stroke:#000000;stroke-width:1.0;"/></g><!--reverse link supplier to travel_updates--><g id="link_supplier_travel_updates"><path d="M126.89,349.76 L126.9568,350.0322 L136.479,351.608 L146.3926,354.7794 L156.1788,357.4312 L165.5458,358.3744 L175.4683,361.5821 L185.0782,363.515 L194.8124,365.9552 L204.6332,368.7481 L214.1558,370.3256 L224.2719,374.3224 L233.6165,375.1738 L243.4745,378.1184 L253.3951,381.3184 L262.9512,383.0326 L272.7208,385.6165 L282.4095,387.8714 L292.197,390.5285 L301.9369,392.9915 L311.7676,395.8248 L321.5153,398.3199 L331.2385,400.7151 L340.8242,402.5497 L350.6112,405.2049 L360.4076,407.8984 L369.6761,408.4397 L379.8413,412.6368 L389.2522,413.7588 L399.2365,417.2185 L408.6303,418.2708 L418.4864,421.2077 L428.4644,424.6412 L437.9339,426.0023 L447.67,428.45 " fill="none" style="stroke:#181818;stroke-width:1.0;stroke-dasharray:7.0,7.0;"/><polygon fill="#181818" points="122.1,348.59,122.1428,348.6454,123.5745,349.6848,125.2572,351.0491,126.8582,352.3076,128.1904,353.218,129.8946,354.6103,129.8725,354.5968,129.1857,353.5696,128.6105,352.6101,128.1129,351.6978,127.3479,350.623,126.9574,349.7758,127.0532,349.9335,127.8152,349.0088,128.8569,348.5445,129.9328,348.1365,130.8101,347.4015,131.7919,346.8385,131.7959,346.8609,129.8516,347.1783,127.9257,347.5977,125.9909,347.9678,124.0731,348.4318,122.1,348.59" style="stroke:#181818;stroke-width:1.0;"/></g><!--reverse link email_prvider to mail_poller--><g id="link_email_prvider_mail_poller"><path d="M121.07,431.64 L121.2085,431.8836 L129.3058,435.9968 L138.215,441.5382 L146.8598,446.6145 L154.6352,450.1613 L163.5629,455.7352 L171.8419,460.168 L180.3791,465.0549 L189.0957,470.2575 L197.1938,474.3721 L206.5231,480.6523 L214.2517,484.1171 L223.0456,489.4555 L231.9693,495.0224 L240.137,499.2594 L248.7473,504.275 L257.1901,508.9959 L265.72,513.87 " fill="none" style="stroke:#181818;stroke-width:1.0;"/><polygon fill="#181818" points="116.82,429.22,116.8763,429.2616,117.8799,430.7218,119.2138,432.4262,120.4401,434.051,121.3127,435.4143,122.6749,437.1396,122.6499,437.1327,122.2367,436.0112,121.9493,434.9245,121.7495,433.8619,121.2481,432.7161,121.1691,431.6869,121.2182,431.8648,122.2037,431.1832,123.3326,431.021,124.4791,430.9222,125.5237,430.4547,126.6219,430.1811,126.6241,430.2037,124.6604,429.9783,122.7069,429.8559,120.7485,429.6838,118.7994,429.6065,116.82,429.22" style="stroke:#181818;stroke-width:1.0;"/></g><!--link system to data_reporter--><g id="link_system_data_reporter"><path d="M99.74,178.84 L99.8065,178.9056 L102.1365,176.1453 L104.8566,173.7693 L107.4496,171.2682 L109.6249,168.3555 L112.3784,166.0126 L112.3543,165.9879 L113.7335,164.4239 L115.2344,162.9846 L116.8199,161.6318 L118.1138,159.9806 L119.8161,158.7473 L119.9855,158.9258 L121.2476,157.0024 L123.0043,155.6002 L124.8214,154.2615 L126.2873,152.5529 L127.938,151.0389 L127.9585,151.0612 L129.6804,149.4169 L131.4957,147.8741 L133.2659,146.2823 L135.1222,144.7841 L136.698,142.9809 L136.8962,143.2038 L138.769,141.5437 L140.514,139.7398 L142.4462,138.1464 L144.387,136.5628 L146.0501,134.6667 L145.8416,134.4232 L148.2259,133.2004 L149.9236,131.1759 L152.1433,129.7608 L153.8255,127.7181 L155.9482,126.1898 L155.9289,126.1663 L158.2371,124.7352 L160.0937,122.7547 L162.2167,121.0983 L164.3622,119.4692 L166.3463,117.6438 L166.4605,117.7892 L168.5156,115.938 L170.7659,114.3354 L172.7003,112.3306 L175.1058,110.9257 L177.1982,109.1219 L177.3439,109.3172 L179.5683,107.5994 L181.865,105.9786 L183.8256,103.9074 L186.0326,102.1664 L188.4579,100.7178 L188.2987,100.4921 L190.7671,99.0579 L193.0561,97.3693 L195.6052,96.0496 L197.7103,94.1001 L200.0793,92.5249 L199.9953,92.3977 L202.5227,91.0319 L204.6908,89.1224 L207.1144,87.5995 L209.788,86.455 L212.0164,84.6367 L212.1177,84.8018 L214.6285,83.4169 L216.8243,81.5188 L219.4146,80.2636 L221.919,78.8683 L224.2231,77.1466 L224.1201,76.9637 L226.6882,75.7098 L229.2226,74.3961 L231.8233,73.2 L234.1663,71.5463 L236.6533,70.1482 L236.7465,70.3314 L239.0632,68.6461 L241.5599,67.3145 L244.3194,66.4997 L246.595,64.7335 L249.261,63.7348 L249.3538,63.9411 L251.8465,62.6716 L254.3077,61.3323 L256.8398,60.1506 L259.5359,59.3329 L262,58 L261.9512,57.8762 L264.4123,57.331 L266.5413,55.9441 L269.0479,55.5141 L271.3419,54.5454 L273.5786,53.4315 L273.6145,53.5343 L275.9611,52.6216 L278.4362,52.0769 L280.7951,51.1998 L283.1056,50.1836 L285.4563,49.2829 L285.4915,49.3968 L287.8627,48.4779 L290.3975,48.0878 L292.7473,47.0998 L295.1732,46.3576 L297.574,45.5347 L297.5026,45.274 L299.9862,44.6876 L302.5558,44.4154 L305.0037,43.6986 L307.408,42.8225 L309.8728,42.1675 L309.8391,42.0283 L312.3341,41.4718 L314.7694,40.6688 L317.3686,40.5432 L319.8867,40.0823 L322.2936,39.1617 L322.3424,39.3905 L324.8548,38.9309 L327.2744,38.0367 L329.7919,37.6012 L332.2446,36.862 L334.7773,36.4977 L334.8006,36.6218 L337.295,36.1372 L339.8176,35.8024 L342.2511,34.9925 L344.7564,34.5658 L347.265,34.1562 L347.2968,34.3507 L349.7923,33.9973 L352.2011,33.1159 L354.7105,32.8479 L357.2217,32.5907 L359.6975,32.1175 L359.6592,31.8487 L362.1833,31.9219 L364.641,31.5289 L367.0822,31.02 L369.5611,30.7758 L372.0159,30.3622 L372.0554,30.6836 L374.428,29.9259 L376.8911,29.9045 L379.3185,29.5933 L381.7384,29.2201 L384.1611,28.8707 L384.1677,28.933 L386.549,28.6714 L388.8975,28.096 L391.2904,27.9452 L393.6702,27.669 L396.0742,27.6236 L396.0766,27.6518 L398.4019,27.4581 L400.7292,27.2862 L403.0359,26.8814 L405.369,26.7758 L407.6959,26.6013 L407.6921,26.548 L409.9688,26.6936 L412.2182,26.4635 L414.4432,25.8958 L416.7108,25.9153 L418.9674,25.7842 L418.9526,25.5281 L421.1473,25.786 L423.328,25.8018 L425.4988,25.6471 L427.646,25.086 L429.8296,25.153 L429.8376,25.3591 L433.869,24.6665 L437.9372,24.9287 L441.9807,24.5503 L446.0396,24.5696 L450.09,24.37 " fill="none" style="stroke:#181818;stroke-width:1.0;stroke-dasharray:7.0,7.0;"/></g><!--reverse link booking_viewer to data_reporter--><g id="link_booking_viewer_data_reporter"><path d="M380.81,72.41 L380.9086,72.6723 L390.262,68.2691 L400.1931,65.4038 L409.9362,62.0376 L419.0605,57.0246 L429.0048,54.1943 L438.4875,50.1352 L448.1539,46.5651 L457.98,43.42 " fill="none" style="stroke:#181818;stroke-width:1.0;stroke-dasharray:7.0,7.0;"/><polygon fill="#181818" points="376.4,74.07,376.4042,74.1399,378.3581,74.0492,380.3364,74.3684,382.3068,74.5541,384.251,74.3008,386.2315,74.6552,386.2207,74.6316,385.1427,74.0576,384.1186,73.6025,383.1322,73.23,382.0162,72.5727,381.0816,72.3144,381.2497,72.3907,381.3585,71.1975,381.958,70.2272,382.6172,69.2841,382.9283,68.1827,383.4225,67.1646,383.4384,67.1808,382.0105,68.5381,380.6552,69.9692,379.2649,71.3647,377.9414,72.8281,376.4,74.07" style="stroke:#181818;stroke-width:1.0;"/></g><!--link help to travel_updates--><g id="link_help_travel_updates"><path d="M508,390.11 L508.0934,390.11 L507.8159,397.028 L508.0859,403.946 L508.1776,410.864 L507.6829,417.782 L508,424.7 " fill="none" style="stroke:#181818;stroke-width:1.0;stroke-dasharray:7.0,7.0;"/></g><!--link booking_viewer to booking_keeping--><g id="link_booking_viewer_booking_keeping"><path d="M388.41,100.85 L388.4228,100.9425 L396.2258,101.7554 L404.104,103.1106 L411.9577,104.2892 L419.7309,104.8869 L427.6156,106.2888 L427.6004,106.1863 L436.7607,107.0949 L445.9976,108.5202 L455.2879,110.3047 L464.3945,110.8514 L473.7583,113.1319 L473.7963,113.375 L478.7611,113.644 L483.8368,114.6228 L488.9261,115.6882 L493.9366,116.2497 L498.9886,117.0763 L498.9934,117.1062 L504.273,117.9204 L509.5747,118.871 L514.8658,119.7557 L520.1772,120.7659 L525.4222,121.3672 L525.4718,121.6613 L530.9644,122.5921 L536.425,123.3331 L541.9324,124.3519 L547.442,125.3837 L552.8821,126.0031 L552.8265,125.6874 L558.5961,127.296 L564.1829,127.8651 L569.9087,129.2244 L575.4913,129.7699 L581.1913,130.9825 L581.1858,130.9526 L587.0471,132.371 L592.7799,133.0897 L598.5886,134.2213 L604.4036,135.3876 L610.1727,136.3038 L610.2076,136.4855 L616.0678,137.4345 L621.9875,138.6939 L627.8108,139.4511 L633.778,140.9574 L639.6496,141.9656 L639.6977,142.2045 L645.6476,143.3594 L651.6214,144.633 L657.4842,145.3556 L663.4284,146.482 L669.4447,147.9663 L669.3875,147.6961 L675.4265,149.2083 L681.4011,150.4161 L687.4693,152.0654 L693.3777,152.9608 L699.3811,154.3044 L699.3479,154.1556 L705.3833,155.7382 L711.2768,156.6847 L717.2713,158.0835 L723.3645,159.925 L729.2818,160.9783 L729.3263,161.1668 L735.2945,162.6977 L741.1242,163.6424 L747.1273,165.3213 L753.0926,166.8403 L758.9699,167.9866 L758.9189,167.7829 L764.8192,169.4135 L770.7029,170.9773 L776.6193,172.6722 L782.4082,173.8576 L788.2683,175.3276 L788.3213,175.5263 L793.9511,176.6243 L799.6833,178.1058 L805.5651,180.1473 L811.1715,181.1577 L817,183 L817.0627,183.2173 L819.2157,183.7205 L821.3475,184.1502 L823.5272,184.7458 L825.8176,185.7251 L827.9513,186.1615 L827.9118,186.0345 L830.2471,187.1023 L832.3138,187.3061 L834.6859,188.4924 L836.886,189.1255 L839.0398,189.6095 L839.074,189.7129 L841.269,190.3632 L843.5862,191.3836 L845.7929,192.0696 L847.9536,192.6158 L850.1525,193.2781 L850.1916,193.3907 L852.3383,193.988 L854.6663,195.1082 L856.7893,195.637 L858.9966,196.4091 L861.1763,197.1013 L861.0829,196.8475 L865.3797,198.5014 L869.789,200.4611 L874.0392,201.9882 L878.2323,203.3602 L882.5045,204.9473 L882.4524,204.814 L886.3922,206.3913 L890.2396,207.7324 L894.341,209.7226 L898.3166,211.3916 L902.12,212.62 " fill="none" style="stroke:#181818;stroke-width:1.0;stroke-dasharray:7.0,7.0;"/></g><!--link booking_manual to booking_keeping--><g id="link_booking_manual_booking_keeping"><path d="M365.22,265.66 L365.2367,265.9397 L375.091,264.517 L385.0432,264.7341 L394.9635,264.4173 L404.779,262.3442 L414.7334,262.5987 L424.6096,261.5429 L434.517,261.0086 L444.446,260.8367 L454.3003,259.4157 L464.3032,260.4812 L474.113,258.3139 L484.0513,258.298 L494.0053,258.5445 L503.8681,257.2639 L513.7842,256.8773 L523.6802,256.1524 L533.6009,255.8409 L543.5096,255.33 L553.4411,255.1997 L563.3518,254.7218 L573.2564,254.1411 L583.1265,252.9844 L593.0471,252.6709 L602.9699,252.397 L612.7607,249.9109 L622.7759,251.1823 L632.6023,249.293 L642.5722,249.8066 L652.3944,247.8457 L662.3322,247.8218 L672.3005,248.3084 L682.1416,246.6649 L692.0578,246.2784 L701.9803,245.9974 L711.8903,245.5091 L721.7609,244.3583 L731.6879,244.1542 L741.5235,242.4185 L751.4955,242.9673 L761.4204,242.7269 L771.3161,241.9973 L781.2334,241.63 L791.0502,239.5796 L800.9407,238.7629 L810.8471,238.2124 L820.7957,238.3695 L830.6887,237.5947 L840.6624,238.1716 L850.4983,236.4406 L860.3888,235.625 L870.32,235.49 " fill="none" style="stroke:#181818;stroke-width:1.0;stroke-dasharray:7.0,7.0;"/><polygon fill="#181818" points="875.02,235.21,875.0446,235.2756,873.1268,234.3902,871.353,233.8895,869.5323,233.2634,867.5574,232.2255,865.796,231.7578,865.7788,231.7384,866.5483,232.4019,867.4044,233.1631,868.3207,233.9923,869.0295,234.5874,870.029,235.5103,870.1671,235.6327,869.1213,236.2176,868.4787,237.1598,867.8853,238.1456,867.0056,238.8778,866.2765,239.7433,866.287,239.7635,868.0203,238.8272,869.8013,237.9828,871.5593,237.0941,873.3612,236.29,875.02,235.21" style="stroke:#181818;stroke-width:1.0;"/></g><!--link sharer to booking_keeping--><g id="link_sharer_booking_keeping"><path d="M357.89,167.26 L357.9187,167.5388 L367.883,167.7466 L378.0157,169.5887 L388.0935,170.8986 L397.991,170.4584 L408.1275,172.3377 L418.1295,172.9113 L428.185,174.0044 L438.287,175.5492 L438.2776,175.4588 L448.5155,175.7107 L459.0122,178.4401 L469.1725,177.9485 L479.5566,179.6004 L489.9681,181.5139 L500.2206,181.9057 L510.5662,183.1883 L520.8766,184.1338 L531.23,185.4913 L541.5626,186.65 L551.8538,187.4113 L551.9363,188.1878 L562.0532,189.3757 L572.1591,190.4613 L582.204,190.973 L592.3383,192.3248 L602.4768,193.7159 L612.3808,192.9034 L622.683,195.8339 L632.6503,195.6159 L642.8722,197.7915 L652.8319,197.5022 L662.9968,199.1424 L673.2159,201.2912 L683.2161,201.3827 L683.209,201.3181 L693.5224,202.6466 L703.8473,204.0803 L714.1496,205.3076 L724.3798,205.8751 L734.713,207.3854 L744.8796,207.3704 L755.2948,209.6305 L765.624,211.1045 L775.9001,212.0916 L786.2156,213.4393 L796.3479,213.1109 L806.6145,214.0112 L817,216 L816.9058,215.1768 L826.9627,217.0637 L836.9135,218.023 L847.0183,220.3277 L856.8602,220.3353 L866.8063,221.2539 L876.83,222.85 " fill="none" style="stroke:#181818;stroke-width:1.0;stroke-dasharray:7.0,7.0;"/></g><!--reverse link mail_poller to mail_filter--><g id="link_mail_poller_mail_filter"><path d="M390.38,542.73 L390.3985,543.0096 L400.3246,541.5177 L410.3593,541.6649 L420.3586,541.2784 L430.2416,539.1364 L440.2787,539.3211 L450.2291,538.1959 L460.214,537.592 L470.2229,537.3504 L480.21,536.78 " fill="none" style="stroke:#181818;stroke-width:1.0;"/><polygon fill="#181818" points="385.78,543.04,385.8042,543.1058,387.581,543.5903,389.4997,544.4603,391.3721,545.2047,393.0928,545.5364,395.0236,546.4395,395.0065,546.42,394.079,545.5869,393.2376,544.852,392.456,544.1854,391.4682,543.2835,390.7692,542.7112,390.908,542.8328,391.3568,541.7219,392.2109,540.966,393.1144,540.2535,393.7303,539.2889,394.4975,538.4568,394.5081,538.477,392.749,539.364,391.0382,540.3428,389.3041,541.2773,387.6143,542.2962,385.78,543.04" style="stroke:#181818;stroke-width:1.0;"/></g><!--link booking_logger to booking_keeping--><g id="link_booking_logger_booking_keeping"><path d="M770.66,424.56 L770.868,424.7479 L776.9514,416.771 L784.2539,409.8954 L791.1594,402.6611 L796.7594,394.2476 L804.0896,387.3971 L810.4458,379.6666 L817.1897,372.2864 L824.203,365.1495 L830.2877,357.1738 L838.2208,350.8679 L843.7507,342.391 L850.88,335.3589 L858.2043,328.503 L864.3934,320.6216 L871.2471,313.3406 L877.8493,305.8323 L884.7588,298.6017 L891.5201,291.2372 L898.5643,284.1282 L905.3501,276.7858 L912.0595,269.3745 L918.3406,261.5763 L924.79,253.93 " fill="none" style="stroke:#181818;stroke-width:1.0;stroke-dasharray:7.0,7.0;"/><polygon fill="#181818" points="928,250.37,928.0284,250.434,926.1435,251.0427,924.4252,252.0268,922.6526,252.8886,920.7017,253.3484,918.9976,254.3647,918.9963,254.3388,920.1204,254.1657,921.2511,254.1229,922.3863,254.1708,923.5057,253.9063,924.6473,254.0794,924.8316,254.0887,924.4945,255.1987,924.6956,256.3359,924.9623,257.4764,924.847,258.5976,924.9326,259.729,924.9543,259.7361,925.536,257.8539,926.2161,256.0039,926.8488,254.1384,927.572,252.3026,928,250.37" style="stroke:#181818;stroke-width:1.0;"/></g><!--link mail_filter to booking_logger--><g id="link_mail_filter_booking_logger"><path d="M535.93,524.8 L536.0292,525.0621 L545.0483,520.7572 L554.649,517.9888 L564.0603,514.7201 L572.8488,509.806 L582.4628,507.0725 L591.612,503.1115 L600.9462,499.639 L610.4089,496.5061 L619.4286,492.2029 L629.3303,490.2293 L638.0852,485.2268 L647.6033,482.2401 L657.2145,479.4992 L666.284,475.3275 L675.6705,471.9934 L684.9371,468.3424 L694.3504,465.0787 L703.58,461.33 " fill="none" style="stroke:#181818;stroke-width:1.0;stroke-dasharray:7.0,7.0;"/></g><!--link travel_updates to booking_logger--><g id="link_travel_updates_booking_logger"><path d="M568.44,443 L568.44,443.2802 L578.8309,442.4476 L589.2218,443.2577 L599.6127,443.5329 L610.0036,442.0488 L620.3945,442.8964 L630.7855,442.4313 L641.1764,442.4887 L651.5673,442.9091 L661.9582,442.0782 L672.3491,443.7382 L682.74,443 " fill="none" style="stroke:#181818;stroke-width:1.0;stroke-dasharray:7.0,7.0;"/><polygon fill="#181818" points="687.41,443,687.4385,443.064,685.5539,442.0738,683.8362,441.4589,682.0641,440.7217,680.1134,439.5827,678.41,439,678.3917,438.9817,679.1095,439.6995,679.9196,440.5096,680.7939,441.3839,681.447,442.037,682.41,443,682.5405,443.1305,681.4614,443.6514,680.7634,444.5534,680.1118,445.5018,679.1898,446.1798,678.41,447,678.4192,447.0208,680.2057,446.1903,682.0342,445.4544,683.8424,444.6728,685.6893,443.9784,687.41,443" style="stroke:#181818;stroke-width:1.0;"/></g><!--SRC=[bLNRQXin47sVhnZ8muB1IvlWD0_1KCTnNr8e2MqVZ36AT-8LragBLdOmeT2Fw1VsIwhBsjwBqgR2UDSpPyxC78taQiDboJGhC6SoUzRS699ez9OWvnbXPKYJClkI00Gz6JGADL_d1ZEkQMMuaW19TMGHN993ez8cLm0dZqCpkHRq0cZNXAqsQwssChjHGcdyddD33uNQa7S_AfsH3gv7OR7UUcVPlUtwcgsCqkCndbrTJaQNasvG7D19sW1DBs-lfgDNapJSzo5SIse0teyWMe6LnuLVp3wC9g64cPBcR_vOYJLgDhiTtTn04giYG2xUGPoaCdorsNkIY-dvUKIk8w9M-mS07BSCFxe-Atm9z2TxjRS3KY2Ub9Xxn8Et-zT59sHRaUxXlrfZ55rjorBmPaITeBP7WwXWN2nBlRCJtCzrwxpuHIllhWbikmcMgk9EIVG15IJWY-skT6wFHaPoWT5rqCGlE3Rm7mojhD3kveqrDBE2wutLP_MaKg1LGbZO70Q3pruM_timWDy_VzdF4E0J6Gz5c6bLO7dGRT7ZUkB2U2x713F_gmrxLChU1-kbKEkrHqw20U-yeGqsckr8BBTbnWnLCPg2oIqJ9nhm5G-GPPdz3e7sPKg2x4kBlCgPTlBCuS6_jRqvYH9Z6NUSdaFOeV9ltX9lSqDKEapJPsjYIqsblHy3qTGQyBusE9vkhd-FJMW63ZtXcoUsBIHqT8qHf1q6fvGRBtjfRYeCvsKuF_ENo68uF9JMixURVDrVLzRpXxodqtMTfcblOZhtmD36DORUHeUJchhOrhxOZcnFAoMb-ulRcJroQSq5PToDL6-7R7OdHfiZ0Jz6BHd3erDdZouDT9qnwc-FnOqZkDuSlCANGFCAyCjgv1wDutoQn_hGEhfndAuchE-1MEh00Mq1-ftKiEGF]--></g></svg>